<svg xmlns="http://www.w3.org/2000/svg" viewBox="0 0 1920 1080"><g transform="
          rotate(1 960 540) 
          translate(-29.639227669766115 -16.67206556424344)
          scale(1.0308741954893397)
        "><rect width="1920" height="1080" fill="rgb(179, 171, 255)"></rect><g transform="translate(0, 0)"><path fill="rgb(182, 185, 255)" fill-opacity="1" d="M0,176.472L53.333,175.038C106.667,173.603,213.333,170.735,320,170.291C426.667,169.846,533.333,171.825,640,172.047C746.667,172.27,853.333,170.736,960,151.592C1066.667,132.447,1173.333,95.692,1280,92.587C1386.667,89.483,1493.333,120.03,1600,110.668C1706.667,101.306,1813.333,52.034,1866.667,27.399L1920,2.763L1920,1080L1866.667,1080C1813.333,1080,1706.667,1080,1600,1080C1493.333,1080,1386.667,1080,1280,1080C1173.333,1080,1066.667,1080,960,1080C853.333,1080,746.667,1080,640,1080C533.333,1080,426.667,1080,320,1080C213.333,1080,106.667,1080,53.333,1080L0,1080Z"></path></g><g transform="translate(0, 180)"><path fill="rgb(184, 198, 255)" fill-opacity="1" d="M0,133.812L53.333,122.851C106.667,111.89,213.333,89.968,320,69.678C426.667,49.387,533.333,30.728,640,40.359C746.667,49.991,853.333,87.914,960,94.752C1066.667,101.59,1173.333,77.343,1280,65.207C1386.667,53.071,1493.333,53.045,1600,70.637C1706.667,88.229,1813.333,123.439,1866.667,141.043L1920,158.648L1920,900L1866.667,900C1813.333,900,1706.667,900,1600,900C1493.333,900,1386.667,900,1280,900C1173.333,900,1066.667,900,960,900C853.333,900,746.667,900,640,900C533.333,900,426.667,900,320,900C213.333,900,106.667,900,53.333,900L0,900Z"></path></g><g transform="translate(0, 360)"><path fill="rgb(187, 212, 255)" fill-opacity="1" d="M0,166.48L53.333,143.643C106.667,120.806,213.333,75.131,320,56.312C426.667,37.492,533.333,45.526,640,63.136C746.667,80.747,853.333,107.933,960,127.165C1066.667,146.397,1173.333,157.675,1280,150.257C1386.667,142.839,1493.333,116.726,1600,90.156C1706.667,63.587,1813.333,36.561,1866.667,23.049L1920,9.536L1920,720L1866.667,720C1813.333,720,1706.667,720,1600,720C1493.333,720,1386.667,720,1280,720C1173.333,720,1066.667,720,960,720C853.333,720,746.667,720,640,720C533.333,720,426.667,720,320,720C213.333,720,106.667,720,53.333,720L0,720Z"></path></g><g transform="translate(0, 540)"><path fill="rgb(189, 225, 255)" fill-opacity="1" d="M0,1.338L53.333,19.173C106.667,37.008,213.333,72.679,320,83.891C426.667,95.103,533.333,81.857,640,68.089C746.667,54.321,853.333,40.031,960,36.128C1066.667,32.224,1173.333,38.706,1280,43.304C1386.667,47.902,1493.333,50.616,1600,66.528C1706.667,82.44,1813.333,111.551,1866.667,126.106L1920,140.661L1920,540L1866.667,540C1813.333,540,1706.667,540,1600,540C1493.333,540,1386.667,540,1280,540C1173.333,540,1066.667,540,960,540C853.333,540,746.667,540,640,540C533.333,540,426.667,540,320,540C213.333,540,106.667,540,53.333,540L0,540Z"></path></g><g transform="translate(0, 720)"><path fill="rgb(192, 239, 255)" fill-opacity="1" d="M0,172.276L53.333,173.328C106.667,174.38,213.333,176.484,320,164.312C426.667,152.14,533.333,125.691,640,104.647C746.667,83.604,853.333,67.967,960,54.318C1066.667,40.67,1173.333,29.011,1280,46.237C1386.667,63.462,1493.333,109.573,1600,136.084C1706.667,162.595,1813.333,169.506,1866.667,172.962L1920,176.418L1920,360L1866.667,360C1813.333,360,1706.667,360,1600,360C1493.333,360,1386.667,360,1280,360C1173.333,360,1066.667,360,960,360C853.333,360,746.667,360,640,360C533.333,360,426.667,360,320,360C213.333,360,106.667,360,53.333,360L0,360Z"></path></g><g transform="translate(0, 900)"><path fill="rgb(194, 252, 255)" fill-opacity="1" d="M0,177.889L53.333,167.386C106.667,156.883,213.333,135.876,320,122.758C426.667,109.641,533.333,104.412,640,93.729C746.667,83.046,853.333,66.908,960,79.655C1066.667,92.402,1173.333,134.033,1280,151.394C1386.667,168.755,1493.333,161.846,1600,159.882C1706.667,157.917,1813.333,160.898,1866.667,162.389L1920,163.879L1920,180L1866.667,180C1813.333,180,1706.667,180,1600,180C1493.333,180,1386.667,180,1280,180C1173.333,180,1066.667,180,960,180C853.333,180,746.667,180,640,180C533.333,180,426.667,180,320,180C213.333,180,106.667,180,53.333,180L0,180Z"></path></g></g></svg>