<?xml version="1.0" encoding="UTF-8"?>
<!DOCTYPE svg PUBLIC "-//W3C//DTD SVG 1.1//EN" "http://www.w3.org/Graphics/SVG/1.1/DTD/svg11.dtd">
<svg xmlns="http://www.w3.org/2000/svg" version="1.1" width="864px" height="289px" style="shape-rendering:geometricPrecision; text-rendering:geometricPrecision; image-rendering:optimizeQuality; fill-rule:evenodd; clip-rule:evenodd" xmlns:xlink="http://www.w3.org/1999/xlink">
<g><path style="opacity:1" fill="#a79969" d="M 181.5,35.5 C 179.088,35.3059 178.088,33.9726 178.5,31.5C 175.721,31.2786 173.054,31.612 170.5,32.5C 163.891,33.5484 157.558,35.2151 151.5,37.5C 146.507,37.9157 141.507,38.2491 136.5,38.5C 150.102,35.4329 163.435,32.0996 176.5,28.5C 179.387,29.935 181.054,32.2683 181.5,35.5 Z"/></g>
<g><path style="opacity:1" fill="#dcc47c" d="M 151.5,37.5 C 151.773,39.451 151.107,40.951 149.5,42C 150.056,50.1046 150.722,58.4379 151.5,67C 149.278,71.2247 145.945,72.3914 141.5,70.5C 144.167,69.8939 146.834,69.0605 149.5,68C 146.301,67.5992 143.301,66.7659 140.5,65.5C 140.808,59.5746 140.475,53.7412 139.5,48C 140.549,47.5078 141.549,47.6744 142.5,48.5C 143.386,47.675 143.719,46.675 143.5,45.5C 138.786,45.8266 134.12,45.4933 129.5,44.5C 130.798,41.7978 130.131,41.1311 127.5,42.5C 121.583,43.8111 115.583,44.4778 109.5,44.5C 118.273,42.0095 127.273,40.0095 136.5,38.5C 141.507,38.2491 146.507,37.9157 151.5,37.5 Z"/></g>
<g><path style="opacity:1" fill="#d1af68" d="M 170.5,34.5 C 172.292,35.3091 174.292,35.8091 176.5,36C 177.191,37.0674 177.691,38.2341 178,39.5C 177.049,44.7069 176.215,50.0402 175.5,55.5C 176.833,55.5 178.167,55.5 179.5,55.5C 178.742,65.4672 178.242,75.4672 178,85.5C 176.982,84.2941 176.482,84.6274 176.5,86.5C 177.658,90.0042 176.825,90.3375 174,87.5C 173.439,88.0219 172.772,88.3552 172,88.5C 170.829,87.6604 169.662,86.8271 168.5,86C 169.167,85.6667 169.833,85.3333 170.5,85C 169.001,83.2028 167.501,81.3695 166,79.5C 165.722,80.4158 165.222,81.0825 164.5,81.5C 160.153,81.058 159.82,80.2247 163.5,79C 162.513,67.9146 162.179,56.748 162.5,45.5C 164.144,45.2865 165.644,45.6198 167,46.5C 167.667,45.5 167.667,44.5 167,43.5C 163.477,41.0989 159.644,39.2656 155.5,38C 160.281,35.8958 165.281,34.7291 170.5,34.5 Z"/></g>
<g><path style="opacity:1" fill="#eadb90" d="M 127.5,42.5 C 127.33,43.8221 127.663,44.9887 128.5,46C 127.5,46.3333 126.5,46.6667 125.5,47C 126.783,50.0636 127.45,53.3969 127.5,57C 127.743,61.2419 127.076,65.2419 125.5,69C 128.137,71.4414 127.47,72.7747 123.5,73C 125.058,73.21 126.391,73.71 127.5,74.5C 121.729,73.8872 116.396,74.5539 111.5,76.5C 108.063,77.9448 104.397,78.9448 100.5,79.5C 103.061,77.2066 106.061,75.3733 109.5,74C 107.059,73.964 105.059,73.1307 103.5,71.5C 105.173,68.9989 107.007,66.6655 109,64.5C 109.667,59.1667 109.667,53.8333 109,48.5C 108.326,47.4216 107.326,46.7549 106,46.5C 101.333,48.1843 96.4996,48.851 91.5,48.5C 97.4932,46.464 103.493,45.1307 109.5,44.5C 115.583,44.4778 121.583,43.8111 127.5,42.5 Z"/></g>
<g><path style="opacity:1" fill="#e2cd81" d="M 141.5,70.5 C 140.115,71.3023 140.282,71.9689 142,72.5C 145.404,72.8723 148.237,74.2056 150.5,76.5C 142.963,74.7419 135.296,74.0753 127.5,74.5C 126.391,73.71 125.058,73.21 123.5,73C 127.47,72.7747 128.137,71.4414 125.5,69C 127.076,65.2419 127.743,61.2419 127.5,57C 127.45,53.3969 126.783,50.0636 125.5,47C 126.5,46.6667 127.5,46.3333 128.5,46C 127.663,44.9887 127.33,43.8221 127.5,42.5C 130.131,41.1311 130.798,41.7978 129.5,44.5C 134.12,45.4933 138.786,45.8266 143.5,45.5C 143.719,46.675 143.386,47.675 142.5,48.5C 141.549,47.6744 140.549,47.5078 139.5,48C 140.475,53.7412 140.808,59.5746 140.5,65.5C 143.301,66.7659 146.301,67.5992 149.5,68C 146.834,69.0605 144.167,69.8939 141.5,70.5 Z"/></g>
<g><path style="opacity:1" fill="#d8bc73" d="M 170.5,32.5 C 170.5,33.1667 170.5,33.8333 170.5,34.5C 165.281,34.7291 160.281,35.8958 155.5,38C 159.644,39.2656 163.477,41.0989 167,43.5C 167.667,44.5 167.667,45.5 167,46.5C 165.644,45.6198 164.144,45.2865 162.5,45.5C 162.179,56.748 162.513,67.9146 163.5,79C 159.82,80.2247 160.153,81.058 164.5,81.5C 166.917,83.4962 166.25,84.4962 162.5,84.5C 161.188,82.5212 159.521,80.8545 157.5,79.5C 158.853,78.4763 159.52,77.143 159.5,75.5C 158.167,75.5 156.833,75.5 155.5,75.5C 155.5,76.5 155.5,77.5 155.5,78.5C 153.302,78.8799 151.635,78.2132 150.5,76.5C 148.237,74.2056 145.404,72.8723 142,72.5C 140.282,71.9689 140.115,71.3023 141.5,70.5C 145.945,72.3914 149.278,71.2247 151.5,67C 150.722,58.4379 150.056,50.1046 149.5,42C 151.107,40.951 151.773,39.451 151.5,37.5C 157.558,35.2151 163.891,33.5484 170.5,32.5 Z"/></g>
<g><path style="opacity:1" fill="#aa8c5a" d="M 181.5,35.5 C 187.251,43.3281 192.251,51.6614 196.5,60.5C 195.761,60.631 195.094,60.4643 194.5,60C 192.79,58.3492 191.456,56.5158 190.5,54.5C 190.631,53.6236 190.298,52.9569 189.5,52.5C 184.731,51.8079 183.398,49.3079 185.5,45C 183.386,42.0881 182.053,38.9214 181.5,35.5 Z"/></g>
<g><path style="opacity:1" fill="#c9a560" d="M 181.5,35.5 C 182.053,38.9214 183.386,42.0881 185.5,45C 183.398,49.3079 184.731,51.8079 189.5,52.5C 190.298,52.9569 190.631,53.6236 190.5,54.5C 185.288,55.5479 184.288,58.2146 187.5,62.5C 185.937,65.2216 185.271,68.2216 185.5,71.5C 187.121,79.4234 187.788,87.2567 187.5,95C 185.624,95.9184 184.624,97.4184 184.5,99.5C 180.185,96.1907 175.852,92.8574 171.5,89.5C 168.331,88.0834 165.331,86.4168 162.5,84.5C 166.25,84.4962 166.917,83.4962 164.5,81.5C 165.222,81.0825 165.722,80.4158 166,79.5C 167.501,81.3695 169.001,83.2028 170.5,85C 169.833,85.3333 169.167,85.6667 168.5,86C 169.662,86.8271 170.829,87.6604 172,88.5C 172.772,88.3552 173.439,88.0219 174,87.5C 176.825,90.3375 177.658,90.0042 176.5,86.5C 176.482,84.6274 176.982,84.2941 178,85.5C 178.242,75.4672 178.742,65.4672 179.5,55.5C 178.167,55.5 176.833,55.5 175.5,55.5C 176.215,50.0402 177.049,44.7069 178,39.5C 177.691,38.2341 177.191,37.0674 176.5,36C 174.292,35.8091 172.292,35.3091 170.5,34.5C 170.5,33.8333 170.5,33.1667 170.5,32.5C 173.054,31.612 175.721,31.2786 178.5,31.5C 178.088,33.9726 179.088,35.3059 181.5,35.5 Z"/></g>
<g><path style="opacity:1" fill="#c69f58" d="M 190.5,54.5 C 191.456,56.5158 192.79,58.3492 194.5,60C 195.094,60.4643 195.761,60.631 196.5,60.5C 196.917,63.0792 196.25,65.2458 194.5,67C 195.678,67.9669 197.011,68.4669 198.5,68.5C 196.495,69.3372 195.495,70.8372 195.5,73C 197.488,75.1538 198.822,77.6538 199.5,80.5C 198.07,80.5792 196.736,80.2458 195.5,79.5C 194.505,84.7921 194.172,90.1254 194.5,95.5C 192.571,95.2308 190.905,95.7308 189.5,97C 192.119,97.1515 194.453,97.9848 196.5,99.5C 192.463,100.843 188.463,101.176 184.5,100.5C 184.5,100.167 184.5,99.8333 184.5,99.5C 184.624,97.4184 185.624,95.9184 187.5,95C 187.788,87.2567 187.121,79.4234 185.5,71.5C 185.271,68.2216 185.937,65.2216 187.5,62.5C 184.288,58.2146 185.288,55.5479 190.5,54.5 Z"/></g>
<g><path style="opacity:1" fill="#bd9350" d="M 71.5,52.5 C 75.5,52.5 79.5,52.5 83.5,52.5C 83.8321,63.5202 83.4988,74.5202 82.5,85.5C 80.4501,86.0766 79.4501,87.4099 79.5,89.5C 75.908,90.7644 72.2413,91.7644 68.5,92.5C 67.5222,92.189 66.8555,91.5223 66.5,90.5C 67.8498,89.0499 69.5165,88.3832 71.5,88.5C 71.7163,86.3193 70.883,84.6526 69,83.5C 68.2289,75.4704 68.3955,67.4704 69.5,59.5C 69.3201,58.4461 68.9867,57.4461 68.5,56.5C 66.7015,55.2121 65.0348,55.2121 63.5,56.5C 60.5,56.5 57.5,56.5 54.5,56.5C 59.9562,54.7207 65.6228,53.3874 71.5,52.5 Z"/></g>
<g><path style="opacity:0.282" fill="#4b4b32" d="M 24.5,62.5 C 24.3893,63.1174 24.056,63.6174 23.5,64C 24.8228,64.8159 25.4894,65.9826 25.5,67.5C 22.3033,65.9963 21.97,64.3297 24.5,62.5 Z"/></g>
<g><path style="opacity:1" fill="#d6bd75" d="M 54.5,56.5 C 57.5,56.5 60.5,56.5 63.5,56.5C 62.0813,57.4511 60.4147,57.7845 58.5,57.5C 58.5792,58.9305 58.2458,60.2638 57.5,61.5C 58.1667,62.1667 58.8333,62.8333 59.5,63.5C 58.2466,70.1396 58.2466,76.8063 59.5,83.5C 59.097,86.7611 58.4303,89.9278 57.5,93C 58.2931,94.0852 58.9598,95.2519 59.5,96.5C 58.4647,98.1284 58.4647,99.795 59.5,101.5C 58.8333,101.5 58.1667,101.5 57.5,101.5C 56.5806,98.9108 54.914,96.9108 52.5,95.5C 45.1032,89.1054 38.4365,82.1054 32.5,74.5C 34.1789,74.8923 35.8455,75.3923 37.5,76C 40.3747,78.0311 43.2081,80.1978 46,82.5C 47,81.1667 48,81.1667 49,82.5C 49.6924,81.9747 50.1924,81.3081 50.5,80.5C 48.8867,74.4655 47.8867,68.2989 47.5,62C 49.6927,61.7426 51.6927,60.5759 53.5,58.5C 53.8333,57.8333 54.1667,57.1667 54.5,56.5 Z"/></g>
<g><path style="opacity:1" fill="#cfad65" d="M 68.5,92.5 C 69.2341,93.7079 69.5674,95.0413 69.5,96.5C 68.1779,96.67 67.0113,96.3366 66,95.5C 64.2559,96.6492 64.0892,97.9825 65.5,99.5C 64.624,100.251 63.624,100.751 62.5,101C 63.7112,101.893 63.7112,102.726 62.5,103.5C 61.7348,102.388 60.7348,101.721 59.5,101.5C 58.4647,99.795 58.4647,98.1284 59.5,96.5C 58.9598,95.2519 58.2931,94.0852 57.5,93C 58.4303,89.9278 59.097,86.7611 59.5,83.5C 58.2466,76.8063 58.2466,70.1396 59.5,63.5C 58.8333,62.8333 58.1667,62.1667 57.5,61.5C 58.2458,60.2638 58.5792,58.9305 58.5,57.5C 60.4147,57.7845 62.0813,57.4511 63.5,56.5C 65.0348,55.2121 66.7015,55.2121 68.5,56.5C 68.9867,57.4461 69.3201,58.4461 69.5,59.5C 68.3955,67.4704 68.2289,75.4704 69,83.5C 70.883,84.6526 71.7163,86.3193 71.5,88.5C 69.5165,88.3832 67.8498,89.0499 66.5,90.5C 66.8555,91.5223 67.5222,92.189 68.5,92.5 Z"/></g>
<g><path style="opacity:0.832" fill="#836d47" d="M 84.5,56.5 C 84.5,61.5 84.5,66.5 84.5,71.5C 85.3511,76.7772 85.1844,82.1105 84,87.5C 82.6703,88.5822 81.1703,89.2488 79.5,89.5C 79.4501,87.4099 80.4501,86.0766 82.5,85.5C 83.4988,74.5202 83.8321,63.5202 83.5,52.5C 79.5,52.5 75.5,52.5 71.5,52.5C 75.4346,51.5277 79.768,50.5277 84.5,49.5C 84.5,51.8333 84.5,54.1667 84.5,56.5 Z"/></g>
<g><path style="opacity:1" fill="#f7ee9f" d="M 100.5,79.5 C 100.167,79.5 99.8333,79.5 99.5,79.5C 96.0173,79.6906 92.6839,80.3573 89.5,81.5C 89.3335,71.4944 89.5002,61.4944 90,51.5C 91.0386,50.7562 91.5386,49.7562 91.5,48.5C 96.4996,48.851 101.333,48.1843 106,46.5C 107.326,46.7549 108.326,47.4216 109,48.5C 109.667,53.8333 109.667,59.1667 109,64.5C 107.007,66.6655 105.173,68.9989 103.5,71.5C 105.059,73.1307 107.059,73.964 109.5,74C 106.061,75.3733 103.061,77.2066 100.5,79.5 Z"/></g>
<g><path style="opacity:1" fill="#eae6b2" d="M 91.5,48.5 C 91.5386,49.7562 91.0386,50.7562 90,51.5C 89.5002,61.4944 89.3335,71.4944 89.5,81.5C 92.6839,80.3573 96.0173,79.6906 99.5,79.5C 96.7442,81.2038 93.7442,82.5371 90.5,83.5C 88.5223,72.5493 87.8556,61.216 88.5,49.5C 89.209,48.596 90.209,48.2627 91.5,48.5 Z"/></g>
<g><path style="opacity:1" fill="#d2cb91" d="M 54.5,56.5 C 54.1667,57.1667 53.8333,57.8333 53.5,58.5C 44.6154,59.5143 35.9487,61.681 27.5,65C 29.636,67.8983 31.3026,71.065 32.5,74.5C 29.9387,72.3603 27.6054,70.027 25.5,67.5C 25.4894,65.9826 24.8228,64.8159 23.5,64C 24.056,63.6174 24.3893,63.1174 24.5,62.5C 34.1327,60.2739 44.1327,58.2739 54.5,56.5 Z"/></g>
<g><path style="opacity:1" fill="#e5d184" d="M 53.5,58.5 C 51.6927,60.5759 49.6927,61.7426 47.5,62C 47.8867,68.2989 48.8867,74.4655 50.5,80.5C 50.1924,81.3081 49.6924,81.9747 49,82.5C 48,81.1667 47,81.1667 46,82.5C 43.2081,80.1978 40.3747,78.0311 37.5,76C 35.8455,75.3923 34.1789,74.8923 32.5,74.5C 31.3026,71.065 29.636,67.8983 27.5,65C 35.9487,61.681 44.6154,59.5143 53.5,58.5 Z"/></g>
<g><path style="opacity:0.131" fill="#322f1a" d="M 88.5,49.5 C 87.8556,61.216 88.5223,72.5493 90.5,83.5C 89.3991,84.5983 88.0657,84.765 86.5,84C 87.1078,82.769 87.4411,81.4357 87.5,80C 86.8344,74.1826 86.3344,68.3493 86,62.5C 85.8195,65.6946 85.3195,68.6946 84.5,71.5C 84.5,66.5 84.5,61.5 84.5,56.5C 86.5616,54.6387 87.8949,52.3053 88.5,49.5 Z"/></g>
<g><path style="opacity:0.993" fill="#beaf77" d="M 127.5,74.5 C 135.296,74.0753 142.963,74.7419 150.5,76.5C 151.635,78.2132 153.302,78.8799 155.5,78.5C 155.5,77.5 155.5,76.5 155.5,75.5C 156.833,75.5 158.167,75.5 159.5,75.5C 159.52,77.143 158.853,78.4763 157.5,79.5C 159.521,80.8545 161.188,82.5212 162.5,84.5C 146.638,76.6455 129.638,73.9788 111.5,76.5C 116.396,74.5539 121.729,73.8872 127.5,74.5 Z"/></g>
<g><path style="opacity:1" fill="#9c7e4d" d="M 199.5,65.5 C 204,71.8272 208,78.4938 211.5,85.5C 210.504,85.5858 209.671,85.2524 209,84.5C 207.562,83.0997 206.729,81.433 206.5,79.5C 205.5,79.5 204.5,79.5 203.5,79.5C 203.11,74.4905 201.777,69.8239 199.5,65.5 Z"/></g>
<g><path style="opacity:1" fill="#bb9252" d="M 196.5,60.5 C 198.25,61.6594 199.25,63.326 199.5,65.5C 201.777,69.8239 203.11,74.4905 203.5,79.5C 204.5,79.5 205.5,79.5 206.5,79.5C 206.729,81.433 207.562,83.0997 209,84.5C 209.671,85.2524 210.504,85.5858 211.5,85.5C 213.25,86.6594 214.25,88.326 214.5,90.5C 215.989,92.6451 216.989,94.9785 217.5,97.5C 207.375,98.8751 197.375,100.875 187.5,103.5C 186.145,102.812 185.145,101.812 184.5,100.5C 188.463,101.176 192.463,100.843 196.5,99.5C 194.453,97.9848 192.119,97.1515 189.5,97C 190.905,95.7308 192.571,95.2308 194.5,95.5C 194.172,90.1254 194.505,84.7921 195.5,79.5C 196.736,80.2458 198.07,80.5792 199.5,80.5C 198.822,77.6538 197.488,75.1538 195.5,73C 195.495,70.8372 196.495,69.3372 198.5,68.5C 197.011,68.4669 195.678,67.9669 194.5,67C 196.25,65.2458 196.917,63.0792 196.5,60.5 Z"/></g>
<g><path style="opacity:1" fill="#a29165" d="M 133.5,81.5 C 139.813,81.9144 145.813,83.2478 151.5,85.5C 148.098,85.6576 144.764,85.3242 141.5,84.5C 138.754,83.7487 136.087,82.7487 133.5,81.5 Z"/></g>
<g><path style="opacity:1" fill="#d5b972" d="M 141.5,84.5 C 144.764,85.3242 148.098,85.6576 151.5,85.5C 151.5,86.8333 152.167,87.5 153.5,87.5C 153.38,88.5862 152.713,89.2528 151.5,89.5C 149.845,88.772 148.179,88.6053 146.5,89C 147.833,97 147.833,105 146.5,113C 149.167,114.667 149.167,116.333 146.5,118C 150.813,120.294 155.48,121.127 160.5,120.5C 157.038,121.482 153.371,121.815 149.5,121.5C 141.985,120.119 134.652,118.452 127.5,116.5C 130.85,116.665 134.183,116.498 137.5,116C 136.366,114.984 136.699,114.317 138.5,114C 138.425,107.377 138.425,100.544 138.5,93.5C 137.5,93.5 136.5,93.5 135.5,93.5C 135.585,91.0712 136.585,89.0712 138.5,87.5C 137.975,86.8076 137.308,86.3076 136.5,86C 137.905,84.7308 139.571,84.2308 141.5,84.5 Z"/></g>
<g><path style="opacity:1" fill="#dec67d" d="M 133.5,81.5 C 136.087,82.7487 138.754,83.7487 141.5,84.5C 139.571,84.2308 137.905,84.7308 136.5,86C 137.308,86.3076 137.975,86.8076 138.5,87.5C 136.585,89.0712 135.585,91.0712 135.5,93.5C 136.5,93.5 137.5,93.5 138.5,93.5C 138.425,100.544 138.425,107.377 138.5,114C 136.699,114.317 136.366,114.984 137.5,116C 134.183,116.498 130.85,116.665 127.5,116.5C 125.948,114.041 123.615,112.541 120.5,112C 121.793,111.51 123.127,111.343 124.5,111.5C 124.171,105.463 124.504,99.4632 125.5,93.5C 127.488,92.7112 127.821,91.5445 126.5,90C 127.167,89.6667 127.833,89.3333 128.5,89C 121.64,85.4929 114.306,83.9929 106.5,84.5C 109.577,83.144 112.91,82.3106 116.5,82C 122.157,81.5006 127.824,81.3339 133.5,81.5 Z"/></g>
<g><path style="opacity:1" fill="#ebda8f" d="M 106.5,84.5 C 114.306,83.9929 121.64,85.4929 128.5,89C 127.833,89.3333 127.167,89.6667 126.5,90C 127.821,91.5445 127.488,92.7112 125.5,93.5C 124.504,99.4632 124.171,105.463 124.5,111.5C 123.127,111.343 121.793,111.51 120.5,112C 123.615,112.541 125.948,114.041 127.5,116.5C 124.833,116.5 122.167,116.5 119.5,116.5C 113.63,115.234 107.63,115.234 101.5,116.5C 101.953,115.542 102.619,114.708 103.5,114C 102.167,113.667 100.833,113.333 99.5,113C 101.43,107.126 102.097,100.96 101.5,94.5C 98.4017,94.5875 98.0684,94.0875 100.5,93C 99.8333,91.6667 98.8333,90.6667 97.5,90C 99.1012,89.7266 100.601,89.2266 102,88.5C 102.333,88.8333 102.667,89.1667 103,89.5C 103.749,88.365 103.583,87.365 102.5,86.5C 100.271,87.5771 97.9372,88.2437 95.5,88.5C 95.2407,92.0681 93.2407,93.4015 89.5,92.5C 89.3677,95.5701 89.701,98.5701 90.5,101.5C 89.8826,101.389 89.3826,101.056 89,100.5C 88.2534,97.0764 88.42,93.7431 89.5,90.5C 94.8677,87.6493 100.534,85.6493 106.5,84.5 Z"/></g>
<g><path style="opacity:1" fill="#f4ec9f" d="M 101.5,116.5 C 98.0903,116.782 94.757,117.449 91.5,118.5C 90.5046,112.872 90.1712,107.206 90.5,101.5C 89.701,98.5701 89.3677,95.5701 89.5,92.5C 93.2407,93.4015 95.2407,92.0681 95.5,88.5C 97.9372,88.2437 100.271,87.5771 102.5,86.5C 103.583,87.365 103.749,88.365 103,89.5C 102.667,89.1667 102.333,88.8333 102,88.5C 100.601,89.2266 99.1012,89.7266 97.5,90C 98.8333,90.6667 99.8333,91.6667 100.5,93C 98.0684,94.0875 98.4017,94.5875 101.5,94.5C 102.097,100.96 101.43,107.126 99.5,113C 100.833,113.333 102.167,113.667 103.5,114C 102.619,114.708 101.953,115.542 101.5,116.5 Z"/></g>
<g><path style="opacity:0.235" fill="#372a1b" d="M 171.5,89.5 C 175.852,92.8574 180.185,96.1907 184.5,99.5C 184.5,99.8333 184.5,100.167 184.5,100.5C 185.145,101.812 186.145,102.812 187.5,103.5C 197.375,100.875 207.375,98.8751 217.5,97.5C 216.989,94.9785 215.989,92.6451 214.5,90.5C 218.158,91.7968 219.824,94.4635 219.5,98.5C 209.177,100.498 198.843,102.498 188.5,104.5C 187.167,104.167 185.833,103.833 184.5,103.5C 180.067,98.7407 175.734,94.074 171.5,89.5 Z"/></g>
<g><path style="opacity:1" fill="#9f8553" d="M 79.5,89.5 C 73.5353,94.9638 67.7019,100.63 62,106.5C 60.9409,104.341 59.4409,102.674 57.5,101.5C 58.1667,101.5 58.8333,101.5 59.5,101.5C 60.7348,101.721 61.7348,102.388 62.5,103.5C 63.7112,102.726 63.7112,101.893 62.5,101C 63.624,100.751 64.624,100.251 65.5,99.5C 64.0892,97.9825 64.2559,96.6492 66,95.5C 67.0113,96.3366 68.1779,96.67 69.5,96.5C 69.5674,95.0413 69.2341,93.7079 68.5,92.5C 72.2413,91.7644 75.908,90.7644 79.5,89.5 Z"/></g>
<g><path style="opacity:1" fill="#cba760" d="M 153.5,87.5 C 160.144,90.9547 166.144,95.4547 171.5,101C 171.167,101.333 170.833,101.667 170.5,102C 171.701,102.903 172.535,104.069 173,105.5C 173.333,104.833 173.667,104.167 174,103.5C 175.834,107.033 177.834,110.366 180,113.5C 180.38,120.809 176.88,123.643 169.5,122C 168.833,121.333 168.167,120.667 167.5,120C 170.226,119.818 172.893,119.318 175.5,118.5C 174.167,118.167 172.833,117.833 171.5,117.5C 169.461,118.01 167.628,118.01 166,117.5C 164.736,119.607 162.903,120.607 160.5,120.5C 155.48,121.127 150.813,120.294 146.5,118C 149.167,116.333 149.167,114.667 146.5,113C 147.833,105 147.833,97 146.5,89C 148.179,88.6053 149.845,88.772 151.5,89.5C 152.713,89.2528 153.38,88.5862 153.5,87.5 Z"/></g>
<g><path style="opacity:0.02" fill="#453f1f" d="M 52.5,95.5 C 54.914,96.9108 56.5806,98.9108 57.5,101.5C 55.086,100.089 53.4194,98.0892 52.5,95.5 Z"/></g>
<g><path style="opacity:1" fill="#a38b5c" d="M 82.5,94.5 C 83.6935,94.9704 84.3601,95.9704 84.5,97.5C 84.4805,98.7261 84.1471,99.7261 83.5,100.5C 83.6602,98.8008 83.4935,97.1341 83,95.5C 80.9294,99.3516 77.7628,101.685 73.5,102.5C 75.8949,99.1385 78.8949,96.4719 82.5,94.5 Z"/></g>
<g><path style="opacity:0.248" fill="#3e361d" d="M 89.5,90.5 C 88.42,93.7431 88.2534,97.0764 89,100.5C 89.3826,101.056 89.8826,101.389 90.5,101.5C 90.1712,107.206 90.5046,112.872 91.5,118.5C 94.757,117.449 98.0903,116.782 101.5,116.5C 107.63,115.234 113.63,115.234 119.5,116.5C 114.305,116.179 109.305,116.513 104.5,117.5C 99.5314,118.627 94.5314,119.627 89.5,120.5C 89.8016,117.941 89.4682,115.607 88.5,113.5C 88.5,109.5 88.5,105.5 88.5,101.5C 87.1667,101.5 85.8333,101.5 84.5,101.5C 84.5,105.5 84.5,109.5 84.5,113.5C 85.5,113.5 86.5,113.5 87.5,113.5C 86.791,114.404 85.791,114.737 84.5,114.5C 84.7373,115.791 84.404,116.791 83.5,117.5C 83.7373,116.209 83.404,115.209 82.5,114.5C 82.5,114.167 82.5,113.833 82.5,113.5C 83.4834,109.702 83.8168,105.702 83.5,101.5C 83.5,101.167 83.5,100.833 83.5,100.5C 84.1471,99.7261 84.4805,98.7261 84.5,97.5C 84.3601,95.9704 83.6935,94.9704 82.5,94.5C 82.811,93.5222 83.4777,92.8555 84.5,92.5C 85.3078,94.4233 85.8078,96.4233 86,98.5C 86.3333,96.1667 86.6667,93.8333 87,91.5C 87.6708,90.7476 88.5041,90.4142 89.5,90.5 Z"/></g>
<g><path style="opacity:1" fill="#c7a45f" d="M 83.5,100.5 C 83.5,100.833 83.5,101.167 83.5,101.5C 82.5166,105.298 82.1832,109.298 82.5,113.5C 82.5,113.833 82.5,114.167 82.5,114.5C 83.0602,119.726 80.7269,122.726 75.5,123.5C 74.7375,122.732 73.7375,122.232 72.5,122C 73.9593,117.471 74.9593,113.137 75.5,109C 74.4209,107.141 73.0876,105.641 71.5,104.5C 71.8333,103.5 72.5,102.833 73.5,102.5C 77.7628,101.685 80.9294,99.3516 83,95.5C 83.4935,97.1341 83.6602,98.8008 83.5,100.5 Z"/></g>
<g><path style="opacity:0.973" fill="#cab87b" d="M 88.5,113.5 C 88.1667,113.5 87.8333,113.5 87.5,113.5C 86.5,113.5 85.5,113.5 84.5,113.5C 84.5,109.5 84.5,105.5 84.5,101.5C 85.8333,101.5 87.1667,101.5 88.5,101.5C 88.5,105.5 88.5,109.5 88.5,113.5 Z"/></g>
<g><path style="opacity:1" fill="#deca82" d="M 71.5,104.5 C 73.0876,105.641 74.4209,107.141 75.5,109C 74.9593,113.137 73.9593,117.471 72.5,122C 73.7375,122.232 74.7375,122.732 75.5,123.5C 74.0199,125.412 72.0199,126.579 69.5,127C 70.6956,127.654 70.6956,128.154 69.5,128.5C 68.5832,127.873 67.5832,127.539 66.5,127.5C 66.7373,126.209 66.404,125.209 65.5,124.5C 65.5,123.833 65.5,123.167 65.5,122.5C 65.7373,121.209 65.404,120.209 64.5,119.5C 63.5269,117.932 63.3603,116.265 64,114.5C 65.9789,110.7 68.4789,107.366 71.5,104.5 Z"/></g>
<g><path style="opacity:0.49" fill="#6a644c" d="M 64.5,119.5 C 65.404,120.209 65.7373,121.209 65.5,122.5C 63.5188,121.895 63.1854,120.895 64.5,119.5 Z"/></g>
<g><path style="opacity:0.263" fill="#322719" d="M 161.5,90.5 C 172.845,94.3322 181.345,101.666 187,112.5C 189.299,120.025 190.799,127.691 191.5,135.5C 190.448,135.649 189.448,135.483 188.5,135C 177.93,126.033 165.764,122.533 152,124.5C 136.222,119.14 120.389,116.807 104.5,117.5C 109.305,116.513 114.305,116.179 119.5,116.5C 122.167,116.5 124.833,116.5 127.5,116.5C 134.652,118.452 141.985,120.119 149.5,121.5C 162.242,120.656 174.242,123.49 185.5,130C 187,131.5 188.5,133 190,134.5C 189.113,126.736 187.446,119.069 185,111.5C 178.59,102.924 170.756,95.9239 161.5,90.5 Z"/></g>
<g><path style="opacity:1" fill="#a69365" d="M 82.5,114.5 C 83.404,115.209 83.7373,116.209 83.5,117.5C 83.634,119.292 83.3007,120.958 82.5,122.5C 77.5105,125.333 72.8438,128.666 68.5,132.5C 67.0499,131.15 66.3832,129.484 66.5,127.5C 67.5832,127.539 68.5832,127.873 69.5,128.5C 70.6956,128.154 70.6956,127.654 69.5,127C 72.0199,126.579 74.0199,125.412 75.5,123.5C 80.7269,122.726 83.0602,119.726 82.5,114.5 Z"/></g>
<g><path style="opacity:1" fill="#b69155" d="M 151.5,85.5 C 155.329,86.3666 158.663,88.0332 161.5,90.5C 170.756,95.9239 178.59,102.924 185,111.5C 187.446,119.069 189.113,126.736 190,134.5C 188.5,133 187,131.5 185.5,130C 174.242,123.49 162.242,120.656 149.5,121.5C 153.371,121.815 157.038,121.482 160.5,120.5C 162.903,120.607 164.736,119.607 166,117.5C 167.628,118.01 169.461,118.01 171.5,117.5C 172.833,117.833 174.167,118.167 175.5,118.5C 172.893,119.318 170.226,119.818 167.5,120C 168.167,120.667 168.833,121.333 169.5,122C 176.88,123.643 180.38,120.809 180,113.5C 177.834,110.366 175.834,107.033 174,103.5C 173.667,104.167 173.333,104.833 173,105.5C 172.535,104.069 171.701,102.903 170.5,102C 170.833,101.667 171.167,101.333 171.5,101C 166.144,95.4547 160.144,90.9547 153.5,87.5C 152.167,87.5 151.5,86.8333 151.5,85.5 Z"/></g>
<g><path style="opacity:0.557" fill="#55532f" d="M 65.5,124.5 C 66.404,125.209 66.7373,126.209 66.5,127.5C 65.7326,126.828 65.0659,125.995 64.5,125C 64.7284,124.601 65.0618,124.435 65.5,124.5 Z"/></g>
<g><path style="opacity:0.996" fill="#c8ba83" d="M 90.5,148.5 C 89.8333,146.833 89.1667,145.167 88.5,143.5C 89.0453,140.002 88.212,137.002 86,134.5C 84.7111,140.088 84.2111,145.755 84.5,151.5C 83.8333,156.167 83.1667,160.833 82.5,165.5C 82.7942,154.499 83.1275,143.499 83.5,132.5C 84.3255,128.018 84.8255,123.351 85,118.5C 85.7096,117.027 86.8762,116.36 88.5,116.5C 89.2109,127.163 89.8776,137.83 90.5,148.5 Z"/></g>
<g><path style="opacity:0.519" fill="#8e8b6a" d="M 448.5,126.5 C 448.5,126.833 448.5,127.167 448.5,127.5C 443.77,127.283 439.103,127.617 434.5,128.5C 434.611,127.883 434.944,127.383 435.5,127C 439.821,126.501 444.154,126.334 448.5,126.5 Z"/></g>
<g><path style="opacity:0.522" fill="#504737" d="M 765.5,129.5 C 764.833,129.167 764.167,128.833 763.5,128.5C 760.183,127.835 756.683,127.501 753,127.5C 749.098,127.512 745.598,128.179 742.5,129.5C 741.017,127.316 741.684,125.983 744.5,125.5C 750.406,125.54 756.406,125.707 762.5,126C 764.426,126.422 765.426,127.589 765.5,129.5 Z"/></g>
<g><path style="opacity:0.565" fill="#43392b" d="M 819.5,128.5 C 811.92,127.534 804.253,127.201 796.5,127.5C 796.611,126.883 796.944,126.383 797.5,126C 804.5,125.333 811.5,125.333 818.5,126C 819.252,126.671 819.586,127.504 819.5,128.5 Z"/></g>
<g><path style="opacity:1" fill="#92652a" d="M 129.5,127.5 C 134.167,127.5 138.833,127.5 143.5,127.5C 143.5,133.833 143.5,140.167 143.5,146.5C 140.315,146.02 137.481,146.686 135,148.5C 134.333,172.167 134.333,195.833 135,219.5C 136.011,220.337 137.178,220.67 138.5,220.5C 139.568,221.434 140.901,221.768 142.5,221.5C 142.8,226.099 142.467,230.599 141.5,235C 137.373,236.849 133.54,236.349 130,233.5C 129.617,234.056 129.117,234.389 128.5,234.5C 127.522,232.358 126.522,230.191 125.5,228C 126.933,224.302 127.766,220.468 128,216.5C 128.221,193.361 128.388,170.361 128.5,147.5C 128.281,145.085 126.948,144.085 124.5,144.5C 124.172,171.074 124.505,197.574 125.5,224C 124.975,224.692 124.308,225.192 123.5,225.5C 122.333,198.506 122.167,171.506 123,144.5C 123.96,142.621 124.46,140.621 124.5,138.5C 126.662,141.189 128.329,140.855 129.5,137.5C 128.923,135.45 127.59,134.45 125.5,134.5C 126.678,133.001 128.345,132.001 130.5,131.5C 129.738,131.089 128.738,130.923 127.5,131C 128.252,130.329 128.586,129.496 128.5,128.5C 128.5,127.833 128.833,127.5 129.5,127.5 Z"/></g>
<g><path style="opacity:1" fill="#dccd85" d="M 548.5,127.5 C 552.167,130.5 555.5,133.833 558.5,137.5C 558.628,139.09 559.295,140.423 560.5,141.5C 561.833,154.833 561.833,168.167 560.5,181.5C 559.097,183.57 557.43,185.237 555.5,186.5C 556.071,185.027 556.071,183.36 555.5,181.5C 554.167,181.5 552.833,181.5 551.5,181.5C 551.343,180.127 551.51,178.793 552,177.5C 553.609,176.853 555.109,176.02 556.5,175C 554.821,164.373 553.821,153.54 553.5,142.5C 554.115,140.884 555.115,139.551 556.5,138.5C 554.769,135.761 553.603,136.094 553,139.5C 551.788,135.655 549.621,134.821 546.5,137C 547.448,137.483 548.448,137.649 549.5,137.5C 549.5,138.5 549.5,139.5 549.5,140.5C 550.5,140.5 551.5,140.5 552.5,140.5C 552.5,141.833 552.5,143.167 552.5,144.5C 551.5,144.5 550.5,144.5 549.5,144.5C 549.832,154.522 549.499,164.522 548.5,174.5C 547.833,175.833 547.167,177.167 546.5,178.5C 540.943,178.175 534.943,178.175 528.5,178.5C 527.835,184.477 527.502,190.477 527.5,196.5C 530.448,196.223 533.281,196.556 536,197.5C 537.248,203.141 538.414,208.808 539.5,214.5C 538.833,213.5 538.167,212.5 537.5,211.5C 536.097,207.619 535.097,203.619 534.5,199.5C 532.365,197.631 529.698,196.964 526.5,197.5C 525.509,191.021 525.176,184.354 525.5,177.5C 529.833,177.5 534.167,177.5 538.5,177.5C 540.017,177.489 541.184,176.823 542,175.5C 542.832,166.482 542.665,157.482 541.5,148.5C 540.583,147.873 539.583,147.539 538.5,147.5C 534.289,147.676 530.289,147.676 526.5,147.5C 526.5,140.833 526.5,134.167 526.5,127.5C 533.833,127.5 541.167,127.5 548.5,127.5 Z"/></g>
<g><path style="opacity:0.443" fill="#796e4b" d="M 631.5,127.5 C 626.5,127.5 621.5,127.5 616.5,127.5C 616.5,134.167 616.5,140.833 616.5,147.5C 615.509,140.687 615.175,133.687 615.5,126.5C 621.026,126.179 626.36,126.512 631.5,127.5 Z"/></g>
<g><path style="opacity:1" fill="#c8b066" d="M 631.5,159.5 C 630.937,155.875 629.937,152.375 628.5,149C 630.318,145.613 629.318,143.613 625.5,143C 626.604,141.869 626.271,141.035 624.5,140.5C 623.618,141.76 622.618,142.926 621.5,144C 622.793,144.49 624.127,144.657 625.5,144.5C 625.5,145.5 625.5,146.5 625.5,147.5C 624.5,147.5 623.5,147.5 622.5,147.5C 621.081,146.549 619.415,146.216 617.5,146.5C 617.5,140.5 617.5,134.5 617.5,128.5C 621.846,128.334 626.179,128.501 630.5,129C 633.149,130.631 634.816,132.965 635.5,136C 629.68,136.3 629.013,138.467 633.5,142.5C 632.395,145.846 632.562,149.179 634,152.5C 635.076,149.64 635.909,146.64 636.5,143.5C 637.308,143.808 637.975,144.308 638.5,145C 637.718,147.74 637.218,150.574 637,153.5C 636.59,155.668 635.756,157.001 634.5,157.5C 635.804,173.818 635.804,190.152 634.5,206.5C 634.158,190.479 633.158,174.812 631.5,159.5 Z"/></g>
<g><path style="opacity:1" fill="#a08a5b" d="M 691.5,143.5 C 691.912,145.973 690.912,147.306 688.5,147.5C 686.167,147.5 683.833,147.5 681.5,147.5C 681.611,146.883 681.944,146.383 682.5,146C 684.473,145.505 686.473,145.338 688.5,145.5C 688.5,139.833 688.5,134.167 688.5,128.5C 686.5,128.5 684.5,128.5 682.5,128.5C 680.473,128.338 678.473,128.505 676.5,129C 672.762,132.184 669.095,135.351 665.5,138.5C 664.395,139.6 663.062,140.267 661.5,140.5C 664.833,136.5 668.5,132.833 672.5,129.5C 678.252,127.645 684.252,126.978 690.5,127.5C 690.179,133.026 690.512,138.36 691.5,143.5 Z"/></g>
<g><path style="opacity:0.154" fill="#534d35" d="M 449.5,147.5 C 449.824,140.646 449.491,133.979 448.5,127.5C 448.5,127.167 448.5,126.833 448.5,126.5C 448.81,125.262 449.31,125.262 450,126.5C 450.821,133.679 450.655,140.679 449.5,147.5 Z"/></g>
<g><path style="opacity:0.655" fill="#7e7353" d="M 602.5,147.5 C 604.265,146.539 606.265,146.205 608.5,146.5C 608.5,140.167 608.5,133.833 608.5,127.5C 603.105,127.267 597.772,127.6 592.5,128.5C 592.611,127.883 592.944,127.383 593.5,127C 598.823,126.501 604.156,126.334 609.5,126.5C 610.011,133.436 610.011,140.436 609.5,147.5C 607.09,148.438 604.756,148.438 602.5,147.5 Z"/></g>
<g><path style="opacity:0.031" fill="#4e412f" d="M 691.5,143.5 C 690.512,138.36 690.179,133.026 690.5,127.5C 684.252,126.978 678.252,127.645 672.5,129.5C 673.508,127.661 675.008,126.328 677,125.5C 681.598,125.916 686.431,126.25 691.5,126.5C 691.5,132.167 691.5,137.833 691.5,143.5 Z"/></g>
<g><path style="opacity:0.984" fill="#806841" d="M 763.5,128.5 C 757.132,128.17 750.798,128.504 744.5,129.5C 747.558,135.85 749.558,142.516 750.5,149.5C 747.267,143.148 744.6,136.482 742.5,129.5C 745.598,128.179 749.098,127.512 753,127.5C 756.683,127.501 760.183,127.835 763.5,128.5 Z"/></g>
<g><path style="opacity:1" fill="#ccbb77" d="M 357.5,127.5 C 362.167,127.5 366.833,127.5 371.5,127.5C 371.5,134.167 371.5,140.833 371.5,147.5C 369.064,147.317 366.897,147.984 365,149.5C 364.333,156.5 364.333,163.5 365,170.5C 365.5,171 366,171.5 366.5,172C 375.167,172.333 383.833,172.667 392.5,173C 394.041,174.371 395.375,175.871 396.5,177.5C 394.567,177.271 392.9,176.438 391.5,175C 382.84,174.5 374.173,174.334 365.5,174.5C 364.027,171.59 361.86,170.923 359,172.5C 358.149,169.947 358.482,167.614 360,165.5C 360.317,167.301 360.984,167.634 362,166.5C 362.881,161.192 362.381,156.025 360.5,151C 361.148,149.56 361.481,148.06 361.5,146.5C 362.552,146.649 363.552,146.483 364.5,146C 365.042,143.745 366.209,141.912 368,140.5C 368.839,137.86 368.339,135.527 366.5,133.5C 364.249,135.673 362.083,138.006 360,140.5C 360.027,144.766 358.693,148.433 356,151.5C 355.667,157.167 355.333,162.833 355,168.5C 354.586,168.957 354.086,169.291 353.5,169.5C 352.631,165.544 352.631,161.544 353.5,157.5C 353.346,153.73 352.679,150.064 351.5,146.5C 351.968,144.866 352.968,143.7 354.5,143C 352.959,141.421 351.792,139.587 351,137.5C 349.549,139.464 347.716,140.797 345.5,141.5C 347.909,139.098 349.909,136.431 351.5,133.5C 353.167,131.167 355.167,129.167 357.5,127.5 Z"/></g>
<g><path style="opacity:1" fill="#c2bd85" d="M 434.5,128.5 C 433.625,134.206 430.292,137.539 424.5,138.5C 427.5,134.833 430.833,131.5 434.5,128.5 Z"/></g>
<g><path style="opacity:1" fill="#ddcf84" d="M 399.5,134.5 C 400.219,136.764 400.552,139.097 400.5,141.5C 402.144,141.286 403.644,141.62 405,142.5C 405.667,148.167 405.667,153.833 405,159.5C 402.955,160.926 400.788,161.926 398.5,162.5C 394.5,162.5 390.5,162.5 386.5,162.5C 386.817,158.298 386.483,154.298 385.5,150.5C 385.047,149.542 384.381,148.708 383.5,148C 381.5,147.667 379.5,147.333 377.5,147C 378.091,140.248 378.091,133.415 377.5,126.5C 386.902,124.224 394.235,126.891 399.5,134.5 Z"/></g>
<g><path style="opacity:1" fill="#ebe294" d="M 448.5,127.5 C 449.491,133.979 449.824,140.646 449.5,147.5C 446.956,147.104 444.789,147.771 443,149.5C 442.333,156.5 442.333,163.5 443,170.5C 443.5,171 444,171.5 444.5,172C 453.167,172.333 461.833,172.667 470.5,173C 474.704,177.036 478.704,181.202 482.5,185.5C 482.5,187.833 482.5,190.167 482.5,192.5C 466.833,192.5 451.167,192.5 435.5,192.5C 433.5,191.167 431.833,189.5 430.5,187.5C 428.833,185.167 426.833,183.167 424.5,181.5C 423.038,180.542 421.705,179.376 420.5,178C 421.323,165.575 421.823,153.075 422,140.5C 422.708,139.619 423.542,138.953 424.5,138.5C 430.292,137.539 433.625,134.206 434.5,128.5C 439.103,127.617 443.77,127.283 448.5,127.5 Z"/></g>
<g><path style="opacity:1" fill="#a17838" d="M 763.5,128.5 C 763.723,131.784 764.39,134.951 765.5,138C 763.126,140.039 761.126,142.372 759.5,145C 760.563,146.188 761.897,146.688 763.5,146.5C 763.908,149.53 764.574,152.53 765.5,155.5C 765.495,158.229 764.329,160.229 762,161.5C 761.503,163.81 761.337,166.143 761.5,168.5C 759.91,162.974 757.41,157.64 754,152.5C 752.641,151.635 751.474,150.635 750.5,149.5C 749.558,142.516 747.558,135.85 744.5,129.5C 750.798,128.504 757.132,128.17 763.5,128.5 Z"/></g>
<g><path style="opacity:0.247" fill="#625f43" d="M 357.5,127.5 C 362.305,126.513 367.305,126.179 372.5,126.5C 372.825,133.687 372.491,140.687 371.5,147.5C 371.5,140.833 371.5,134.167 371.5,127.5C 366.833,127.5 362.167,127.5 357.5,127.5 Z"/></g>
<g><path style="opacity:1" fill="#b39e60" d="M 631.5,127.5 C 636.465,131.963 641.298,136.63 646,141.5C 646.83,169.67 646.664,197.67 645.5,225.5C 644.833,197.664 644.167,169.664 643.5,141.5C 642.833,140.833 642.167,140.167 641.5,139.5C 640.618,140.76 639.618,141.926 638.5,143C 639.49,147.461 639.324,151.961 638,156.5C 637.667,173.5 637.333,190.5 637,207.5C 636.579,210.02 635.412,212.02 633.5,213.5C 634.787,210.57 634.287,208.237 632,206.5C 631.5,190.837 631.333,175.17 631.5,159.5C 633.158,174.812 634.158,190.479 634.5,206.5C 635.804,190.152 635.804,173.818 634.5,157.5C 635.756,157.001 636.59,155.668 637,153.5C 637.218,150.574 637.718,147.74 638.5,145C 637.975,144.308 637.308,143.808 636.5,143.5C 635.909,146.64 635.076,149.64 634,152.5C 632.562,149.179 632.395,145.846 633.5,142.5C 629.013,138.467 629.68,136.3 635.5,136C 634.816,132.965 633.149,130.631 630.5,129C 626.179,128.501 621.846,128.334 617.5,128.5C 617.5,134.5 617.5,140.5 617.5,146.5C 619.415,146.216 621.081,146.549 622.5,147.5C 620.5,147.5 618.5,147.5 616.5,147.5C 616.5,140.833 616.5,134.167 616.5,127.5C 621.5,127.5 626.5,127.5 631.5,127.5 Z"/></g>
<g><path style="opacity:0.362" fill="#302a1d" d="M 193.5,125.5 C 201.167,125.5 208.833,125.5 216.5,125.5C 217.625,154.873 217.625,184.207 216.5,213.5C 208.666,213.658 200.999,213.658 193.5,213.5C 193.5,184.167 193.5,154.833 193.5,125.5 Z"/></g>
<g><path style="opacity:0.102" fill="#595635" d="M 470.5,127.5 C 465.833,127.5 461.167,127.5 456.5,127.5C 456.5,134.167 456.5,140.833 456.5,147.5C 455.509,140.687 455.175,133.687 455.5,126.5C 460.695,126.179 465.695,126.513 470.5,127.5 Z"/></g>
<g><path style="opacity:1" fill="#685131" d="M 815.5,136.5 C 813.871,141.735 811.871,146.735 809.5,151.5C 810.017,147.778 810.85,144.112 812,140.5C 812.498,138.456 813.665,137.122 815.5,136.5 Z"/></g>
<g><path style="opacity:1" fill="#8a6029" d="M 128.5,128.5 C 128.586,129.496 128.252,130.329 127.5,131C 128.738,130.923 129.738,131.089 130.5,131.5C 128.345,132.001 126.678,133.001 125.5,134.5C 123.467,136.163 121.634,138.163 120,140.5C 119.333,169.167 119.333,197.833 120,226.5C 121.399,227.227 122.899,227.727 124.5,228C 123.397,231.519 124.731,233.686 128.5,234.5C 129.117,234.389 129.617,234.056 130,233.5C 133.54,236.349 137.373,236.849 141.5,235C 142.467,230.599 142.8,226.099 142.5,221.5C 140.901,221.768 139.568,221.434 138.5,220.5C 140.167,220.5 141.833,220.5 143.5,220.5C 143.5,226.5 143.5,232.5 143.5,238.5C 138.105,238.733 132.772,238.4 127.5,237.5C 124.167,234.833 121.167,231.833 118.5,228.5C 117.878,227.373 117.045,226.373 116,225.5C 115.5,197.502 115.333,169.502 115.5,141.5C 119.473,136.86 123.806,132.527 128.5,128.5 Z"/></g>
<g><path style="opacity:0.069" fill="#555133" d="M 548.5,127.5 C 541.167,127.5 533.833,127.5 526.5,127.5C 526.5,134.167 526.5,140.833 526.5,147.5C 525.509,140.687 525.175,133.687 525.5,126.5C 533.352,126.175 541.018,126.508 548.5,127.5 Z"/></g>
<g><path style="opacity:1" fill="#bc9e59" d="M 682.5,128.5 C 682.665,131.518 682.498,134.518 682,137.5C 679.343,138.573 677.177,140.24 675.5,142.5C 677.433,145.994 677.433,149.66 675.5,153.5C 677.129,156.331 676.629,158.665 674,160.5C 673.667,175.833 673.333,191.167 673,206.5C 670.861,208.585 671.028,210.251 673.5,211.5C 674.072,213.255 674.906,214.922 676,216.5C 677.198,220.809 676.198,224.476 673,227.5C 671.446,224.898 669.28,223.731 666.5,224C 668.439,224.908 669.439,226.408 669.5,228.5C 666.491,228.577 664.324,227.244 663,224.5C 662.333,197.167 662.333,169.833 663,142.5C 664.481,141.529 665.315,140.196 665.5,138.5C 669.095,135.351 672.762,132.184 676.5,129C 678.473,128.505 680.473,128.338 682.5,128.5 Z"/></g>
<g><path style="opacity:0.486" fill="#675633" d="M 726.5,225.5 C 726.667,197.498 726.5,169.498 726,141.5C 721.5,137 717,132.5 712.5,128C 707.511,127.501 702.511,127.334 697.5,127.5C 697.5,133.833 697.5,140.167 697.5,146.5C 700.388,145.99 702.721,146.656 704.5,148.5C 701.881,148.768 699.381,148.435 697,147.5C 696.833,144 696.667,140.5 696.5,137C 696.544,133.069 697.211,129.402 698.5,126C 703.558,125.339 708.558,125.672 713.5,127C 718,131.5 722.5,136 727,140.5C 727.83,169.003 727.664,197.336 726.5,225.5 Z"/></g>
<g><path style="opacity:1" fill="#d8c478" d="M 365.5,174.5 C 365.196,175.15 364.863,175.817 364.5,176.5C 366.234,177.674 367.234,179.34 367.5,181.5C 367.031,184.925 365.531,185.258 363,182.5C 363.36,185.418 363.86,188.084 364.5,190.5C 362.448,190.705 360.114,190.705 357.5,190.5C 357.67,189.178 357.337,188.011 356.5,187C 353.929,185.546 351.262,184.38 348.5,183.5C 348.415,181.071 347.415,179.071 345.5,177.5C 344.175,165.34 344.175,153.34 345.5,141.5C 347.716,140.797 349.549,139.464 351,137.5C 351.792,139.587 352.959,141.421 354.5,143C 352.968,143.7 351.968,144.866 351.5,146.5C 352.679,150.064 353.346,153.73 353.5,157.5C 352.631,161.544 352.631,165.544 353.5,169.5C 354.086,169.291 354.586,168.957 355,168.5C 355.333,162.833 355.667,157.167 356,151.5C 358.693,148.433 360.027,144.766 360,140.5C 362.083,138.006 364.249,135.673 366.5,133.5C 368.339,135.527 368.839,137.86 368,140.5C 366.209,141.912 365.042,143.745 364.5,146C 363.552,146.483 362.552,146.649 361.5,146.5C 361.481,148.06 361.148,149.56 360.5,151C 362.381,156.025 362.881,161.192 362,166.5C 360.984,167.634 360.317,167.301 360,165.5C 358.482,167.614 358.149,169.947 359,172.5C 361.86,170.923 364.027,171.59 365.5,174.5 Z"/></g>
<g><path style="opacity:1" fill="#d5bf74" d="M 601.5,145.5 C 600.022,145.238 598.689,145.571 597.5,146.5C 596.669,149.672 594.669,151.338 591.5,151.5C 591.489,153.547 591.156,155.547 590.5,157.5C 590.453,159 591.119,160 592.5,160.5C 592.833,168.333 593.167,176.167 593.5,184C 593.413,192.908 592.746,201.742 591.5,210.5C 591.994,213.012 592.994,215.345 594.5,217.5C 594.483,221.831 594.15,226.164 593.5,230.5C 597.788,230.558 599.121,232.558 597.5,236.5C 592.441,235.732 589.775,232.732 589.5,227.5C 587.833,227.5 586.167,227.5 584.5,227.5C 584.715,225.821 584.048,224.821 582.5,224.5C 581.167,211.183 580.501,197.517 580.5,183.5C 580.667,169.833 580.833,156.167 581,142.5C 582.188,141.437 582.688,140.103 582.5,138.5C 583.93,138.579 585.264,138.246 586.5,137.5C 589.076,134.213 592.076,131.38 595.5,129C 599.486,128.501 603.486,128.334 607.5,128.5C 607.5,134.167 607.5,139.833 607.5,145.5C 605.5,145.5 603.5,145.5 601.5,145.5 Z"/></g>
<g><path style="opacity:1" fill="#7e6035" d="M 796.5,127.5 C 804.253,127.201 811.92,127.534 819.5,128.5C 818.134,131.232 816.801,133.899 815.5,136.5C 815.292,134.08 815.626,131.747 816.5,129.5C 810.202,128.504 803.868,128.17 797.5,128.5C 795.345,135.455 793.345,142.455 791.5,149.5C 788.051,155.562 784.718,161.729 781.5,168C 779.837,168.265 778.337,167.765 777,166.5C 776.667,164.5 776.333,162.5 776,160.5C 775.617,159.944 775.117,159.611 774.5,159.5C 771.711,153.59 770.044,147.257 769.5,140.5C 773.026,149.224 776.86,157.891 781,166.5C 785.9,153.281 791.067,140.281 796.5,127.5 Z"/></g>
<g><path style="opacity:0.436" fill="#3f3222" d="M 114.5,140.5 C 114.5,141.167 114.833,141.5 115.5,141.5C 115.333,169.502 115.5,197.502 116,225.5C 117.045,226.373 117.878,227.373 118.5,228.5C 116.089,228.863 114.589,227.863 114,225.5C 113.17,196.997 113.336,168.664 114.5,140.5 Z"/></g>
<g><path style="opacity:1" fill="#926127" d="M 125.5,134.5 C 127.59,134.45 128.923,135.45 129.5,137.5C 128.329,140.855 126.662,141.189 124.5,138.5C 124.46,140.621 123.96,142.621 123,144.5C 122.167,171.506 122.333,198.506 123.5,225.5C 124.308,225.192 124.975,224.692 125.5,224C 124.505,197.574 124.172,171.074 124.5,144.5C 126.948,144.085 128.281,145.085 128.5,147.5C 128.388,170.361 128.221,193.361 128,216.5C 127.766,220.468 126.933,224.302 125.5,228C 126.522,230.191 127.522,232.358 128.5,234.5C 124.731,233.686 123.397,231.519 124.5,228C 122.899,227.727 121.399,227.227 120,226.5C 119.333,197.833 119.333,169.167 120,140.5C 121.634,138.163 123.467,136.163 125.5,134.5 Z"/></g>
<g><path style="opacity:0.981" fill="#b3ac78" d="M 399.5,134.5 C 402.5,136.668 405,139.334 407,142.5C 407.821,149.346 407.654,156.013 406.5,162.5C 403.833,162.5 401.167,162.5 398.5,162.5C 400.788,161.926 402.955,160.926 405,159.5C 405.667,153.833 405.667,148.167 405,142.5C 403.644,141.62 402.144,141.286 400.5,141.5C 400.552,139.097 400.219,136.764 399.5,134.5 Z"/></g>
<g><path style="opacity:1" fill="#f7f09e" d="M 470.5,127.5 C 473.5,129.833 476.167,132.5 478.5,135.5C 479.851,138.039 481.018,140.706 482,143.5C 482.667,149.167 482.667,154.833 482,160.5C 477.16,160.697 472.326,160.697 467.5,160.5C 466.567,156.571 466.234,152.571 466.5,148.5C 464.784,148.371 463.117,148.038 461.5,147.5C 459.833,147.5 458.167,147.5 456.5,147.5C 456.5,140.833 456.5,134.167 456.5,127.5C 461.167,127.5 465.833,127.5 470.5,127.5 Z"/></g>
<g><path style="opacity:0.97" fill="#8c815c" d="M 582.5,138.5 C 582.688,140.103 582.188,141.437 581,142.5C 580.833,156.167 580.667,169.833 580.5,183.5C 580.501,197.517 581.167,211.183 582.5,224.5C 583.11,225.391 583.443,226.391 583.5,227.5C 582.833,227.5 582.167,227.5 581.5,227.5C 580.71,226.206 579.71,225.039 578.5,224C 578.945,197.443 578.945,170.609 578.5,143.5C 579.095,141.239 580.429,139.572 582.5,138.5 Z"/></g>
<g><path style="opacity:1" fill="#c5a963" d="M 645.5,225.5 C 644.5,227.167 643.167,228.5 641.5,229.5C 641.5,228.5 641.5,227.5 641.5,226.5C 639.058,226.119 638.391,226.786 639.5,228.5C 637.831,229.973 636.164,230.306 634.5,229.5C 630.459,229.498 629.792,228.165 632.5,225.5C 633.491,221.555 633.824,217.555 633.5,213.5C 635.412,212.02 636.579,210.02 637,207.5C 637.333,190.5 637.667,173.5 638,156.5C 639.324,151.961 639.49,147.461 638.5,143C 639.618,141.926 640.618,140.76 641.5,139.5C 642.167,140.167 642.833,140.833 643.5,141.5C 644.167,169.664 644.833,197.664 645.5,225.5 Z"/></g>
<g><path style="opacity:0.216" fill="#2a2318" d="M 149.5,125.5 C 155.176,125.334 160.843,125.501 166.5,126C 172,130.167 176.833,135 181,140.5C 182.617,148.46 182.783,156.46 181.5,164.5C 173.833,164.5 166.167,164.5 158.5,164.5C 158.666,159.821 158.499,155.155 158,150.5C 155.539,149.782 153.039,149.115 150.5,148.5C 149.503,140.862 149.169,133.196 149.5,125.5 Z"/></g>
<g><path style="opacity:1" fill="#9c7437" d="M 173.5,135.5 C 175.797,137.294 177.963,139.294 180,141.5C 180.821,148.679 180.655,155.679 179.5,162.5C 173.167,162.5 166.833,162.5 160.5,162.5C 160.818,157.968 160.485,153.634 159.5,149.5C 159.167,148.5 158.5,147.833 157.5,147.5C 156.081,146.549 154.415,146.216 152.5,146.5C 152.5,140.5 152.5,134.5 152.5,128.5C 156.846,128.334 161.179,128.501 165.5,129C 167.746,131.752 170.412,133.918 173.5,135.5 Z"/></g>
<g><path style="opacity:0.855" fill="#7d623a" d="M 173.5,135.5 C 170.412,133.918 167.746,131.752 165.5,129C 161.179,128.501 156.846,128.334 152.5,128.5C 152.5,134.5 152.5,140.5 152.5,146.5C 154.415,146.216 156.081,146.549 157.5,147.5C 155.167,147.5 152.833,147.5 150.5,147.5C 150.188,140.578 150.521,133.744 151.5,127C 156.167,126.333 160.833,126.333 165.5,127C 168.371,129.703 171.038,132.536 173.5,135.5 Z"/></g>
<g><path style="opacity:1" fill="#93662b" d="M 815.5,136.5 C 813.665,137.122 812.498,138.456 812,140.5C 810.85,144.112 810.017,147.778 809.5,151.5C 808.737,155.137 807.403,158.47 805.5,161.5C 803.665,160.878 802.498,159.544 802,157.5C 803.669,162.778 802.669,167.445 799,171.5C 797.426,178.496 795.259,185.162 792.5,191.5C 792.662,189.473 792.495,187.473 792,185.5C 791.346,186.696 790.846,186.696 790.5,185.5C 791.265,183.705 791.932,181.872 792.5,180C 791.471,175.545 790.138,171.212 788.5,167C 791.167,165.667 791.167,164.333 788.5,163C 789.191,161.933 789.691,160.766 790,159.5C 790.333,160.5 790.667,161.5 791,162.5C 791.585,160.871 792.419,159.371 793.5,158C 791.854,155.405 791.187,152.572 791.5,149.5C 793.345,142.455 795.345,135.455 797.5,128.5C 803.868,128.17 810.202,128.504 816.5,129.5C 815.626,131.747 815.292,134.08 815.5,136.5 Z"/></g>
<g><path style="opacity:1" fill="#ad8b46" d="M 724.5,223.5 C 724.5,224.167 724.5,224.833 724.5,225.5C 722.438,226.765 720.771,228.431 719.5,230.5C 717.328,229.199 714.995,228.199 712.5,227.5C 713.167,229.833 713.833,232.167 714.5,234.5C 711.912,234.457 709.746,233.457 708,231.5C 707.219,230.056 707.386,228.723 708.5,227.5C 710.86,226.135 712.527,224.135 713.5,221.5C 713.547,220 712.881,219 711.5,218.5C 710.548,220.045 710.215,221.712 710.5,223.5C 708.005,224.199 705.672,225.199 703.5,226.5C 703.325,223.671 704.658,222.004 707.5,221.5C 709.302,217.036 709.968,212.37 709.5,207.5C 710.5,207.5 711.5,207.5 712.5,207.5C 712.333,191.497 712.5,175.497 713,159.5C 714.927,158.238 714.76,157.238 712.5,156.5C 713.63,154.685 714.296,152.685 714.5,150.5C 715.833,150.5 717.167,150.5 718.5,150.5C 715.423,169.365 714.756,188.365 716.5,207.5C 717.221,209.686 717.887,211.853 718.5,214C 717.54,217.73 717.207,221.563 717.5,225.5C 718.833,225.5 720.167,225.5 721.5,225.5C 720.587,222.945 719.92,220.279 719.5,217.5C 720.044,208.873 720.044,200.206 719.5,191.5C 720.58,175.853 721.414,160.187 722,144.5C 722.333,170.5 722.667,196.5 723,222.5C 723.383,223.056 723.883,223.389 724.5,223.5 Z"/></g>
<g><path style="opacity:1" fill="#d1bd73" d="M 601.5,145.5 C 601.189,146.478 600.522,147.145 599.5,147.5C 598.824,171.202 598.157,194.869 597.5,218.5C 599.95,220.867 602.95,221.867 606.5,221.5C 607.617,226.192 607.617,230.859 606.5,235.5C 605.21,236.408 603.877,236.241 602.5,235C 603.654,234.086 603.487,233.253 602,232.5C 601.236,236.099 599.07,238.099 595.5,238.5C 594.833,238.5 594.167,238.5 593.5,238.5C 592.5,238.167 591.833,237.5 591.5,236.5C 588.833,233.5 586.167,230.5 583.5,227.5C 583.443,226.391 583.11,225.391 582.5,224.5C 584.048,224.821 584.715,225.821 584.5,227.5C 586.167,227.5 587.833,227.5 589.5,227.5C 589.775,232.732 592.441,235.732 597.5,236.5C 599.121,232.558 597.788,230.558 593.5,230.5C 594.15,226.164 594.483,221.831 594.5,217.5C 592.994,215.345 591.994,213.012 591.5,210.5C 592.746,201.742 593.413,192.908 593.5,184C 593.167,176.167 592.833,168.333 592.5,160.5C 591.119,160 590.453,159 590.5,157.5C 591.156,155.547 591.489,153.547 591.5,151.5C 594.669,151.338 596.669,149.672 597.5,146.5C 598.689,145.571 600.022,145.238 601.5,145.5 Z"/></g>
<g><path style="opacity:0.059" fill="#393228" d="M 817.5,147.5 C 816.679,151.127 815.346,154.46 813.5,157.5C 812.749,153.134 814.082,149.801 817.5,147.5 Z"/></g>
<g><path style="opacity:0.149" fill="#3c321f" d="M 281.5,230.5 C 281.674,228.139 282.007,225.806 282.5,223.5C 283.417,220.583 284.084,217.583 284.5,214.5C 298.5,214.5 312.5,214.5 326.5,214.5C 321.904,187.898 316.57,161.564 310.5,135.5C 310.425,132.794 310.092,130.127 309.5,127.5C 299.833,127.5 290.167,127.5 280.5,127.5C 277.091,147.547 273.424,167.547 269.5,187.5C 276.5,187.5 283.5,187.5 290.5,187.5C 290.871,181.72 291.871,176.054 293.5,170.5C 293.998,167.513 294.498,164.513 295,161.5C 297.793,171.125 299.96,180.959 301.5,191C 301.392,192.681 300.725,193.848 299.5,194.5C 288.833,194.5 278.167,194.5 267.5,194.5C 265.57,207.114 262.903,219.448 259.5,231.5C 261.189,219.054 263.522,206.721 266.5,194.5C 277.833,193.833 289.167,193.167 300.5,192.5C 298.975,185.029 297.142,177.696 295,170.5C 293.977,176.819 292.477,182.986 290.5,189C 283.167,189.667 275.833,189.667 268.5,189C 267.978,188.439 267.645,187.772 267.5,187C 271.951,166.577 275.951,146.077 279.5,125.5C 289.855,125.168 300.188,125.501 310.5,126.5C 316.885,156.424 322.885,186.424 328.5,216.5C 314.167,216.5 299.833,216.5 285.5,216.5C 285.077,221.54 283.744,226.207 281.5,230.5 Z"/></g>
<g><path style="opacity:1" fill="#c8ae67" d="M 299.5,128.5 C 302.5,128.5 305.5,128.5 308.5,128.5C 308.41,131.152 309.076,133.485 310.5,135.5C 311.879,147.228 311.545,158.894 309.5,170.5C 309.55,172.923 310.55,174.756 312.5,176C 311.322,186.309 311.322,196.809 312.5,207.5C 314.198,206.319 315.865,206.319 317.5,207.5C 314.891,208.76 315.057,209.76 318,210.5C 320.724,209.162 321.891,210.162 321.5,213.5C 315.5,213.5 309.5,213.5 303.5,213.5C 298.025,212.511 292.358,212.178 286.5,212.5C 286.859,210.234 286.192,208.401 284.5,207C 285.025,206.308 285.692,205.808 286.5,205.5C 287.5,207.5 288.5,209.5 289.5,211.5C 290.7,210.469 292.034,209.635 293.5,209C 290.315,206.603 289.982,203.437 292.5,199.5C 292.023,198.522 291.357,197.689 290.5,197C 293.992,197.07 296.992,196.237 299.5,194.5C 300.725,193.848 301.392,192.681 301.5,191C 299.96,180.959 297.793,171.125 295,161.5C 294.498,164.513 293.998,167.513 293.5,170.5C 292.833,170.833 292.167,171.167 291.5,171.5C 292.161,168.213 292.661,164.88 293,161.5C 294.523,159.38 296.356,159.047 298.5,160.5C 299.499,149.854 299.832,139.187 299.5,128.5 Z"/></g>
<g><path style="opacity:1" fill="#c3a760" d="M 299.5,128.5 C 299.832,139.187 299.499,149.854 298.5,160.5C 296.356,159.047 294.523,159.38 293,161.5C 292.661,164.88 292.161,168.213 291.5,171.5C 290.659,176.532 289.659,181.532 288.5,186.5C 284.486,186.666 280.486,186.499 276.5,186C 274.842,185.275 274.342,184.108 275,182.5C 276.205,181.929 277.372,181.262 278.5,180.5C 271.424,179.459 271.09,178.126 277.5,176.5C 277.833,175.333 278.167,174.167 278.5,173C 277.519,169.223 276.852,165.39 276.5,161.5C 278.116,150.422 280.116,139.422 282.5,128.5C 288.167,128.5 293.833,128.5 299.5,128.5 Z"/></g>
<g><path style="opacity:0.959" fill="#dfd99c" d="M 499.5,127.5 C 506.167,127.5 512.833,127.5 519.5,127.5C 519.5,150.833 519.5,174.167 519.5,197.5C 512.646,197.824 505.979,197.491 499.5,196.5C 499.468,173.508 499.468,150.508 499.5,127.5 Z"/></g>
<g><path style="opacity:1" fill="#ede291" d="M 500.5,128.5 C 506.5,128.5 512.5,128.5 518.5,128.5C 518.5,151.167 518.5,173.833 518.5,196.5C 512.5,196.5 506.5,196.5 500.5,196.5C 500.5,173.833 500.5,151.167 500.5,128.5 Z"/></g>
<g><path style="opacity:1" fill="#b99a54" d="M 682.5,128.5 C 684.5,128.5 686.5,128.5 688.5,128.5C 688.5,134.167 688.5,139.833 688.5,145.5C 686.473,145.338 684.473,145.505 682.5,146C 681.944,146.383 681.611,146.883 681.5,147.5C 681.167,147.5 680.833,147.5 680.5,147.5C 679.874,151.761 679.041,156.094 678,160.5C 677.183,176.211 677.349,191.878 678.5,207.5C 677.349,208.731 676.183,208.731 675,207.5C 674.209,208.745 673.709,210.078 673.5,211.5C 671.028,210.251 670.861,208.585 673,206.5C 673.333,191.167 673.667,175.833 674,160.5C 676.629,158.665 677.129,156.331 675.5,153.5C 677.433,149.66 677.433,145.994 675.5,142.5C 677.177,140.24 679.343,138.573 682,137.5C 682.498,134.518 682.665,131.518 682.5,128.5 Z"/></g>
<g><path style="opacity:0.235" fill="#261d12" d="M 144.5,238.5 C 144.5,232.167 144.5,225.833 144.5,219.5C 141.03,220.125 138.196,219.125 136,216.5C 135.333,194.167 135.333,171.833 136,149.5C 138.481,147.686 141.315,147.02 144.5,147.5C 144.5,140.5 144.5,133.5 144.5,126.5C 139.305,126.179 134.305,126.513 129.5,127.5C 128.833,127.5 128.5,127.833 128.5,128.5C 123.806,132.527 119.473,136.86 115.5,141.5C 114.833,141.5 114.5,141.167 114.5,140.5C 118.963,135.535 123.63,130.702 128.5,126C 134.157,125.501 139.824,125.334 145.5,125.5C 146.833,133.167 146.833,140.833 145.5,148.5C 142.801,148.466 140.301,149.133 138,150.5C 137.333,172.5 137.333,194.5 138,216.5C 140.381,217.435 142.881,217.768 145.5,217.5C 146.42,224.663 146.087,231.663 144.5,238.5 Z"/></g>
<g><path style="opacity:0.975" fill="#c9b87e" d="M 602.5,147.5 C 601.542,147.953 600.708,148.619 600,149.5C 599.17,172.004 599.337,194.337 600.5,216.5C 601.5,216.833 602.167,217.5 602.5,218.5C 604.265,219.461 606.265,219.795 608.5,219.5C 608.5,225.833 608.5,232.167 608.5,238.5C 604.02,239.662 599.687,239.662 595.5,238.5C 599.07,238.099 601.236,236.099 602,232.5C 603.487,233.253 603.654,234.086 602.5,235C 603.877,236.241 605.21,236.408 606.5,235.5C 607.617,230.859 607.617,226.192 606.5,221.5C 602.95,221.867 599.95,220.867 597.5,218.5C 598.157,194.869 598.824,171.202 599.5,147.5C 600.522,147.145 601.189,146.478 601.5,145.5C 603.5,145.5 605.5,145.5 607.5,145.5C 607.5,139.833 607.5,134.167 607.5,128.5C 603.486,128.334 599.486,128.501 595.5,129C 592.076,131.38 589.076,134.213 586.5,137.5C 585.264,138.246 583.93,138.579 582.5,138.5C 585.5,134.833 588.833,131.5 592.5,128.5C 597.772,127.6 603.105,127.267 608.5,127.5C 608.5,133.833 608.5,140.167 608.5,146.5C 606.265,146.205 604.265,146.539 602.5,147.5 Z"/></g>
<g><path style="opacity:0.175" fill="#514e33" d="M 602.5,147.5 C 602.539,148.756 602.039,149.756 601,150.5C 600.5,172.497 600.333,194.497 600.5,216.5C 599.337,194.337 599.17,172.004 600,149.5C 600.708,148.619 601.542,147.953 602.5,147.5 Z"/></g>
<g><path style="opacity:0.477" fill="#6f613a" d="M 680.5,147.5 C 680.833,147.5 681.167,147.5 681.5,147.5C 683.833,147.5 686.167,147.5 688.5,147.5C 687.048,148.302 685.382,148.802 683.5,149C 682.056,150.126 681.39,151.626 681.5,153.5C 681.386,174.016 681.552,194.683 682,215.5C 684.447,217.808 687.281,219.141 690.5,219.5C 686.567,220.143 683.234,219.143 680.5,216.5C 680.5,193.5 680.5,170.5 680.5,147.5 Z"/></g>
<g><path style="opacity:1" fill="#ad8c4e" d="M 726.5,225.5 C 725.833,225.5 725.167,225.5 724.5,225.5C 724.5,224.833 724.5,224.167 724.5,223.5C 724.172,196.148 724.005,168.815 724,141.5C 722.684,138.972 721.517,138.972 720.5,141.5C 719.694,138.638 718.361,138.138 716.5,140C 717.167,141.333 717.833,142.667 718.5,144C 716.893,145.049 716.227,146.549 716.5,148.5C 714.278,148.178 712.444,148.845 711,150.5C 710.667,150.167 710.333,149.833 710,149.5C 709.087,153.362 709.42,157.028 711,160.5C 711.791,159.255 712.291,157.922 712.5,156.5C 714.76,157.238 714.927,158.238 713,159.5C 712.5,175.497 712.333,191.497 712.5,207.5C 711.5,207.5 710.5,207.5 709.5,207.5C 709.968,212.37 709.302,217.036 707.5,221.5C 704.658,222.004 703.325,223.671 703.5,226.5C 705.672,225.199 708.005,224.199 710.5,223.5C 710.215,221.712 710.548,220.045 711.5,218.5C 712.881,219 713.547,220 713.5,221.5C 712.527,224.135 710.86,226.135 708.5,227.5C 707.386,228.723 707.219,230.056 708,231.5C 709.746,233.457 711.912,234.457 714.5,234.5C 713.833,232.167 713.167,229.833 712.5,227.5C 714.995,228.199 717.328,229.199 719.5,230.5C 716.741,230.933 715.408,232.6 715.5,235.5C 714.5,235.5 713.5,235.5 712.5,235.5C 712.5,236.5 712.5,237.5 712.5,238.5C 707.5,238.5 702.5,238.5 697.5,238.5C 697.5,232.167 697.5,225.833 697.5,219.5C 700.279,219.721 702.946,219.388 705.5,218.5C 706.117,218.389 706.617,218.056 707,217.5C 707.667,195.167 707.667,172.833 707,150.5C 706.617,149.944 706.117,149.611 705.5,149.5C 704.833,149.5 704.5,149.167 704.5,148.5C 702.721,146.656 700.388,145.99 697.5,146.5C 697.5,140.167 697.5,133.833 697.5,127.5C 702.511,127.334 707.511,127.501 712.5,128C 717,132.5 721.5,137 726,141.5C 726.5,169.498 726.667,197.498 726.5,225.5 Z"/></g>
<g><path style="opacity:1" fill="#ac8848" d="M 724.5,223.5 C 723.883,223.389 723.383,223.056 723,222.5C 722.667,196.5 722.333,170.5 722,144.5C 721.414,160.187 720.58,175.853 719.5,191.5C 720.044,200.206 720.044,208.873 719.5,217.5C 719.92,220.279 720.587,222.945 721.5,225.5C 720.167,225.5 718.833,225.5 717.5,225.5C 717.207,221.563 717.54,217.73 718.5,214C 717.887,211.853 717.221,209.686 716.5,207.5C 714.756,188.365 715.423,169.365 718.5,150.5C 717.167,150.5 715.833,150.5 714.5,150.5C 714.296,152.685 713.63,154.685 712.5,156.5C 712.291,157.922 711.791,159.255 711,160.5C 709.42,157.028 709.087,153.362 710,149.5C 710.333,149.833 710.667,150.167 711,150.5C 712.444,148.845 714.278,148.178 716.5,148.5C 716.227,146.549 716.893,145.049 718.5,144C 717.833,142.667 717.167,141.333 716.5,140C 718.361,138.138 719.694,138.638 720.5,141.5C 721.517,138.972 722.684,138.972 724,141.5C 724.005,168.815 724.172,196.148 724.5,223.5 Z"/></g>
<g><path style="opacity:0.992" fill="#715534" d="M 817.5,147.5 C 818.498,177.995 818.831,208.662 818.5,239.5C 811.765,240.827 804.932,240.827 798,239.5C 797.333,225.167 797.333,210.833 798,196.5C 801.038,187.863 804.538,179.529 808.5,171.5C 808.5,172.833 808.5,174.167 808.5,175.5C 805.812,181.955 802.979,188.622 800,195.5C 799.5,209.829 799.333,224.163 799.5,238.5C 804.5,238.5 809.5,238.5 814.5,238.5C 815.5,238.5 816.5,238.5 817.5,238.5C 817.667,210.831 817.5,183.165 817,155.5C 814.828,160.921 811.995,165.921 808.5,170.5C 809.892,166.051 811.559,161.718 813.5,157.5C 815.346,154.46 816.679,151.127 817.5,147.5 Z"/></g>
<g><path style="opacity:0.343" fill="#797348" d="M 538.5,147.5 C 539.583,147.539 540.583,147.873 541.5,148.5C 542.665,157.482 542.832,166.482 542,175.5C 541.184,176.823 540.017,177.489 538.5,177.5C 539.122,176.373 539.955,175.373 541,174.5C 541.667,166.5 541.667,158.5 541,150.5C 539.955,149.627 539.122,148.627 538.5,147.5 Z"/></g>
<g><path style="opacity:1" fill="#745832" d="M 805.5,161.5 C 800.933,175.546 795.6,189.212 789.5,202.5C 788.946,198.256 789.946,194.59 792.5,191.5C 795.259,185.162 797.426,178.496 799,171.5C 802.669,167.445 803.669,162.778 802,157.5C 802.498,159.544 803.665,160.878 805.5,161.5 Z"/></g>
<g><path style="opacity:1" fill="#e9e5a5" d="M 478.5,135.5 C 480.963,137.461 483.297,139.628 485.5,142C 484.705,148.593 484.372,155.427 484.5,162.5C 477.833,162.5 471.167,162.5 464.5,162.5C 465.097,157.706 464.43,153.373 462.5,149.5C 462.167,148.833 461.833,148.167 461.5,147.5C 463.117,148.038 464.784,148.371 466.5,148.5C 466.234,152.571 466.567,156.571 467.5,160.5C 472.326,160.697 477.16,160.697 482,160.5C 482.667,154.833 482.667,149.167 482,143.5C 481.018,140.706 479.851,138.039 478.5,135.5 Z"/></g>
<g><path style="opacity:0.522" fill="#644d27" d="M 159.5,149.5 C 160.485,153.634 160.818,157.968 160.5,162.5C 166.833,162.5 173.167,162.5 179.5,162.5C 173.021,163.491 166.354,163.824 159.5,163.5C 159.5,158.833 159.5,154.167 159.5,149.5 Z"/></g>
<g><path style="opacity:0.502" fill="#747148" d="M 385.5,150.5 C 386.483,154.298 386.817,158.298 386.5,162.5C 390.5,162.5 394.5,162.5 398.5,162.5C 401.167,162.5 403.833,162.5 406.5,162.5C 399.687,163.491 392.687,163.825 385.5,163.5C 385.5,159.167 385.5,154.833 385.5,150.5 Z"/></g>
<g><path style="opacity:0.506" fill="#848155" d="M 462.5,149.5 C 464.43,153.373 465.097,157.706 464.5,162.5C 471.167,162.5 477.833,162.5 484.5,162.5C 477.687,163.491 470.687,163.825 463.5,163.5C 463.774,158.737 463.441,154.07 462.5,149.5 Z"/></g>
<g><path style="opacity:1" fill="#996d30" d="M 791.5,149.5 C 791.187,152.572 791.854,155.405 793.5,158C 792.419,159.371 791.585,160.871 791,162.5C 790.667,161.5 790.333,160.5 790,159.5C 789.691,160.766 789.191,161.933 788.5,163C 791.167,164.333 791.167,165.667 788.5,167C 790.138,171.212 791.471,175.545 792.5,180C 791.932,181.872 791.265,183.705 790.5,185.5C 790.846,186.696 791.346,186.696 792,185.5C 792.495,187.473 792.662,189.473 792.5,191.5C 789.946,194.59 788.946,198.256 789.5,202.5C 784.42,202.75 779.42,202.25 774.5,201C 774.045,198.688 773.045,196.688 771.5,195C 772.337,193.989 772.67,192.822 772.5,191.5C 773.5,191.5 774.5,191.5 775.5,191.5C 775.831,183.14 775.498,174.807 774.5,166.5C 773.757,167.908 772.923,169.241 772,170.5C 771.833,169.667 771.667,168.833 771.5,168C 772.691,165.162 773.691,162.328 774.5,159.5C 775.117,159.611 775.617,159.944 776,160.5C 776.333,162.5 776.667,164.5 777,166.5C 778.337,167.765 779.837,168.265 781.5,168C 784.718,161.729 788.051,155.562 791.5,149.5 Z"/></g>
<g><path style="opacity:0.812" fill="#a59a68" d="M 351.5,133.5 C 349.909,136.431 347.909,139.098 345.5,141.5C 344.175,153.34 344.175,165.34 345.5,177.5C 347.415,179.071 348.415,181.071 348.5,183.5C 346.37,181.873 344.37,180.04 342.5,178C 343.323,165.575 343.823,153.075 344,140.5C 346.37,137.961 348.87,135.628 351.5,133.5 Z"/></g>
<g><path style="opacity:0.762" fill="#756c3f" d="M 661.5,140.5 C 661.5,168.833 661.5,197.167 661.5,225.5C 660.778,225.082 660.278,224.416 660,223.5C 659.833,210.667 659.667,197.833 659.5,185C 659.867,170.877 659.867,156.877 659.5,143C 660.066,142.005 660.733,141.172 661.5,140.5 Z"/></g>
<g><path style="opacity:1" fill="#dccb83" d="M 88.5,143.5 C 87.8474,156.662 87.1807,169.829 86.5,183C 87.1816,196.492 87.6816,209.992 88,223.5C 88.6667,224.167 89.3333,224.833 90,225.5C 90.1909,227.708 90.6909,229.708 91.5,231.5C 91.1583,232.338 90.4916,232.672 89.5,232.5C 89.5,231.5 89.5,230.5 89.5,229.5C 89.5,228.5 89.5,227.5 89.5,226.5C 88.0222,226.762 86.6888,226.429 85.5,225.5C 85.0576,224.261 84.3909,223.261 83.5,222.5C 80.5765,212.846 79.9098,203.179 81.5,193.5C 81.0121,200.691 81.8454,207.691 84,214.5C 83.7617,193.542 83.9284,172.542 84.5,151.5C 84.2111,145.755 84.7111,140.088 86,134.5C 88.212,137.002 89.0453,140.002 88.5,143.5 Z"/></g>
<g><path style="opacity:1" fill="#7e643c" d="M 750.5,149.5 C 751.474,150.635 752.641,151.635 754,152.5C 757.41,157.64 759.91,162.974 761.5,168.5C 761.72,172.945 762.554,177.278 764,181.5C 768.19,187.905 770.69,194.905 771.5,202.5C 763.93,185.135 756.93,167.469 750.5,149.5 Z"/></g>
<g><path style="opacity:1" fill="#997237" d="M 763.5,128.5 C 764.167,128.833 764.833,129.167 765.5,129.5C 767.109,133.054 768.442,136.721 769.5,140.5C 770.044,147.257 771.711,153.59 774.5,159.5C 773.691,162.328 772.691,165.162 771.5,168C 771.667,168.833 771.833,169.667 772,170.5C 772.923,169.241 773.757,167.908 774.5,166.5C 775.498,174.807 775.831,183.14 775.5,191.5C 774.5,191.5 773.5,191.5 772.5,191.5C 772.67,192.822 772.337,193.989 771.5,195C 773.045,196.688 774.045,198.688 774.5,201C 779.42,202.25 784.42,202.75 789.5,202.5C 789.586,203.496 789.252,204.329 788.5,205C 783.167,205.667 777.833,205.667 772.5,205C 771.748,204.329 771.414,203.496 771.5,202.5C 770.69,194.905 768.19,187.905 764,181.5C 762.554,177.278 761.72,172.945 761.5,168.5C 761.337,166.143 761.503,163.81 762,161.5C 764.329,160.229 765.495,158.229 765.5,155.5C 764.574,152.53 763.908,149.53 763.5,146.5C 761.897,146.688 760.563,146.188 759.5,145C 761.126,142.372 763.126,140.039 765.5,138C 764.39,134.951 763.723,131.784 763.5,128.5 Z"/></g>
<g><path style="opacity:1" fill="#886c42" d="M 746.5,155.5 C 750.538,164.6 754.204,173.933 757.5,183.5C 756.85,183.196 756.183,182.863 755.5,182.5C 752.702,176.904 749.869,171.237 747,165.5C 746.502,162.183 746.335,158.85 746.5,155.5 Z"/></g>
<g><path style="opacity:1" fill="#dfce83" d="M 365.5,174.5 C 374.173,174.334 382.84,174.5 391.5,175C 392.9,176.438 394.567,177.271 396.5,177.5C 400.167,180.5 403.5,183.833 406.5,187.5C 406.5,189.167 406.5,190.833 406.5,192.5C 391.163,192.667 375.83,192.5 360.5,192C 359.263,191.768 358.263,191.268 357.5,190.5C 360.114,190.705 362.448,190.705 364.5,190.5C 363.86,188.084 363.36,185.418 363,182.5C 365.531,185.258 367.031,184.925 367.5,181.5C 367.234,179.34 366.234,177.674 364.5,176.5C 364.863,175.817 365.196,175.15 365.5,174.5 Z"/></g>
<g><path style="opacity:1" fill="#f8f19d" d="M 447.5,174.5 C 454.841,174.334 462.174,174.5 469.5,175C 471.017,177.761 470.184,179.594 467,180.5C 466.209,189.501 467.209,189.501 470,180.5C 471.975,180.488 474.142,180.822 476.5,181.5C 476.736,183.973 478.069,185.64 480.5,186.5C 481.309,188.071 481.643,189.738 481.5,191.5C 471.5,191.5 461.5,191.5 451.5,191.5C 451.5,186.5 451.5,181.5 451.5,176.5C 449.517,176.843 448.183,176.176 447.5,174.5 Z"/></g>
<g><path style="opacity:1" fill="#a27b3c" d="M 746.5,155.5 C 746.335,158.85 746.502,162.183 747,165.5C 749.869,171.237 752.702,176.904 755.5,182.5C 756.183,182.863 756.85,183.196 757.5,183.5C 759.601,186.797 760.935,190.463 761.5,194.5C 761.5,209.167 761.5,223.833 761.5,238.5C 755.5,238.5 749.5,238.5 743.5,238.5C 743.333,209.831 743.5,181.165 744,152.5C 744.852,153.571 745.685,154.571 746.5,155.5 Z"/></g>
<g><path style="opacity:0.173" fill="#2e2614" d="M 87.5,113.5 C 87.8333,113.5 88.1667,113.5 88.5,113.5C 89.4682,115.607 89.8016,117.941 89.5,120.5C 93.2706,155.935 96.2706,191.435 98.5,227C 98.101,228.728 97.4343,230.228 96.5,231.5C 96.1934,211.945 94.8601,192.612 92.5,173.5C 92.6291,164.956 91.9625,156.623 90.5,148.5C 89.8776,137.83 89.2109,127.163 88.5,116.5C 86.8762,116.36 85.7096,117.027 85,118.5C 84.8255,123.351 84.3255,128.018 83.5,132.5C 83.8128,128.958 83.4794,125.625 82.5,122.5C 83.3007,120.958 83.634,119.292 83.5,117.5C 84.404,116.791 84.7373,115.791 84.5,114.5C 85.791,114.737 86.791,114.404 87.5,113.5 Z"/></g>
<g><path style="opacity:1" fill="#c7b26e" d="M 310.5,135.5 C 316.57,161.564 321.904,187.898 326.5,214.5C 312.5,214.5 298.5,214.5 284.5,214.5C 290.645,213.51 296.978,213.177 303.5,213.5C 309.5,213.5 315.5,213.5 321.5,213.5C 321.891,210.162 320.724,209.162 318,210.5C 315.057,209.76 314.891,208.76 317.5,207.5C 315.865,206.319 314.198,206.319 312.5,207.5C 311.322,196.809 311.322,186.309 312.5,176C 310.55,174.756 309.55,172.923 309.5,170.5C 311.545,158.894 311.879,147.228 310.5,135.5 Z"/></g>
<g><path style="opacity:0.647" fill="#735834" d="M 129.5,127.5 C 134.305,126.513 139.305,126.179 144.5,126.5C 144.5,133.5 144.5,140.5 144.5,147.5C 141.315,147.02 138.481,147.686 136,149.5C 135.333,171.833 135.333,194.167 136,216.5C 138.196,219.125 141.03,220.125 144.5,219.5C 144.5,225.833 144.5,232.167 144.5,238.5C 144.389,239.117 144.056,239.617 143.5,240C 139.167,240.667 134.833,240.667 130.5,240C 129.058,239.623 128.058,238.79 127.5,237.5C 132.772,238.4 138.105,238.733 143.5,238.5C 143.5,232.5 143.5,226.5 143.5,220.5C 141.833,220.5 140.167,220.5 138.5,220.5C 137.178,220.67 136.011,220.337 135,219.5C 134.333,195.833 134.333,172.167 135,148.5C 137.481,146.686 140.315,146.02 143.5,146.5C 143.5,140.167 143.5,133.833 143.5,127.5C 138.833,127.5 134.167,127.5 129.5,127.5 Z"/></g>
<g><path style="opacity:1" fill="#906126" d="M 814.5,238.5 C 812.26,237.736 809.927,236.902 807.5,236C 808.5,235.667 809.5,235.333 810.5,235C 808.5,234.667 806.5,234.333 804.5,234C 805.833,233.667 807.167,233.333 808.5,233C 807.484,232.481 806.818,231.647 806.5,230.5C 807.447,221.201 807.781,211.868 807.5,202.5C 806.325,202.719 805.325,202.386 804.5,201.5C 807.356,198.909 808.022,196.242 806.5,193.5C 807.325,192.614 808.325,192.281 809.5,192.5C 809.286,190.856 809.62,189.356 810.5,188C 808.781,184.043 808.114,179.876 808.5,175.5C 808.5,174.167 808.5,172.833 808.5,171.5C 808.5,171.167 808.5,170.833 808.5,170.5C 811.995,165.921 814.828,160.921 817,155.5C 817.5,183.165 817.667,210.831 817.5,238.5C 816.5,238.5 815.5,238.5 814.5,238.5 Z"/></g>
<g><path style="opacity:0.203" fill="#5d593b" d="M 499.5,127.5 C 506.313,126.509 513.313,126.175 520.5,126.5C 520.5,150.5 520.5,174.5 520.5,198.5C 513.137,198.831 505.803,198.497 498.5,197.5C 498.624,196.893 498.957,196.56 499.5,196.5C 505.979,197.491 512.646,197.824 519.5,197.5C 519.5,174.167 519.5,150.833 519.5,127.5C 512.833,127.5 506.167,127.5 499.5,127.5 Z"/></g>
<g><path style="opacity:0.999" fill="#b89f63" d="M 310.5,135.5 C 309.076,133.485 308.41,131.152 308.5,128.5C 305.5,128.5 302.5,128.5 299.5,128.5C 293.833,128.5 288.167,128.5 282.5,128.5C 280.116,139.422 278.116,150.422 276.5,161.5C 276.852,165.39 277.519,169.223 278.5,173C 278.167,174.167 277.833,175.333 277.5,176.5C 271.09,178.126 271.424,179.459 278.5,180.5C 277.372,181.262 276.205,181.929 275,182.5C 274.342,184.108 274.842,185.275 276.5,186C 280.486,186.499 284.486,186.666 288.5,186.5C 289.659,181.532 290.659,176.532 291.5,171.5C 292.167,171.167 292.833,170.833 293.5,170.5C 291.871,176.054 290.871,181.72 290.5,187.5C 283.5,187.5 276.5,187.5 269.5,187.5C 273.424,167.547 277.091,147.547 280.5,127.5C 290.167,127.5 299.833,127.5 309.5,127.5C 310.092,130.127 310.425,132.794 310.5,135.5 Z"/></g>
<g><path style="opacity:0.008" fill="#363421" d="M 424.5,181.5 C 426.833,183.167 428.833,185.167 430.5,187.5C 427.5,186.5 425.5,184.5 424.5,181.5 Z"/></g>
<g><path style="opacity:0.116" fill="#4b3a21" d="M 817.5,147.5 C 817.56,146.957 817.893,146.624 818.5,146.5C 819.83,177.664 819.83,208.664 818.5,239.5C 818.831,208.662 818.498,177.995 817.5,147.5 Z"/></g>
<g><path style="opacity:0.694" fill="#a28656" d="M 195.5,127.5 C 202.167,127.5 208.833,127.5 215.5,127.5C 215.5,155.833 215.5,184.167 215.5,212.5C 208.833,212.5 202.167,212.5 195.5,212.5C 195.5,184.167 195.5,155.833 195.5,127.5 Z"/></g>
<g><path style="opacity:0.997" fill="#ab8646" d="M 205.5,128.5 C 208.5,128.5 211.5,128.5 214.5,128.5C 214.5,156.167 214.5,183.833 214.5,211.5C 208.5,211.5 202.5,211.5 196.5,211.5C 196.5,210.167 196.5,208.833 196.5,207.5C 197.404,208.209 197.737,209.209 197.5,210.5C 200.187,210.664 202.854,210.497 205.5,210C 204.692,209.692 204.025,209.192 203.5,208.5C 205.479,181.992 206.146,155.325 205.5,128.5 Z"/></g>
<g><path style="opacity:1" fill="#a98241" d="M 205.5,128.5 C 206.146,155.325 205.479,181.992 203.5,208.5C 204.025,209.192 204.692,209.692 205.5,210C 202.854,210.497 200.187,210.664 197.5,210.5C 197.737,209.209 197.404,208.209 196.5,207.5C 196.5,181.167 196.5,154.833 196.5,128.5C 199.5,128.5 202.5,128.5 205.5,128.5 Z"/></g>
<g><path style="opacity:1" fill="#857f57" d="M 558.5,137.5 C 560.129,138.625 561.629,139.959 563,141.5C 563.455,155.342 563.621,169.009 563.5,182.5C 560.812,185.854 557.812,188.854 554.5,191.5C 554.216,189.585 554.549,187.919 555.5,186.5C 557.43,185.237 559.097,183.57 560.5,181.5C 561.833,168.167 561.833,154.833 560.5,141.5C 559.295,140.423 558.628,139.09 558.5,137.5 Z"/></g>
<g><path style="opacity:0.765" fill="#6f6139" d="M 705.5,149.5 C 706.117,149.611 706.617,149.944 707,150.5C 707.667,172.833 707.667,195.167 707,217.5C 706.617,218.056 706.117,218.389 705.5,218.5C 705.5,217.833 705.5,217.167 705.5,216.5C 705.5,194.167 705.5,171.833 705.5,149.5 Z"/></g>
<g><path style="opacity:1" fill="#d9be75" d="M 88.5,143.5 C 89.1667,145.167 89.8333,146.833 90.5,148.5C 91.553,176.196 92.2197,203.863 92.5,231.5C 92.1667,231.5 91.8333,231.5 91.5,231.5C 90.6909,229.708 90.1909,227.708 90,225.5C 89.3333,224.833 88.6667,224.167 88,223.5C 87.6816,209.992 87.1816,196.492 86.5,183C 87.1807,169.829 87.8474,156.662 88.5,143.5 Z"/></g>
<g><path style="opacity:0.737" fill="#aaa06f" d="M 348.5,183.5 C 351.262,184.38 353.929,185.546 356.5,187C 357.337,188.011 357.67,189.178 357.5,190.5C 358.263,191.268 359.263,191.768 360.5,192C 375.83,192.5 391.163,192.667 406.5,192.5C 406.5,190.833 406.5,189.167 406.5,187.5C 407.461,189.265 407.795,191.265 407.5,193.5C 391.256,193.175 375.089,193.509 359,194.5C 355.296,190.964 351.796,187.298 348.5,183.5 Z"/></g>
<g><path style="opacity:0.749" fill="#b6b381" d="M 482.5,185.5 C 484.655,187.617 485.655,190.284 485.5,193.5C 469.256,193.175 453.089,193.509 437,194.5C 436.283,193.956 435.783,193.289 435.5,192.5C 451.167,192.5 466.833,192.5 482.5,192.5C 482.5,190.167 482.5,187.833 482.5,185.5 Z"/></g>
<g><path style="opacity:1" fill="#91642a" d="M 808.5,175.5 C 808.114,179.876 808.781,184.043 810.5,188C 809.62,189.356 809.286,190.856 809.5,192.5C 808.325,192.281 807.325,192.614 806.5,193.5C 808.022,196.242 807.356,198.909 804.5,201.5C 805.325,202.386 806.325,202.719 807.5,202.5C 807.781,211.868 807.447,221.201 806.5,230.5C 806.818,231.647 807.484,232.481 808.5,233C 807.167,233.333 805.833,233.667 804.5,234C 806.5,234.333 808.5,234.667 810.5,235C 809.5,235.333 808.5,235.667 807.5,236C 809.927,236.902 812.26,237.736 814.5,238.5C 809.5,238.5 804.5,238.5 799.5,238.5C 799.333,224.163 799.5,209.829 800,195.5C 802.979,188.622 805.812,181.955 808.5,175.5 Z"/></g>
<g><path style="opacity:1" fill="#bea25e" d="M 299.5,194.5 C 296.992,196.237 293.992,197.07 290.5,197C 291.357,197.689 292.023,198.522 292.5,199.5C 289.982,203.437 290.315,206.603 293.5,209C 292.034,209.635 290.7,210.469 289.5,211.5C 288.5,209.5 287.5,207.5 286.5,205.5C 285.692,205.808 285.025,206.308 284.5,207C 286.192,208.401 286.859,210.234 286.5,212.5C 292.358,212.178 298.025,212.511 303.5,213.5C 296.978,213.177 290.645,213.51 284.5,214.5C 284.084,217.583 283.417,220.583 282.5,223.5C 280.125,228.089 279.125,233.089 279.5,238.5C 272.833,238.5 266.167,238.5 259.5,238.5C 259.5,237.5 259.5,236.5 259.5,235.5C 259.5,234.167 259.5,232.833 259.5,231.5C 262.903,219.448 265.57,207.114 267.5,194.5C 278.167,194.5 288.833,194.5 299.5,194.5 Z"/></g>
<g><path style="opacity:0.247" fill="#5d5934" d="M 526.5,197.5 C 529.698,196.964 532.365,197.631 534.5,199.5C 531.72,198.922 529.053,198.255 526.5,197.5 Z"/></g>
<g><path style="opacity:1" fill="#e4dd99" d="M 84.5,151.5 C 83.9284,172.542 83.7617,193.542 84,214.5C 81.8454,207.691 81.0121,200.691 81.5,193.5C 81.2483,184.127 81.5817,174.793 82.5,165.5C 83.1667,160.833 83.8333,156.167 84.5,151.5 Z"/></g>
<g><path style="opacity:1" fill="#c3bf8b" d="M 484.5,200.5 C 485.206,207.299 485.539,213.799 485.5,220C 485.046,222.03 484.38,223.863 483.5,225.5C 483.815,217.58 483.482,209.747 482.5,202C 477.5,201.333 472.5,201.333 467.5,202C 466.7,206.08 466.2,210.247 466,214.5C 465.55,216.519 464.717,218.352 463.5,220C 456.842,220.5 450.175,220.666 443.5,220.5C 443.25,219.078 442.417,218.078 441,217.5C 440.631,213.137 440.131,208.804 439.5,204.5C 434.167,204.5 428.833,204.5 423.5,204.5C 423.5,204.167 423.5,203.833 423.5,203.5C 429.833,203.5 436.167,203.5 442.5,203.5C 442.334,207.846 442.501,212.179 443,216.5C 443.5,217 444,217.5 444.5,218C 450.167,218.667 455.833,218.667 461.5,218C 462.044,217.283 462.711,216.783 463.5,216.5C 464.488,211.36 464.821,206.026 464.5,200.5C 471.167,200.5 477.833,200.5 484.5,200.5 Z"/></g>
<g><path style="opacity:0.592" fill="#68623f" d="M 554.5,191.5 C 556.244,197.066 557.577,202.733 558.5,208.5C 556.67,203.677 555.003,198.677 553.5,193.5C 553.543,192.584 553.876,191.917 554.5,191.5 Z"/></g>
<g><path style="opacity:0.145" fill="#4f3d1e" d="M 743.5,147.5 C 742.502,177.995 742.169,208.662 742.5,239.5C 741.17,208.664 741.17,177.664 742.5,146.5C 743.107,146.624 743.44,146.957 743.5,147.5 Z"/></g>
<g><path style="opacity:1" fill="#efe595" d="M 423.5,204.5 C 428.833,204.5 434.167,204.5 439.5,204.5C 440.131,208.804 440.631,213.137 441,217.5C 442.417,218.078 443.25,219.078 443.5,220.5C 442.417,220.461 441.417,220.127 440.5,219.5C 439.062,221.998 439.396,224.164 441.5,226C 439.893,227.049 439.227,228.549 439.5,230.5C 434.304,230.565 434.304,231.232 439.5,232.5C 440.731,233.651 440.731,234.817 439.5,236C 440.749,237.824 441.915,237.657 443,235.5C 445.173,237.83 447.673,238.163 450.5,236.5C 455.324,237.06 459.99,237.727 464.5,238.5C 454.448,238.784 444.448,238.45 434.5,237.5C 431.5,235.167 428.833,232.5 426.5,229.5C 426.167,228.5 425.5,227.833 424.5,227.5C 422.935,223.414 422.268,219.081 422.5,214.5C 422.502,210.982 422.835,207.649 423.5,204.5 Z"/></g>
<g><path style="opacity:0.235" fill="#747144" d="M 484.5,200.5 C 477.833,200.5 471.167,200.5 464.5,200.5C 464.821,206.026 464.488,211.36 463.5,216.5C 463.5,210.833 463.5,205.167 463.5,199.5C 470.687,199.175 477.687,199.509 484.5,200.5 Z"/></g>
<g><path style="opacity:1" fill="#d5c378" d="M 365.5,219.5 C 365.5,219.833 365.5,220.167 365.5,220.5C 364.365,221.474 363.365,222.641 362.5,224C 363.573,225.313 364.24,226.813 364.5,228.5C 362.773,230.243 362.106,232.076 362.5,234C 364.037,235.11 364.703,236.61 364.5,238.5C 362.167,238.5 359.833,238.5 357.5,238.5C 354.167,235.833 351.167,232.833 348.5,229.5C 347.69,227.202 346.856,224.868 346,222.5C 345.501,216.509 345.334,210.509 345.5,204.5C 351.167,204.5 356.833,204.5 362.5,204.5C 362.334,208.846 362.501,213.179 363,217.5C 363.708,218.381 364.542,219.047 365.5,219.5 Z"/></g>
<g><path style="opacity:0.145" fill="#605a33" d="M 406.5,200.5 C 399.833,200.5 393.167,200.5 386.5,200.5C 386.821,206.026 386.488,211.36 385.5,216.5C 385.5,210.833 385.5,205.167 385.5,199.5C 392.687,199.175 399.687,199.509 406.5,200.5 Z"/></g>
<g><path style="opacity:1" fill="#b9b27a" d="M 406.5,200.5 C 407.656,208.323 407.823,216.323 407,224.5C 405.629,226.041 404.129,227.375 402.5,228.5C 401.833,228.833 401.167,229.167 400.5,229.5C 400.67,228.178 400.337,227.011 399.5,226C 400.872,225.598 402.205,225.098 403.5,224.5C 404.813,216.942 404.813,209.442 403.5,202C 398.5,201.333 393.5,201.333 388.5,202C 387.693,207.083 387.193,212.25 387,217.5C 386.308,218.025 385.808,218.692 385.5,219.5C 378.866,220.497 372.2,220.83 365.5,220.5C 365.5,220.167 365.5,219.833 365.5,219.5C 365.5,218.833 365.833,218.5 366.5,218.5C 372.176,218.666 377.843,218.499 383.5,218C 384.044,217.283 384.711,216.783 385.5,216.5C 386.488,211.36 386.821,206.026 386.5,200.5C 393.167,200.5 399.833,200.5 406.5,200.5 Z"/></g>
<g><path style="opacity:0.906" fill="#c0ba84" d="M 423.5,203.5 C 423.5,203.833 423.5,204.167 423.5,204.5C 422.835,207.649 422.502,210.982 422.5,214.5C 422.268,219.081 422.935,223.414 424.5,227.5C 424.167,227.5 423.833,227.5 423.5,227.5C 423.217,226.711 422.717,226.044 422,225.5C 421.776,218.963 421.276,212.463 420.5,206C 420.748,204.251 421.748,203.418 423.5,203.5 Z"/></g>
<g><path style="opacity:0.976" fill="#bdb784" d="M 499.5,204.5 C 506.5,204.5 513.5,204.5 520.5,204.5C 520.978,216.661 520.478,228.661 519,240.5C 512.222,239.85 505.389,239.183 498.5,238.5C 498.209,227.198 498.542,215.865 499.5,204.5 Z"/></g>
<g><path style="opacity:1" fill="#ede191" d="M 500.5,205.5 C 506.5,205.5 512.5,205.5 518.5,205.5C 518.5,216.5 518.5,227.5 518.5,238.5C 512.5,238.5 506.5,238.5 500.5,238.5C 500.5,227.5 500.5,216.5 500.5,205.5 Z"/></g>
<g><path style="opacity:1" fill="#806a43" d="M 743.5,147.5 C 745.267,149.792 746.267,152.458 746.5,155.5C 745.685,154.571 744.852,153.571 744,152.5C 743.5,181.165 743.333,209.831 743.5,238.5C 749.5,238.5 755.5,238.5 761.5,238.5C 761.5,223.833 761.5,209.167 761.5,194.5C 762.222,194.918 762.722,195.584 763,196.5C 763.667,210.833 763.667,225.167 763,239.5C 756.068,240.827 749.235,240.827 742.5,239.5C 742.169,208.662 742.502,177.995 743.5,147.5 Z"/></g>
<g><path style="opacity:1" fill="#bfb377" d="M 366.5,218.5 C 365.833,218.5 365.5,218.833 365.5,219.5C 364.542,219.047 363.708,218.381 363,217.5C 362.501,213.179 362.334,208.846 362.5,204.5C 356.833,204.5 351.167,204.5 345.5,204.5C 345.334,210.509 345.501,216.509 346,222.5C 346.856,224.868 347.69,227.202 348.5,229.5C 346.37,227.873 344.37,226.04 342.5,224C 343.818,217.53 343.818,211.03 342.5,204.5C 349.803,203.503 357.137,203.169 364.5,203.5C 364.334,207.846 364.501,212.179 365,216.5C 365.717,217.044 366.217,217.711 366.5,218.5 Z"/></g>
<g><path style="opacity:0.212" fill="#2a2214" d="M 175.5,229.5 C 175.5,229.167 175.5,228.833 175.5,228.5C 177.129,227.375 178.629,226.041 180,224.5C 180.5,217.508 180.666,210.508 180.5,203.5C 173.5,203.5 166.5,203.5 159.5,203.5C 159.666,207.846 159.499,212.179 159,216.5C 158.283,217.044 157.783,217.711 157.5,218.5C 155.167,218.5 152.833,218.5 150.5,218.5C 150.5,222.167 150.5,225.833 150.5,229.5C 149.305,229.134 148.639,228.301 148.5,227C 149.367,223.895 149.701,220.728 149.5,217.5C 152.685,217.98 155.519,217.314 158,215.5C 158.499,211.179 158.666,206.846 158.5,202.5C 166.159,201.207 173.826,201.207 181.5,202.5C 181.225,209.047 181.558,215.547 182.5,222C 181.998,226.332 179.665,228.832 175.5,229.5 Z"/></g>
<g><path style="opacity:1" fill="#c7a460" d="M 90.5,148.5 C 91.9625,156.623 92.6291,164.956 92.5,173.5C 92.7079,187.365 93.3746,201.199 94.5,215C 94.4952,220.876 93.8286,226.376 92.5,231.5C 92.2197,203.863 91.553,176.196 90.5,148.5 Z"/></g>
<g><path style="opacity:1" fill="#b79a5a" d="M 665.5,138.5 C 665.315,140.196 664.481,141.529 663,142.5C 662.333,169.833 662.333,197.167 663,224.5C 664.324,227.244 666.491,228.577 669.5,228.5C 669.439,226.408 668.439,224.908 666.5,224C 669.28,223.731 671.446,224.898 673,227.5C 676.198,224.476 677.198,220.809 676,216.5C 674.906,214.922 674.072,213.255 673.5,211.5C 673.709,210.078 674.209,208.745 675,207.5C 676.183,208.731 677.349,208.731 678.5,207.5C 677.349,191.878 677.183,176.211 678,160.5C 679.041,156.094 679.874,151.761 680.5,147.5C 680.5,170.5 680.5,193.5 680.5,216.5C 680.511,218.017 681.177,219.184 682.5,220C 684.81,220.497 687.143,220.663 689.5,220.5C 689.5,226.5 689.5,232.5 689.5,238.5C 685.167,238.5 680.833,238.5 676.5,238.5C 676.67,237.178 676.337,236.011 675.5,235C 673.482,234.495 671.482,233.995 669.5,233.5C 666.5,231.167 663.833,228.5 661.5,225.5C 661.5,197.167 661.5,168.833 661.5,140.5C 663.062,140.267 664.395,139.6 665.5,138.5 Z"/></g>
<g><path style="opacity:1" fill="#e0d083" d="M 555.5,186.5 C 554.549,187.919 554.216,189.585 554.5,191.5C 553.876,191.917 553.543,192.584 553.5,193.5C 555.003,198.677 556.67,203.677 558.5,208.5C 558.294,211.495 558.96,214.162 560.5,216.5C 559.553,222.277 560.887,227.277 564.5,231.5C 565.451,232.919 565.784,234.585 565.5,236.5C 562.742,237.818 559.576,238.485 556,238.5C 552.833,238.167 549.667,237.833 546.5,237.5C 545.452,236.452 544.452,235.452 543.5,234.5C 542.566,233.432 542.232,232.099 542.5,230.5C 543.067,224.678 542.067,219.345 539.5,214.5C 538.414,208.808 537.248,203.141 536,197.5C 533.281,196.556 530.448,196.223 527.5,196.5C 527.502,190.477 527.835,184.477 528.5,178.5C 534.943,178.175 540.943,178.175 546.5,178.5C 547.167,177.167 547.833,175.833 548.5,174.5C 549.499,164.522 549.832,154.522 549.5,144.5C 550.5,144.5 551.5,144.5 552.5,144.5C 552.5,143.167 552.5,141.833 552.5,140.5C 551.5,140.5 550.5,140.5 549.5,140.5C 549.5,139.5 549.5,138.5 549.5,137.5C 548.448,137.649 547.448,137.483 546.5,137C 549.621,134.821 551.788,135.655 553,139.5C 553.603,136.094 554.769,135.761 556.5,138.5C 555.115,139.551 554.115,140.884 553.5,142.5C 553.821,153.54 554.821,164.373 556.5,175C 555.109,176.02 553.609,176.853 552,177.5C 551.51,178.793 551.343,180.127 551.5,181.5C 552.833,181.5 554.167,181.5 555.5,181.5C 556.071,183.36 556.071,185.027 555.5,186.5 Z"/></g>
<g><path style="opacity:0.49" fill="#665c3e" d="M 558.5,208.5 C 559.768,210.905 560.435,213.572 560.5,216.5C 558.96,214.162 558.294,211.495 558.5,208.5 Z"/></g>
<g><path style="opacity:0.075" fill="#373124" d="M 247.5,229.5 C 247.813,225.958 247.479,222.625 246.5,219.5C 238.5,219.5 230.5,219.5 222.5,219.5C 222.5,225.833 222.5,232.167 222.5,238.5C 222.5,238.833 222.5,239.167 222.5,239.5C 221.986,235.283 220.986,231.116 219.5,227C 220.077,223.944 220.743,220.944 221.5,218C 230.494,217.5 239.494,217.334 248.5,217.5C 248.216,220.777 248.549,223.943 249.5,227C 248.934,227.995 248.267,228.828 247.5,229.5 Z"/></g>
<g><path style="opacity:1" fill="#b29150" d="M 246.5,219.5 C 246.5,225.833 246.5,232.167 246.5,238.5C 238.5,238.5 230.5,238.5 222.5,238.5C 222.5,232.167 222.5,225.833 222.5,219.5C 230.5,219.5 238.5,219.5 246.5,219.5 Z"/></g>
<g><path style="opacity:1" fill="#9c9765" d="M 537.5,211.5 C 538.167,212.5 538.833,213.5 539.5,214.5C 542.067,219.345 543.067,224.678 542.5,230.5C 540.261,224.428 538.594,218.095 537.5,211.5 Z"/></g>
<g><path style="opacity:1" fill="#a98546" d="M 207.5,219.5 C 210.167,219.5 212.833,219.5 215.5,219.5C 215.5,222.833 215.5,226.167 215.5,229.5C 215.5,231.5 215.5,233.5 215.5,235.5C 214.596,236.209 214.263,237.209 214.5,238.5C 208.5,238.5 202.5,238.5 196.5,238.5C 196.5,232.5 196.5,226.5 196.5,220.5C 200.371,220.815 204.038,220.482 207.5,219.5 Z"/></g>
<g><path style="opacity:0.122" fill="#302b1a" d="M 330.5,228.5 C 329.717,226.657 329.05,224.657 328.5,222.5C 321.5,221.167 314.5,221.167 307.5,222.5C 308.482,225.096 309.149,227.762 309.5,230.5C 307.024,227.712 306.024,224.378 306.5,220.5C 314.174,220.334 321.841,220.5 329.5,221C 330.227,223.124 330.894,225.291 331.5,227.5C 331.376,228.107 331.043,228.44 330.5,228.5 Z"/></g>
<g><path style="opacity:1" fill="#baa362" d="M 631.5,159.5 C 631.333,175.17 631.5,190.837 632,206.5C 634.287,208.237 634.787,210.57 633.5,213.5C 633.824,217.555 633.491,221.555 632.5,225.5C 629.792,228.165 630.459,229.498 634.5,229.5C 634.5,231.167 634.5,232.833 634.5,234.5C 632.833,234.5 631.167,234.5 629.5,234.5C 629.5,235.833 629.5,237.167 629.5,238.5C 626.193,239.051 622.86,239.384 619.5,239.5C 618.5,239.5 617.5,239.5 616.5,239.5C 616.5,232.833 616.5,226.167 616.5,219.5C 618.792,219.244 620.959,219.577 623,220.5C 623.791,219.255 624.291,217.922 624.5,216.5C 624.667,194.164 624.5,171.831 624,149.5C 623.283,148.956 622.783,148.289 622.5,147.5C 623.5,147.5 624.5,147.5 625.5,147.5C 625.5,146.5 625.5,145.5 625.5,144.5C 624.127,144.657 622.793,144.49 621.5,144C 622.618,142.926 623.618,141.76 624.5,140.5C 626.271,141.035 626.604,141.869 625.5,143C 629.318,143.613 630.318,145.613 628.5,149C 629.937,152.375 630.937,155.875 631.5,159.5 Z"/></g>
<g><path style="opacity:0.491" fill="#56442c" d="M 157.5,218.5 C 155.735,219.461 153.735,219.795 151.5,219.5C 151.5,226.167 151.5,232.833 151.5,239.5C 150.521,236.375 150.187,233.042 150.5,229.5C 150.5,225.833 150.5,222.167 150.5,218.5C 152.833,218.5 155.167,218.5 157.5,218.5 Z"/></g>
<g><path style="opacity:0.999" fill="#c9b36d" d="M 330.5,228.5 C 331.159,231.455 331.492,234.455 331.5,237.5C 326.694,238.593 321.694,239.259 316.5,239.5C 314.5,239.5 312.5,239.5 310.5,239.5C 310.037,236.518 309.704,233.518 309.5,230.5C 309.149,227.762 308.482,225.096 307.5,222.5C 314.5,221.167 321.5,221.167 328.5,222.5C 329.05,224.657 329.717,226.657 330.5,228.5 Z"/></g>
<g><path style="opacity:1" fill="#9b7336" d="M 175.5,228.5 C 175.5,228.833 175.5,229.167 175.5,229.5C 173.5,232.167 171.167,234.5 168.5,236.5C 163.308,238.031 157.974,238.697 152.5,238.5C 152.334,232.824 152.501,227.157 153,221.5C 155.333,220.833 157.667,220.167 160,219.5C 160.499,214.511 160.666,209.511 160.5,204.5C 165.511,204.334 170.511,204.501 175.5,205C 176.416,205.374 177.25,205.874 178,206.5C 178.667,212.5 178.667,218.5 178,224.5C 176.519,225.471 175.685,226.804 175.5,228.5 Z"/></g>
<g><path style="opacity:0.287" fill="#372e21" d="M 215.5,229.5 C 215.5,226.167 215.5,222.833 215.5,219.5C 212.833,219.5 210.167,219.5 207.5,219.5C 203.5,219.5 199.5,219.5 195.5,219.5C 195.5,226.167 195.5,232.833 195.5,239.5C 194.827,234.552 193.827,229.552 192.5,224.5C 192.692,222.423 193.192,220.423 194,218.5C 201.413,217.519 208.913,217.186 216.5,217.5C 216.749,220.002 217.083,222.502 217.5,225C 217.693,227.008 217.026,228.508 215.5,229.5 Z"/></g>
<g><path style="opacity:0.988" fill="#ad905d" d="M 92.5,173.5 C 94.8601,192.612 96.1934,211.945 96.5,231.5C 96.5852,232.995 95.9185,233.995 94.5,234.5C 93.5,233.167 92.5,233.167 91.5,234.5C 90.4777,234.145 89.811,233.478 89.5,232.5C 90.4916,232.672 91.1583,232.338 91.5,231.5C 91.8333,231.5 92.1667,231.5 92.5,231.5C 93.8286,226.376 94.4952,220.876 94.5,215C 93.3746,201.199 92.7079,187.365 92.5,173.5 Z"/></g>
<g><path style="opacity:1" fill="#f7f09d" d="M 483.5,225.5 C 482.883,225.389 482.383,225.056 482,224.5C 480.66,225.868 479.326,227.201 478,228.5C 476.838,227.813 475.672,227.647 474.5,228C 475.747,229.494 475.747,230.994 474.5,232.5C 472.5,233.833 470.833,235.5 469.5,237.5C 467.955,238.452 466.288,238.785 464.5,238.5C 459.99,237.727 455.324,237.06 450.5,236.5C 447.673,238.163 445.173,237.83 443,235.5C 441.915,237.657 440.749,237.824 439.5,236C 440.731,234.817 440.731,233.651 439.5,232.5C 434.304,231.232 434.304,230.565 439.5,230.5C 439.227,228.549 439.893,227.049 441.5,226C 439.396,224.164 439.062,221.998 440.5,219.5C 441.417,220.127 442.417,220.461 443.5,220.5C 450.175,220.666 456.842,220.5 463.5,220C 464.717,218.352 465.55,216.519 466,214.5C 466.2,210.247 466.7,206.08 467.5,202C 472.5,201.333 477.5,201.333 482.5,202C 483.482,209.747 483.815,217.58 483.5,225.5 Z"/></g>
<g><path style="opacity:0.21" fill="#52452f" d="M 705.5,216.5 C 705.5,217.167 705.5,217.833 705.5,218.5C 702.946,219.388 700.279,219.721 697.5,219.5C 697.5,225.833 697.5,232.167 697.5,238.5C 697.5,238.833 697.5,239.167 697.5,239.5C 696.509,232.687 696.175,225.687 696.5,218.5C 699.838,218.935 702.838,218.268 705.5,216.5 Z"/></g>
<g><path style="opacity:0.114" fill="#39331d" d="M 83.5,222.5 C 84.3909,223.261 85.0576,224.261 85.5,225.5C 86.6888,226.429 88.0222,226.762 89.5,226.5C 89.5,227.5 89.5,228.5 89.5,229.5C 87.8516,228.223 86.0183,227.223 84,226.5C 83.51,225.207 83.3433,223.873 83.5,222.5 Z"/></g>
<g><path style="opacity:0.95" fill="#80653b" d="M 175.5,228.5 C 175.685,226.804 176.519,225.471 178,224.5C 178.667,218.5 178.667,212.5 178,206.5C 177.25,205.874 176.416,205.374 175.5,205C 170.511,204.501 165.511,204.334 160.5,204.5C 160.666,209.511 160.499,214.511 160,219.5C 157.667,220.167 155.333,220.833 153,221.5C 152.501,227.157 152.334,232.824 152.5,238.5C 157.974,238.697 163.308,238.031 168.5,236.5C 167.71,237.794 166.71,238.961 165.5,240C 160.648,240.815 155.981,240.648 151.5,239.5C 151.5,232.833 151.5,226.167 151.5,219.5C 153.735,219.795 155.735,219.461 157.5,218.5C 157.783,217.711 158.283,217.044 159,216.5C 159.499,212.179 159.666,207.846 159.5,203.5C 166.5,203.5 173.5,203.5 180.5,203.5C 180.666,210.508 180.5,217.508 180,224.5C 178.629,226.041 177.129,227.375 175.5,228.5 Z"/></g>
<g><path style="opacity:1" fill="#e1d184" d="M 400.5,229.5 C 398.5,231.833 396.5,234.167 394.5,236.5C 384.65,238.34 374.65,239.007 364.5,238.5C 364.703,236.61 364.037,235.11 362.5,234C 362.106,232.076 362.773,230.243 364.5,228.5C 364.24,226.813 363.573,225.313 362.5,224C 363.365,222.641 364.365,221.474 365.5,220.5C 372.2,220.83 378.866,220.497 385.5,219.5C 385.808,218.692 386.308,218.025 387,217.5C 387.193,212.25 387.693,207.083 388.5,202C 393.5,201.333 398.5,201.333 403.5,202C 404.813,209.442 404.813,216.942 403.5,224.5C 402.205,225.098 400.872,225.598 399.5,226C 400.337,227.011 400.67,228.178 400.5,229.5 Z"/></g>
<g><path style="opacity:0.345" fill="#413e2a" d="M 423.5,227.5 C 423.833,227.5 424.167,227.5 424.5,227.5C 425.5,227.833 426.167,228.5 426.5,229.5C 424.973,229.573 423.973,228.906 423.5,227.5 Z"/></g>
<g><path style="opacity:1" fill="#9c9267" d="M 560.5,216.5 C 562.279,221.278 563.613,226.278 564.5,231.5C 560.887,227.277 559.553,222.277 560.5,216.5 Z"/></g>
<g><path style="opacity:0.443" fill="#4e4929" d="M 581.5,227.5 C 582.167,227.5 582.833,227.5 583.5,227.5C 586.167,230.5 588.833,233.5 591.5,236.5C 587.564,234.234 584.231,231.234 581.5,227.5 Z"/></g>
<g><path style="opacity:0.668" fill="#7a7049" d="M 602.5,218.5 C 604.833,218.5 607.167,218.5 609.5,218.5C 610.44,225.511 610.107,232.511 608.5,239.5C 603.889,240.61 599.222,240.777 594.5,240C 593.944,239.617 593.611,239.117 593.5,238.5C 594.167,238.5 594.833,238.5 595.5,238.5C 599.687,239.662 604.02,239.662 608.5,238.5C 608.5,232.167 608.5,225.833 608.5,219.5C 606.265,219.795 604.265,219.461 602.5,218.5 Z"/></g>
<g><path style="opacity:0.982" fill="#786440" d="M 207.5,219.5 C 204.038,220.482 200.371,220.815 196.5,220.5C 196.5,226.5 196.5,232.5 196.5,238.5C 202.5,238.5 208.5,238.5 214.5,238.5C 214.263,237.209 214.596,236.209 215.5,235.5C 216.801,236.884 216.801,238.384 215.5,240C 208.654,240.821 201.987,240.654 195.5,239.5C 195.5,232.833 195.5,226.167 195.5,219.5C 199.5,219.5 203.5,219.5 207.5,219.5 Z"/></g>
<g><path style="opacity:0.44" fill="#786c46" d="M 624.5,216.5 C 624.291,217.922 623.791,219.255 623,220.5C 620.959,219.577 618.792,219.244 616.5,219.5C 616.5,226.167 616.5,232.833 616.5,239.5C 615.509,232.687 615.175,225.687 615.5,218.5C 618.838,218.935 621.838,218.268 624.5,216.5 Z"/></g>
<g><path style="opacity:1" fill="#76643e" d="M 724.5,225.5 C 725.167,225.5 725.833,225.5 726.5,225.5C 722.003,230.83 717.003,235.663 711.5,240C 706.648,240.815 701.981,240.648 697.5,239.5C 697.5,239.167 697.5,238.833 697.5,238.5C 702.5,238.5 707.5,238.5 712.5,238.5C 712.5,237.5 712.5,236.5 712.5,235.5C 713.5,235.5 714.5,235.5 715.5,235.5C 715.408,232.6 716.741,230.933 719.5,230.5C 720.771,228.431 722.438,226.765 724.5,225.5 Z"/></g>
<g><path style="opacity:1" fill="#948653" d="M 641.5,229.5 C 638.335,233.498 634.668,236.998 630.5,240C 626.642,240.81 622.976,240.643 619.5,239.5C 622.86,239.384 626.193,239.051 629.5,238.5C 629.5,237.167 629.5,235.833 629.5,234.5C 631.167,234.5 632.833,234.5 634.5,234.5C 634.5,232.833 634.5,231.167 634.5,229.5C 636.164,230.306 637.831,229.973 639.5,228.5C 638.391,226.786 639.058,226.119 641.5,226.5C 641.5,227.5 641.5,228.5 641.5,229.5 Z"/></g>
<g><path style="opacity:0.016" fill="#504c21" d="M 402.5,228.5 C 400.57,232.1 397.903,235.1 394.5,237.5C 394.5,237.167 394.5,236.833 394.5,236.5C 396.5,234.167 398.5,231.833 400.5,229.5C 401.167,229.167 401.833,228.833 402.5,228.5 Z"/></g>
<g><path style="opacity:0.757" fill="#655736" d="M 246.5,219.5 C 247.479,222.625 247.813,225.958 247.5,229.5C 248.029,233.351 247.362,236.851 245.5,240C 237.655,240.822 229.989,240.656 222.5,239.5C 222.5,239.167 222.5,238.833 222.5,238.5C 230.5,238.5 238.5,238.5 246.5,238.5C 246.5,232.167 246.5,225.833 246.5,219.5 Z"/></g>
<g><path style="opacity:0.759" fill="#7a6b42" d="M 282.5,223.5 C 282.007,225.806 281.674,228.139 281.5,230.5C 281.296,233.518 280.963,236.518 280.5,239.5C 273.536,240.553 266.536,240.72 259.5,240C 258.199,238.384 258.199,236.884 259.5,235.5C 259.5,236.5 259.5,237.5 259.5,238.5C 266.167,238.5 272.833,238.5 279.5,238.5C 279.125,233.089 280.125,228.089 282.5,223.5 Z"/></g>
<g><path style="opacity:0.754" fill="#5b4e30" d="M 331.5,237.5 C 332.737,238.743 332.404,239.743 330.5,240.5C 325.763,240.664 321.096,240.33 316.5,239.5C 321.694,239.259 326.694,238.593 331.5,237.5 Z"/></g>
<g><path style="opacity:0.755" fill="#827a54" d="M 394.5,236.5 C 394.5,236.833 394.5,237.167 394.5,237.5C 393.312,238.364 392.145,239.364 391,240.5C 380.45,239.867 369.95,239.867 359.5,240.5C 358.478,240.145 357.811,239.478 357.5,238.5C 359.833,238.5 362.167,238.5 364.5,238.5C 374.65,239.007 384.65,238.34 394.5,236.5 Z"/></g>
<g><path style="opacity:0.77" fill="#c4bf87" d="M 483.5,225.5 C 479.37,230.131 475.037,234.631 470.5,239C 459.257,239.178 448.09,239.678 437,240.5C 435.955,239.627 435.122,238.627 434.5,237.5C 444.448,238.45 454.448,238.784 464.5,238.5C 466.288,238.785 467.955,238.452 469.5,237.5C 470.833,235.5 472.5,233.833 474.5,232.5C 475.747,230.994 475.747,229.494 474.5,228C 475.672,227.647 476.838,227.813 478,228.5C 479.326,227.201 480.66,225.868 482,224.5C 482.383,225.056 482.883,225.389 483.5,225.5 Z"/></g>
<g><path style="opacity:0.745" fill="#887f59" d="M 543.5,234.5 C 544.452,235.452 545.452,236.452 546.5,237.5C 549.667,237.833 552.833,238.167 556,238.5C 559.576,238.485 562.742,237.818 565.5,236.5C 566.404,237.209 566.737,238.209 566.5,239.5C 559.088,241.061 551.755,240.728 544.5,238.5C 543.754,237.264 543.421,235.93 543.5,234.5 Z"/></g>
<g><path style="opacity:0.792" fill="#7e6f49" d="M 680.5,216.5 C 683.234,219.143 686.567,220.143 690.5,219.5C 691.653,225.319 691.819,231.319 691,237.5C 690.692,238.308 690.192,238.975 689.5,239.5C 681.104,242.482 674.438,240.482 669.5,233.5C 671.482,233.995 673.482,234.495 675.5,235C 676.337,236.011 676.67,237.178 676.5,238.5C 680.833,238.5 685.167,238.5 689.5,238.5C 689.5,232.5 689.5,226.5 689.5,220.5C 687.143,220.663 684.81,220.497 682.5,220C 681.177,219.184 680.511,218.017 680.5,216.5 Z"/></g>
</svg>
