<?xml version="1.0" encoding="UTF-8"?>
<!DOCTYPE svg PUBLIC "-//W3C//DTD SVG 1.1//EN" "http://www.w3.org/Graphics/SVG/1.1/DTD/svg11.dtd">
<svg xmlns="http://www.w3.org/2000/svg" version="1.1" width="507px" height="492px" style="shape-rendering:geometricPrecision; text-rendering:geometricPrecision; image-rendering:optimizeQuality; fill-rule:evenodd; clip-rule:evenodd" xmlns:xlink="http://www.w3.org/1999/xlink">
<g><path style="opacity:0.678" fill="#706c4f" d="M 245.5,24.5 C 249.82,23.8342 254.32,23.5009 259,23.5C 266.718,23.3893 274.218,24.0559 281.5,25.5C 279.833,25.5 278.167,25.5 276.5,25.5C 266.176,24.9216 255.843,24.5883 245.5,24.5 Z"/></g>
<g><path style="opacity:0.557" fill="#585440" d="M 297.5,27.5 C 295.585,27.7845 293.919,27.4511 292.5,26.5C 292.435,26.0618 292.601,25.7284 293,25.5C 294.622,26.0989 296.122,26.7656 297.5,27.5 Z"/></g>
<g><path style="opacity:0.894" fill="#89835b" d="M 236.5,25.5 C 233.373,26.5808 230.04,27.2474 226.5,27.5C 221.85,28.2596 217.183,28.9262 212.5,29.5C 220.166,26.9731 228.166,25.6398 236.5,25.5 Z"/></g>
<g><path style="opacity:1" fill="#f1e898" d="M 245.5,24.5 C 255.843,24.5883 266.176,24.9216 276.5,25.5C 274.898,27.0739 272.898,27.7406 270.5,27.5C 262.16,27.3336 253.827,27.5003 245.5,28C 252.385,29.4247 259.385,29.9247 266.5,29.5C 267.5,29.5 268.5,29.5 269.5,29.5C 269.5,30.1667 269.833,30.5 270.5,30.5C 269.602,31.1577 268.602,31.8243 267.5,32.5C 270.107,33.3184 272.774,33.8184 275.5,34C 261.837,34.4999 248.171,34.6666 234.5,34.5C 233.127,34.6567 231.793,34.49 230.5,34C 231.428,33.6121 232.095,32.9454 232.5,32C 230.957,29.7447 228.957,28.2447 226.5,27.5C 230.04,27.2474 233.373,26.5808 236.5,25.5C 239.391,24.5975 242.391,24.2641 245.5,24.5 Z"/></g>
<g><path style="opacity:0.455" fill="#837f5a" d="M 270.5,27.5 C 270.5,27.8333 270.5,28.1667 270.5,28.5C 268.901,28.2322 267.568,28.5655 266.5,29.5C 259.385,29.9247 252.385,29.4247 245.5,28C 253.827,27.5003 262.16,27.3336 270.5,27.5 Z"/></g>
<g><path style="opacity:0.137" fill="#403e34" d="M 271.5,28.5 C 273.735,28.2053 275.735,28.5386 277.5,29.5C 276.508,29.3284 275.842,29.6618 275.5,30.5C 273.833,30.5 272.167,30.5 270.5,30.5C 269.833,30.5 269.5,30.1667 269.5,29.5C 270.492,29.6716 271.158,29.3382 271.5,28.5 Z"/></g>
<g><path style="opacity:0.047" fill="#4e4a3b" d="M 307.5,29.5 C 305.901,29.7678 304.568,29.4345 303.5,28.5C 303.435,28.0618 303.601,27.7284 304,27.5C 305.302,28.0848 306.469,28.7515 307.5,29.5 Z"/></g>
<g><path style="opacity:1" fill="#d6ca82" d="M 226.5,27.5 C 228.957,28.2447 230.957,29.7447 232.5,32C 232.095,32.9454 231.428,33.6121 230.5,34C 231.793,34.49 233.127,34.6567 234.5,34.5C 234.5,34.8333 234.5,35.1667 234.5,35.5C 223.141,37.2187 211.808,39.2187 200.5,41.5C 198.801,41.6602 197.134,41.4935 195.5,41C 196.576,39.2739 196.743,37.4406 196,35.5C 194.612,36.5536 193.112,36.7203 191.5,36C 192.416,35.7216 193.082,35.2216 193.5,34.5C 196.916,34.4725 199.916,33.4725 202.5,31.5C 205.679,30.2066 209.012,29.5399 212.5,29.5C 217.183,28.9262 221.85,28.2596 226.5,27.5 Z"/></g>
<g><path style="opacity:0.035" fill="#36342f" d="M 283.5,29.5 C 287.122,29.322 290.456,29.9886 293.5,31.5C 292.761,31.369 292.094,31.5357 291.5,32C 292.416,32.2784 293.082,32.7784 293.5,33.5C 288.273,33.0217 283.273,32.0217 278.5,30.5C 280.415,30.7845 282.081,30.4511 283.5,29.5 Z"/></g>
<g><path style="opacity:1" fill="#cabb79" d="M 276.5,25.5 C 278.167,25.5 279.833,25.5 281.5,25.5C 285.269,25.244 288.936,25.5773 292.5,26.5C 293.919,27.4511 295.585,27.7845 297.5,27.5C 299.621,27.3253 301.621,27.6586 303.5,28.5C 304.568,29.4345 305.901,29.7678 307.5,29.5C 308.167,29.5 308.833,29.5 309.5,29.5C 311.515,30.9238 313.848,31.5905 316.5,31.5C 318.515,32.9238 320.848,33.5905 323.5,33.5C 324.278,34.1556 324.944,34.9889 325.5,36C 325.167,36.5 324.833,37 324.5,37.5C 321.979,36.2147 319.313,35.5481 316.5,35.5C 308.862,34.0074 301.196,32.674 293.5,31.5C 290.456,29.9886 287.122,29.322 283.5,29.5C 281.5,29.5 279.5,29.5 277.5,29.5C 275.735,28.5386 273.735,28.2053 271.5,28.5C 271.167,28.5 270.833,28.5 270.5,28.5C 270.5,28.1667 270.5,27.8333 270.5,27.5C 272.898,27.7406 274.898,27.0739 276.5,25.5 Z"/></g>
<g><path style="opacity:0.039" fill="#474337" d="M 309.5,29.5 C 312.152,29.4095 314.485,30.0762 316.5,31.5C 313.848,31.5905 311.515,30.9238 309.5,29.5 Z"/></g>
<g><path style="opacity:0.012" fill="#514c3b" d="M 316.5,31.5 C 319.152,31.4095 321.485,32.0762 323.5,33.5C 320.848,33.5905 318.515,32.9238 316.5,31.5 Z"/></g>
<g><path style="opacity:0.678" fill="#746c4c" d="M 202.5,31.5 C 199.916,33.4725 196.916,34.4725 193.5,34.5C 196.215,32.9281 199.215,31.9281 202.5,31.5 Z"/></g>
<g><path style="opacity:1" fill="#c1b778" d="M 270.5,30.5 C 272.167,30.5 273.833,30.5 275.5,30.5C 276.5,30.5 277.5,30.5 278.5,30.5C 283.273,32.0217 288.273,33.0217 293.5,33.5C 293.833,33.5 294.167,33.5 294.5,33.5C 294.987,34.4734 295.487,35.4734 296,36.5C 298.75,35.7089 301.583,35.7089 304.5,36.5C 304.833,36.5 305.167,36.5 305.5,36.5C 305.987,37.4734 306.487,38.4734 307,39.5C 307.893,38.2888 308.726,38.2888 309.5,39.5C 307.604,40.4656 305.604,40.7989 303.5,40.5C 280.736,35.9878 257.736,34.3212 234.5,35.5C 234.5,35.1667 234.5,34.8333 234.5,34.5C 248.171,34.6666 261.837,34.4999 275.5,34C 272.774,33.8184 270.107,33.3184 267.5,32.5C 268.602,31.8243 269.602,31.1577 270.5,30.5 Z"/></g>
<g><path style="opacity:1" fill="#857c57" d="M 294.5,33.5 C 298.116,33.8993 301.45,34.8993 304.5,36.5C 301.583,35.7089 298.75,35.7089 296,36.5C 295.487,35.4734 294.987,34.4734 294.5,33.5 Z"/></g>
<g><path style="opacity:0.027" fill="#474336" d="M 329.5,35.5 C 332.916,35.5275 335.916,36.5275 338.5,38.5C 335.215,38.0719 332.215,37.0719 329.5,35.5 Z"/></g>
<g><path style="opacity:0.999" fill="#c9b571" d="M 193.5,34.5 C 193.082,35.2216 192.416,35.7216 191.5,36C 193.112,36.7203 194.612,36.5536 196,35.5C 196.743,37.4406 196.576,39.2739 195.5,41C 197.134,41.4935 198.801,41.6602 200.5,41.5C 187.283,45.2614 174.283,49.9281 161.5,55.5C 160.5,55.5 159.5,55.5 158.5,55.5C 157.752,53.4159 157.752,51.4159 158.5,49.5C 156.565,48.787 156.232,47.787 157.5,46.5C 161.165,46.4982 164.165,45.1648 166.5,42.5C 172.915,41.4729 178.915,39.4729 184.5,36.5C 187.273,35.3428 190.273,34.6761 193.5,34.5 Z"/></g>
<g><path style="opacity:0.776" fill="#716747" d="M 184.5,36.5 C 178.915,39.4729 172.915,41.4729 166.5,42.5C 172.216,39.928 178.216,37.928 184.5,36.5 Z"/></g>
<g><path style="opacity:1" fill="#af9c62" d="M 323.5,33.5 C 325.898,33.2594 327.898,33.9261 329.5,35.5C 332.215,37.0719 335.215,38.0719 338.5,38.5C 340.553,38.4021 342.22,39.0687 343.5,40.5C 344.78,41.9313 346.447,42.5979 348.5,42.5C 350.153,42.6596 351.486,43.3263 352.5,44.5C 353.567,46.8795 352.567,47.8795 349.5,47.5C 338.414,43.4739 327.414,39.4739 316.5,35.5C 319.313,35.5481 321.979,36.2147 324.5,37.5C 324.833,37 325.167,36.5 325.5,36C 324.944,34.9889 324.278,34.1556 323.5,33.5 Z"/></g>
<g><path style="opacity:0.216" fill="#4c4638" d="M 343.5,40.5 C 345.553,40.4021 347.22,41.0687 348.5,42.5C 346.447,42.5979 344.78,41.9313 343.5,40.5 Z"/></g>
<g><path style="opacity:0.998" fill="#a59661" d="M 305.5,36.5 C 314.668,38.3328 323.335,41.3328 331.5,45.5C 332.93,46.5375 334.597,47.2041 336.5,47.5C 341.896,49.0321 346.896,51.3654 351.5,54.5C 352.659,56.2503 354.326,57.2503 356.5,57.5C 356.167,58.5 355.5,59.1667 354.5,59.5C 338.076,51.362 321.076,45.0287 303.5,40.5C 305.604,40.7989 307.604,40.4656 309.5,39.5C 308.726,38.2888 307.893,38.2888 307,39.5C 306.487,38.4734 305.987,37.4734 305.5,36.5 Z"/></g>
<g><path style="opacity:0.929" fill="#84774e" d="M 166.5,42.5 C 164.165,45.1648 161.165,46.4982 157.5,46.5C 160.088,44.4082 163.088,43.0749 166.5,42.5 Z"/></g>
<g><path style="opacity:0.004" fill="#383530" d="M 331.5,45.5 C 333.698,45.1201 335.365,45.7868 336.5,47.5C 334.597,47.2041 332.93,46.5375 331.5,45.5 Z"/></g>
<g><path style="opacity:0.995" fill="#766948" d="M 352.5,44.5 C 355.721,44.8961 358.388,46.2295 360.5,48.5C 358.742,48.1231 357.075,47.4565 355.5,46.5C 354.374,47.8084 354.374,49.1417 355.5,50.5C 353.181,50.0075 351.181,49.0075 349.5,47.5C 352.567,47.8795 353.567,46.8795 352.5,44.5 Z"/></g>
<g><path style="opacity:0.153" fill="#484235" d="M 366.5,51.5 C 368.38,51.2291 369.713,51.8958 370.5,53.5C 368.847,53.3404 367.514,52.6737 366.5,51.5 Z"/></g>
<g><path style="opacity:1" fill="#aa935a" d="M 360.5,48.5 C 362.819,48.9925 364.819,49.9925 366.5,51.5C 367.514,52.6737 368.847,53.3404 370.5,53.5C 370.144,55.1898 369.144,56.1898 367.5,56.5C 363.182,55.0078 359.182,53.0078 355.5,50.5C 354.374,49.1417 354.374,47.8084 355.5,46.5C 357.075,47.4565 358.742,48.1231 360.5,48.5 Z"/></g>
<g><path style="opacity:1" fill="#b79f5f" d="M 157.5,46.5 C 156.232,47.787 156.565,48.787 158.5,49.5C 157.752,51.4159 157.752,53.4159 158.5,55.5C 159.5,55.5 160.5,55.5 161.5,55.5C 156.872,57.8139 152.205,60.1473 147.5,62.5C 144.404,61.9066 142.071,62.9066 140.5,65.5C 137.494,64.4964 136.828,62.663 138.5,60C 137.99,58.1739 137.156,58.0072 136,59.5C 135.536,58.9056 135.369,58.2389 135.5,57.5C 142.237,52.7984 149.57,49.1317 157.5,46.5 Z"/></g>
<g><path style="opacity:0.075" fill="#393630" d="M 351.5,54.5 C 353.674,54.7497 355.341,55.7497 356.5,57.5C 354.326,57.2503 352.659,56.2503 351.5,54.5 Z"/></g>
<g><path style="opacity:0.988" fill="#7c6c47" d="M 370.5,53.5 C 375.343,55.4176 379.677,58.0843 383.5,61.5C 381.072,60.7878 378.739,59.7878 376.5,58.5C 375.914,58.7093 375.414,59.0426 375,59.5C 374.712,55.8259 373.212,54.9925 370.5,57C 371.381,57.7083 372.047,58.5416 372.5,59.5C 370.566,58.8897 368.899,57.8897 367.5,56.5C 369.144,56.1898 370.144,55.1898 370.5,53.5 Z"/></g>
<g><path style="opacity:0.012" fill="#36342f" d="M 362.5,61.5 C 364.179,61.2852 365.179,61.9519 365.5,63.5C 364.29,63.0679 363.29,62.4013 362.5,61.5 Z"/></g>
<g><path style="opacity:0.989" fill="#a58a51" d="M 383.5,61.5 C 383.973,62.9063 384.973,63.573 386.5,63.5C 386.973,64.9063 387.973,65.573 389.5,65.5C 390.167,65.5 390.5,65.8333 390.5,66.5C 390.973,67.9063 391.973,68.573 393.5,68.5C 394.539,70.5311 396.205,71.8645 398.5,72.5C 399.167,72.5 399.5,72.8333 399.5,73.5C 400.167,74.5 400.833,75.5 401.5,76.5C 401.217,77.2891 400.717,77.9558 400,78.5C 399.184,77.1772 398.017,76.5106 396.5,76.5C 388.492,70.8306 380.492,65.1639 372.5,59.5C 372.047,58.5416 371.381,57.7083 370.5,57C 373.212,54.9925 374.712,55.8259 375,59.5C 375.414,59.0426 375.914,58.7093 376.5,58.5C 378.739,59.7878 381.072,60.7878 383.5,61.5 Z"/></g>
<g><path style="opacity:0.008" fill="#3b3730" d="M 383.5,61.5 C 385.027,61.427 386.027,62.0937 386.5,63.5C 384.973,63.573 383.973,62.9063 383.5,61.5 Z"/></g>
<g><path style="opacity:0.831" fill="#8c7a4f" d="M 356.5,57.5 C 359.267,57.8702 361.267,59.2036 362.5,61.5C 363.29,62.4013 364.29,63.0679 365.5,63.5C 366.609,63.5569 367.609,63.8902 368.5,64.5C 368.953,65.4584 369.619,66.2917 370.5,67C 369.906,67.4643 369.239,67.631 368.5,67.5C 363.472,65.3238 358.806,62.6571 354.5,59.5C 355.5,59.1667 356.167,58.5 356.5,57.5 Z"/></g>
<g><path style="opacity:0.004" fill="#34322d" d="M 386.5,63.5 C 388.027,63.427 389.027,64.0937 389.5,65.5C 387.973,65.573 386.973,64.9063 386.5,63.5 Z"/></g>
<g><path style="opacity:0.012" fill="#3a3630" d="M 390.5,66.5 C 392.027,66.427 393.027,67.0937 393.5,68.5C 391.973,68.573 390.973,67.9063 390.5,66.5 Z"/></g>
<g><path style="opacity:0.004" fill="#474034" d="M 393.5,68.5 C 395.754,69.1237 397.421,70.457 398.5,72.5C 396.205,71.8645 394.539,70.5311 393.5,68.5 Z"/></g>
<g><path style="opacity:0.999" fill="#a78a4e" d="M 135.5,57.5 C 135.369,58.2389 135.536,58.9056 136,59.5C 137.156,58.0072 137.99,58.1739 138.5,60C 136.828,62.663 137.494,64.4964 140.5,65.5C 142.071,62.9066 144.404,61.9066 147.5,62.5C 139.761,67.0438 132.094,71.8771 124.5,77C 114.34,85.3929 104.673,94.2263 95.5,103.5C 94.0584,99.9792 93.2251,96.3126 93,92.5C 92.5774,93.9561 91.7441,94.4561 90.5,94C 91.2524,93.3292 91.5858,92.4959 91.5,91.5C 104.138,77.5265 118.805,66.1932 135.5,57.5 Z"/></g>
<g><path style="opacity:0.004" fill="#3f3a31" d="M 399.5,73.5 C 401.749,74.0798 403.415,75.4131 404.5,77.5C 403.391,77.4431 402.391,77.1098 401.5,76.5C 400.833,75.5 400.167,74.5 399.5,73.5 Z"/></g>
<g><path style="opacity:0.502" fill="#4d4536" d="M 368.5,64.5 C 370.411,64.5743 371.578,65.5743 372,67.5C 373.558,66.6548 374.558,67.3215 375,69.5C 375.333,69.1667 375.667,68.8333 376,68.5C 378.004,71.8435 380.337,74.1768 383,75.5C 383.333,75.1667 383.667,74.8333 384,74.5C 385.412,76.0646 386.579,77.7313 387.5,79.5C 388.29,80.7942 389.29,81.9609 390.5,83C 390.272,83.3988 389.938,83.5654 389.5,83.5C 382.641,77.9126 375.641,72.5793 368.5,67.5C 369.239,67.631 369.906,67.4643 370.5,67C 369.619,66.2917 368.953,65.4584 368.5,64.5 Z"/></g>
<g><path style="opacity:0.997" fill="#947744" d="M 396.5,76.5 C 398.017,76.5106 399.184,77.1772 400,78.5C 400.717,77.9558 401.217,77.2891 401.5,76.5C 402.391,77.1098 403.391,77.4431 404.5,77.5C 405.833,78.1667 406.833,79.1667 407.5,80.5C 407.833,82.8333 409.167,84.1667 411.5,84.5C 414.5,86.8333 417.167,89.5 419.5,92.5C 421.094,95.7642 423.427,98.4309 426.5,100.5C 426.511,102.017 427.177,103.184 428.5,104C 427.756,105.039 426.756,105.539 425.5,105.5C 416.167,95.5 406.5,85.8333 396.5,76.5 Z"/></g>
<g><path style="opacity:0.592" fill="#574b36" d="M 407.5,80.5 C 409.167,81.5 410.5,82.8333 411.5,84.5C 409.167,84.1667 407.833,82.8333 407.5,80.5 Z"/></g>
<g><path style="opacity:0.061" fill="#2c2c2b" d="M 389.5,83.5 C 389.938,83.5654 390.272,83.3988 390.5,83C 389.29,81.9609 388.29,80.7942 387.5,79.5C 388.117,79.3893 388.617,79.056 389,78.5C 390.764,82.0947 393.598,84.428 397.5,85.5C 398.799,87.3066 398.632,88.9732 397,90.5C 394.002,88.6671 391.502,86.3338 389.5,83.5 Z"/></g>
<g><path style="opacity:0.714" fill="#524634" d="M 419.5,92.5 C 422.573,94.5691 424.906,97.2358 426.5,100.5C 423.427,98.4309 421.094,95.7642 419.5,92.5 Z"/></g>
<g><path style="opacity:0.533" fill="#4e3f2a" d="M 83.5,99.5 C 82.9202,101.749 81.5869,103.415 79.5,104.5C 80.0798,102.251 81.4131,100.585 83.5,99.5 Z"/></g>
<g><path style="opacity:0.999" fill="#99763e" d="M 91.5,91.5 C 91.5858,92.4959 91.2524,93.3292 90.5,94C 91.7441,94.4561 92.5774,93.9561 93,92.5C 93.2251,96.3126 94.0584,99.9792 95.5,103.5C 84.9662,116.027 75.6329,129.36 67.5,143.5C 67.4482,140.781 66.7816,138.281 65.5,136C 66.1667,135.333 66.8333,134.667 67.5,134C 66.1667,133.333 66.1667,132.667 67.5,132C 66.8333,131.667 66.1667,131.333 65.5,131C 64.9394,129.434 65.6061,128.101 67.5,127C 66.4844,126.481 65.8178,125.647 65.5,124.5C 66.1869,122.823 66.8535,121.156 67.5,119.5C 69.016,116.467 71.016,113.8 73.5,111.5C 75.5869,110.415 76.9202,108.749 77.5,106.5C 77.8333,105.5 78.5,104.833 79.5,104.5C 81.5869,103.415 82.9202,101.749 83.5,99.5C 85.8333,96.5 88.5,93.8333 91.5,91.5 Z"/></g>
<g><path style="opacity:0.537" fill="#4d3e28" d="M 77.5,106.5 C 76.9202,108.749 75.5869,110.415 73.5,111.5C 74.0798,109.251 75.4131,107.585 77.5,106.5 Z"/></g>
<g><path style="opacity:0.004" fill="#39352e" d="M 430.5,111.5 C 432.262,112.262 433.262,113.596 433.5,115.5C 431.738,114.738 430.738,113.404 430.5,111.5 Z"/></g>
<g><path style="opacity:0.959" fill="#775a33" d="M 426.5,100.5 C 446.647,122.369 460.98,147.703 469.5,176.5C 468.034,175.653 467.2,174.32 467,172.5C 466.506,174.134 466.34,175.801 466.5,177.5C 458.645,155.122 447.645,134.455 433.5,115.5C 433.262,113.596 432.262,112.262 430.5,111.5C 428.367,109.909 426.701,107.909 425.5,105.5C 426.756,105.539 427.756,105.039 428.5,104C 427.177,103.184 426.511,102.017 426.5,100.5 Z"/></g>
<g><path style="opacity:1" fill="#8e6631" d="M 67.5,119.5 C 66.8535,121.156 66.1869,122.823 65.5,124.5C 65.8178,125.647 66.4844,126.481 67.5,127C 65.6061,128.101 64.9394,129.434 65.5,131C 66.1667,131.333 66.8333,131.667 67.5,132C 66.1667,132.667 66.1667,133.333 67.5,134C 66.8333,134.667 66.1667,135.333 65.5,136C 66.7816,138.281 67.4482,140.781 67.5,143.5C 61.5624,155.999 56.2291,168.665 51.5,181.5C 49.7973,182.66 49.1307,181.993 49.5,179.5C 51.008,174.85 52.1747,170.183 53,165.5C 50.3302,171.345 48.1635,177.345 46.5,183.5C 46.5,183.833 46.5,184.167 46.5,184.5C 45.6618,184.842 45.3284,185.508 45.5,186.5C 44.596,187.209 44.2627,188.209 44.5,189.5C 44.5,190.5 44.5,191.5 44.5,192.5C 43.5489,193.919 43.2155,195.585 43.5,197.5C 41.5799,203.436 39.9132,209.436 38.5,215.5C 38.7076,213.08 38.3742,210.747 37.5,208.5C 37.8457,207.304 38.3457,207.304 39,208.5C 39.1667,207.5 39.3333,206.5 39.5,205.5C 39.4393,198.409 39.4393,191.242 39.5,184C 38.8424,181.5 37.5091,181 35.5,182.5C 35.3939,179.921 36.0605,177.588 37.5,175.5C 39.8966,172.691 41.2299,169.358 41.5,165.5C 47.6105,148.6 56.2772,133.267 67.5,119.5 Z"/></g>
<g><path style="opacity:0.231" fill="#33302c" d="M 450.5,160.5 C 449.604,159.494 448.938,159.494 448.5,160.5C 441.295,145.764 432.795,131.764 423,118.5C 419.017,116.701 416.851,113.701 416.5,109.5C 417.552,109.351 418.552,109.517 419.5,110C 432.78,125.066 443.113,141.899 450.5,160.5 Z"/></g>
<g><path style="opacity:1" fill="#d1c079" d="M 230.5,140.5 C 228.833,140.5 227.167,140.5 225.5,140.5C 225.083,149.915 225.583,159.248 227,168.5C 228.299,168.034 229.799,168.034 231.5,168.5C 228.001,170.75 224.335,172.75 220.5,174.5C 218.789,162.832 217.789,150.832 217.5,138.5C 217.917,137.876 218.584,137.543 219.5,137.5C 223.436,137.977 227.103,138.977 230.5,140.5 Z"/></g>
<g><path style="opacity:0.62" fill="#5e543b" d="M 246.5,143.5 C 250.736,144.008 254.736,145.008 258.5,146.5C 255.794,146.425 253.127,146.092 250.5,145.5C 248.847,145.34 247.514,144.674 246.5,143.5 Z"/></g>
<g><path style="opacity:1" fill="#d3bf76" d="M 241.5,142.5 C 243.216,142.629 244.883,142.962 246.5,143.5C 247.514,144.674 248.847,145.34 250.5,145.5C 250.19,151.758 250.524,157.924 251.5,164C 247.975,164.179 244.641,164.679 241.5,165.5C 240.791,166.404 239.791,166.737 238.5,166.5C 240.198,158.724 241.198,150.724 241.5,142.5 Z"/></g>
<g><path style="opacity:1" fill="#766642" d="M 214.5,143.5 C 214.33,147.186 212.664,149.853 209.5,151.5C 210.669,148.489 212.336,145.822 214.5,143.5 Z"/></g>
<g><path style="opacity:1" fill="#b59554" d="M 250.5,145.5 C 253.127,146.092 255.794,146.425 258.5,146.5C 260.393,152.545 261.06,158.879 260.5,165.5C 258.5,165.5 256.5,165.5 254.5,165.5C 250.167,165.5 245.833,165.5 241.5,165.5C 244.641,164.679 247.975,164.179 251.5,164C 250.524,157.924 250.19,151.758 250.5,145.5 Z"/></g>
<g><path style="opacity:1" fill="#84683b" d="M 258.5,146.5 C 261.781,146.42 264.781,147.087 267.5,148.5C 265.533,148.261 263.699,148.594 262,149.5C 261.333,154.833 261.333,160.167 262,165.5C 264.167,166.488 266,167.821 267.5,169.5C 263.067,168.131 258.733,166.797 254.5,165.5C 256.5,165.5 258.5,165.5 260.5,165.5C 261.06,158.879 260.393,152.545 258.5,146.5 Z"/></g>
<g><path style="opacity:1" fill="#c0a460" d="M 217.5,138.5 C 217.789,150.832 218.789,162.832 220.5,174.5C 218.806,176.861 216.806,178.861 214.5,180.5C 211.833,180.5 209.167,180.5 206.5,180.5C 206.824,173.646 206.491,166.979 205.5,160.5C 206.528,159.926 207.528,159.593 208.5,159.5C 207.377,157.518 207.377,155.518 208.5,153.5C 208.328,152.508 208.662,151.842 209.5,151.5C 212.664,149.853 214.33,147.186 214.5,143.5C 215.11,141.566 216.11,139.899 217.5,138.5 Z"/></g>
<g><path style="opacity:1" fill="#9c7034" d="M 267.5,148.5 C 268.209,149.404 269.209,149.737 270.5,149.5C 271.126,156.584 270.459,163.25 268.5,169.5C 268.167,169.5 267.833,169.5 267.5,169.5C 266,167.821 264.167,166.488 262,165.5C 261.333,160.167 261.333,154.833 262,149.5C 263.699,148.594 265.533,148.261 267.5,148.5 Z"/></g>
<g><path style="opacity:0.831" fill="#6e4c26" d="M 267.5,148.5 C 269.099,148.232 270.432,148.566 271.5,149.5C 271.5,156.5 271.5,163.5 271.5,170.5C 271.565,170.938 271.399,171.272 271,171.5C 270.005,170.934 269.172,170.267 268.5,169.5C 270.459,163.25 271.126,156.584 270.5,149.5C 269.209,149.737 268.209,149.404 267.5,148.5 Z"/></g>
<g><path style="opacity:0.643" fill="#654928" d="M 281.5,151.5 C 279.533,151.261 277.699,151.594 276,152.5C 275.667,151.833 275.333,151.167 275,150.5C 274.5,157.826 274.334,165.159 274.5,172.5C 273.833,172.5 273.5,172.167 273.5,171.5C 273.5,164.833 273.5,158.167 273.5,151.5C 273.62,150.414 274.287,149.747 275.5,149.5C 277.717,149.878 279.717,150.545 281.5,151.5 Z"/></g>
<g><path style="opacity:0.027" fill="#252423" d="M 271.5,149.5 C 272.167,150.167 272.833,150.833 273.5,151.5C 273.5,158.167 273.5,164.833 273.5,171.5C 272.833,171.167 272.167,170.833 271.5,170.5C 271.5,163.5 271.5,156.5 271.5,149.5 Z"/></g>
<g><path style="opacity:1" fill="#a17b3e" d="M 281.5,151.5 C 283.415,151.216 285.081,151.549 286.5,152.5C 284.5,152.5 282.5,152.5 280.5,152.5C 280.5,160.5 280.5,168.5 280.5,176.5C 278.205,175.525 276.205,174.192 274.5,172.5C 274.334,165.159 274.5,157.826 275,150.5C 275.333,151.167 275.667,151.833 276,152.5C 277.699,151.594 279.533,151.261 281.5,151.5 Z"/></g>
<g><path style="opacity:1" fill="#ede394" d="M 230.5,140.5 C 234.291,140.659 237.958,141.325 241.5,142.5C 241.198,150.724 240.198,158.724 238.5,166.5C 236.167,167.167 233.833,167.833 231.5,168.5C 229.799,168.034 228.299,168.034 227,168.5C 225.583,159.248 225.083,149.915 225.5,140.5C 227.167,140.5 228.833,140.5 230.5,140.5 Z"/></g>
<g><path style="opacity:1" fill="#dbca7f" d="M 290.5,153.5 C 292.099,153.232 293.432,153.566 294.5,154.5C 292.833,154.5 291.167,154.5 289.5,154.5C 289.198,162.918 289.531,171.252 290.5,179.5C 289.833,180.5 289.167,181.5 288.5,182.5C 286.91,180.525 285.743,178.192 285,175.5C 284.5,168.174 284.334,160.841 284.5,153.5C 286.5,153.5 288.5,153.5 290.5,153.5 Z"/></g>
<g><path style="opacity:0.078" fill="#4e4a39" d="M 299.5,155.5 C 298.833,155.5 298.167,155.5 297.5,155.5C 296.508,155.672 295.842,155.338 295.5,154.5C 295.435,154.062 295.601,153.728 296,153.5C 297.302,154.085 298.469,154.751 299.5,155.5 Z"/></g>
<g><path style="opacity:1" fill="#e4d88c" d="M 294.5,154.5 C 294.833,154.5 295.167,154.5 295.5,154.5C 295.842,155.338 296.508,155.672 297.5,155.5C 297.267,160.895 297.6,166.228 298.5,171.5C 296.167,174.5 293.5,177.167 290.5,179.5C 289.531,171.252 289.198,162.918 289.5,154.5C 291.167,154.5 292.833,154.5 294.5,154.5 Z"/></g>
<g><path style="opacity:1" fill="#75613b" d="M 208.5,153.5 C 207.377,155.518 207.377,157.518 208.5,159.5C 207.528,159.593 206.528,159.926 205.5,160.5C 204.833,160.833 204.167,161.167 203.5,161.5C 204.669,158.489 206.336,155.822 208.5,153.5 Z"/></g>
<g><path style="opacity:1" fill="#c3ac69" d="M 297.5,155.5 C 298.167,155.5 298.833,155.5 299.5,155.5C 299.833,155.5 300.167,155.5 300.5,155.5C 301.209,156.404 302.209,156.737 303.5,156.5C 303.042,160.538 302.376,164.538 301.5,168.5C 300.833,169.833 299.833,170.833 298.5,171.5C 297.6,166.228 297.267,160.895 297.5,155.5 Z"/></g>
<g><path style="opacity:1" fill="#886d40" d="M 300.5,155.5 C 304.302,155.76 307.969,156.594 311.5,158C 307.935,161.396 304.602,164.896 301.5,168.5C 302.376,164.538 303.042,160.538 303.5,156.5C 302.209,156.737 301.209,156.404 300.5,155.5 Z"/></g>
<g><path style="opacity:1" fill="#a98344" d="M 205.5,160.5 C 206.491,166.979 206.824,173.646 206.5,180.5C 205.833,180.5 205.167,180.5 204.5,180.5C 203.22,179.069 201.553,178.402 199.5,178.5C 200.428,173.245 201.428,168.245 202.5,163.5C 202.328,162.508 202.662,161.842 203.5,161.5C 204.167,161.167 204.833,160.833 205.5,160.5 Z"/></g>
<g><path style="opacity:1" fill="#bba05e" d="M 286.5,152.5 C 288.099,152.232 289.432,152.566 290.5,153.5C 288.5,153.5 286.5,153.5 284.5,153.5C 284.334,160.841 284.5,168.174 285,175.5C 285.743,178.192 286.91,180.525 288.5,182.5C 285.276,182.037 282.609,180.037 280.5,176.5C 280.5,168.5 280.5,160.5 280.5,152.5C 282.5,152.5 284.5,152.5 286.5,152.5 Z"/></g>
<g><path style="opacity:0.902" fill="#503b22" d="M 41.5,165.5 C 41.2299,169.358 39.8966,172.691 37.5,175.5C 38.2635,171.863 39.5968,168.53 41.5,165.5 Z"/></g>
<g><path style="opacity:0.702" fill="#7d7551" d="M 257.5,169.5 C 256.833,169.5 256.167,169.5 255.5,169.5C 252.5,169.5 249.5,169.5 246.5,169.5C 244.5,169.5 242.5,169.5 240.5,169.5C 240.167,169.5 239.833,169.5 239.5,169.5C 240.531,168.751 241.698,168.085 243,167.5C 247.934,168.144 252.767,168.81 257.5,169.5 Z"/></g>
<g><path style="opacity:1" fill="#8f6833" d="M 202.5,163.5 C 201.428,168.245 200.428,173.245 199.5,178.5C 198.5,178.5 197.5,178.5 196.5,178.5C 196.5,176.5 196.5,174.5 196.5,172.5C 198.265,169.291 200.265,166.291 202.5,163.5 Z"/></g>
<g><path style="opacity:1" fill="#ceb972" d="M 246.5,169.5 C 249.5,169.5 252.5,169.5 255.5,169.5C 256.458,175.744 256.791,182.077 256.5,188.5C 255.209,188.263 254.209,188.596 253.5,189.5C 250.609,190.403 247.609,190.736 244.5,190.5C 245.263,189.732 246.263,189.232 247.5,189C 246.522,182.59 246.189,176.09 246.5,169.5 Z"/></g>
<g><path style="opacity:1" fill="#b79653" d="M 255.5,169.5 C 256.167,169.5 256.833,169.5 257.5,169.5C 257.833,169.5 258.167,169.5 258.5,169.5C 259.93,170.537 261.597,171.204 263.5,171.5C 263.5,177.167 263.5,182.833 263.5,188.5C 261.167,188.5 258.833,188.5 256.5,188.5C 256.791,182.077 256.458,175.744 255.5,169.5 Z"/></g>
<g><path style="opacity:1" fill="#f2e796" d="M 240.5,169.5 C 242.5,169.5 244.5,169.5 246.5,169.5C 246.189,176.09 246.522,182.59 247.5,189C 246.263,189.232 245.263,189.732 244.5,190.5C 244.167,190.5 243.833,190.5 243.5,190.5C 242.167,190.5 240.833,190.5 239.5,190.5C 238.955,186.828 238.622,187.162 238.5,191.5C 237.167,191.5 235.833,191.5 234.5,191.5C 234.5,184.833 234.5,178.167 234.5,171.5C 236.786,171.405 238.786,170.738 240.5,169.5 Z"/></g>
<g><path style="opacity:0.42" fill="#493822" d="M 49.5,179.5 C 48.8333,180.833 48.1667,182.167 47.5,183.5C 47.1667,183.5 46.8333,183.5 46.5,183.5C 48.1635,177.345 50.3302,171.345 53,165.5C 52.1747,170.183 51.008,174.85 49.5,179.5 Z"/></g>
<g><path style="opacity:0.11" fill="#342e26" d="M 258.5,169.5 C 263.464,169.816 267.797,171.483 271.5,174.5C 268.828,173.499 266.162,172.499 263.5,171.5C 261.597,171.204 259.93,170.537 258.5,169.5 Z"/></g>
<g><path style="opacity:1" fill="#d5c279" d="M 239.5,169.5 C 239.833,169.5 240.167,169.5 240.5,169.5C 238.786,170.738 236.786,171.405 234.5,171.5C 234.5,178.167 234.5,184.833 234.5,191.5C 235.833,191.5 237.167,191.5 238.5,191.5C 238.622,187.162 238.955,186.828 239.5,190.5C 240.833,190.5 242.167,190.5 243.5,190.5C 241.485,191.924 239.152,192.59 236.5,192.5C 233.833,192.5 231.167,192.5 228.5,192.5C 228.334,186.491 228.501,180.491 229,174.5C 229.717,173.956 230.217,173.289 230.5,172.5C 233.285,170.905 236.285,169.905 239.5,169.5 Z"/></g>
<g><path style="opacity:1" fill="#956d35" d="M 263.5,171.5 C 266.162,172.499 268.828,173.499 271.5,174.5C 271.526,177.876 270.859,181.042 269.5,184C 269.788,186.187 270.122,188.354 270.5,190.5C 269.167,190.5 267.833,190.5 266.5,190.5C 262.143,190.414 257.81,190.08 253.5,189.5C 254.209,188.596 255.209,188.263 256.5,188.5C 258.833,188.5 261.167,188.5 263.5,188.5C 263.5,182.833 263.5,177.167 263.5,171.5 Z"/></g>
<g><path style="opacity:1" fill="#654a29" d="M 196.5,172.5 C 196.5,174.5 196.5,176.5 196.5,178.5C 197.5,178.5 198.5,178.5 199.5,178.5C 201.553,178.402 203.22,179.069 204.5,180.5C 201.161,180.11 197.827,179.61 194.5,179C 193.261,176.298 193.927,174.132 196.5,172.5 Z"/></g>
<g><path style="opacity:1" fill="#c3a862" d="M 230.5,172.5 C 230.217,173.289 229.717,173.956 229,174.5C 228.501,180.491 228.334,186.491 228.5,192.5C 227.5,192.5 226.5,192.5 225.5,192.5C 224.325,192.719 223.325,192.386 222.5,191.5C 222.781,187.885 222.781,184.219 222.5,180.5C 224.067,178.498 225.733,176.498 227.5,174.5C 227.973,173.094 228.973,172.427 230.5,172.5 Z"/></g>
<g><path style="opacity:0.957" fill="#685a3b" d="M 204.5,180.5 C 205.167,180.5 205.833,180.5 206.5,180.5C 209.167,180.5 211.833,180.5 214.5,180.5C 214.134,181.695 213.301,182.361 212,182.5C 209.331,181.984 206.831,181.317 204.5,180.5 Z"/></g>
<g><path style="opacity:0.02" fill="#42372b" d="M 466.5,177.5 C 467.924,179.515 468.59,181.848 468.5,184.5C 467.076,182.485 466.41,180.152 466.5,177.5 Z"/></g>
<g><path style="opacity:0.71" fill="#4c3c2b" d="M 469.5,177.5 C 471.812,181.783 473.145,186.45 473.5,191.5C 471.565,187.105 470.231,182.438 469.5,177.5 Z"/></g>
<g><path style="opacity:1" fill="#a78446" d="M 227.5,174.5 C 225.733,176.498 224.067,178.498 222.5,180.5C 222.781,184.219 222.781,187.885 222.5,191.5C 223.325,192.386 224.325,192.719 225.5,192.5C 223.833,193.167 222.167,193.833 220.5,194.5C 219.167,194.5 217.833,194.5 216.5,194.5C 216.664,191.813 216.497,189.146 216,186.5C 215.824,189.882 215.324,193.215 214.5,196.5C 212.365,193.734 212.032,190.734 213.5,187.5C 216.197,181.139 220.864,176.806 227.5,174.5 Z"/></g>
<g><path style="opacity:0.339" fill="#493c29" d="M 271.5,174.5 C 274.147,174.929 276.147,176.262 277.5,178.5C 275.665,181.866 274.665,185.699 274.5,190C 274.557,192.209 275.557,193.709 277.5,194.5C 276.5,194.5 275.5,194.5 274.5,194.5C 274.5,198.5 274.5,202.5 274.5,206.5C 273.833,200.986 273.167,195.319 272.5,189.5C 271.828,190.949 271.161,192.282 270.5,193.5C 269.552,192.022 268.219,191.022 266.5,190.5C 267.833,190.5 269.167,190.5 270.5,190.5C 270.122,188.354 269.788,186.187 269.5,184C 270.859,181.042 271.526,177.876 271.5,174.5 Z"/></g>
<g><path style="opacity:1" fill="#d6c076" d="M 271.5,180.5 C 272.725,181.152 273.392,182.319 273.5,184C 273.167,185.167 272.833,186.333 272.5,187.5C 271.526,185.257 271.192,182.924 271.5,180.5 Z"/></g>
<g><path style="opacity:1" fill="#f0e595" d="M 280.5,181.5 C 281.052,184.116 281.386,186.783 281.5,189.5C 281.461,191.952 280.794,193.952 279.5,195.5C 278.398,191.253 278.232,186.92 279,182.5C 279.383,181.944 279.883,181.611 280.5,181.5 Z"/></g>
<g><path style="opacity:0.8" fill="#44321e" d="M 35.5,182.5 C 35.2766,186.162 34.2766,189.495 32.5,192.5C 32.5902,188.786 33.5902,185.452 35.5,182.5 Z"/></g>
<g><path style="opacity:1" fill="#c1a763" d="M 277.5,178.5 C 278.833,179.167 279.833,180.167 280.5,181.5C 279.883,181.611 279.383,181.944 279,182.5C 278.232,186.92 278.398,191.253 279.5,195.5C 278.508,195.672 277.842,195.338 277.5,194.5C 275.557,193.709 274.557,192.209 274.5,190C 274.665,185.699 275.665,181.866 277.5,178.5 Z"/></g>
<g><path style="opacity:0.999" fill="#bfa461" d="M 280.5,181.5 C 281.5,181.833 282.167,182.5 282.5,183.5C 284.252,187.227 284.919,191.227 284.5,195.5C 284.5,195.833 284.5,196.167 284.5,196.5C 283.833,197.167 283.167,197.833 282.5,198.5C 281.167,197.833 280.167,196.833 279.5,195.5C 280.794,193.952 281.461,191.952 281.5,189.5C 281.386,186.783 281.052,184.116 280.5,181.5 Z"/></g>
<g><path style="opacity:0.004" fill="#40362b" d="M 468.5,184.5 C 470.416,188.163 471.416,192.163 471.5,196.5C 469.898,192.761 468.898,188.761 468.5,184.5 Z"/></g>
<g><path style="opacity:0.824" fill="#695332" d="M 282.5,183.5 C 286.915,186.904 287.581,190.904 284.5,195.5C 284.919,191.227 284.252,187.227 282.5,183.5 Z"/></g>
<g><path style="opacity:0.514" fill="#6c6142" d="M 225.5,192.5 C 226.5,192.5 227.5,192.5 228.5,192.5C 231.167,192.5 233.833,192.5 236.5,192.5C 231.354,193.551 226.021,194.218 220.5,194.5C 222.167,193.833 223.833,193.167 225.5,192.5 Z"/></g>
<g><path style="opacity:1" fill="#6f522c" d="M 220.5,194.5 C 217.313,196.35 214.147,198.35 211,200.5C 210.427,195.811 211.26,191.477 213.5,187.5C 212.032,190.734 212.365,193.734 214.5,196.5C 215.324,193.215 215.824,189.882 216,186.5C 216.497,189.146 216.664,191.813 216.5,194.5C 217.833,194.5 219.167,194.5 220.5,194.5 Z"/></g>
<g><path style="opacity:0.714" fill="#50402c" d="M 450.5,160.5 C 457.517,175.883 462.517,191.883 465.5,208.5C 465.717,212.705 466.383,216.705 467.5,220.5C 469.117,225.916 469.784,231.583 469.5,237.5C 468.434,232.681 467.6,227.681 467,222.5C 466.502,225.817 466.335,229.15 466.5,232.5C 463.979,207.749 457.979,183.749 448.5,160.5C 448.938,159.494 449.604,159.494 450.5,160.5 Z"/></g>
<g><path style="opacity:0.553" fill="#43372a" d="M 473.5,191.5 C 474.913,194.219 475.58,197.219 475.5,200.5C 474.087,197.781 473.42,194.781 473.5,191.5 Z"/></g>
<g><path style="opacity:0.999" fill="#8c5e27" d="M 38.5,215.5 C 38.6576,218.902 38.3242,222.236 37.5,225.5C 35.9565,232.599 35.2898,239.932 35.5,247.5C 35.5006,253.011 35.8339,258.344 36.5,263.5C 36.2392,271.592 36.9059,279.592 38.5,287.5C 37.8633,291.078 38.1967,294.745 39.5,298.5C 38.3619,304.459 38.3619,310.459 39.5,316.5C 39.3333,317.167 39.1667,317.833 39,318.5C 38.5838,316.45 37.4171,315.116 35.5,314.5C 34.0762,312.485 33.4095,310.152 33.5,307.5C 33.7406,305.102 33.0739,303.102 31.5,301.5C 31.5,301.167 31.5,300.833 31.5,300.5C 31.5797,297.219 30.913,294.219 29.5,291.5C 29.7847,288.171 29.1181,285.171 27.5,282.5C 27.8112,277.234 27.1446,272.234 25.5,267.5C 24.3548,255.242 24.1882,242.909 25,230.5C 25.1499,224.919 25.9832,219.586 27.5,214.5C 29.0395,212.162 29.7062,209.495 29.5,206.5C 29.2053,204.265 29.5386,202.265 30.5,200.5C 32.0395,198.162 32.7062,195.495 32.5,192.5C 34.2766,189.495 35.2766,186.162 35.5,182.5C 37.5091,181 38.8424,181.5 39.5,184C 39.4393,191.242 39.4393,198.409 39.5,205.5C 39.3333,206.5 39.1667,207.5 39,208.5C 38.3457,207.304 37.8457,207.304 37.5,208.5C 38.3742,210.747 38.7076,213.08 38.5,215.5 Z"/></g>
<g><path style="opacity:0.969" fill="#6c4e27" d="M 49.5,179.5 C 49.1307,181.993 49.7973,182.66 51.5,181.5C 48.1877,194.728 45.521,208.062 43.5,221.5C 43.1667,221.5 42.8333,221.5 42.5,221.5C 42.1341,216.532 41.6341,216.866 41,222.5C 40.5002,233.495 40.3335,244.495 40.5,255.5C 40.1667,255.5 39.8333,255.5 39.5,255.5C 38.3974,236.019 39.7307,216.685 43.5,197.5C 44.4511,196.081 44.7845,194.415 44.5,192.5C 45.8333,191.5 45.8333,190.5 44.5,189.5C 44.2627,188.209 44.596,187.209 45.5,186.5C 45.3284,185.508 45.6618,184.842 46.5,184.5C 47.206,185.557 47.5393,185.224 47.5,183.5C 48.1667,182.167 48.8333,180.833 49.5,179.5 Z"/></g>
<g><path style="opacity:0.035" fill="#403a2d" d="M 284.5,196.5 C 284.719,197.675 284.386,198.675 283.5,199.5C 282.893,199.376 282.56,199.043 282.5,198.5C 283.167,197.833 283.833,197.167 284.5,196.5 Z"/></g>
<g><path style="opacity:0.459" fill="#41301c" d="M 32.5,192.5 C 32.7062,195.495 32.0395,198.162 30.5,200.5C 30.5651,197.572 31.2318,194.905 32.5,192.5 Z"/></g>
<g><path style="opacity:0.49" fill="#4b3c2a" d="M 471.5,197.5 C 473.223,199.78 473.889,202.447 473.5,205.5C 472.469,203.039 471.802,200.373 471.5,197.5 Z"/></g>
<g><path style="opacity:0.792" fill="#8c5f28" d="M 469.5,176.5 C 469.5,176.833 469.5,177.167 469.5,177.5C 470.231,182.438 471.565,187.105 473.5,191.5C 473.42,194.781 474.087,197.781 475.5,200.5C 475.5,200.833 475.5,201.167 475.5,201.5C 475.663,203.857 475.497,206.19 475,208.5C 474.768,207.263 474.268,206.263 473.5,205.5C 473.889,202.447 473.223,199.78 471.5,197.5C 471.5,197.167 471.5,196.833 471.5,196.5C 471.416,192.163 470.416,188.163 468.5,184.5C 468.59,181.848 467.924,179.515 466.5,177.5C 466.34,175.801 466.506,174.134 467,172.5C 467.2,174.32 468.034,175.653 469.5,176.5 Z"/></g>
<g><path style="opacity:0.886" fill="#55412a" d="M 475.5,201.5 C 476.913,204.219 477.58,207.219 477.5,210.5C 476.883,210.389 476.383,210.056 476,209.5C 475.502,212.817 475.335,216.15 475.5,219.5C 474.356,215.036 473.69,210.37 473.5,205.5C 474.268,206.263 474.768,207.263 475,208.5C 475.497,206.19 475.663,203.857 475.5,201.5 Z"/></g>
<g><path style="opacity:0.022" fill="#35302a" d="M 465.5,208.5 C 466.76,211.838 467.76,215.338 468.5,219C 467.944,219.383 467.611,219.883 467.5,220.5C 466.383,216.705 465.717,212.705 465.5,208.5 Z"/></g>
<g><path style="opacity:0.475" fill="#3e2e1b" d="M 29.5,206.5 C 29.7062,209.495 29.0395,212.162 27.5,214.5C 27.5651,211.572 28.2318,208.905 29.5,206.5 Z"/></g>
<g><path style="opacity:0.012" fill="#3e3326" d="M 274.5,209.5 C 275.3,220.169 275.967,231.002 276.5,242C 276.514,245.76 275.847,249.26 274.5,252.5C 274.5,238.167 274.5,223.833 274.5,209.5 Z"/></g>
<g><path style="opacity:0.439" fill="#433629" d="M 477.5,212.5 C 479.024,221.298 480.024,230.298 480.5,239.5C 480.079,249.708 479.079,259.708 477.5,269.5C 478.802,250.504 478.802,231.504 477.5,212.5 Z"/></g>
<g><path style="opacity:0.431" fill="#4a371e" d="M 37.5,225.5 C 36.7721,238.153 36.4388,250.82 36.5,263.5C 35.8339,258.344 35.5006,253.011 35.5,247.5C 35.2898,239.932 35.9565,232.599 37.5,225.5 Z"/></g>
<g><path style="opacity:1" fill="#8d622c" d="M 42.5,221.5 C 41.4713,232.996 41.4713,244.329 42.5,255.5C 43.436,259.735 43.7693,264.069 43.5,268.5C 43.2994,271.728 43.6328,274.895 44.5,278C 44.1918,279.459 43.5251,280.626 42.5,281.5C 41.6684,272.847 41.0017,264.18 40.5,255.5C 40.3335,244.495 40.5002,233.495 41,222.5C 41.6341,216.866 42.1341,216.532 42.5,221.5 Z"/></g>
<g><path style="opacity:0.441" fill="#503b21" d="M 42.5,221.5 C 42.8333,221.5 43.1667,221.5 43.5,221.5C 42.8642,232.822 42.5308,244.156 42.5,255.5C 41.4713,244.329 41.4713,232.996 42.5,221.5 Z"/></g>
<g><path style="opacity:1" fill="#af985c" d="M 269.5,211.5 C 269.333,227.17 269.5,242.837 270,258.5C 270.232,257.263 270.732,256.263 271.5,255.5C 271.768,257.099 271.434,258.432 270.5,259.5C 269.5,259.5 268.5,259.5 267.5,259.5C 267.5,250.833 267.5,242.167 267.5,233.5C 267.518,225.963 268.185,218.629 269.5,211.5 Z"/></g>
<g><path style="opacity:1" fill="#d3c178" d="M 274.5,206.5 C 274.5,207.5 274.5,208.5 274.5,209.5C 274.5,223.833 274.5,238.167 274.5,252.5C 274.5,253.5 274.5,254.5 274.5,255.5C 273.5,255.5 272.5,255.5 271.5,255.5C 270.732,256.263 270.232,257.263 270,258.5C 269.5,242.837 269.333,227.17 269.5,211.5C 269.425,205.471 269.759,199.471 270.5,193.5C 271.161,192.282 271.828,190.949 272.5,189.5C 273.167,195.319 273.833,200.986 274.5,206.5 Z"/></g>
<g><path style="opacity:0.841" fill="#6b522e" d="M 267.5,233.5 C 267.5,242.167 267.5,250.833 267.5,259.5C 268.5,259.5 269.5,259.5 270.5,259.5C 269.116,260.801 267.616,260.801 266,259.5C 265.691,250.65 266.191,241.983 267.5,233.5 Z"/></g>
<g><path style="opacity:0.979" fill="#795327" d="M 477.5,210.5 C 477.5,211.167 477.5,211.833 477.5,212.5C 478.802,231.504 478.802,250.504 477.5,269.5C 477.5,270.167 477.5,270.833 477.5,271.5C 476.622,275.336 475.956,279.336 475.5,283.5C 474.549,282.081 474.216,280.415 474.5,278.5C 474.5,277.5 474.5,276.5 474.5,275.5C 475.972,271.081 476.638,266.414 476.5,261.5C 476.716,247.691 476.383,233.691 475.5,219.5C 475.335,216.15 475.502,212.817 476,209.5C 476.383,210.056 476.883,210.389 477.5,210.5 Z"/></g>
<g><path style="opacity:0.082" fill="#352a1b" d="M 39.5,255.5 C 39.8333,255.5 40.1667,255.5 40.5,255.5C 41.0017,264.18 41.6684,272.847 42.5,281.5C 40.4907,273.089 39.4907,264.422 39.5,255.5 Z"/></g>
<g><path style="opacity:0.522" fill="#54412a" d="M 466.5,232.5 C 467.166,237.489 467.499,242.656 467.5,248C 467.662,256.056 466.995,263.889 465.5,271.5C 466.299,258.516 466.633,245.516 466.5,232.5 Z"/></g>
<g><path style="opacity:0.049" fill="#3b3228" d="M 476.5,261.5 C 476.638,266.414 475.972,271.081 474.5,275.5C 474.532,270.609 475.199,265.943 476.5,261.5 Z"/></g>
<g><path style="opacity:0.686" fill="#47331c" d="M 25.5,267.5 C 27.1446,272.234 27.8112,277.234 27.5,282.5C 25.9692,277.75 25.3025,272.75 25.5,267.5 Z"/></g>
<g><path style="opacity:0.875" fill="#4c381f" d="M 36.5,263.5 C 37.4941,271.359 38.4941,279.359 39.5,287.5C 39.1667,287.5 38.8333,287.5 38.5,287.5C 36.9059,279.592 36.2392,271.592 36.5,263.5 Z"/></g>
<g><path style="opacity:0.975" fill="#8a6330" d="M 469.5,237.5 C 469.627,253.205 468.96,268.871 467.5,284.5C 465.764,289.911 464.764,295.578 464.5,301.5C 462.96,303.838 462.294,306.505 462.5,309.5C 457.78,323.648 452.447,337.648 446.5,351.5C 445.11,352.899 444.11,354.566 443.5,356.5C 443.5,357.167 443.5,357.833 443.5,358.5C 442.662,358.842 442.328,359.508 442.5,360.5C 441.833,360.5 441.5,360.833 441.5,361.5C 440.662,361.842 440.328,362.508 440.5,363.5C 439.662,363.842 439.328,364.508 439.5,365.5C 438.833,365.5 438.5,365.833 438.5,366.5C 437.662,366.842 437.328,367.508 437.5,368.5C 436.833,368.5 436.5,368.833 436.5,369.5C 436.167,369.5 435.833,369.5 435.5,369.5C 435.167,369.5 434.833,369.5 434.5,369.5C 433.91,368.234 433.41,366.901 433,365.5C 432.617,366.056 432.117,366.389 431.5,366.5C 446.235,343.021 456.568,317.688 462.5,290.5C 464.762,284.835 465.762,278.835 465.5,272.5C 465.5,272.167 465.5,271.833 465.5,271.5C 466.995,263.889 467.662,256.056 467.5,248C 467.499,242.656 467.166,237.489 466.5,232.5C 466.335,229.15 466.502,225.817 467,222.5C 467.6,227.681 468.434,232.681 469.5,237.5 Z"/></g>
<g><path style="opacity:0.031" fill="#2f2b28" d="M 469.5,237.5 C 470.657,246.324 470.824,255.324 470,264.5C 469.993,271.425 469.16,278.092 467.5,284.5C 468.96,268.871 469.627,253.205 469.5,237.5 Z"/></g>
<g><path style="opacity:0.012" fill="#322c28" d="M 477.5,271.5 C 477.665,274.85 477.498,278.183 477,281.5C 476.722,282.416 476.222,283.082 475.5,283.5C 475.956,279.336 476.622,275.336 477.5,271.5 Z"/></g>
<g><path style="opacity:0.784" fill="#56422a" d="M 465.5,272.5 C 465.762,278.835 464.762,284.835 462.5,290.5C 462.957,284.28 463.957,278.28 465.5,272.5 Z"/></g>
<g><path style="opacity:0.106" fill="#2a2117" d="M 27.5,282.5 C 29.1181,285.171 29.7847,288.171 29.5,291.5C 28.3428,288.727 27.6761,285.727 27.5,282.5 Z"/></g>
<g><path style="opacity:0.998" fill="#705028" d="M 124.5,292.5 C 121.859,291.737 119.192,291.57 116.5,292C 118.79,292.79 119.123,294.124 117.5,296C 117.836,297.03 118.503,297.53 119.5,297.5C 118.386,301.25 117.386,304.917 116.5,308.5C 116.662,306.473 116.495,304.473 116,302.5C 114.844,303.993 114.01,303.826 113.5,302C 116.167,300 116.167,298 113.5,296C 114.022,295.05 114.689,294.216 115.5,293.5C 113.308,291.191 111.308,291.191 109.5,293.5C 110.378,290.713 112.378,289.38 115.5,289.5C 118.867,289.75 121.867,290.75 124.5,292.5 Z"/></g>
<g><path style="opacity:0.769" fill="#746c4a" d="M 219.5,291.5 C 217.5,291.5 215.5,291.5 213.5,291.5C 215.358,289.269 217.358,289.269 219.5,291.5 Z"/></g>
<g><path style="opacity:1" fill="#c9ba76" d="M 297.5,309.5 C 296.262,311.214 295.595,313.214 295.5,315.5C 292.848,324.471 288.848,332.804 283.5,340.5C 286.608,345.112 290.275,349.278 294.5,353C 291.992,354.45 289.325,355.617 286.5,356.5C 283.812,354.479 281.479,352.146 279.5,349.5C 280.239,349.631 280.906,349.464 281.5,349C 280.833,347.667 280.167,346.333 279.5,345C 279.324,343.34 279.991,341.674 281.5,340C 280.667,338.5 279.5,337.333 278,336.5C 277.517,335.552 277.351,334.552 277.5,333.5C 277.557,332.391 277.89,331.391 278.5,330.5C 282.643,322.387 285.976,314.054 288.5,305.5C 289.806,302.313 289.806,298.98 288.5,295.5C 287.893,295.624 287.56,295.957 287.5,296.5C 285.58,299.339 283.913,302.339 282.5,305.5C 282.167,305.5 281.833,305.5 281.5,305.5C 281.082,304.778 280.416,304.278 279.5,304C 279.667,300.833 279.833,297.667 280,294.5C 279.184,295.823 278.017,296.489 276.5,296.5C 280.198,286.324 286.198,284.824 294.5,292C 298.416,297.322 299.416,303.156 297.5,309.5 Z M 280.5,334.5 C 280.489,337.001 279.822,337.168 278.5,335C 279.094,334.536 279.761,334.369 280.5,334.5 Z"/></g>
<g><path style="opacity:1" fill="#8d612a" d="M 116.5,308.5 C 116.5,315.833 116.5,323.167 116.5,330.5C 116.083,334.817 116.75,338.817 118.5,342.5C 119.458,344.302 120.125,346.302 120.5,348.5C 121.609,349.29 122.942,349.79 124.5,350C 123.631,352.655 121.964,354.488 119.5,355.5C 116.763,355.599 114.096,355.265 111.5,354.5C 108.79,351.4 107.457,347.733 107.5,343.5C 107.335,339.818 107.501,336.152 108,332.5C 108.333,333.167 108.667,333.833 109,334.5C 109.167,332.833 109.333,331.167 109.5,329.5C 107.453,320.372 106.453,311.039 106.5,301.5C 106.415,298.351 107.415,295.684 109.5,293.5C 111.308,291.191 113.308,291.191 115.5,293.5C 114.689,294.216 114.022,295.05 113.5,296C 116.167,298 116.167,300 113.5,302C 114.01,303.826 114.844,303.993 116,302.5C 116.495,304.473 116.662,306.473 116.5,308.5 Z"/></g>
<g><path style="opacity:1" fill="#a99056" d="M 183.5,290.5 C 182.167,290.5 180.833,290.5 179.5,290.5C 179.822,292.722 179.155,294.556 177.5,296C 178.574,296.739 179.241,297.739 179.5,299C 177.654,300.091 176.987,301.424 177.5,303C 178.624,303.249 179.624,303.749 180.5,304.5C 180.376,305.107 180.043,305.44 179.5,305.5C 178.221,304.285 177.221,304.618 176.5,306.5C 175.699,308.042 175.366,309.708 175.5,311.5C 175.167,311.5 174.833,311.5 174.5,311.5C 173.034,312.347 172.2,313.68 172,315.5C 171.51,314.207 171.343,312.873 171.5,311.5C 172.254,303.894 174.088,296.561 177,289.5C 179.373,288.457 181.54,288.79 183.5,290.5 Z"/></g>
<g><path style="opacity:0.243" fill="#3a3228" d="M 467.5,284.5 C 467.58,290.478 466.58,296.145 464.5,301.5C 464.764,295.578 465.764,289.911 467.5,284.5 Z"/></g>
<g><path style="opacity:0.999" fill="#8b6531" d="M 124.5,292.5 C 128.365,293.706 130.365,296.373 130.5,300.5C 130.5,301.833 129.833,302.5 128.5,302.5C 124.103,303.139 121.103,301.473 119.5,297.5C 118.503,297.53 117.836,297.03 117.5,296C 119.123,294.124 118.79,292.79 116.5,292C 119.192,291.57 121.859,291.737 124.5,292.5 Z"/></g>
<g><path style="opacity:0.024" fill="#2b2218" d="M 29.5,291.5 C 30.913,294.219 31.5797,297.219 31.5,300.5C 30.087,297.781 29.4203,294.781 29.5,291.5 Z"/></g>
<g><path style="opacity:0.62" fill="#706a49" d="M 221.5,292.5 C 223.104,293.287 223.771,294.62 223.5,296.5C 222.5,296.5 221.5,296.5 220.5,296.5C 220.918,295.778 221.584,295.278 222.5,295C 221.748,294.329 221.414,293.496 221.5,292.5 Z"/></g>
<g><path style="opacity:0.541" fill="#6f6c4e" d="M 255.5,292.5 C 257.104,293.287 257.771,294.62 257.5,296.5C 256.5,296.5 255.5,296.5 254.5,296.5C 254.918,295.778 255.584,295.278 256.5,295C 255.748,294.329 255.414,293.496 255.5,292.5 Z"/></g>
<g><path style="opacity:0.069" fill="#444234" d="M 271.5,294.5 C 271.662,296.527 271.495,298.527 271,300.5C 270.802,298.618 270.302,296.952 269.5,295.5C 269.409,293.302 270.075,292.969 271.5,294.5 Z"/></g>
<g><path style="opacity:1" fill="#e3da8f" d="M 255.5,292.5 C 255.414,293.496 255.748,294.329 256.5,295C 255.584,295.278 254.918,295.778 254.5,296.5C 253.833,296.833 253.167,297.167 252.5,297.5C 250.609,298.536 248.776,298.536 247,297.5C 247.019,299.107 247.185,300.774 247.5,302.5C 245.273,303.401 244.273,305.067 244.5,307.5C 244.598,309.553 243.931,311.22 242.5,312.5C 241.883,312.611 241.383,312.944 241,313.5C 240.333,315.833 240.333,318.167 241,320.5C 245.579,318.365 250.413,317.365 255.5,317.5C 256.791,317.263 257.791,317.596 258.5,318.5C 258.611,319.117 258.944,319.617 259.5,320C 256.896,320.39 254.562,321.224 252.5,322.5C 246.117,327.303 239.45,327.636 232.5,323.5C 232.5,323.167 232.5,322.833 232.5,322.5C 232.5,319.5 232.5,316.5 232.5,313.5C 234.313,302.527 240.147,294.527 250,289.5C 251.78,290.639 253.614,291.639 255.5,292.5 Z"/></g>
<g><path style="opacity:0.192" fill="#413f32" d="M 272.5,294.5 C 273.209,293.596 274.209,293.263 275.5,293.5C 275.263,294.791 275.596,295.791 276.5,296.5C 276.217,297.289 275.717,297.956 275,298.5C 274.878,296.563 274.045,295.23 272.5,294.5 Z"/></g>
<g><path style="opacity:1" fill="#865f2c" d="M 38.5,287.5 C 38.8333,287.5 39.1667,287.5 39.5,287.5C 40.8789,292.395 41.8789,297.395 42.5,302.5C 42.6538,307.289 43.9871,311.622 46.5,315.5C 49.3026,323.241 52.3026,330.907 55.5,338.5C 54.5028,338.47 53.8361,338.97 53.5,340C 53.5114,343.327 53.8447,346.66 54.5,350C 52.8446,351.444 52.178,353.278 52.5,355.5C 44.9522,342.722 39.2855,329.055 35.5,314.5C 37.4171,315.116 38.5838,316.45 39,318.5C 39.1667,317.833 39.3333,317.167 39.5,316.5C 38.3619,310.459 38.3619,304.459 39.5,298.5C 38.1967,294.745 37.8633,291.078 38.5,287.5 Z"/></g>
<g><path style="opacity:0.173" fill="#53503c" d="M 269.5,295.5 C 269.808,297.924 269.474,300.257 268.5,302.5C 267.817,302.137 267.15,301.804 266.5,301.5C 266.192,299.076 266.526,296.743 267.5,294.5C 268.183,294.863 268.85,295.196 269.5,295.5 Z"/></g>
<g><path style="opacity:1" fill="#e1d489" d="M 271.5,294.5 C 271.833,294.5 272.167,294.5 272.5,294.5C 274.045,295.23 274.878,296.563 275,298.5C 275.717,297.956 276.217,297.289 276.5,296.5C 278.017,296.489 279.184,295.823 280,294.5C 279.833,297.667 279.667,300.833 279.5,304C 280.416,304.278 281.082,304.778 281.5,305.5C 280.962,307.117 280.629,308.784 280.5,310.5C 279.076,312.515 278.41,314.848 278.5,317.5C 278.5,317.833 278.5,318.167 278.5,318.5C 277.087,321.382 276.421,324.549 276.5,328C 276.506,330.033 276.839,331.866 277.5,333.5C 277.351,334.552 277.517,335.552 278,336.5C 279.5,337.333 280.667,338.5 281.5,340C 279.991,341.674 279.324,343.34 279.5,345C 280.167,346.333 280.833,347.667 281.5,349C 280.906,349.464 280.239,349.631 279.5,349.5C 278.833,349.167 278.167,348.833 277.5,348.5C 277.5,348.167 277.5,347.833 277.5,347.5C 277.631,346.624 277.298,345.957 276.5,345.5C 275.334,348.837 275.334,352.17 276.5,355.5C 273.995,356.497 271.328,356.497 268.5,355.5C 268.5,353.833 268.5,352.167 268.5,350.5C 269.151,348.157 269.818,345.824 270.5,343.5C 270.402,341.381 269.569,339.714 268,338.5C 267.781,333.418 267.281,328.418 266.5,323.5C 265.318,316.15 265.318,308.817 266.5,301.5C 267.15,301.804 267.817,302.137 268.5,302.5C 269.474,300.257 269.808,297.924 269.5,295.5C 270.302,296.952 270.802,298.618 271,300.5C 271.495,298.527 271.662,296.527 271.5,294.5 Z"/></g>
<g><path style="opacity:0.999" fill="#895d28" d="M 397.5,295.5 C 398.222,295.918 398.722,296.584 399,297.5C 399.667,316.167 399.667,334.833 399,353.5C 397.989,354.337 396.822,354.67 395.5,354.5C 393.5,354.833 391.5,355.167 389.5,355.5C 389.958,349.312 389.958,343.312 389.5,337.5C 389.666,333.154 389.499,328.821 389,324.5C 388.722,325.416 388.222,326.082 387.5,326.5C 386.842,323.027 386.508,319.694 386.5,316.5C 387.928,313.697 388.595,310.697 388.5,307.5C 390.791,303.96 392.125,299.96 392.5,295.5C 394.167,295.5 395.833,295.5 397.5,295.5 Z"/></g>
<g><path style="opacity:1" fill="#9d9869" d="M 252.5,297.5 C 250.597,298.947 248.93,300.614 247.5,302.5C 247.185,300.774 247.019,299.107 247,297.5C 248.776,298.536 250.609,298.536 252.5,297.5 Z"/></g>
<g><path style="opacity:1" fill="#ac975d" d="M 323.5,297.5 C 322.504,297.414 321.671,297.748 321,298.5C 320.282,308.7 319.116,318.7 317.5,328.5C 317.612,321.82 317.946,315.153 318.5,308.5C 318.66,306.801 318.494,305.134 318,303.5C 316.961,304.244 316.461,305.244 316.5,306.5C 315.401,311.144 313.734,315.478 311.5,319.5C 311.649,318.448 311.483,317.448 311,316.5C 310.086,317.654 309.253,317.487 308.5,316C 309.297,310.75 309.464,305.25 309,299.5C 308.26,301.319 307.093,302.652 305.5,303.5C 309.069,294.121 315.069,292.121 323.5,297.5 Z"/></g>
<g><path style="opacity:0.725" fill="#4f412c" d="M 367.5,294.5 C 371.851,293.533 374.185,295.2 374.5,299.5C 373.674,303.982 373.174,308.649 373,313.5C 371.443,310.334 370.61,307 370.5,303.5C 373.167,303.167 373.167,302.833 370.5,302.5C 369.353,300.537 368.353,297.87 367.5,294.5 Z"/></g>
<g><path style="opacity:1" fill="#c7b571" d="M 213.5,291.5 C 215.5,291.5 217.5,291.5 219.5,291.5C 220.167,291.833 220.833,292.167 221.5,292.5C 221.414,293.496 221.748,294.329 222.5,295C 221.584,295.278 220.918,295.778 220.5,296.5C 220.158,297.338 219.492,297.672 218.5,297.5C 216.596,297.738 215.262,298.738 214.5,300.5C 214.672,301.492 214.338,302.158 213.5,302.5C 212.094,302.973 211.427,303.973 211.5,305.5C 211.065,308.157 210.065,310.491 208.5,312.5C 206.615,314.795 206.115,317.462 207,320.5C 207.995,319.934 208.828,319.267 209.5,318.5C 211.042,317.699 212.708,317.366 214.5,317.5C 213.737,318.268 212.737,318.768 211.5,319C 214.791,319.719 217.124,320.886 218.5,322.5C 211.76,327.726 205.093,327.726 198.5,322.5C 198.5,319.167 198.5,315.833 198.5,312.5C 200.828,303.482 205.828,296.482 213.5,291.5 Z"/></g>
<g><path style="opacity:0.063" fill="#484434" d="M 218.5,297.5 C 217.738,299.262 216.404,300.262 214.5,300.5C 215.262,298.738 216.596,297.738 218.5,297.5 Z"/></g>
<g><path style="opacity:1" fill="#a8874b" d="M 357.5,306.5 C 357.5,308.833 357.5,311.167 357.5,313.5C 357.665,317.182 357.499,320.848 357,324.5C 355.624,321.875 354.458,321.875 353.5,324.5C 353.784,326.415 353.451,328.081 352.5,329.5C 350.52,330.848 349.353,332.848 349,335.5C 347.625,333.063 347.125,330.397 347.5,327.5C 347.5,324.833 347.5,322.167 347.5,319.5C 348.815,314.32 348.815,308.986 347.5,303.5C 346.295,304.577 345.628,305.91 345.5,307.5C 344.356,313.497 342.023,318.831 338.5,323.5C 338.41,321.304 338.077,319.137 337.5,317C 339.937,311.874 340.103,306.707 338,301.5C 337.617,302.056 337.117,302.389 336.5,302.5C 337.928,296.554 341.595,294.054 347.5,295C 354.291,295.951 357.625,299.784 357.5,306.5 Z"/></g>
<g><path style="opacity:0.412" fill="#433926" d="M 146.5,298.5 C 146.56,297.957 146.893,297.624 147.5,297.5C 148.793,299.636 148.793,301.636 147.5,303.5C 147.784,301.585 147.451,299.919 146.5,298.5 Z"/></g>
<g><path style="opacity:0.6" fill="#6e6341" d="M 188.5,293.5 C 189.924,295.515 190.59,297.848 190.5,300.5C 189.076,298.485 188.41,296.152 188.5,293.5 Z"/></g>
<g><path style="opacity:1" fill="#bda563" d="M 323.5,297.5 C 324.167,297.833 324.833,298.167 325.5,298.5C 327.205,305.014 327.871,311.681 327.5,318.5C 326.737,319.268 325.737,319.768 324.5,320C 325.056,320.383 325.389,320.883 325.5,321.5C 324.032,322.779 323.365,324.446 323.5,326.5C 322.314,330.503 321.314,334.503 320.5,338.5C 319.504,338.414 318.671,338.748 318,339.5C 316.356,343.437 314.523,347.27 312.5,351C 313.973,351.71 314.64,352.876 314.5,354.5C 312.585,354.216 310.919,354.549 309.5,355.5C 306.784,357.086 304.45,356.753 302.5,354.5C 303.239,354.631 303.906,354.464 304.5,354C 303.252,349.929 302.752,345.762 303,341.5C 303.333,342.167 303.667,342.833 304,343.5C 304.399,343.272 304.565,342.938 304.5,342.5C 304.833,342.5 305.167,342.5 305.5,342.5C 305.34,344.199 305.506,345.866 306,347.5C 306.333,347.167 306.667,346.833 307,346.5C 307.667,347.833 308.333,349.167 309,350.5C 309.399,350.272 309.565,349.938 309.5,349.5C 310.885,348.426 312.051,347.093 313,345.5C 314.973,339.94 316.473,334.273 317.5,328.5C 319.116,318.7 320.282,308.7 321,298.5C 321.671,297.748 322.504,297.414 323.5,297.5 Z"/></g>
<g><path style="opacity:0.122" fill="#514d39" d="M 287.5,296.5 C 287.56,295.957 287.893,295.624 288.5,295.5C 289.806,298.98 289.806,302.313 288.5,305.5C 288.81,302.287 288.477,299.287 287.5,296.5 Z"/></g>
<g><path style="opacity:0.255" fill="#3b3125" d="M 397.5,295.5 C 395.833,295.5 394.167,295.5 392.5,295.5C 392.125,299.96 390.791,303.96 388.5,307.5C 388.244,305.208 388.577,303.041 389.5,301C 388.833,300.333 388.167,299.667 387.5,299C 388.103,297.175 388.77,295.341 389.5,293.5C 390.192,294.025 390.692,294.692 391,295.5C 393.274,294.189 395.44,294.189 397.5,295.5 Z"/></g>
<g><path style="opacity:0.263" fill="#3a3122" d="M 143.5,301.5 C 143.5,302.5 143.5,303.5 143.5,304.5C 142.325,304.281 141.325,304.614 140.5,305.5C 140.058,306.739 139.391,307.739 138.5,308.5C 139.446,303.692 139.446,299.026 138.5,294.5C 139.552,294.351 140.552,294.517 141.5,295C 141.318,297.653 140.985,300.32 140.5,303C 141.788,303.239 142.788,302.739 143.5,301.5 Z"/></g>
<g><path style="opacity:0.098" fill="#2a251d" d="M 130.5,300.5 C 131.404,301.209 131.737,302.209 131.5,303.5C 130.209,303.737 129.209,303.404 128.5,302.5C 129.833,302.5 130.5,301.833 130.5,300.5 Z"/></g>
<g><path style="opacity:0.997" fill="#9a7840" d="M 146.5,298.5 C 147.451,299.919 147.784,301.585 147.5,303.5C 146.775,319.49 146.442,335.49 146.5,351.5C 150.309,350.965 153.976,349.965 157.5,348.5C 160.833,348.5 164.167,348.5 167.5,348.5C 167.5,349.833 167.5,351.167 167.5,352.5C 167.5,353.167 167.5,353.833 167.5,354.5C 166.71,353.391 166.21,352.058 166,350.5C 165.283,351.044 164.783,351.711 164.5,352.5C 159.07,355.723 153.404,356.723 147.5,355.5C 144.628,354.675 141.628,353.841 138.5,353C 139.167,351.667 140.167,350.667 141.5,350C 140.643,349.311 139.977,348.478 139.5,347.5C 138.927,343.969 139.594,340.469 141.5,337C 141.167,336.167 140.833,335.333 140.5,334.5C 139.667,335.5 138.833,336.5 138,337.5C 137.333,341.5 136.667,345.5 136,349.5C 135.814,347.1 135.314,344.766 134.5,342.5C 133.914,342.709 133.414,343.043 133,343.5C 131.981,341.731 131.814,340.064 132.5,338.5C 131.624,337.749 130.624,337.249 129.5,337C 130.737,336.768 131.737,336.268 132.5,335.5C 133.5,335.5 134.5,335.5 135.5,335.5C 135.5,331.833 135.5,328.167 135.5,324.5C 135.299,318.82 136.299,313.486 138.5,308.5C 139.391,307.739 140.058,306.739 140.5,305.5C 141.325,304.614 142.325,304.281 143.5,304.5C 143.5,303.5 143.5,302.5 143.5,301.5C 144.167,300.167 145.167,299.167 146.5,298.5 Z"/></g>
<g><path style="opacity:0.027" fill="#444030" d="M 213.5,302.5 C 213.573,304.027 212.906,305.027 211.5,305.5C 211.427,303.973 212.094,302.973 213.5,302.5 Z"/></g>
<g><path style="opacity:0.024" fill="#52503d" d="M 247.5,302.5 C 246.89,304.434 245.89,306.101 244.5,307.5C 244.273,305.067 245.273,303.401 247.5,302.5 Z"/></g>
<g><path style="opacity:0.404" fill="#4d4431" d="M 336.5,302.5 C 335.448,304.256 333.781,304.923 331.5,304.5C 333.028,303.691 334.694,303.024 336.5,302.5 Z"/></g>
<g><path style="opacity:0.02" fill="#332d27" d="M 464.5,301.5 C 464.435,304.428 463.768,307.095 462.5,309.5C 462.294,306.505 462.96,303.838 464.5,301.5 Z"/></g>
<g><path style="opacity:0.455" fill="#3d2d1b" d="M 31.5,301.5 C 33.0739,303.102 33.7406,305.102 33.5,307.5C 32.2616,305.786 31.595,303.786 31.5,301.5 Z"/></g>
<g><path style="opacity:0.046" fill="#2f2c26" d="M 365.5,301.5 C 364.784,303.556 364.117,305.723 363.5,308C 364.056,308.383 364.389,308.883 364.5,309.5C 363.453,311.151 362.286,312.817 361,314.5C 360.26,313.251 360.427,312.251 361.5,311.5C 362.833,309.833 362.833,308.167 361.5,306.5C 361.5,306.167 361.5,305.833 361.5,305.5C 361.618,302.312 362.451,299.312 364,296.5C 365.009,298.025 365.509,299.692 365.5,301.5 Z"/></g>
<g><path style="opacity:0.808" fill="#53432b" d="M 375.5,301.5 C 377.483,304.799 378.483,308.466 378.5,312.5C 376.926,309.093 375.926,305.427 375.5,301.5 Z"/></g>
<g><path style="opacity:0.035" fill="#423b2b" d="M 179.5,305.5 C 179.672,306.492 179.338,307.158 178.5,307.5C 178.158,306.662 177.492,306.328 176.5,306.5C 177.221,304.618 178.221,304.285 179.5,305.5 Z"/></g>
<g><path style="opacity:1" fill="#ccb770" d="M 311.5,319.5 C 309.088,319.694 308.088,321.027 308.5,323.5C 308.428,326.193 308.095,328.86 307.5,331.5C 307.437,333.481 308.104,335.148 309.5,336.5C 309.043,337.298 308.376,337.631 307.5,337.5C 306.5,337.5 305.5,337.5 304.5,337.5C 304.5,339.167 304.5,340.833 304.5,342.5C 304.565,342.938 304.399,343.272 304,343.5C 303.667,342.833 303.333,342.167 303,341.5C 302.752,345.762 303.252,349.929 304.5,354C 303.906,354.464 303.239,354.631 302.5,354.5C 301.829,353.153 301.829,351.986 302.5,351C 301.485,348.735 300.318,346.901 299,345.5C 298.5,335.839 298.334,326.172 298.5,316.5C 298.5,315.833 298.5,315.167 298.5,314.5C 300.277,311.495 301.277,308.162 301.5,304.5C 302.568,303.566 303.901,303.232 305.5,303.5C 307.093,302.652 308.26,301.319 309,299.5C 309.464,305.25 309.297,310.75 308.5,316C 309.253,317.487 310.086,317.654 311,316.5C 311.483,317.448 311.649,318.448 311.5,319.5 Z"/></g>
<g><path style="opacity:0.065" fill="#2a2925" d="M 318.5,308.5 C 317.833,307.833 317.167,307.167 316.5,306.5C 316.461,305.244 316.961,304.244 318,303.5C 318.494,305.134 318.66,306.801 318.5,308.5 Z"/></g>
<g><path style="opacity:0.82" fill="#48361f" d="M 42.5,302.5 C 44.2035,306.617 45.5368,310.951 46.5,315.5C 43.9871,311.622 42.6538,307.289 42.5,302.5 Z"/></g>
<g><path style="opacity:0.792" fill="#766c49" d="M 301.5,304.5 C 301.277,308.162 300.277,311.495 298.5,314.5C 298.723,310.838 299.723,307.505 301.5,304.5 Z"/></g>
<g><path style="opacity:0.725" fill="#62563a" d="M 331.5,304.5 C 331.59,307.152 330.924,309.485 329.5,311.5C 329.171,308.772 329.837,306.438 331.5,304.5 Z"/></g>
<g><path style="opacity:0.961" fill="#86774c" d="M 190.5,300.5 C 191.889,305.269 192.556,310.269 192.5,315.5C 190.969,310.75 190.302,305.75 190.5,300.5 Z"/></g>
<g><path style="opacity:0.29" fill="#4e4a38" d="M 281.5,305.5 C 281.833,305.5 282.167,305.5 282.5,305.5C 282.598,307.553 281.931,309.22 280.5,310.5C 280.629,308.784 280.962,307.117 281.5,305.5 Z"/></g>
<g><path style="opacity:0.199" fill="#3f382b" d="M 347.5,319.5 C 348.089,315.029 347.423,311.029 345.5,307.5C 345.628,305.91 346.295,304.577 347.5,303.5C 348.815,308.986 348.815,314.32 347.5,319.5 Z"/></g>
<g><path style="opacity:0.257" fill="#3b3429" d="M 359.5,304.5 C 360.055,308.012 359.388,311.012 357.5,313.5C 357.5,311.167 357.5,308.833 357.5,306.5C 358.167,305.833 358.833,305.167 359.5,304.5 Z"/></g>
<g><path style="opacity:0.031" fill="#4b4635" d="M 297.5,309.5 C 297.741,311.898 297.074,313.898 295.5,315.5C 295.595,313.214 296.262,311.214 297.5,309.5 Z"/></g>
<g><path style="opacity:0.993" fill="#a57f41" d="M 368.5,312.5 C 368.5,318.167 368.5,323.833 368.5,329.5C 367.671,336.989 367.171,344.656 367,352.5C 364.688,344.724 363.021,336.724 362,328.5C 361.713,334.024 361.213,339.524 360.5,345C 361.178,347.997 362.178,350.83 363.5,353.5C 361.833,353.5 360.167,353.5 358.5,353.5C 358.333,341.162 358.5,328.829 359,316.5C 359.333,317.833 359.667,319.167 360,320.5C 361.147,318.269 362.147,315.935 363,313.5C 364.558,314.345 365.558,313.679 366,311.5C 366.671,312.252 367.504,312.586 368.5,312.5 Z"/></g>
<g><path style="opacity:1" fill="#b99c5a" d="M 338.5,323.5 C 337.886,327.135 337.552,330.802 337.5,334.5C 337.5,335.5 337.5,336.5 337.5,337.5C 336.5,337.5 335.5,337.5 334.5,337.5C 334.049,341.127 333.549,344.127 333,346.5C 334.016,347.634 334.683,347.301 335,345.5C 335.667,348.167 336.333,348.167 337,345.5C 337.471,347.246 338.138,348.913 339,350.5C 339.995,349.934 340.828,349.267 341.5,348.5C 342.167,348.5 342.5,348.833 342.5,349.5C 342.393,351.379 342.893,351.712 344,350.5C 344.49,351.793 344.657,353.127 344.5,354.5C 342.585,354.216 340.919,354.549 339.5,355.5C 336.784,357.086 334.45,356.753 332.5,354.5C 332.203,351.24 330.87,348.573 328.5,346.5C 328.5,346.167 328.5,345.833 328.5,345.5C 328.666,339.491 328.499,333.491 328,327.5C 327.768,326.263 327.268,325.263 326.5,324.5C 326.737,323.209 326.404,322.209 325.5,321.5C 325.389,320.883 325.056,320.383 324.5,320C 325.737,319.768 326.737,319.268 327.5,318.5C 329.344,316.721 330.01,314.388 329.5,311.5C 330.924,309.485 331.59,307.152 331.5,304.5C 333.781,304.923 335.448,304.256 336.5,302.5C 337.117,302.389 337.617,302.056 338,301.5C 340.103,306.707 339.937,311.874 337.5,317C 338.077,319.137 338.41,321.304 338.5,323.5 Z"/></g>
<g><path style="opacity:0.808" fill="#5f482a" d="M 388.5,307.5 C 388.595,310.697 387.928,313.697 386.5,316.5C 385.784,316.783 384.951,317.116 384,317.5C 383.768,316.263 383.268,315.263 382.5,314.5C 385.186,312.81 387.186,310.476 388.5,307.5 Z"/></g>
<g><path style="opacity:0.851" fill="#877549" d="M 325.5,298.5 C 327.715,302.58 329.049,306.913 329.5,311.5C 330.01,314.388 329.344,316.721 327.5,318.5C 327.871,311.681 327.205,305.014 325.5,298.5 Z"/></g>
<g><path style="opacity:0.043" fill="#403a2a" d="M 178.5,308.5 C 178.884,312.489 178.217,316.155 176.5,319.5C 176.425,316.794 176.092,314.127 175.5,311.5C 176.272,310.306 177.272,309.306 178.5,308.5 Z"/></g>
<g><path style="opacity:0.561" fill="#7a7654" d="M 242.5,312.5 C 241.85,314.435 241.517,316.435 241.5,318.5C 244.78,317.631 248.113,316.964 251.5,316.5C 253.045,316.511 254.378,316.844 255.5,317.5C 250.413,317.365 245.579,318.365 241,320.5C 240.333,318.167 240.333,315.833 241,313.5C 241.383,312.944 241.883,312.611 242.5,312.5 Z"/></g>
<g><path style="opacity:0.122" fill="#4d4938" d="M 280.5,310.5 C 280.829,313.228 280.163,315.562 278.5,317.5C 278.41,314.848 279.076,312.515 280.5,310.5 Z"/></g>
<g><path style="opacity:0.698" fill="#6b6141" d="M 198.5,312.5 C 198.5,315.833 198.5,319.167 198.5,322.5C 196.036,319.2 196.036,315.866 198.5,312.5 Z"/></g>
<g><path style="opacity:0.208" fill="#413627" d="M 378.5,312.5 C 379.29,313.609 379.79,314.942 380,316.5C 380.383,315.944 380.883,315.611 381.5,315.5C 381.539,316.756 381.039,317.756 380,318.5C 378.681,316.75 378.181,314.75 378.5,312.5 Z"/></g>
<g><path style="opacity:1" fill="#997036" d="M 367.5,294.5 C 368.353,297.87 369.353,300.537 370.5,302.5C 370.5,302.833 370.5,303.167 370.5,303.5C 370.61,307 371.443,310.334 373,313.5C 373.174,308.649 373.674,303.982 374.5,299.5C 375.338,299.842 375.672,300.508 375.5,301.5C 375.926,305.427 376.926,309.093 378.5,312.5C 378.181,314.75 378.681,316.75 380,318.5C 381.039,317.756 381.539,316.756 381.5,315.5C 381.5,314.833 381.833,314.5 382.5,314.5C 383.268,315.263 383.768,316.263 384,317.5C 384.951,317.116 385.784,316.783 386.5,316.5C 386.508,319.694 386.842,323.027 387.5,326.5C 387.5,327.5 387.5,328.5 387.5,329.5C 386.514,331.426 385.514,333.426 384.5,335.5C 381.167,335.5 377.833,335.5 374.5,335.5C 373.069,334.22 372.402,332.553 372.5,330.5C 372.435,327.572 371.768,324.905 370.5,322.5C 371.069,318.671 370.402,315.337 368.5,312.5C 367.873,308.634 366.873,304.968 365.5,301.5C 365.509,299.692 365.009,298.025 364,296.5C 362.451,299.312 361.618,302.312 361.5,305.5C 360.532,303.393 360.198,301.059 360.5,298.5C 360.137,291.392 362.47,290.059 367.5,294.5 Z"/></g>
<g><path style="opacity:0.008" fill="#423e2f" d="M 208.5,312.5 C 208.481,314.06 208.148,315.56 207.5,317C 207.836,318.03 208.503,318.53 209.5,318.5C 208.828,319.267 207.995,319.934 207,320.5C 206.115,317.462 206.615,314.795 208.5,312.5 Z"/></g>
<g><path style="opacity:0.761" fill="#787350" d="M 232.5,313.5 C 232.5,316.5 232.5,319.5 232.5,322.5C 231.833,322.5 231.5,322.833 231.5,323.5C 230.094,323.027 229.427,322.027 229.5,320.5C 230.349,318.112 231.349,315.779 232.5,313.5 Z"/></g>
<g><path style="opacity:0.698" fill="#695b3a" d="M 171.5,311.5 C 171.343,312.873 171.51,314.207 172,315.5C 172.2,313.68 173.034,312.347 174.5,311.5C 172.604,317.808 171.104,324.141 170,330.5C 169.088,323.914 169.588,317.581 171.5,311.5 Z"/></g>
<g><path style="opacity:1" fill="#d1c37e" d="M 229.5,320.5 C 229.427,322.027 230.094,323.027 231.5,323.5C 231.5,326.5 231.5,329.5 231.5,332.5C 229.446,339.23 225.446,344.563 219.5,348.5C 219.035,345.472 218.035,342.638 216.5,340C 217.823,339.184 218.489,338.017 218.5,336.5C 221.279,332.267 222.945,327.6 223.5,322.5C 221.833,322.5 220.167,322.5 218.5,322.5C 217.124,320.886 214.791,319.719 211.5,319C 212.737,318.768 213.737,318.268 214.5,317.5C 219.793,316.132 224.793,317.132 229.5,320.5 Z"/></g>
<g><path style="opacity:0.22" fill="#433e30" d="M 311.5,319.5 C 310.488,320.872 309.488,322.205 308.5,323.5C 308.088,321.027 309.088,319.694 311.5,319.5 Z"/></g>
<g><path style="opacity:0.145" fill="#3a3227" d="M 368.5,312.5 C 370.402,315.337 371.069,318.671 370.5,322.5C 371.768,324.905 372.435,327.572 372.5,330.5C 371.4,328.723 370.566,326.723 370,324.5C 369.819,327.695 369.319,330.695 368.5,333.5C 368.5,332.167 368.5,330.833 368.5,329.5C 368.5,323.833 368.5,318.167 368.5,312.5 Z"/></g>
<g><path style="opacity:0.235" fill="#4c4432" d="M 325.5,321.5 C 326.404,322.209 326.737,323.209 326.5,324.5C 325.222,324.782 324.222,325.449 323.5,326.5C 323.365,324.446 324.032,322.779 325.5,321.5 Z"/></g>
<g><path style="opacity:0.718" fill="#706b4b" d="M 231.5,323.5 C 231.833,323.5 232.167,323.5 232.5,323.5C 233.338,326.639 233.005,329.639 231.5,332.5C 231.5,329.5 231.5,326.5 231.5,323.5 Z"/></g>
<g><path style="opacity:0.224" fill="#3e3325" d="M 389.5,337.5 C 388.839,336.282 388.172,334.949 387.5,333.5C 386.735,334.612 385.735,335.279 384.5,335.5C 385.514,333.426 386.514,331.426 387.5,329.5C 387.5,328.5 387.5,327.5 387.5,326.5C 388.222,326.082 388.722,325.416 389,324.5C 389.499,328.821 389.666,333.154 389.5,337.5 Z"/></g>
<g><path style="opacity:0.698" fill="#766945" d="M 192.5,315.5 C 194.031,320.25 194.698,325.25 194.5,330.5C 193.111,325.731 192.444,320.731 192.5,315.5 Z"/></g>
<g><path style="opacity:0.014" fill="#494636" d="M 278.5,318.5 C 277.774,322.679 277.774,326.679 278.5,330.5C 277.89,331.391 277.557,332.391 277.5,333.5C 276.839,331.866 276.506,330.033 276.5,328C 276.421,324.549 277.087,321.382 278.5,318.5 Z"/></g>
<g><path style="opacity:0.899" fill="#8c8054" d="M 298.5,316.5 C 298.334,326.172 298.5,335.839 299,345.5C 300.318,346.901 301.485,348.735 302.5,351C 301.829,351.986 301.829,353.153 302.5,354.5C 300.254,352.351 298.754,349.684 298,346.5C 296.088,336.326 296.254,326.326 298.5,316.5 Z"/></g>
<g><path style="opacity:0.227" fill="#463e2c" d="M 175.5,328.5 C 174.85,330.435 174.517,332.435 174.5,334.5C 173.5,334.5 172.5,334.5 171.5,334.5C 172.351,332.118 173.684,330.118 175.5,328.5 Z"/></g>
<g><path style="opacity:0.49" fill="#463824" d="M 135.5,324.5 C 135.5,328.167 135.5,331.833 135.5,335.5C 134.5,335.5 133.5,335.5 132.5,335.5C 134.007,331.958 135.007,328.292 135.5,324.5 Z"/></g>
<g><path style="opacity:0.267" fill="#4b432f" d="M 178.5,329.5 C 178.5,330.5 178.5,331.5 178.5,332.5C 180.5,332.5 182.5,332.5 184.5,332.5C 183.791,333.404 182.791,333.737 181.5,333.5C 179.901,333.768 178.568,333.434 177.5,332.5C 177.263,331.209 177.596,330.209 178.5,329.5 Z"/></g>
<g><path style="opacity:1" fill="#c9b06a" d="M 183.5,290.5 C 185.674,290.75 187.341,291.75 188.5,293.5C 188.41,296.152 189.076,298.485 190.5,300.5C 190.302,305.75 190.969,310.75 192.5,315.5C 192.444,320.731 193.111,325.731 194.5,330.5C 195.479,333.625 195.813,336.958 195.5,340.5C 195.5,346.167 195.5,351.833 195.5,357.5C 192.833,357.5 190.167,357.5 187.5,357.5C 187.562,352.924 186.895,348.591 185.5,344.5C 185.5,344.167 185.5,343.833 185.5,343.5C 185.338,341.473 185.505,339.473 186,337.5C 187.073,338.28 188.24,338.113 189.5,337C 185.687,335.738 181.687,335.071 177.5,335C 179.058,334.79 180.391,334.29 181.5,333.5C 182.791,333.737 183.791,333.404 184.5,332.5C 185.791,332.737 186.791,332.404 187.5,331.5C 188.117,331.611 188.617,331.944 189,332.5C 189.667,328.167 189.667,323.833 189,319.5C 188.583,318.244 187.75,317.577 186.5,317.5C 186.216,314.223 186.549,311.057 187.5,308C 186.216,307.316 185.049,307.483 184,308.5C 183.809,310.708 183.309,312.708 182.5,314.5C 182.5,314.167 182.5,313.833 182.5,313.5C 182.649,312.448 182.483,311.448 182,310.5C 180.872,312.345 180.372,314.345 180.5,316.5C 180.5,317.167 180.5,317.833 180.5,318.5C 178.825,321.507 178.159,324.84 178.5,328.5C 178.5,328.833 178.5,329.167 178.5,329.5C 177.596,330.209 177.263,331.209 177.5,332.5C 176.521,329.375 176.187,326.042 176.5,322.5C 176.5,321.5 176.5,320.5 176.5,319.5C 178.217,316.155 178.884,312.489 178.5,308.5C 178.5,308.167 178.5,307.833 178.5,307.5C 179.338,307.158 179.672,306.492 179.5,305.5C 180.043,305.44 180.376,305.107 180.5,304.5C 179.624,303.749 178.624,303.249 177.5,303C 176.987,301.424 177.654,300.091 179.5,299C 179.241,297.739 178.574,296.739 177.5,296C 179.155,294.556 179.822,292.722 179.5,290.5C 180.833,290.5 182.167,290.5 183.5,290.5 Z M 186.5,317.5 C 187.167,320.5 187.833,323.5 188.5,326.5C 187.279,325.972 186.113,325.305 185,324.5C 184.667,324.833 184.333,325.167 184,325.5C 183.982,327.797 184.149,330.131 184.5,332.5C 182.5,332.5 180.5,332.5 178.5,332.5C 178.5,331.5 178.5,330.5 178.5,329.5C 178.5,329.167 178.5,328.833 178.5,328.5C 179.581,325.373 180.247,322.04 180.5,318.5C 180.5,317.833 180.5,317.167 180.5,316.5C 181.167,315.5 181.833,314.5 182.5,313.5C 182.5,313.833 182.5,314.167 182.5,314.5C 182.461,315.756 182.961,316.756 184,317.5C 184.333,315.167 184.667,312.833 185,310.5C 185.186,313.036 185.686,315.369 186.5,317.5 Z"/></g>
<g><path style="opacity:0.063" fill="#48412e" d="M 188.5,326.5 C 188.371,328.216 188.038,329.883 187.5,331.5C 186.791,332.404 185.791,332.737 184.5,332.5C 184.149,330.131 183.982,327.797 184,325.5C 184.333,325.167 184.667,324.833 185,324.5C 186.113,325.305 187.279,325.972 188.5,326.5 Z"/></g>
<g><path style="opacity:0.404" fill="#594e35" d="M 180.5,318.5 C 180.247,322.04 179.581,325.373 178.5,328.5C 178.159,324.84 178.825,321.507 180.5,318.5 Z"/></g>
<g><path style="opacity:0.767" fill="#817249" d="M 186.5,317.5 C 187.75,317.577 188.583,318.244 189,319.5C 189.667,323.833 189.667,328.167 189,332.5C 188.617,331.944 188.117,331.611 187.5,331.5C 188.038,329.883 188.371,328.216 188.5,326.5C 187.833,323.5 187.167,320.5 186.5,317.5 Z"/></g>
<g><path style="opacity:0.388" fill="#554c34" d="M 182.5,313.5 C 181.833,314.5 181.167,315.5 180.5,316.5C 180.372,314.345 180.872,312.345 182,310.5C 182.483,311.448 182.649,312.448 182.5,313.5 Z"/></g>
<g><path style="opacity:0.362" fill="#655a3c" d="M 186.5,317.5 C 185.686,315.369 185.186,313.036 185,310.5C 184.667,312.833 184.333,315.167 184,317.5C 182.961,316.756 182.461,315.756 182.5,314.5C 183.309,312.708 183.809,310.708 184,308.5C 185.049,307.483 186.216,307.316 187.5,308C 186.549,311.057 186.216,314.223 186.5,317.5 Z"/></g>
<g><path style="opacity:0.09" fill="#3e3b2f" d="M 281.5,334.5 C 281.5,333.833 281.167,333.5 280.5,333.5C 280.783,332.711 281.283,332.044 282,331.5C 282.74,332.749 282.573,333.749 281.5,334.5 Z"/></g>
<g><path style="opacity:0.797" fill="#89774a" d="M 326.5,324.5 C 327.268,325.263 327.768,326.263 328,327.5C 328.499,333.491 328.666,339.491 328.5,345.5C 327.539,343.735 327.205,341.735 327.5,339.5C 327.577,335.785 327.244,332.119 326.5,328.5C 326.5,327.167 326.5,325.833 326.5,324.5 Z"/></g>
<g><path style="opacity:1" fill="#dad28b" d="M 258.5,318.5 C 261.674,319.01 264.008,320.677 265.5,323.5C 265.5,326.167 265.5,328.833 265.5,331.5C 260.882,343.451 252.549,351.785 240.5,356.5C 238.087,355.981 235.754,355.315 233.5,354.5C 233.389,353.883 233.056,353.383 232.5,353C 233.766,352.691 234.933,352.191 236,351.5C 237.308,352.151 238.141,351.485 238.5,349.5C 238.973,348.094 239.973,347.427 241.5,347.5C 244.5,347.167 246.167,345.5 246.5,342.5C 249.165,339.665 251.665,336.665 254,333.5C 256.076,330.107 257.242,326.44 257.5,322.5C 255.833,322.5 254.167,322.5 252.5,322.5C 254.562,321.224 256.896,320.39 259.5,320C 258.944,319.617 258.611,319.117 258.5,318.5 Z"/></g>
<g><path style="opacity:0.102" fill="#322c26" d="M 462.5,309.5 C 461.025,319.694 457.858,329.36 453,338.5C 452.235,340.066 452.402,341.399 453.5,342.5C 453.34,344.153 452.674,345.486 451.5,346.5C 450.377,345.243 449.711,345.576 449.5,347.5C 448.662,347.842 448.328,348.508 448.5,349.5C 447.662,349.842 447.328,350.508 447.5,351.5C 447.167,351.5 446.833,351.5 446.5,351.5C 452.447,337.648 457.78,323.648 462.5,309.5 Z"/></g>
<g><path style="opacity:0.194" fill="#3e3426" d="M 374.5,335.5 C 377.833,335.5 381.167,335.5 384.5,335.5C 381.772,336.205 378.939,336.872 376,337.5C 375.283,336.956 374.783,336.289 374.5,335.5 Z"/></g>
<g><path style="opacity:0.631" fill="#49351d" d="M 106.5,301.5 C 106.453,311.039 107.453,320.372 109.5,329.5C 109.333,331.167 109.167,332.833 109,334.5C 108.667,333.833 108.333,333.167 108,332.5C 107.501,336.152 107.335,339.818 107.5,343.5C 106.784,341.444 106.117,339.277 105.5,337C 105.452,330.73 105.786,324.397 106.5,318C 105.99,315.294 105.323,312.627 104.5,310C 105.035,307.004 105.702,304.171 106.5,301.5 Z"/></g>
<g><path style="opacity:0.137" fill="#3c382c" d="M 307.5,337.5 C 306.032,338.779 305.365,340.446 305.5,342.5C 305.167,342.5 304.833,342.5 304.5,342.5C 304.5,340.833 304.5,339.167 304.5,337.5C 305.5,337.5 306.5,337.5 307.5,337.5 Z"/></g>
<g><path style="opacity:0.863" fill="#574023" d="M 116.5,330.5 C 117.617,334.295 118.283,338.295 118.5,342.5C 116.75,338.817 116.083,334.817 116.5,330.5 Z"/></g>
<g><path style="opacity:0.616" fill="#5a5038" d="M 326.5,328.5 C 327.244,332.119 327.577,335.785 327.5,339.5C 326.883,339.389 326.383,339.056 326,338.5C 325.74,340.618 324.74,342.284 323,343.5C 322.833,342.833 322.667,342.167 322.5,341.5C 323.344,336.879 324.677,332.546 326.5,328.5 Z"/></g>
<g><path style="opacity:0.243" fill="#564b34" d="M 337.5,334.5 C 338.473,334.987 339.473,335.487 340.5,336C 339.347,337.883 337.681,338.716 335.5,338.5C 335.343,339.873 335.51,341.207 336,342.5C 338.148,343.977 339.482,345.977 340,348.5C 340.383,347.944 340.883,347.611 341.5,347.5C 341.5,347.833 341.5,348.167 341.5,348.5C 340.828,349.267 339.995,349.934 339,350.5C 338.138,348.913 337.471,347.246 337,345.5C 336.333,348.167 335.667,348.167 335,345.5C 334.683,347.301 334.016,347.634 333,346.5C 333.549,344.127 334.049,341.127 334.5,337.5C 335.5,337.5 336.5,337.5 337.5,337.5C 337.5,336.5 337.5,335.5 337.5,334.5 Z"/></g>
<g><path style="opacity:0.945" fill="#857144" d="M 170.5,334.5 C 171.174,336.024 172.174,337.358 173.5,338.5C 171.577,340.975 170.244,343.642 169.5,346.5C 169.508,340.792 169.008,340.459 168,345.5C 167.506,343.866 167.34,342.199 167.5,340.5C 168.522,338.456 169.522,336.456 170.5,334.5 Z"/></g>
<g><path style="opacity:1" fill="#a99055" d="M 176.5,322.5 C 176.187,326.042 176.521,329.375 177.5,332.5C 178.568,333.434 179.901,333.768 181.5,333.5C 180.391,334.29 179.058,334.79 177.5,335C 181.687,335.071 185.687,335.738 189.5,337C 188.24,338.113 187.073,338.28 186,337.5C 185.505,339.473 185.338,341.473 185.5,343.5C 184.532,341.393 184.198,339.059 184.5,336.5C 182.139,336.674 179.806,337.007 177.5,337.5C 176.998,344.185 176.331,350.851 175.5,357.5C 173.265,357.795 171.265,357.461 169.5,356.5C 169.5,353.167 169.5,349.833 169.5,346.5C 170.244,343.642 171.577,340.975 173.5,338.5C 172.174,337.358 171.174,336.024 170.5,334.5C 170.833,334.5 171.167,334.5 171.5,334.5C 172.5,334.5 173.5,334.5 174.5,334.5C 174.517,332.435 174.85,330.435 175.5,328.5C 175.205,326.265 175.539,324.265 176.5,322.5 Z"/></g>
<g><path style="opacity:0.761" fill="#7f7954" d="M 265.5,323.5 C 265.833,323.5 266.167,323.5 266.5,323.5C 267.281,328.418 267.781,333.418 268,338.5C 269.569,339.714 270.402,341.381 270.5,343.5C 269.818,345.824 269.151,348.157 268.5,350.5C 267.566,344.158 266.566,337.825 265.5,331.5C 265.5,328.833 265.5,326.167 265.5,323.5 Z"/></g>
<g><path style="opacity:0.555" fill="#625033" d="M 360.5,298.5 C 360.198,301.059 360.532,303.393 361.5,305.5C 361.5,305.833 361.5,306.167 361.5,306.5C 361.5,308.167 361.5,309.833 361.5,311.5C 360.427,312.251 360.26,313.251 361,314.5C 362.286,312.817 363.453,311.151 364.5,309.5C 365.473,307.052 365.806,304.385 365.5,301.5C 366.873,304.968 367.873,308.634 368.5,312.5C 367.504,312.586 366.671,312.252 366,311.5C 365.558,313.679 364.558,314.345 363,313.5C 362.147,315.935 361.147,318.269 360,320.5C 359.667,319.167 359.333,317.833 359,316.5C 358.5,328.829 358.333,341.162 358.5,353.5C 360.167,353.5 361.833,353.5 363.5,353.5C 361.735,354.461 359.735,354.795 357.5,354.5C 357.425,347.652 357.258,340.985 357,334.5C 356.411,337.897 355.078,340.897 353,343.5C 352.833,342.5 352.667,341.5 352.5,340.5C 353.999,335.753 354.999,331.086 355.5,326.5C 355.253,325.287 354.586,324.62 353.5,324.5C 354.458,321.875 355.624,321.875 357,324.5C 357.499,320.848 357.665,317.182 357.5,313.5C 359.388,311.012 360.055,308.012 359.5,304.5C 359.205,302.265 359.539,300.265 360.5,298.5 Z M 365.5,301.5 C 365.806,304.385 365.473,307.052 364.5,309.5C 364.389,308.883 364.056,308.383 363.5,308C 364.117,305.723 364.784,303.556 365.5,301.5 Z"/></g>
<g><path style="opacity:0.945" fill="#664d29" d="M 43.5,268.5 C 44.9492,274.631 45.9492,280.964 46.5,287.5C 51.9051,312.715 61.2385,336.382 74.5,358.5C 73.0755,356.969 72.4088,357.302 72.5,359.5C 56.8317,335.851 46.8317,309.851 42.5,281.5C 43.5251,280.626 44.1918,279.459 44.5,278C 43.6328,274.895 43.2994,271.728 43.5,268.5 Z"/></g>
<g><path style="opacity:0.906" fill="#95692f" d="M 46.5,287.5 C 46.5476,295.153 45.8809,295.319 44.5,288C 44.6667,286.833 44.8333,285.667 45,284.5C 45.2321,285.737 45.7321,286.737 46.5,287.5 Z"/></g>
<g><path style="opacity:1" fill="#beaf6f" d="M 218.5,336.5 C 218.489,338.017 217.823,339.184 216.5,340C 218.035,342.638 219.035,345.472 219.5,348.5C 216.03,352.41 211.697,355.076 206.5,356.5C 203.495,356.095 200.829,355.095 198.5,353.5C 200.076,352.857 201.41,351.857 202.5,350.5C 208.129,346.206 213.463,341.539 218.5,336.5 Z"/></g>
<g><path style="opacity:1" fill="#937947" d="M 347.5,327.5 C 347.125,330.397 347.625,333.063 349,335.5C 349.353,332.848 350.52,330.848 352.5,329.5C 351.833,331.5 351.167,333.5 350.5,335.5C 349.852,337.086 349.352,338.753 349,340.5C 348.333,339.167 347.667,339.167 347,340.5C 345.96,343.823 344.46,346.823 342.5,349.5C 342.5,348.833 342.167,348.5 341.5,348.5C 341.5,348.167 341.5,347.833 341.5,347.5C 344.139,340.924 346.139,334.257 347.5,327.5 Z"/></g>
<g><path style="opacity:1" fill="#886735" d="M 147.5,355.5 C 138.618,357.112 134.118,353.446 134,344.5C 132.349,349.984 128.849,353.65 123.5,355.5C 122.167,355.5 120.833,355.5 119.5,355.5C 121.964,354.488 123.631,352.655 124.5,350C 122.942,349.79 121.609,349.29 120.5,348.5C 123.661,345.525 125.828,341.858 127,337.5C 128.444,335.845 130.278,335.178 132.5,335.5C 131.737,336.268 130.737,336.768 129.5,337C 130.624,337.249 131.624,337.749 132.5,338.5C 131.814,340.064 131.981,341.731 133,343.5C 133.414,343.043 133.914,342.709 134.5,342.5C 135.314,344.766 135.814,347.1 136,349.5C 136.667,345.5 137.333,341.5 138,337.5C 138.833,336.5 139.667,335.5 140.5,334.5C 140.833,335.333 141.167,336.167 141.5,337C 139.594,340.469 138.927,343.969 139.5,347.5C 139.977,348.478 140.643,349.311 141.5,350C 140.167,350.667 139.167,351.667 138.5,353C 141.628,353.841 144.628,354.675 147.5,355.5 Z"/></g>
<g><path style="opacity:0.333" fill="#685d3f" d="M 320.5,338.5 C 320.696,343.345 320.196,348.011 319,352.5C 316.358,355.029 313.192,356.029 309.5,355.5C 310.919,354.549 312.585,354.216 314.5,354.5C 314.64,352.876 313.973,351.71 312.5,351C 314.523,347.27 316.356,343.437 318,339.5C 318.671,338.748 319.504,338.414 320.5,338.5 Z"/></g>
<g><path style="opacity:0.387" fill="#483825" d="M 389.5,337.5 C 389.958,343.312 389.958,349.312 389.5,355.5C 388.399,349.656 388.399,343.656 389.5,337.5 Z"/></g>
<g><path style="opacity:0.467" fill="#443c2a" d="M 167.5,340.5 C 167.34,342.199 167.506,343.866 168,345.5C 169.008,340.459 169.508,340.792 169.5,346.5C 169.5,349.833 169.5,353.167 169.5,356.5C 168.833,355.167 168.167,353.833 167.5,352.5C 167.5,351.167 167.5,349.833 167.5,348.5C 164.167,348.5 160.833,348.5 157.5,348.5C 160.287,347.523 163.287,347.19 166.5,347.5C 166.198,344.941 166.532,342.607 167.5,340.5 Z"/></g>
<g><path style="opacity:0.796" fill="#9b9666" d="M 246.5,342.5 C 246.167,345.5 244.5,347.167 241.5,347.5C 242.833,345.5 244.5,343.833 246.5,342.5 Z"/></g>
<g><path style="opacity:0.247" fill="#494332" d="M 305.5,342.5 C 308.518,343.855 309.851,346.188 309.5,349.5C 309.565,349.938 309.399,350.272 309,350.5C 308.333,349.167 307.667,347.833 307,346.5C 306.667,346.833 306.333,347.167 306,347.5C 305.506,345.866 305.34,344.199 305.5,342.5 Z"/></g>
<g><path style="opacity:1" fill="#857247" d="M 328.5,346.5 C 330.87,348.573 332.203,351.24 332.5,354.5C 330.127,352.421 328.794,349.754 328.5,346.5 Z"/></g>
<g><path style="opacity:0.718" fill="#5b4e34" d="M 350.5,335.5 C 351.043,335.56 351.376,335.893 351.5,336.5C 350.033,342.404 348.7,348.071 347.5,353.5C 345.149,355.229 342.482,355.896 339.5,355.5C 340.919,354.549 342.585,354.216 344.5,354.5C 344.657,353.127 344.49,351.793 344,350.5C 342.893,351.712 342.393,351.379 342.5,349.5C 344.46,346.823 345.96,343.823 347,340.5C 347.667,339.167 348.333,339.167 349,340.5C 349.352,338.753 349.852,337.086 350.5,335.5 Z"/></g>
<g><path style="opacity:0.784" fill="#999162" d="M 238.5,349.5 C 238.141,351.485 237.308,352.151 236,351.5C 234.933,352.191 233.766,352.691 232.5,353C 233.056,353.383 233.389,353.883 233.5,354.5C 232.005,354.585 231.005,353.919 230.5,352.5C 233.183,351.49 235.849,350.49 238.5,349.5 Z"/></g>
<g><path style="opacity:0.737" fill="#685332" d="M 368.5,329.5 C 368.5,330.833 368.5,332.167 368.5,333.5C 368.5,340.167 368.5,346.833 368.5,353.5C 366.833,353.5 365.167,353.5 363.5,353.5C 362.178,350.83 361.178,347.997 360.5,345C 361.213,339.524 361.713,334.024 362,328.5C 363.021,336.724 364.688,344.724 367,352.5C 367.171,344.656 367.671,336.989 368.5,329.5 Z"/></g>
<g><path style="opacity:0.914" fill="#8a8259" d="M 277.5,347.5 C 276.167,347.833 276.167,348.167 277.5,348.5C 276.98,350.949 276.647,353.282 276.5,355.5C 275.334,352.17 275.334,348.837 276.5,345.5C 277.298,345.957 277.631,346.624 277.5,347.5 Z"/></g>
<g><path style="opacity:0.173" fill="#322d22" d="M 167.5,354.5 C 167.44,355.043 167.107,355.376 166.5,355.5C 165.824,354.398 165.158,353.398 164.5,352.5C 164.783,351.711 165.283,351.044 166,350.5C 166.21,352.058 166.71,353.391 167.5,354.5 Z"/></g>
<g><path style="opacity:0.525" fill="#61563a" d="M 185.5,344.5 C 186.895,348.591 187.562,352.924 187.5,357.5C 186.105,353.409 185.438,349.076 185.5,344.5 Z"/></g>
<g><path style="opacity:0.831" fill="#796d47" d="M 195.5,340.5 C 196.482,343.962 196.815,347.629 196.5,351.5C 198.565,351.483 200.565,351.15 202.5,350.5C 201.41,351.857 200.076,352.857 198.5,353.5C 197.766,354.878 197.099,356.378 196.5,358C 193.304,358.805 190.304,358.638 187.5,357.5C 190.167,357.5 192.833,357.5 195.5,357.5C 195.5,351.833 195.5,346.167 195.5,340.5 Z"/></g>
<g><path style="opacity:0.114" fill="#272119" d="M 111.5,354.5 C 114.096,355.265 116.763,355.599 119.5,355.5C 120.833,355.5 122.167,355.5 123.5,355.5C 120.024,356.643 116.358,356.81 112.5,356C 111.944,355.617 111.611,355.117 111.5,354.5 Z"/></g>
<g><path style="opacity:0.02" fill="#302a23" d="M 395.5,354.5 C 393.68,356.461 391.68,356.794 389.5,355.5C 391.5,355.167 393.5,354.833 395.5,354.5 Z"/></g>
<g><path style="opacity:0.51" fill="#4b3c29" d="M 474.5,278.5 C 474.216,280.415 474.549,282.081 475.5,283.5C 470.405,315.047 458.571,343.714 440,369.5C 430.635,380.361 421.135,391.028 411.5,401.5C 416.46,394.539 421.794,387.873 427.5,381.5C 428.167,381.5 428.5,381.167 428.5,380.5C 429.833,380.167 429.833,379.833 428.5,379.5C 428.833,378.5 429.5,377.833 430.5,377.5C 431.167,377.5 431.5,377.167 431.5,376.5C 432.833,376.167 432.833,375.833 431.5,375.5C 431.5,374.833 431.833,374.5 432.5,374.5C 433.167,374.5 433.5,374.167 433.5,373.5C 434.833,373.167 434.833,372.833 433.5,372.5C 434.11,371.609 434.443,370.609 434.5,369.5C 434.833,369.5 435.167,369.5 435.5,369.5C 435.833,370.833 436.167,370.833 436.5,369.5C 437.167,369.5 437.5,369.167 437.5,368.5C 438.338,368.158 438.672,367.492 438.5,366.5C 439.167,366.5 439.5,366.167 439.5,365.5C 440.338,365.158 440.672,364.492 440.5,363.5C 441.338,363.158 441.672,362.492 441.5,361.5C 442.167,361.5 442.5,361.167 442.5,360.5C 443.338,360.158 443.672,359.492 443.5,358.5C 446.187,356.606 446.187,355.939 443.5,356.5C 444.11,354.566 445.11,352.899 446.5,351.5C 446.833,354.167 447.167,354.167 447.5,351.5C 448.338,351.158 448.672,350.492 448.5,349.5C 449.338,349.158 449.672,348.492 449.5,347.5C 450.167,347.167 450.833,346.833 451.5,346.5C 452.674,345.486 453.34,344.153 453.5,342.5C 463.598,322.08 470.598,300.746 474.5,278.5 Z"/></g>
<g><path style="opacity:1" fill="#8a6633" d="M 55.5,338.5 C 61.0054,349.518 67.0054,360.184 73.5,370.5C 72.5416,370.047 71.7083,369.381 71,368.5C 71.4112,374.008 71.9112,379.342 72.5,384.5C 68.1117,379.417 63.945,374.084 60,368.5C 56.9829,364.466 54.4829,360.133 52.5,355.5C 52.178,353.278 52.8446,351.444 54.5,350C 53.8447,346.66 53.5114,343.327 53.5,340C 53.8361,338.97 54.5028,338.47 55.5,338.5 Z"/></g>
<g><path style="opacity:1" fill="#98763e" d="M 73.5,370.5 C 80.1363,378.809 86.803,387.142 93.5,395.5C 90.6618,398.013 89.6618,401.013 90.5,404.5C 90.1667,404.5 89.8333,404.5 89.5,404.5C 83.0831,398.421 77.4164,391.754 72.5,384.5C 71.9112,379.342 71.4112,374.008 71,368.5C 71.7083,369.381 72.5416,370.047 73.5,370.5 Z"/></g>
<g><path style="opacity:0.769" fill="#7a6339" d="M 74.5,358.5 C 86.6385,375.651 100.305,391.651 115.5,406.5C 114.508,406.328 113.842,406.662 113.5,407.5C 96.9009,393.909 83.2342,377.909 72.5,359.5C 72.4088,357.302 73.0755,356.969 74.5,358.5 Z"/></g>
<g><path style="opacity:0.357" fill="#322a1e" d="M 89.5,404.5 C 89.8333,404.5 90.1667,404.5 90.5,404.5C 91.5,404.833 92.1667,405.5 92.5,406.5C 90.9731,406.573 89.9731,405.906 89.5,404.5 Z"/></g>
<g><path style="opacity:0.863" fill="#483c27" d="M 94.5,408.5 C 97.1184,410.452 99.4518,412.785 101.5,415.5C 98.1886,414.189 95.8552,411.855 94.5,408.5 Z"/></g>
<g><path style="opacity:0.999" fill="#9f8149" d="M 434.5,369.5 C 434.443,370.609 434.11,371.609 433.5,372.5C 433.5,372.833 433.5,373.167 433.5,373.5C 432.833,373.5 432.5,373.833 432.5,374.5C 431.833,374.5 431.5,374.833 431.5,375.5C 431.5,375.833 431.5,376.167 431.5,376.5C 430.833,376.5 430.5,376.833 430.5,377.5C 429.5,377.833 428.833,378.5 428.5,379.5C 428.5,379.833 428.5,380.167 428.5,380.5C 427.833,380.5 427.5,380.833 427.5,381.5C 421.794,387.873 416.46,394.539 411.5,401.5C 406.526,406.139 401.526,410.805 396.5,415.5C 394.973,415.427 393.973,416.094 393.5,417.5C 388.382,422.558 382.715,426.891 376.5,430.5C 374.836,428.321 375.17,426.488 377.5,425C 376.906,424.536 376.239,424.369 375.5,424.5C 396.52,407.479 415.187,388.146 431.5,366.5C 432.117,366.389 432.617,366.056 433,365.5C 433.41,366.901 433.91,368.234 434.5,369.5 Z"/></g>
<g><path style="opacity:0.008" fill="#2e2b24" d="M 396.5,415.5 C 396.027,416.906 395.027,417.573 393.5,417.5C 393.973,416.094 394.973,415.427 396.5,415.5 Z"/></g>
<g><path style="opacity:0.999" fill="#a98c4f" d="M 93.5,395.5 C 108.154,410.654 124.487,423.654 142.5,434.5C 140.774,434.185 139.107,434.019 137.5,434C 138.271,435.998 137.605,437.665 135.5,439C 136.056,439.383 136.389,439.883 136.5,440.5C 133.669,439.921 131.336,438.588 129.5,436.5C 129.027,435.094 128.027,434.427 126.5,434.5C 124.147,433.66 122.147,432.326 120.5,430.5C 120.027,429.094 119.027,428.427 117.5,428.5C 111.562,424.894 106.229,420.561 101.5,415.5C 99.4518,412.785 97.1184,410.452 94.5,408.5C 93.5,408.167 92.8333,407.5 92.5,406.5C 92.1667,405.5 91.5,404.833 90.5,404.5C 89.6618,401.013 90.6618,398.013 93.5,395.5 Z"/></g>
<g><path style="opacity:0.902" fill="#847246" d="M 115.5,406.5 C 131.401,419.8 148.734,431.133 167.5,440.5C 165.302,440.409 164.969,441.075 166.5,442.5C 150.031,435.104 134.697,425.938 120.5,415C 117.961,412.63 115.628,410.13 113.5,407.5C 113.842,406.662 114.508,406.328 115.5,406.5 Z"/></g>
<g><path style="opacity:1" fill="#ac965b" d="M 375.5,424.5 C 376.239,424.369 376.906,424.536 377.5,425C 375.17,426.488 374.836,428.321 376.5,430.5C 362.842,440.831 347.842,448.831 331.5,454.5C 332.66,452.797 331.993,452.131 329.5,452.5C 329.5,451.5 329.5,450.5 329.5,449.5C 330.5,449.167 331.167,448.5 331.5,447.5C 346.726,440.887 361.393,433.22 375.5,424.5 Z"/></g>
<g><path style="opacity:0.294" fill="#3e3626" d="M 117.5,428.5 C 119.027,428.427 120.027,429.094 120.5,430.5C 118.973,430.573 117.973,429.906 117.5,428.5 Z"/></g>
<g><path style="opacity:0.31" fill="#473e2a" d="M 126.5,434.5 C 128.027,434.427 129.027,435.094 129.5,436.5C 127.973,436.573 126.973,435.906 126.5,434.5 Z"/></g>
<g><path style="opacity:1" fill="#b8a161" d="M 142.5,434.5 C 151.205,438.853 159.872,443.186 168.5,447.5C 167.504,447.414 166.671,447.748 166,448.5C 165.257,446.355 164.424,446.189 163.5,448C 165.123,449.876 164.79,451.21 162.5,452C 163.942,452.377 164.942,453.21 165.5,454.5C 159.958,452.545 154.625,450.212 149.5,447.5C 149.027,446.094 148.027,445.427 146.5,445.5C 146.167,445.5 145.833,445.5 145.5,445.5C 144.313,443.025 142.313,442.025 139.5,442.5C 139.027,441.094 138.027,440.427 136.5,440.5C 136.389,439.883 136.056,439.383 135.5,439C 137.605,437.665 138.271,435.998 137.5,434C 139.107,434.019 140.774,434.185 142.5,434.5 Z"/></g>
<g><path style="opacity:0.251" fill="#433c29" d="M 136.5,440.5 C 138.027,440.427 139.027,441.094 139.5,442.5C 137.973,442.573 136.973,441.906 136.5,440.5 Z"/></g>
<g><path style="opacity:0.894" fill="#615538" d="M 139.5,442.5 C 142.313,442.025 144.313,443.025 145.5,445.5C 143.456,444.492 141.456,443.492 139.5,442.5 Z"/></g>
<g><path style="opacity:0.204" fill="#413a29" d="M 146.5,445.5 C 148.027,445.427 149.027,446.094 149.5,447.5C 147.973,447.573 146.973,446.906 146.5,445.5 Z"/></g>
<g><path style="opacity:0.878" fill="#928556" d="M 331.5,447.5 C 331.167,448.5 330.5,449.167 329.5,449.5C 323.609,451.575 317.609,453.242 311.5,454.5C 317.941,451.796 324.608,449.463 331.5,447.5 Z"/></g>
<g><path style="opacity:0.918" fill="#978c5b" d="M 167.5,440.5 C 185.742,447.938 204.408,453.604 223.5,457.5C 221.801,457.34 220.134,457.506 218.5,458C 220.058,458.21 221.391,458.71 222.5,459.5C 218.14,458.993 213.807,458.327 209.5,457.5C 207.786,456.262 205.786,455.595 203.5,455.5C 202.833,455.5 202.167,455.5 201.5,455.5C 201.5,454.833 201.167,454.5 200.5,454.5C 188.614,451.873 177.281,447.873 166.5,442.5C 164.969,441.075 165.302,440.409 167.5,440.5 Z"/></g>
<g><path style="opacity:0.998" fill="#c3b06e" d="M 168.5,447.5 C 178.374,450.902 188.374,453.902 198.5,456.5C 198.5,456.833 198.5,457.167 198.5,457.5C 194.623,457.483 193.957,458.649 196.5,461C 194.942,461.21 193.609,461.71 192.5,462.5C 191.833,462.5 191.167,462.5 190.5,462.5C 181.995,460.946 173.661,458.279 165.5,454.5C 164.942,453.21 163.942,452.377 162.5,452C 164.79,451.21 165.123,449.876 163.5,448C 164.424,446.189 165.257,446.355 166,448.5C 166.671,447.748 167.504,447.414 168.5,447.5 Z"/></g>
<g><path style="opacity:1" fill="#c0b06f" d="M 329.5,449.5 C 329.5,450.5 329.5,451.5 329.5,452.5C 331.993,452.131 332.66,452.797 331.5,454.5C 323.604,458.23 315.27,460.897 306.5,462.5C 306.918,461.778 307.584,461.278 308.5,461C 305.833,459.667 305.833,458.333 308.5,457C 306.19,456.503 303.857,456.337 301.5,456.5C 304.627,455.419 307.96,454.753 311.5,454.5C 317.609,453.242 323.609,451.575 329.5,449.5 Z"/></g>
<g><path style="opacity:0.02" fill="#292721" d="M 200.5,454.5 C 201.167,454.5 201.5,454.833 201.5,455.5C 201.843,457.225 202.843,457.725 204.5,457C 203.944,456.617 203.611,456.117 203.5,455.5C 205.786,455.595 207.786,456.262 209.5,457.5C 209.833,458.167 210.167,458.833 210.5,459.5C 206.426,459.218 202.426,458.552 198.5,457.5C 198.5,457.167 198.5,456.833 198.5,456.5C 199.833,456.5 200.5,455.833 200.5,454.5 Z M 201.5,455.5 C 202.167,455.5 202.833,455.5 203.5,455.5C 203.611,456.117 203.944,456.617 204.5,457C 202.843,457.725 201.843,457.225 201.5,455.5 Z"/></g>
<g><path style="opacity:0.761" fill="#beb476" d="M 223.5,457.5 C 225.621,457.325 227.621,457.659 229.5,458.5C 227.735,459.461 225.735,459.795 223.5,459.5C 223.167,459.5 222.833,459.5 222.5,459.5C 221.391,458.71 220.058,458.21 218.5,458C 220.134,457.506 221.801,457.34 223.5,457.5 Z"/></g>
<g><path style="opacity:0.765" fill="#7b7651" d="M 229.5,458.5 C 232.713,458.19 235.713,458.523 238.5,459.5C 235.615,459.194 232.948,459.527 230.5,460.5C 230.167,460.5 229.833,460.5 229.5,460.5C 227.265,460.795 225.265,460.461 223.5,459.5C 225.735,459.795 227.735,459.461 229.5,458.5 Z"/></g>
<g><path style="opacity:0.267" fill="#55513a" d="M 212.5,459.5 C 215.727,459.676 218.727,460.343 221.5,461.5C 218.171,461.785 215.171,461.118 212.5,459.5 Z"/></g>
<g><path style="opacity:0.733" fill="#8d885d" d="M 230.5,460.5 C 232.948,459.527 235.615,459.194 238.5,459.5C 243.695,459.179 248.695,459.513 253.5,460.5C 248.637,460.181 243.97,460.514 239.5,461.5C 237.833,461.5 236.167,461.5 234.5,461.5C 233.432,460.566 232.099,460.232 230.5,460.5 Z"/></g>
<g><path style="opacity:0.902" fill="#827c55" d="M 289.5,458.5 C 287.369,459.314 285.036,459.814 282.5,460C 286.232,460.972 285.899,461.472 281.5,461.5C 276.193,460.724 270.86,460.391 265.5,460.5C 273.325,459.508 281.325,458.841 289.5,458.5 Z"/></g>
<g><path style="opacity:0.09" fill="#3a382b" d="M 229.5,460.5 C 229.833,460.5 230.167,460.5 230.5,460.5C 232.099,460.232 233.432,460.566 234.5,461.5C 233.508,461.328 232.842,461.662 232.5,462.5C 229.287,462.81 226.287,462.477 223.5,461.5C 225.735,461.795 227.735,461.461 229.5,460.5 Z"/></g>
<g><path style="opacity:0.694" fill="#726e4d" d="M 244.5,461.5 C 254.506,461.334 264.506,461.5 274.5,462C 271.635,462.183 268.969,462.683 266.5,463.5C 261.167,463.5 255.833,463.5 250.5,463.5C 249.081,462.549 247.415,462.216 245.5,462.5C 244.833,462.5 244.5,462.167 244.5,461.5 Z"/></g>
<g><path style="opacity:0.999" fill="#ddd086" d="M 198.5,457.5 C 202.426,458.552 206.426,459.218 210.5,459.5C 211.167,459.5 211.833,459.5 212.5,459.5C 215.171,461.118 218.171,461.785 221.5,461.5C 222.167,461.5 222.833,461.5 223.5,461.5C 226.287,462.477 229.287,462.81 232.5,462.5C 232.833,462.5 233.167,462.5 233.5,462.5C 233.5,462.833 233.5,463.167 233.5,463.5C 229.124,462.888 228.457,464.054 231.5,467C 229.5,467.333 227.5,467.667 225.5,468C 226.737,468.232 227.737,468.732 228.5,469.5C 225.098,469.658 221.764,469.324 218.5,468.5C 217.081,467.549 215.415,467.216 213.5,467.5C 208.022,467.129 202.688,466.129 197.5,464.5C 196.07,463.463 194.403,462.796 192.5,462.5C 193.609,461.71 194.942,461.21 196.5,461C 193.957,458.649 194.623,457.483 198.5,457.5 Z"/></g>
<g><path style="opacity:0.141" fill="#484634" d="M 240.5,461.5 C 241.833,461.5 243.167,461.5 244.5,461.5C 244.5,462.167 244.833,462.5 245.5,462.5C 245.5,462.833 245.5,463.167 245.5,463.5C 241.5,463.5 237.5,463.5 233.5,463.5C 233.5,463.167 233.5,462.833 233.5,462.5C 236.059,462.802 238.393,462.468 240.5,461.5 Z"/></g>
<g><path style="opacity:1" fill="#d4c983" d="M 301.5,456.5 C 303.857,456.337 306.19,456.503 308.5,457C 305.833,458.333 305.833,459.667 308.5,461C 307.584,461.278 306.918,461.778 306.5,462.5C 303.848,462.41 301.515,463.076 299.5,464.5C 289.037,467.243 278.371,468.91 267.5,469.5C 268.263,468.732 269.263,468.232 270.5,468C 266.148,467.581 265.815,466.914 269.5,466C 266.833,465.333 266.833,464.667 269.5,464C 268.552,463.517 267.552,463.351 266.5,463.5C 268.969,462.683 271.635,462.183 274.5,462C 264.506,461.5 254.506,461.334 244.5,461.5C 243.167,461.5 241.833,461.5 240.5,461.5C 240.167,461.5 239.833,461.5 239.5,461.5C 243.97,460.514 248.637,460.181 253.5,460.5C 257.5,460.5 261.5,460.5 265.5,460.5C 270.86,460.391 276.193,460.724 281.5,461.5C 285.899,461.472 286.232,460.972 282.5,460C 285.036,459.814 287.369,459.314 289.5,458.5C 293.267,457.205 297.267,456.539 301.5,456.5 Z"/></g>
<g><path style="opacity:0.565" fill="#625b3f" d="M 190.5,462.5 C 191.167,462.5 191.833,462.5 192.5,462.5C 194.403,462.796 196.07,463.463 197.5,464.5C 197.565,464.938 197.399,465.272 197,465.5C 194.706,464.578 192.539,463.578 190.5,462.5 Z"/></g>
<g><path style="opacity:0.008" fill="#353328" d="M 306.5,462.5 C 304.485,463.924 302.152,464.59 299.5,464.5C 301.515,463.076 303.848,462.41 306.5,462.5 Z"/></g>
<g><path style="opacity:1" fill="#e7df93" d="M 233.5,463.5 C 237.5,463.5 241.5,463.5 245.5,463.5C 247.167,463.5 248.833,463.5 250.5,463.5C 255.833,463.5 261.167,463.5 266.5,463.5C 267.552,463.351 268.552,463.517 269.5,464C 266.833,464.667 266.833,465.333 269.5,466C 265.815,466.914 266.148,467.581 270.5,468C 269.263,468.232 268.263,468.732 267.5,469.5C 254.519,470.794 241.519,470.794 228.5,469.5C 227.737,468.732 226.737,468.232 225.5,468C 227.5,467.667 229.5,467.333 231.5,467C 228.457,464.054 229.124,462.888 233.5,463.5 Z"/></g>
<g><path style="opacity:0.522" fill="#545039" d="M 213.5,467.5 C 215.415,467.216 217.081,467.549 218.5,468.5C 218.565,468.938 218.399,469.272 218,469.5C 216.378,468.901 214.878,468.234 213.5,467.5 Z"/></g>
</svg>
