<?xml version="1.0" encoding="UTF-8"?>
<!DOCTYPE svg PUBLIC "-//W3C//DTD SVG 1.1//EN" "http://www.w3.org/Graphics/SVG/1.1/DTD/svg11.dtd">
<svg xmlns="http://www.w3.org/2000/svg" version="1.1" width="808px" height="309px" style="shape-rendering:geometricPrecision; text-rendering:geometricPrecision; image-rendering:optimizeQuality; fill-rule:evenodd; clip-rule:evenodd" xmlns:xlink="http://www.w3.org/1999/xlink">
<g><path style="opacity:1" fill="#838587" d="M 143.5,35.5 C 144.568,34.5655 145.901,34.2322 147.5,34.5C 149.833,34.5 152.167,34.5 154.5,34.5C 154.5,51.1667 154.5,67.8333 154.5,84.5C 152.435,84.4828 150.435,84.1495 148.5,83.5C 146.847,83.3404 145.514,82.6737 144.5,81.5C 146.484,66.5364 147.151,51.2031 146.5,35.5C 145.5,35.5 144.5,35.5 143.5,35.5 Z"/></g>
<g><path style="opacity:0.998" fill="#77787a" d="M 164.5,38.5 C 164.907,56.6173 165.24,74.4507 165.5,92C 164.756,93.0386 163.756,93.5386 162.5,93.5C 161.089,91.086 159.089,89.4194 156.5,88.5C 153.489,87.3307 150.822,85.664 148.5,83.5C 150.435,84.1495 152.435,84.4828 154.5,84.5C 154.5,67.8333 154.5,51.1667 154.5,34.5C 152.167,34.5 149.833,34.5 147.5,34.5C 150.791,33.1987 154.291,32.1987 158,31.5C 161.079,32.9934 163.245,35.3267 164.5,38.5 Z"/></g>
<g><path style="opacity:0.997" fill="#8a8b8e" d="M 143.5,35.5 C 144.5,35.5 145.5,35.5 146.5,35.5C 147.151,51.2031 146.484,66.5364 144.5,81.5C 141.982,80.7362 139.649,79.7362 137.5,78.5C 134.916,76.5275 131.916,75.5275 128.5,75.5C 127.833,75.5 127.167,75.5 126.5,75.5C 124.594,74.5176 122.594,73.5176 120.5,72.5C 121.64,62.9299 121.64,53.4299 120.5,44C 122.728,42.8347 124.061,41.3347 124.5,39.5C 130.702,37.6594 137.035,36.326 143.5,35.5 Z"/></g>
<g><path style="opacity:0.998" fill="#707071" d="M 164.5,38.5 C 165.89,39.8993 166.89,41.5659 167.5,43.5C 167.427,45.0269 168.094,46.0269 169.5,46.5C 170.338,46.8417 170.672,47.5084 170.5,48.5C 170.273,64.3528 169.94,79.8528 169.5,95C 173.074,98.6319 172.074,99.7985 166.5,98.5C 165.167,96.8333 163.833,95.1667 162.5,93.5C 163.756,93.5386 164.756,93.0386 165.5,92C 165.24,74.4507 164.907,56.6173 164.5,38.5 Z"/></g>
<g><path style="opacity:1" fill="#777879" d="M 124.5,39.5 C 124.061,41.3347 122.728,42.8347 120.5,44C 121.64,53.4299 121.64,62.9299 120.5,72.5C 122.594,73.5176 124.594,74.5176 126.5,75.5C 124.139,75.3259 121.806,74.9926 119.5,74.5C 118.432,73.5655 117.099,73.2322 115.5,73.5C 114.081,72.5489 112.415,72.2155 110.5,72.5C 110.437,62.2905 110.437,52.2905 110.5,42.5C 115.03,40.9935 119.697,39.9935 124.5,39.5 Z"/></g>
<g><path style="opacity:1" fill="#6d6d6e" d="M 110.5,42.5 C 110.437,52.2905 110.437,62.2905 110.5,72.5C 112.415,72.2155 114.081,72.5489 115.5,73.5C 110.833,73.5 106.167,73.5 101.5,73.5C 100.183,63.9316 100.183,54.2649 101.5,44.5C 104.37,43.3664 107.37,42.6997 110.5,42.5 Z"/></g>
<g><path style="opacity:0.231" fill="#383839" d="M 167.5,43.5 C 168.906,43.9731 169.573,44.9731 169.5,46.5C 168.094,46.0269 167.427,45.0269 167.5,43.5 Z"/></g>
<g><path style="opacity:0.993" fill="#616161" d="M 101.5,44.5 C 100.183,54.2649 100.183,63.9316 101.5,73.5C 100.833,74.1667 100.167,74.8333 99.5,75.5C 97.2362,76.2186 94.9029,76.552 92.5,76.5C 91.1266,76.6567 89.7932,76.49 88.5,76C 88.8871,66.4961 89.2204,56.9961 89.5,47.5C 90.791,47.7373 91.791,47.404 92.5,46.5C 95.3704,45.3664 98.3704,44.6997 101.5,44.5 Z"/></g>
<g><path style="opacity:0.994" fill="#545353" d="M 92.5,46.5 C 91.791,47.404 90.791,47.7373 89.5,47.5C 89.2204,56.9961 88.8871,66.4961 88.5,76C 89.7932,76.49 91.1266,76.6567 92.5,76.5C 88.3447,78.4022 84.0114,80.0689 79.5,81.5C 79.1667,81.5 78.8333,81.5 78.5,81.5C 78.1909,70.7517 78.5242,60.085 79.5,49.5C 83.5749,47.8816 87.9082,46.8816 92.5,46.5 Z"/></g>
<g><path style="opacity:0.79" fill="#191919" d="M 74.5,50.5 C 75.5,50.5 76.5,50.5 77.5,50.5C 77.1724,61.0135 77.5058,71.3468 78.5,81.5C 78.8333,81.5 79.1667,81.5 79.5,81.5C 77.7056,82.2329 76.0389,83.2329 74.5,84.5C 74.5,73.1667 74.5,61.8333 74.5,50.5 Z"/></g>
<g><path style="opacity:0.973" fill="#393939" d="M 70.5,51.5 C 71.5676,50.5655 72.901,50.2322 74.5,50.5C 74.5,61.8333 74.5,73.1667 74.5,84.5C 74.5,85.1667 74.1667,85.5 73.5,85.5C 73.5,74.1667 73.5,62.8333 73.5,51.5C 72.5,51.5 71.5,51.5 70.5,51.5 Z"/></g>
<g><path style="opacity:1" fill="#585757" d="M 70.5,51.5 C 71.5,51.5 72.5,51.5 73.5,51.5C 73.5,62.8333 73.5,74.1667 73.5,85.5C 71.3374,87.0828 69.0041,88.4161 66.5,89.5C 66.0921,77.6293 66.0921,65.9626 66.5,54.5C 64.9974,53.9478 63.3307,53.9478 61.5,54.5C 59.5,54.5 57.5,54.5 55.5,54.5C 60.2558,52.8821 65.2558,51.8821 70.5,51.5 Z"/></g>
<g><path style="opacity:0.996" fill="#676768" d="M 66.5,89.5 C 65.4206,91.543 63.754,92.8763 61.5,93.5C 61.5,80.5 61.5,67.5 61.5,54.5C 63.3307,53.9478 64.9974,53.9478 66.5,54.5C 66.0921,65.9626 66.0921,77.6293 66.5,89.5 Z"/></g>
<g><path style="opacity:0.998" fill="#717273" d="M 51.5,55.5 C 52.5676,54.5655 53.901,54.2322 55.5,54.5C 57.5,54.5 59.5,54.5 61.5,54.5C 61.5,67.5 61.5,80.5 61.5,93.5C 59.823,95.5398 58.1563,97.5398 56.5,99.5C 56.4083,84.7116 56.4083,70.3782 56.5,56.5C 54.9547,55.5481 53.288,55.2148 51.5,55.5 Z"/></g>
<g><path style="opacity:0.998" fill="#808183" d="M 51.5,55.5 C 53.288,55.2148 54.9547,55.5481 56.5,56.5C 56.4083,70.3782 56.4083,84.7116 56.5,99.5C 56.5,100.167 56.1667,100.5 55.5,100.5C 53.7839,100.371 52.1172,100.038 50.5,99.5C 49.5,98.1667 48.5,96.8333 47.5,95.5C 48.4959,95.5858 49.3292,95.2524 50,94.5C 50.4999,82.1712 50.6665,69.8378 50.5,57.5C 47.8333,57.5 45.1667,57.5 42.5,57.5C 45.2186,56.087 48.2186,55.4203 51.5,55.5 Z"/></g>
<g><path style="opacity:0.997" fill="#656666" d="M 170.5,48.5 C 174.082,53.9942 177.415,59.6608 180.5,65.5C 180.262,75.6279 180.595,85.7945 181.5,96C 179.68,96.2004 178.347,97.0337 177.5,98.5C 175.097,99.3929 172.597,100.06 170,100.5C 168.301,100.613 167.134,99.9468 166.5,98.5C 172.074,99.7985 173.074,98.6319 169.5,95C 169.94,79.8528 170.273,64.3528 170.5,48.5 Z"/></g>
<g><path style="opacity:0.991" fill="#767779" d="M 41.5,57.5 C 40.7222,58.1556 40.0556,58.9889 39.5,60C 39.5,67.3333 39.5,74.6667 39.5,82C 40.2489,84.4966 40.9155,86.9966 41.5,89.5C 36.7923,85.7934 32.7923,81.4601 29.5,76.5C 29.7909,70.5836 30.7909,64.9169 32.5,59.5C 35.3704,58.3664 38.3704,57.6997 41.5,57.5 Z"/></g>
<g><path style="opacity:0.994" fill="#5f6060" d="M 32.5,59.5 C 30.7909,64.9169 29.7909,70.5836 29.5,76.5C 24.9411,73.1084 21.2745,68.9418 18.5,64C 22.6667,61.2847 27.3334,59.7847 32.5,59.5 Z"/></g>
<g><path style="opacity:0.998" fill="#3e3e3d" d="M 79.5,49.5 C 78.5242,60.085 78.1909,70.7517 78.5,81.5C 77.5058,71.3468 77.1724,61.0135 77.5,50.5C 77.8417,49.6618 78.5084,49.3284 79.5,49.5 Z"/></g>
<g><path style="opacity:1" fill="#8b8d90" d="M 41.5,57.5 C 41.8333,57.5 42.1667,57.5 42.5,57.5C 45.1667,57.5 47.8333,57.5 50.5,57.5C 50.6665,69.8378 50.4999,82.1712 50,94.5C 49.3292,95.2524 48.4959,95.5858 47.5,95.5C 45.1667,93.8333 43.1667,91.8333 41.5,89.5C 40.9155,86.9966 40.2489,84.4966 39.5,82C 39.5,74.6667 39.5,67.3333 39.5,60C 40.0556,58.9889 40.7222,58.1556 41.5,57.5 Z"/></g>
<g><path style="opacity:0.997" fill="#5a5959" d="M 180.5,65.5 C 184.665,71.1583 188.332,77.1583 191.5,83.5C 192.241,87.1164 192.075,90.783 191,94.5C 189.378,95.0989 187.878,95.7656 186.5,96.5C 183.781,97.913 180.781,98.5797 177.5,98.5C 178.347,97.0337 179.68,96.2004 181.5,96C 180.595,85.7945 180.262,75.6279 180.5,65.5 Z"/></g>
<g><path style="opacity:0.292" fill="#494a4a" d="M 101.5,73.5 C 106.167,73.5 110.833,73.5 115.5,73.5C 117.099,73.2322 118.432,73.5655 119.5,74.5C 112.789,74.287 106.123,74.6204 99.5,75.5C 100.167,74.8333 100.833,74.1667 101.5,73.5 Z"/></g>
<g><path style="opacity:0.584" fill="#515153" d="M 128.5,75.5 C 131.916,75.5275 134.916,76.5275 137.5,78.5C 134.215,78.0719 131.215,77.0719 128.5,75.5 Z"/></g>
<g><path style="opacity:0.997" fill="#818284" d="M 124.5,80.5 C 127.428,80.5651 130.095,81.2318 132.5,82.5C 127.605,81.4863 122.771,81.4863 118,82.5C 117.362,83.6086 116.862,84.7753 116.5,86C 117.58,94.7931 117.58,103.626 116.5,112.5C 115.167,112.5 113.833,112.5 112.5,112.5C 112.167,112.5 111.833,112.5 111.5,112.5C 110.791,111.596 109.791,111.263 108.5,111.5C 107.737,110.732 106.737,110.232 105.5,110C 106.801,105.586 107.468,100.919 107.5,96C 107.487,91.2528 107.153,86.5861 106.5,82C 112.317,80.5474 118.317,80.0474 124.5,80.5 Z"/></g>
<g><path style="opacity:1" fill="#737475" d="M 124.5,80.5 C 118.317,80.0474 112.317,80.5474 106.5,82C 107.153,86.5861 107.487,91.2528 107.5,96C 107.468,100.919 106.801,105.586 105.5,110C 106.737,110.232 107.737,110.732 108.5,111.5C 105.193,110.949 101.86,110.616 98.5,110.5C 99.3068,101.244 99.8068,91.9104 100,82.5C 100.995,81.9341 101.828,81.2674 102.5,80.5C 109.962,79.2204 117.296,79.2204 124.5,80.5 Z"/></g>
<g><path style="opacity:0.999" fill="#69696a" d="M 102.5,80.5 C 101.828,81.2674 100.995,81.9341 100,82.5C 99.8068,91.9104 99.3068,101.244 98.5,110.5C 95.6035,110.875 92.9368,110.375 90.5,109C 91.0581,100.778 91.3915,92.2784 91.5,83.5C 92.791,83.7373 93.791,83.404 94.5,82.5C 96.9052,81.2318 99.5718,80.5651 102.5,80.5 Z"/></g>
<g><path style="opacity:0.998" fill="#8a8c8e" d="M 132.5,82.5 C 133.791,82.2627 134.791,82.596 135.5,83.5C 136.477,94.4187 136.81,105.419 136.5,116.5C 135.167,116.5 133.833,116.5 132.5,116.5C 130.162,114.96 127.495,114.294 124.5,114.5C 122.095,113.232 119.428,112.565 116.5,112.5C 117.58,103.626 117.58,94.7931 116.5,86C 116.862,84.7753 117.362,83.6086 118,82.5C 122.771,81.4863 127.605,81.4863 132.5,82.5 Z"/></g>
<g><path style="opacity:0.999" fill="#5a5a59" d="M 94.5,82.5 C 93.791,83.404 92.791,83.7373 91.5,83.5C 91.3915,92.2784 91.0581,100.778 90.5,109C 92.9368,110.375 95.6035,110.875 98.5,110.5C 101.86,110.616 105.193,110.949 108.5,111.5C 109.791,111.263 110.791,111.596 111.5,112.5C 103.224,111.876 94.8912,111.876 86.5,112.5C 84.8008,112.66 83.1341,112.494 81.5,112C 82.8189,103.833 82.8189,95.6668 81.5,87.5C 85.2371,84.4733 89.5705,82.8067 94.5,82.5 Z"/></g>
<g><path style="opacity:0.999" fill="#7b7c7d" d="M 135.5,83.5 C 138.241,83.7073 140.574,84.7073 142.5,86.5C 142.183,96.4525 142.516,106.286 143.5,116C 141.942,116.21 140.609,116.71 139.5,117.5C 138.167,117.5 136.833,117.5 135.5,117.5C 134.209,117.737 133.209,117.404 132.5,116.5C 133.833,116.5 135.167,116.5 136.5,116.5C 136.81,105.419 136.477,94.4187 135.5,83.5 Z"/></g>
<g><path style="opacity:0.961" fill="#424141" d="M 191.5,83.5 C 193.856,86.3654 195.856,89.532 197.5,93C 194.371,95.5383 190.704,96.705 186.5,96.5C 187.878,95.7656 189.378,95.0989 191,94.5C 192.075,90.783 192.241,87.1164 191.5,83.5 Z"/></g>
<g><path style="opacity:0.994" fill="#4d4d4c" d="M 81.5,87.5 C 82.8189,95.6668 82.8189,103.833 81.5,112C 83.1341,112.494 84.8008,112.66 86.5,112.5C 85.4324,113.434 84.099,113.768 82.5,113.5C 81.5,113.5 80.5,113.5 79.5,113.5C 79.8236,105.308 79.157,97.3083 77.5,89.5C 78.287,87.8958 79.6203,87.2291 81.5,87.5 Z"/></g>
<g><path style="opacity:0.745" fill="#434344" d="M 156.5,88.5 C 159.089,89.4194 161.089,91.086 162.5,93.5C 159.911,92.5806 157.911,90.914 156.5,88.5 Z"/></g>
<g><path style="opacity:0.994" fill="#717273" d="M 142.5,86.5 C 144.819,86.9925 146.819,87.9925 148.5,89.5C 150.382,98.6407 151.049,107.974 150.5,117.5C 146.833,117.5 143.167,117.5 139.5,117.5C 140.609,116.71 141.942,116.21 143.5,116C 142.516,106.286 142.183,96.4525 142.5,86.5 Z"/></g>
<g><path style="opacity:0.996" fill="#5e5e5e" d="M 148.5,89.5 C 155.787,93.7869 161.787,99.4536 166.5,106.5C 166.469,110.484 167.136,114.317 168.5,118C 167.62,119.356 167.286,120.856 167.5,122.5C 166.167,122.5 164.833,122.5 163.5,122.5C 154.343,119.286 145.009,117.62 135.5,117.5C 136.833,117.5 138.167,117.5 139.5,117.5C 143.167,117.5 146.833,117.5 150.5,117.5C 151.049,107.974 150.382,98.6407 148.5,89.5 Z"/></g>
<g><path style="opacity:0.074" fill="#262626" d="M 77.5,89.5 C 79.157,97.3083 79.8236,105.308 79.5,113.5C 80.5,113.5 81.5,113.5 82.5,113.5C 81.4324,114.434 80.099,114.768 78.5,114.5C 78.5,116.167 78.5,117.833 78.5,119.5C 77.8343,116.972 77.1676,114.306 76.5,111.5C 75.914,111.709 75.414,112.043 75,112.5C 74.5004,119.158 74.3337,125.825 74.5,132.5C 73.5332,145.502 72.5332,158.502 71.5,171.5C 71.7432,155.484 72.4098,139.484 73.5,123.5C 73.4954,121.304 73.162,119.304 72.5,117.5C 72.4872,110.062 72.8206,102.562 73.5,95C 73.1667,94.1667 72.8333,93.3333 72.5,92.5C 71.0603,93.9524 69.3936,94.9524 67.5,95.5C 71.5578,88.8328 74.3911,89.1661 76,96.5C 76.1862,93.9644 76.6862,91.631 77.5,89.5 Z"/></g>
<g><path style="opacity:1" fill="#666768" d="M 72.5,117.5 C 70.9991,118.752 69.3325,119.752 67.5,120.5C 68.1904,112.505 68.3571,104.505 68,96.5C 66.871,98.1412 65.371,99.1412 63.5,99.5C 64.5,97.8333 65.8333,96.5 67.5,95.5C 69.3936,94.9524 71.0603,93.9524 72.5,92.5C 72.8333,93.3333 73.1667,94.1667 73.5,95C 72.8206,102.562 72.4872,110.062 72.5,117.5 Z"/></g>
<g><path style="opacity:0.651" fill="#4d4d4e" d="M 50.5,99.5 C 52.1172,100.038 53.7839,100.371 55.5,100.5C 53.5434,103.059 51.8767,102.726 50.5,99.5 Z"/></g>
<g><path style="opacity:0.873" fill="#7b7c7d" d="M 74.5,98.5 C 75.5,98.5 76.5,98.5 77.5,98.5C 77.5,102.167 77.5,105.833 77.5,109.5C 76.5,109.5 75.5,109.5 74.5,109.5C 74.5,105.833 74.5,102.167 74.5,98.5 Z"/></g>
<g><path style="opacity:1" fill="#87888b" d="M 67.5,120.5 C 67.1583,121.338 66.4916,121.672 65.5,121.5C 63.8511,115.399 62.8511,109.065 62.5,102.5C 63.1098,101.609 63.4431,100.609 63.5,99.5C 65.371,99.1412 66.871,98.1412 68,96.5C 68.3571,104.505 68.1904,112.505 67.5,120.5 Z"/></g>
<g><path style="opacity:0.963" fill="#5a5b5b" d="M 63.5,99.5 C 63.4431,100.609 63.1098,101.609 62.5,102.5C 61.828,103.267 60.9947,103.934 60,104.5C 59.8333,107.833 59.6667,111.167 59.5,114.5C 59.5136,118.239 60.1803,121.572 61.5,124.5C 60.4583,125.791 59.2917,125.791 58,124.5C 53.151,114.493 54.9843,106.16 63.5,99.5 Z"/></g>
<g><path style="opacity:0.635" fill="#555657" d="M 112.5,112.5 C 113.833,112.5 115.167,112.5 116.5,112.5C 119.428,112.565 122.095,113.232 124.5,114.5C 120.295,114.283 116.295,113.617 112.5,112.5 Z"/></g>
<g><path style="opacity:1" fill="#7b7c7e" d="M 62.5,102.5 C 62.8511,109.065 63.8511,115.399 65.5,121.5C 64.5637,122.974 63.2303,123.974 61.5,124.5C 60.1803,121.572 59.5136,118.239 59.5,114.5C 59.6667,111.167 59.8333,107.833 60,104.5C 60.9947,103.934 61.828,103.267 62.5,102.5 Z"/></g>
<g><path style="opacity:0.776" fill="#5b5c5d" d="M 124.5,114.5 C 127.495,114.294 130.162,114.96 132.5,116.5C 129.572,116.435 126.905,115.768 124.5,114.5 Z"/></g>
<g><path style="opacity:0.987" fill="#444443" d="M 166.5,106.5 C 168.868,112.443 170.868,118.609 172.5,125C 172.491,126.404 171.991,127.57 171,128.5C 168.886,125.879 166.386,123.879 163.5,122.5C 164.833,122.5 166.167,122.5 167.5,122.5C 167.286,120.856 167.62,119.356 168.5,118C 167.136,114.317 166.469,110.484 166.5,106.5 Z"/></g>
<g><path style="opacity:1" fill="#7a7b7d" d="M 78.5,119.5 C 79.3242,122.764 79.6576,126.098 79.5,129.5C 78.7784,129.082 78.2784,128.416 78,127.5C 77.5,155.831 77.3334,184.165 77.5,212.5C 76.5,212.5 75.5,212.5 74.5,212.5C 74.5,212.167 74.5,211.833 74.5,211.5C 74.5,185.167 74.5,158.833 74.5,132.5C 74.3337,125.825 74.5004,119.158 75,112.5C 75.414,112.043 75.914,111.709 76.5,111.5C 77.1676,114.306 77.8343,116.972 78.5,119.5 Z"/></g>
<g><path style="opacity:0.61" fill="#373737" d="M 165.5,137.5 C 161.43,134.94 157.764,131.773 154.5,128C 149.511,127.501 144.511,127.334 139.5,127.5C 139.5,133.833 139.5,140.167 139.5,146.5C 138.835,143.351 138.502,140.018 138.5,136.5C 138.547,132.733 139.214,129.233 140.5,126C 144.833,125.333 149.167,125.333 153.5,126C 158.002,129.336 162.002,133.169 165.5,137.5 Z"/></g>
<g><path style="opacity:0.106" fill="#2e2e2e" d="M 338.5,126.5 C 339.289,126.783 339.956,127.283 340.5,128C 339.85,134.599 339.184,141.099 338.5,147.5C 338.5,140.5 338.5,133.5 338.5,126.5 Z"/></g>
<g><path style="opacity:0.145" fill="#343434" d="M 554.5,126.5 C 555.227,132.189 555.894,138.022 556.5,144C 556.192,145.459 555.525,146.626 554.5,147.5C 554.5,140.5 554.5,133.5 554.5,126.5 Z"/></g>
<g><path style="opacity:0.998" fill="#525251" d="M 124.5,149.5 C 123.883,149.611 123.383,149.944 123,150.5C 122.333,173.167 122.333,195.833 123,218.5C 125.196,221.125 128.03,222.125 131.5,221.5C 131.5,228.167 131.5,234.833 131.5,241.5C 127.019,242.648 122.352,242.815 117.5,242C 116.619,241.292 115.953,240.458 115.5,239.5C 114.772,237.265 113.439,235.432 111.5,234C 114.742,233.717 115.076,232.883 112.5,231.5C 114.991,230.459 114.991,229.626 112.5,229C 115.167,228.333 115.167,227.667 112.5,227C 115.167,226.333 115.167,225.667 112.5,225C 115.167,224.333 115.167,223.667 112.5,223C 115.167,222.333 115.167,221.667 112.5,221C 115.167,220 115.167,219 112.5,218C 115.167,217.333 115.167,216.667 112.5,216C 115.167,215.333 115.167,214.667 112.5,214C 115.167,213.333 115.167,212.667 112.5,212C 115.167,211.333 115.167,210.667 112.5,210C 114.991,209.374 114.991,208.541 112.5,207.5C 114.991,206.459 114.991,205.626 112.5,205C 115.167,204.333 115.167,203.667 112.5,203C 115.167,202.333 115.167,201.667 112.5,201C 115.167,200.333 115.167,199.667 112.5,199C 115.167,198.333 115.167,197.667 112.5,197C 115.167,196 115.167,195 112.5,194C 115.167,193.333 115.167,192.667 112.5,192C 115.167,191.333 115.167,190.667 112.5,190C 115.167,189.333 115.167,188.667 112.5,188C 115.167,187.333 115.167,186.667 112.5,186C 114.991,185.374 114.991,184.541 112.5,183.5C 114.991,182.459 114.991,181.626 112.5,181C 115.167,180.333 115.167,179.667 112.5,179C 115.167,178.333 115.167,177.667 112.5,177C 115.167,176.333 115.167,175.667 112.5,175C 115.167,174.333 115.167,173.667 112.5,173C 115.167,172 115.167,171 112.5,170C 115.167,169.333 115.167,168.667 112.5,168C 115.167,167.333 115.167,166.667 112.5,166C 115.167,165.333 115.167,164.667 112.5,164C 115.167,163.333 115.167,162.667 112.5,162C 114.991,161.374 114.991,160.541 112.5,159.5C 114.991,158.459 114.991,157.626 112.5,157C 115.167,156.333 115.167,155.667 112.5,155C 115.167,154.333 115.167,153.667 112.5,153C 115.167,152.333 115.167,151.667 112.5,151C 114.991,150.374 114.991,149.541 112.5,148.5C 114.991,147.459 114.991,146.626 112.5,146C 115.167,145.333 115.167,144.667 112.5,144C 115.167,143.333 115.167,142.667 112.5,142C 115.167,141.333 115.167,140.667 112.5,140C 115.167,139.333 115.167,138.667 112.5,138C 115.167,137 115.167,136 112.5,135C 115.167,134.333 115.167,133.667 112.5,133C 113.823,132.184 114.489,131.017 114.5,129.5C 115.453,127.39 117.119,126.223 119.5,126C 123.871,125.172 128.205,125.339 132.5,126.5C 133.399,133.221 133.565,139.888 133,146.5C 130.05,147.189 127.217,148.189 124.5,149.5 Z"/></g>
<g><path style="opacity:0.999" fill="#5a5a59" d="M 165.5,137.5 C 167.173,138.343 168.34,139.676 169,141.5C 169.5,148.826 169.666,156.159 169.5,163.5C 165.833,163.5 162.167,163.5 158.5,163.5C 155.609,162.597 152.609,162.264 149.5,162.5C 149.666,158.486 149.499,154.486 149,150.5C 148.617,149.944 148.117,149.611 147.5,149.5C 144.837,148.248 142.17,147.248 139.5,146.5C 139.5,140.167 139.5,133.833 139.5,127.5C 144.511,127.334 149.511,127.501 154.5,128C 157.764,131.773 161.43,134.94 165.5,137.5 Z"/></g>
<g><path style="opacity:0.996" fill="#6d6e6f" d="M 283.5,127.5 C 279.154,127.334 274.821,127.501 270.5,128C 273.371,128.118 276.038,128.784 278.5,130C 278.113,150.473 278.113,170.806 278.5,191C 278.167,191.167 277.833,191.333 277.5,191.5C 276.719,190.271 276.219,188.938 276,187.5C 275.601,187.728 275.435,188.062 275.5,188.5C 275.167,188.5 274.833,188.5 274.5,188.5C 272.859,182.352 271.526,176.018 270.5,169.5C 269.481,158.872 268.481,158.872 267.5,169.5C 266.647,176.122 265.314,182.622 263.5,189C 256.508,189.5 249.508,189.666 242.5,189.5C 245.6,168.666 249.6,148 254.5,127.5C 255.376,126.749 256.376,126.249 257.5,126C 265.5,125.333 273.5,125.333 281.5,126C 282.416,126.278 283.082,126.778 283.5,127.5 Z"/></g>
<g><path style="opacity:0.999" fill="#767779" d="M 332.5,148.5 C 331.933,150.03 331.267,151.53 330.5,153C 331.167,159.333 331.833,165.667 332.5,172C 340.833,172.333 349.167,172.667 357.5,173C 358.416,173.278 359.082,173.778 359.5,174.5C 350.494,174.334 341.494,174.5 332.5,175C 334.5,175.333 336.5,175.667 338.5,176C 337.167,177.667 335.833,179.333 334.5,181C 335.833,181.333 337.167,181.667 338.5,182C 337.022,183.193 335.688,183.693 334.5,183.5C 338.046,184.571 338.046,186.071 334.5,188C 335.833,188.333 337.167,188.667 338.5,189C 335.458,191.875 331.791,193.208 327.5,193C 342.83,193.5 358.163,193.667 373.5,193.5C 373.5,191.833 373.5,190.167 373.5,188.5C 373.833,188.5 374.167,188.5 374.5,188.5C 374.756,190.792 374.423,192.959 373.5,195C 357.167,195.667 340.833,195.667 324.5,195C 320,190.5 315.5,186 311,181.5C 309.371,168.261 309.038,154.928 310,141.5C 313.002,137.332 316.502,133.665 320.5,130.5C 322.196,130.315 323.529,129.481 324.5,128C 328.821,127.501 333.154,127.334 337.5,127.5C 337.5,133.833 337.5,140.167 337.5,146.5C 335.302,146.12 333.635,146.787 332.5,148.5 Z"/></g>
<g><path style="opacity:1" fill="#7e7f81" d="M 360.5,127.5 C 362.167,131.167 364.833,133.833 368.5,135.5C 370.167,136.5 371.5,137.833 372.5,139.5C 373.437,147.445 373.77,155.445 373.5,163.5C 367.347,164.653 361.014,164.82 354.5,164C 353.944,163.617 353.611,163.117 353.5,162.5C 354.097,157.706 353.43,153.373 351.5,149.5C 349.582,148.132 347.415,147.132 345,146.5C 344.333,139.833 344.333,133.167 345,126.5C 350.302,124.984 355.469,125.317 360.5,127.5 Z"/></g>
<g><path style="opacity:0.994" fill="#8a8c8f" d="M 471.5,126.5 C 471.5,150.5 471.5,174.5 471.5,198.5C 464.833,198.5 458.167,198.5 451.5,198.5C 451.5,174.833 451.5,151.167 451.5,127.5C 451.918,126.778 452.584,126.278 453.5,126C 459.681,125.181 465.681,125.347 471.5,126.5 Z"/></g>
<g><path style="opacity:0.162" fill="#4c4c4d" d="M 471.5,126.5 C 472.498,150.661 472.831,174.994 472.5,199.5C 465.167,199.5 457.833,199.5 450.5,199.5C 450.169,175.328 450.502,151.328 451.5,127.5C 451.5,151.167 451.5,174.833 451.5,198.5C 458.167,198.5 464.833,198.5 471.5,198.5C 471.5,174.5 471.5,150.5 471.5,126.5 Z"/></g>
<g><path style="opacity:0.996" fill="#828385" d="M 505.5,131.5 C 505.423,132.75 504.756,133.583 503.5,134C 503.833,134.333 504.167,134.667 504.5,135C 503.376,135.249 502.376,135.749 501.5,136.5C 502.529,136.296 503.529,136.796 504.5,138C 500.5,138.667 500.5,139.333 504.5,140C 503.167,140.667 503.167,141.333 504.5,142C 500.5,142.667 500.5,143.333 504.5,144C 503.167,144.667 503.167,145.333 504.5,146C 500.639,146.569 500.639,147.402 504.5,148.5C 500.639,149.598 500.639,150.431 504.5,151C 503.167,151.667 503.167,152.333 504.5,153C 500.5,153.667 500.5,154.333 504.5,155C 503.167,155.667 503.167,156.333 504.5,157C 500.639,157.569 500.639,158.402 504.5,159.5C 500.639,160.598 500.639,161.431 504.5,162C 503.167,162.667 503.167,163.333 504.5,164C 500.5,164.667 500.5,165.333 504.5,166C 503.167,166.667 503.167,167.333 504.5,168C 500.5,168.667 500.5,169.333 504.5,170C 503.529,171.204 502.529,171.704 501.5,171.5C 502.376,172.251 503.376,172.751 504.5,173C 503.167,173.667 503.167,174.333 504.5,175C 500.5,175.667 500.5,176.333 504.5,177C 504.5,178.333 504.5,179.667 504.5,181C 500.639,181.569 500.639,182.402 504.5,183.5C 500.639,184.598 500.639,185.431 504.5,186C 503.167,186.667 503.167,187.333 504.5,188C 500.5,188.667 500.5,189.333 504.5,190C 503.167,190.667 503.167,191.333 504.5,192C 500.5,192.667 500.5,193.333 504.5,194C 503.529,195.204 502.529,195.704 501.5,195.5C 502.376,196.251 503.376,196.751 504.5,197C 503.167,197.667 503.167,198.333 504.5,199C 500.5,199.667 500.5,200.333 504.5,201C 503.167,201.667 503.167,202.333 504.5,203C 500.5,203.667 500.5,204.333 504.5,205C 504.5,206.667 504.5,208.333 504.5,210C 500.5,210.667 500.5,211.333 504.5,212C 503.167,212.667 503.167,213.333 504.5,214C 500.5,214.667 500.5,215.333 504.5,216C 503.167,216.667 503.167,217.333 504.5,218C 503.376,218.249 502.376,218.749 501.5,219.5C 502.529,219.296 503.529,219.796 504.5,221C 500.5,221.667 500.5,222.333 504.5,223C 503.167,223.667 503.167,224.333 504.5,225C 500.5,225.667 500.5,226.333 504.5,227C 503.167,227.667 503.167,228.333 504.5,229C 500.639,229.569 500.639,230.402 504.5,231.5C 500.639,232.598 500.639,233.431 504.5,234C 503.167,234.667 503.167,235.333 504.5,236C 500.5,236.667 500.5,237.333 504.5,238C 504.167,238.333 503.833,238.667 503.5,239C 507.833,239.333 512.167,239.667 516.5,240C 510.175,240.5 503.842,240.666 497.5,240.5C 494.016,227.563 490.682,214.563 487.5,201.5C 487.586,200.504 487.252,199.671 486.5,199C 484.19,198.503 481.857,198.337 479.5,198.5C 479.5,191.833 479.5,185.167 479.5,178.5C 484.064,177.784 488.731,177.117 493.5,176.5C 494.117,176.389 494.617,176.056 495,175.5C 495.823,166.99 495.657,158.656 494.5,150.5C 493.5,150.167 492.833,149.5 492.5,148.5C 488.627,146.57 484.294,145.903 479.5,146.5C 479.5,139.833 479.5,133.167 479.5,126.5C 486.736,125.096 494.069,125.263 501.5,127C 503.041,128.371 504.375,129.871 505.5,131.5 Z"/></g>
<g><path style="opacity:0.643" fill="#4e4f4f" d="M 577.5,127.5 C 572.5,127.5 567.5,127.5 562.5,127.5C 562.5,133.833 562.5,140.167 562.5,146.5C 564.527,146.338 566.527,146.505 568.5,147C 569.056,147.383 569.389,147.883 569.5,148.5C 566.611,147.992 563.778,147.325 561,146.5C 560.333,140.167 560.333,133.833 561,127.5C 561.5,127 562,126.5 562.5,126C 566.833,125.333 571.167,125.333 575.5,126C 576.416,126.278 577.082,126.778 577.5,127.5 Z"/></g>
<g><path style="opacity:0.997" fill="#6a6b6b" d="M 619.5,150.5 C 618.337,172.996 618.17,195.663 619,218.5C 621.546,221.186 624.713,222.186 628.5,221.5C 629.827,228.235 629.827,235.068 628.5,242C 623.051,242.896 617.718,242.563 612.5,241C 607.3,236.135 602.467,230.968 598,225.5C 598.644,197.502 598.644,169.502 598,141.5C 602.833,136.667 607.667,131.833 612.5,127C 617.428,125.582 622.428,125.249 627.5,126C 628.786,129.233 629.453,132.733 629.5,136.5C 629.333,139.833 629.167,143.167 629,146.5C 625.359,146.845 622.192,148.178 619.5,150.5 Z"/></g>
<g><path style="opacity:0.427" fill="#494949" d="M 636.5,126.5 C 636.5,133.167 636.5,139.833 636.5,146.5C 638.527,146.338 640.527,146.505 642.5,147C 643.056,147.383 643.389,147.883 643.5,148.5C 640.881,148.768 638.381,148.435 636,147.5C 635.179,140.321 635.345,133.321 636.5,126.5 Z"/></g>
<g><path style="opacity:0.999" fill="#626262" d="M 660.5,232.5 C 658.086,233.911 656.419,235.911 655.5,238.5C 653.99,239.836 652.323,241.003 650.5,242C 645.581,242.802 640.748,242.635 636,241.5C 635.333,234.833 635.333,228.167 636,221.5C 638.041,220.577 640.208,220.244 642.5,220.5C 644.017,220.489 645.184,219.823 646,218.5C 646.667,195.833 646.667,173.167 646,150.5C 645.617,149.944 645.117,149.611 644.5,149.5C 643.833,149.5 643.5,149.167 643.5,148.5C 643.389,147.883 643.056,147.383 642.5,147C 640.527,146.505 638.527,146.338 636.5,146.5C 636.5,139.833 636.5,133.167 636.5,126.5C 641.724,125.205 647.057,125.372 652.5,127C 657.7,131.865 662.533,137.032 667,142.5C 667.301,169.855 667.301,197.188 667,224.5C 665.754,227.913 663.587,230.579 660.5,232.5 Z"/></g>
<g><path style="opacity:0.992" fill="#525151" d="M 703.5,205.5 C 708.844,205.666 714.177,205.499 719.5,205C 717.226,204.53 715.226,203.53 713.5,202C 716.177,201.751 718.51,200.751 720.5,199C 717.833,198.333 717.833,197.667 720.5,197C 717.833,196 717.833,195 720.5,194C 719.167,193.333 719.167,192.667 720.5,192C 717.833,191.333 717.833,190.667 720.5,190C 717.833,189.333 717.833,188.667 720.5,188C 717.833,187.333 717.833,186.667 720.5,186C 719.359,185.259 719.359,184.425 720.5,183.5C 718.009,182.459 718.009,181.626 720.5,181C 717.833,180.333 717.833,179.667 720.5,179C 717.833,178.333 717.833,177.667 720.5,177C 717.833,176.333 717.833,175.667 720.5,175C 717.833,174.333 717.833,173.667 720.5,173C 719.351,171.256 718.017,171.089 716.5,172.5C 715.614,171.675 715.281,170.675 715.5,169.5C 714.5,169.5 713.5,169.5 712.5,169.5C 712.833,168.167 713.167,166.833 713.5,165.5C 718.486,152.029 724.153,138.863 730.5,126C 737.167,125.333 743.833,125.333 750.5,126C 751.022,126.561 751.355,127.228 751.5,128C 741.472,153.889 731.305,179.723 721,205.5C 715.068,206.825 709.234,206.825 703.5,205.5 Z"/></g>
<g><path style="opacity:0.999" fill="#737475" d="M 283.5,127.5 C 289.044,153.425 294.378,179.425 299.5,205.5C 299.26,208.579 299.593,211.579 300.5,214.5C 286.178,215.666 271.845,215.833 257.5,215C 255.122,214.026 255.456,213.359 258.5,213C 255.833,212.333 255.833,211.667 258.5,211C 255.833,210.333 255.833,209.667 258.5,209C 254.728,207.611 254.728,206.611 258.5,206C 255.833,205.333 255.833,204.667 258.5,204C 255.833,203.333 255.833,202.667 258.5,202C 255.833,201.333 255.833,200.667 258.5,200C 254.5,199.333 254.5,198.667 258.5,198C 252.652,197.827 246.985,197.327 241.5,196.5C 253.167,196.5 264.833,196.5 276.5,196.5C 276.768,194.901 276.434,193.568 275.5,192.5C 275.5,191.167 275.5,189.833 275.5,188.5C 275.435,188.062 275.601,187.728 276,187.5C 276.219,188.938 276.719,190.271 277.5,191.5C 277.833,191.333 278.167,191.167 278.5,191C 278.113,170.806 278.113,150.473 278.5,130C 276.038,128.784 273.371,128.118 270.5,128C 274.821,127.501 279.154,127.334 283.5,127.5 Z"/></g>
<g><path style="opacity:0.77" fill="#5a5a5b" d="M 338.5,126.5 C 338.5,133.5 338.5,140.5 338.5,147.5C 336.475,147.789 334.475,148.122 332.5,148.5C 333.635,146.787 335.302,146.12 337.5,146.5C 337.5,140.167 337.5,133.833 337.5,127.5C 333.154,127.334 328.821,127.501 324.5,128C 323.529,129.481 322.196,130.315 320.5,130.5C 321.673,128.496 323.34,126.996 325.5,126C 330.02,125.186 334.354,125.353 338.5,126.5 Z"/></g>
<g><path style="opacity:0.443" fill="#464748" d="M 360.5,127.5 C 363.5,129.833 366.167,132.5 368.5,135.5C 364.833,133.833 362.167,131.167 360.5,127.5 Z"/></g>
<g><path style="opacity:1" fill="#87898b" d="M 403.5,148.5 C 403.217,149.289 402.717,149.956 402,150.5C 401.333,157.167 401.333,163.833 402,170.5C 402.717,171.044 403.217,171.711 403.5,172.5C 403.5,172.833 403.5,173.167 403.5,173.5C 397.969,174.368 397.635,175.202 402.5,176C 399.833,177.333 399.833,178.667 402.5,180C 397.167,180.667 397.167,181.333 402.5,182C 397.373,183.526 397.373,184.526 402.5,185C 399.833,185.667 399.833,186.333 402.5,187C 397.167,187.667 397.167,188.333 402.5,189C 400.623,191.106 398.29,192.439 395.5,193C 411.83,193.5 428.163,193.667 444.5,193.5C 428.342,194.496 412.009,194.83 395.5,194.5C 389.435,189.604 384.269,183.938 380,177.5C 379.333,165.833 379.333,154.167 380,142.5C 383.336,137.998 387.169,133.998 391.5,130.5C 393.196,130.315 394.529,129.481 395.5,128C 399.821,127.501 404.154,127.334 408.5,127.5C 408.5,133.833 408.5,140.167 408.5,146.5C 406.302,146.12 404.635,146.787 403.5,148.5 Z"/></g>
<g><path style="opacity:0.24" fill="#4d4e4f" d="M 416.5,126.5 C 416.5,133.167 416.5,139.833 416.5,146.5C 418.781,146.077 420.448,146.744 421.5,148.5C 419.5,148.167 417.5,147.833 415.5,147.5C 415.175,140.313 415.509,133.313 416.5,126.5 Z"/></g>
<g><path style="opacity:0.996" fill="#8a8b8e" d="M 437.5,133.5 C 439.094,136.764 441.427,139.431 444.5,141.5C 445.827,148.902 445.827,156.402 444.5,164C 437.833,164.667 431.167,164.667 424.5,164C 423.697,159.586 423.197,155.086 423,150.5C 422.283,149.956 421.783,149.289 421.5,148.5C 420.448,146.744 418.781,146.077 416.5,146.5C 416.5,139.833 416.5,133.167 416.5,126.5C 419.976,125.357 423.642,125.19 427.5,126C 431.254,127.919 434.588,130.419 437.5,133.5 Z"/></g>
<g><path style="opacity:0.992" fill="#717172" d="M 577.5,127.5 C 582.715,131.204 587.548,135.538 592,140.5C 592.667,169.167 592.667,197.833 592,226.5C 587.605,232.397 582.438,237.397 576.5,241.5C 571.833,241.5 567.167,241.5 562.5,241.5C 562.5,234.833 562.5,228.167 562.5,221.5C 564.735,221.795 566.735,221.461 568.5,220.5C 570.183,216.795 571.016,212.795 571,208.5C 571.998,188.398 571.498,168.398 569.5,148.5C 569.389,147.883 569.056,147.383 568.5,147C 566.527,146.505 564.527,146.338 562.5,146.5C 562.5,140.167 562.5,133.833 562.5,127.5C 567.5,127.5 572.5,127.5 577.5,127.5 Z"/></g>
<g><path style="opacity:0.996" fill="#595858" d="M 710.5,164.5 C 710.402,166.553 711.069,168.22 712.5,169.5C 713.5,169.5 714.5,169.5 715.5,169.5C 715.281,170.675 715.614,171.675 716.5,172.5C 718.017,171.089 719.351,171.256 720.5,173C 717.833,173.667 717.833,174.333 720.5,175C 717.833,175.667 717.833,176.333 720.5,177C 717.833,177.667 717.833,178.333 720.5,179C 717.833,179.667 717.833,180.333 720.5,181C 718.009,181.626 718.009,182.459 720.5,183.5C 719.359,184.425 719.359,185.259 720.5,186C 717.833,186.667 717.833,187.333 720.5,188C 717.833,188.667 717.833,189.333 720.5,190C 717.833,190.667 717.833,191.333 720.5,192C 719.167,192.667 719.167,193.333 720.5,194C 717.833,195 717.833,196 720.5,197C 717.833,197.667 717.833,198.333 720.5,199C 718.51,200.751 716.177,201.751 713.5,202C 715.226,203.53 717.226,204.53 719.5,205C 714.177,205.499 708.844,205.666 703.5,205.5C 692.821,180.303 682.821,154.803 673.5,129C 673.585,127.893 673.919,126.893 674.5,126C 681.218,125.205 687.884,125.372 694.5,126.5C 700.38,138.927 705.713,151.594 710.5,164.5 Z"/></g>
<g><path style="opacity:0.998" fill="#77787a" d="M 554.5,126.5 C 554.5,133.5 554.5,140.5 554.5,147.5C 551.03,146.875 548.196,147.875 546,150.5C 545.333,173.167 545.333,195.833 546,218.5C 546.383,219.056 546.883,219.389 547.5,219.5C 549.279,221.344 551.612,222.01 554.5,221.5C 555.827,228.235 555.827,235.068 554.5,242C 549.5,242.667 544.5,242.667 539.5,242C 533.667,237.5 528.5,232.333 524,226.5C 523.333,198.167 523.333,169.833 524,141.5C 529.198,135.967 534.698,130.8 540.5,126C 545.252,125.227 549.919,125.393 554.5,126.5 Z"/></g>
<g><path style="opacity:0.524" fill="#4d4e4f" d="M 479.5,126.5 C 479.5,133.167 479.5,139.833 479.5,146.5C 484.294,145.903 488.627,146.57 492.5,148.5C 487.901,148.8 483.401,148.467 479,147.5C 477.189,140.35 477.356,133.35 479.5,126.5 Z"/></g>
<g><path style="opacity:0.812" fill="#464646" d="M 175.5,125.5 C 182.226,125.205 188.892,125.538 195.5,126.5C 196.331,130.641 196.997,134.808 197.5,139C 196.852,164.386 196.185,189.72 195.5,215C 189.5,215.667 183.5,215.667 177.5,215C 176.376,214.161 175.709,212.994 175.5,211.5C 175.217,182.795 175.217,154.128 175.5,125.5 Z"/></g>
<g><path style="opacity:1" fill="#626161" d="M 176.5,127.5 C 182.833,127.5 189.167,127.5 195.5,127.5C 195.5,156.167 195.5,184.833 195.5,213.5C 189.167,213.5 182.833,213.5 176.5,213.5C 176.5,184.833 176.5,156.167 176.5,127.5 Z"/></g>
<g><path style="opacity:1" fill="#7d7e80" d="M 505.5,131.5 C 509.131,134.629 512.631,137.963 516,141.5C 516.667,155.5 516.667,169.5 516,183.5C 513.153,187.011 510.32,190.511 507.5,194C 509.407,200.796 511.074,207.629 512.5,214.5C 512.41,217.152 513.076,219.485 514.5,221.5C 516.102,225.239 517.102,229.239 517.5,233.5C 517.575,236.206 517.908,238.873 518.5,241.5C 512.013,242.654 505.346,242.821 498.5,242C 497.944,241.617 497.611,241.117 497.5,240.5C 503.842,240.666 510.175,240.5 516.5,240C 512.167,239.667 507.833,239.333 503.5,239C 503.833,238.667 504.167,238.333 504.5,238C 500.5,237.333 500.5,236.667 504.5,236C 503.167,235.333 503.167,234.667 504.5,234C 500.639,233.431 500.639,232.598 504.5,231.5C 500.639,230.402 500.639,229.569 504.5,229C 503.167,228.333 503.167,227.667 504.5,227C 500.5,226.333 500.5,225.667 504.5,225C 503.167,224.333 503.167,223.667 504.5,223C 500.5,222.333 500.5,221.667 504.5,221C 503.529,219.796 502.529,219.296 501.5,219.5C 502.376,218.749 503.376,218.249 504.5,218C 503.167,217.333 503.167,216.667 504.5,216C 500.5,215.333 500.5,214.667 504.5,214C 503.167,213.333 503.167,212.667 504.5,212C 500.5,211.333 500.5,210.667 504.5,210C 504.5,208.333 504.5,206.667 504.5,205C 500.5,204.333 500.5,203.667 504.5,203C 503.167,202.333 503.167,201.667 504.5,201C 500.5,200.333 500.5,199.667 504.5,199C 503.167,198.333 503.167,197.667 504.5,197C 503.376,196.751 502.376,196.251 501.5,195.5C 502.529,195.704 503.529,195.204 504.5,194C 500.5,193.333 500.5,192.667 504.5,192C 503.167,191.333 503.167,190.667 504.5,190C 500.5,189.333 500.5,188.667 504.5,188C 503.167,187.333 503.167,186.667 504.5,186C 500.639,185.431 500.639,184.598 504.5,183.5C 500.639,182.402 500.639,181.569 504.5,181C 504.5,179.667 504.5,178.333 504.5,177C 500.5,176.333 500.5,175.667 504.5,175C 503.167,174.333 503.167,173.667 504.5,173C 503.376,172.751 502.376,172.251 501.5,171.5C 502.529,171.704 503.529,171.204 504.5,170C 500.5,169.333 500.5,168.667 504.5,168C 503.167,167.333 503.167,166.667 504.5,166C 500.5,165.333 500.5,164.667 504.5,164C 503.167,163.333 503.167,162.667 504.5,162C 500.639,161.431 500.639,160.598 504.5,159.5C 500.639,158.402 500.639,157.569 504.5,157C 503.167,156.333 503.167,155.667 504.5,155C 500.5,154.333 500.5,153.667 504.5,153C 503.167,152.333 503.167,151.667 504.5,151C 500.639,150.431 500.639,149.598 504.5,148.5C 500.639,147.402 500.639,146.569 504.5,146C 503.167,145.333 503.167,144.667 504.5,144C 500.5,143.333 500.5,142.667 504.5,142C 503.167,141.333 503.167,140.667 504.5,140C 500.5,139.333 500.5,138.667 504.5,138C 503.529,136.796 502.529,136.296 501.5,136.5C 502.376,135.749 503.376,135.249 504.5,135C 504.167,134.667 503.833,134.333 503.5,134C 504.756,133.583 505.423,132.75 505.5,131.5 Z"/></g>
<g><path style="opacity:0.408" fill="#464748" d="M 437.5,133.5 C 440.573,135.569 442.906,138.236 444.5,141.5C 441.427,139.431 439.094,136.764 437.5,133.5 Z"/></g>
<g><path style="opacity:1" fill="#87898c" d="M 79.5,129.5 C 80.3424,134.787 80.6757,140.12 80.5,145.5C 80.6666,169.836 80.5,194.169 80,218.5C 79.79,216.942 79.29,215.609 78.5,214.5C 78.1667,213.833 77.8333,213.167 77.5,212.5C 77.3334,184.165 77.5,155.831 78,127.5C 78.2784,128.416 78.7784,129.082 79.5,129.5 Z"/></g>
<g><path style="opacity:0.999" fill="#4d4c4b" d="M 114.5,129.5 C 114.489,131.017 113.823,132.184 112.5,133C 115.167,133.667 115.167,134.333 112.5,135C 115.167,136 115.167,137 112.5,138C 115.167,138.667 115.167,139.333 112.5,140C 115.167,140.667 115.167,141.333 112.5,142C 115.167,142.667 115.167,143.333 112.5,144C 115.167,144.667 115.167,145.333 112.5,146C 114.991,146.626 114.991,147.459 112.5,148.5C 114.991,149.541 114.991,150.374 112.5,151C 115.167,151.667 115.167,152.333 112.5,153C 115.167,153.667 115.167,154.333 112.5,155C 115.167,155.667 115.167,156.333 112.5,157C 114.991,157.626 114.991,158.459 112.5,159.5C 114.991,160.541 114.991,161.374 112.5,162C 115.167,162.667 115.167,163.333 112.5,164C 115.167,164.667 115.167,165.333 112.5,166C 115.167,166.667 115.167,167.333 112.5,168C 115.167,168.667 115.167,169.333 112.5,170C 115.167,171 115.167,172 112.5,173C 115.167,173.667 115.167,174.333 112.5,175C 115.167,175.667 115.167,176.333 112.5,177C 115.167,177.667 115.167,178.333 112.5,179C 115.167,179.667 115.167,180.333 112.5,181C 114.991,181.626 114.991,182.459 112.5,183.5C 114.991,184.541 114.991,185.374 112.5,186C 115.167,186.667 115.167,187.333 112.5,188C 115.167,188.667 115.167,189.333 112.5,190C 115.167,190.667 115.167,191.333 112.5,192C 115.167,192.667 115.167,193.333 112.5,194C 115.167,195 115.167,196 112.5,197C 115.167,197.667 115.167,198.333 112.5,199C 115.167,199.667 115.167,200.333 112.5,201C 115.167,201.667 115.167,202.333 112.5,203C 115.167,203.667 115.167,204.333 112.5,205C 114.991,205.626 114.991,206.459 112.5,207.5C 114.991,208.541 114.991,209.374 112.5,210C 115.167,210.667 115.167,211.333 112.5,212C 115.167,212.667 115.167,213.333 112.5,214C 115.167,214.667 115.167,215.333 112.5,216C 115.167,216.667 115.167,217.333 112.5,218C 115.167,219 115.167,220 112.5,221C 115.167,221.667 115.167,222.333 112.5,223C 115.167,223.667 115.167,224.333 112.5,225C 115.167,225.667 115.167,226.333 112.5,227C 115.167,227.667 115.167,228.333 112.5,229C 114.991,229.626 114.991,230.459 112.5,231.5C 115.076,232.883 114.742,233.717 111.5,234C 113.439,235.432 114.772,237.265 115.5,239.5C 111.276,235.78 107.109,231.78 103,227.5C 102.667,226.5 102.333,225.5 102,224.5C 101.333,197.833 101.333,171.167 102,144.5C 104.837,138.487 109.004,133.487 114.5,129.5 Z"/></g>
<g><path style="opacity:0.562" fill="#565758" d="M 403.5,148.5 C 404.635,146.787 406.302,146.12 408.5,146.5C 408.5,140.167 408.5,133.833 408.5,127.5C 404.154,127.334 399.821,127.501 395.5,128C 394.529,129.481 393.196,130.315 391.5,130.5C 392.673,128.496 394.34,126.996 396.5,126C 400.5,125.333 404.5,125.333 408.5,126C 409,126.5 409.5,127 410,127.5C 409.705,133.8 409.705,140.133 410,146.5C 407.913,147.397 405.746,148.064 403.5,148.5 Z"/></g>
<g><path style="opacity:1" fill="#5b5b5b" d="M 74.5,132.5 C 74.5,158.833 74.5,185.167 74.5,211.5C 72.1133,205.008 70.78,198.175 70.5,191C 71.2368,184.519 71.5701,178.019 71.5,171.5C 72.5332,158.502 73.5332,145.502 74.5,132.5 Z"/></g>
<g><path style="opacity:0.48" fill="#3e3d3d" d="M 676.5,153.5 C 675.442,152.4 674.608,151.066 674,149.5C 673.5,179.832 673.333,210.165 673.5,240.5C 672.221,234.21 671.554,227.71 671.5,221C 672.826,200.167 672.826,179.334 671.5,158.5C 671.535,154.781 671.868,151.114 672.5,147.5C 673.274,146.289 674.107,146.289 675,147.5C 675.813,149.436 676.313,151.436 676.5,153.5 Z"/></g>
<g><path style="opacity:0.36" fill="#3f3f3e" d="M 124.5,149.5 C 123.354,172.124 123.188,194.79 124,217.5C 126.502,219.87 129.502,221.203 133,221.5C 133.495,228.221 132.995,234.888 131.5,241.5C 131.5,234.833 131.5,228.167 131.5,221.5C 128.03,222.125 125.196,221.125 123,218.5C 122.333,195.833 122.333,173.167 123,150.5C 123.383,149.944 123.883,149.611 124.5,149.5 Z"/></g>
<g><path style="opacity:0.613" fill="#424241" d="M 147.5,149.5 C 148.117,149.611 148.617,149.944 149,150.5C 149.499,154.486 149.666,158.486 149.5,162.5C 152.609,162.264 155.609,162.597 158.5,163.5C 155.332,164.444 151.999,164.444 148.5,163.5C 148.165,158.836 147.832,154.169 147.5,149.5 Z"/></g>
<g><path style="opacity:0.614" fill="#4b4b4b" d="M 644.5,149.5 C 645.117,149.611 645.617,149.944 646,150.5C 646.667,173.167 646.667,195.833 646,218.5C 645.184,219.823 644.017,220.489 642.5,220.5C 643.801,219.118 644.634,217.452 645,215.5C 645.278,193.499 645.111,171.499 644.5,149.5 Z"/></g>
<g><path style="opacity:0.996" fill="#5c5c5c" d="M 676.5,153.5 C 682.6,168.283 688.433,183.283 694,198.5C 694.667,212.5 694.667,226.5 694,240.5C 690.767,241.786 687.267,242.453 683.5,242.5C 679.761,242.486 676.428,241.82 673.5,240.5C 673.333,210.165 673.5,179.832 674,149.5C 674.608,151.066 675.442,152.4 676.5,153.5 Z"/></g>
<g><path style="opacity:0.655" fill="#424241" d="M 750.5,241.5 C 750.667,211.165 750.5,180.832 750,150.5C 749.392,152.066 748.558,153.4 747.5,154.5C 747.678,151.784 748.178,149.117 749,146.5C 749.414,146.957 749.914,147.291 750.5,147.5C 751.628,153.109 752.294,158.776 752.5,164.5C 751.207,187.006 751.207,209.506 752.5,232C 752.193,235.376 751.526,238.543 750.5,241.5 Z"/></g>
<g><path style="opacity:0.064" fill="#383839" d="M 351.5,149.5 C 353.43,153.373 354.097,157.706 353.5,162.5C 352.78,158.27 352.113,153.937 351.5,149.5 Z"/></g>
<g><path style="opacity:0.209" fill="#58595a" d="M 494.5,150.5 C 495.657,158.656 495.823,166.99 495,175.5C 494.617,176.056 494.117,176.389 493.5,176.5C 494.442,167.887 494.775,159.221 494.5,150.5 Z"/></g>
<g><path style="opacity:0.392" fill="#5b5c5e" d="M 372.5,139.5 C 373.117,139.611 373.617,139.944 374,140.5C 374.822,148.345 374.656,156.011 373.5,163.5C 373.77,155.445 373.437,147.445 372.5,139.5 Z"/></g>
<g><path style="opacity:0.043" fill="#303030" d="M 270.5,169.5 C 269.732,168.737 269.232,167.737 269,166.5C 268.768,167.737 268.268,168.737 267.5,169.5C 268.481,158.872 269.481,158.872 270.5,169.5 Z"/></g>
<g><path style="opacity:0.118" fill="#2d2d2d" d="M 710.5,164.5 C 711.391,165.11 712.391,165.443 713.5,165.5C 713.167,166.833 712.833,168.167 712.5,169.5C 711.069,168.22 710.402,166.553 710.5,164.5 Z"/></g>
<g><path style="opacity:1" fill="#6c6c6e" d="M 80.5,145.5 C 82.2671,158.294 83.2671,171.294 83.5,184.5C 83.5,196.167 83.5,207.833 83.5,219.5C 82.1667,219.5 80.8333,219.5 79.5,219.5C 78.8333,219.5 78.5,219.167 78.5,218.5C 78.5,217.167 78.5,215.833 78.5,214.5C 79.29,215.609 79.79,216.942 80,218.5C 80.5,194.169 80.6666,169.836 80.5,145.5 Z"/></g>
<g><path style="opacity:0.614" fill="#555657" d="M 403.5,172.5 C 409.291,173.509 415.124,173.509 421,172.5C 424.477,172.328 427.644,172.994 430.5,174.5C 421.318,174.827 412.318,174.493 403.5,173.5C 403.5,173.167 403.5,172.833 403.5,172.5 Z"/></g>
<g><path style="opacity:0.998" fill="#838486" d="M 359.5,174.5 C 362.5,177.167 365.5,179.833 368.5,182.5C 369.419,185.089 371.086,187.089 373.5,188.5C 373.5,190.167 373.5,191.833 373.5,193.5C 358.163,193.667 342.83,193.5 327.5,193C 331.791,193.208 335.458,191.875 338.5,189C 337.167,188.667 335.833,188.333 334.5,188C 338.046,186.071 338.046,184.571 334.5,183.5C 335.688,183.693 337.022,183.193 338.5,182C 337.167,181.667 335.833,181.333 334.5,181C 335.833,179.333 337.167,177.667 338.5,176C 336.5,175.667 334.5,175.333 332.5,175C 341.494,174.5 350.494,174.334 359.5,174.5 Z"/></g>
<g><path style="opacity:1" fill="#909294" d="M 403.5,173.5 C 412.318,174.493 421.318,174.827 430.5,174.5C 435.5,178.833 440.167,183.5 444.5,188.5C 444.5,190.167 444.5,191.833 444.5,193.5C 428.163,193.667 411.83,193.5 395.5,193C 398.29,192.439 400.623,191.106 402.5,189C 397.167,188.333 397.167,187.667 402.5,187C 399.833,186.333 399.833,185.667 402.5,185C 397.373,184.526 397.373,183.526 402.5,182C 397.167,181.333 397.167,180.667 402.5,180C 399.833,178.667 399.833,177.333 402.5,176C 397.635,175.202 397.969,174.368 403.5,173.5 Z"/></g>
<g><path style="opacity:0.996" fill="#51504f" d="M 750.5,241.5 C 744.347,242.653 738.014,242.82 731.5,242C 730.773,240.601 730.273,239.101 730,237.5C 729.097,224.119 729.43,210.786 731,197.5C 736.43,183.028 741.93,168.695 747.5,154.5C 748.558,153.4 749.392,152.066 750,150.5C 750.5,180.832 750.667,211.165 750.5,241.5 Z"/></g>
<g><path style="opacity:0.392" fill="#3d3d3e" d="M 368.5,182.5 C 370.833,184.167 372.833,186.167 374.5,188.5C 374.167,188.5 373.833,188.5 373.5,188.5C 371.086,187.089 369.419,185.089 368.5,182.5 Z"/></g>
<g><path style="opacity:0.094" fill="#2e2e2e" d="M 274.5,188.5 C 274.833,188.5 275.167,188.5 275.5,188.5C 275.5,189.833 275.5,191.167 275.5,192.5C 275.715,194.179 275.048,195.179 273.5,195.5C 274.369,193.283 274.702,190.95 274.5,188.5 Z"/></g>
<g><path style="opacity:0.083" fill="#3e3e3f" d="M 444.5,188.5 C 445.468,190.607 445.802,192.941 445.5,195.5C 428.658,195.83 411.992,195.497 395.5,194.5C 412.009,194.83 428.342,194.496 444.5,193.5C 444.5,191.833 444.5,190.167 444.5,188.5 Z"/></g>
<g><path style="opacity:0.46" fill="#555556" d="M 275.5,192.5 C 276.434,193.568 276.768,194.901 276.5,196.5C 264.833,196.5 253.167,196.5 241.5,196.5C 251.987,195.506 262.654,195.172 273.5,195.5C 275.048,195.179 275.715,194.179 275.5,192.5 Z"/></g>
<g><path style="opacity:0.996" fill="#69696a" d="M 241.5,196.5 C 246.985,197.327 252.652,197.827 258.5,198C 254.5,198.667 254.5,199.333 258.5,200C 255.833,200.667 255.833,201.333 258.5,202C 255.833,202.667 255.833,203.333 258.5,204C 255.833,204.667 255.833,205.333 258.5,206C 254.728,206.611 254.728,207.611 258.5,209C 255.833,209.667 255.833,210.333 258.5,211C 255.833,211.667 255.833,212.333 258.5,213C 255.456,213.359 255.122,214.026 257.5,215C 271.845,215.833 286.178,215.666 300.5,214.5C 299.593,211.579 299.26,208.579 299.5,205.5C 301.301,209.159 301.634,212.993 300.5,217C 288.486,217.642 276.486,217.476 264.5,216.5C 261.612,215.99 259.279,216.656 257.5,218.5C 256.551,225.524 255.385,232.524 254,239.5C 253.722,240.416 253.222,241.082 252.5,241.5C 245.833,241.5 239.167,241.5 232.5,241.5C 233.244,237.881 233.577,234.215 233.5,230.5C 235.294,218.843 237.961,207.509 241.5,196.5 Z"/></g>
<g><path style="opacity:0.352" fill="#545455" d="M 619.5,150.5 C 619.333,172.836 619.5,195.169 620,217.5C 622.447,219.808 625.281,221.141 628.5,221.5C 624.713,222.186 621.546,221.186 619,218.5C 618.17,195.663 618.337,172.996 619.5,150.5 Z"/></g>
<g><path style="opacity:0.5" fill="#545556" d="M 479.5,178.5 C 479.5,185.167 479.5,191.833 479.5,198.5C 481.857,198.337 484.19,198.503 486.5,199C 487.252,199.671 487.586,200.504 487.5,201.5C 484.547,199.998 481.38,198.998 478,198.5C 477.821,191.658 478.321,184.991 479.5,178.5 Z"/></g>
<g><path style="opacity:0.996" fill="#808183" d="M 373.5,201.5 C 373.5,209.833 373.5,218.167 373.5,226.5C 369.895,231.774 365.562,236.441 360.5,240.5C 350.494,240.666 340.494,240.5 330.5,240C 333.488,239.783 336.155,238.783 338.5,237C 337.167,236.667 335.833,236.333 334.5,236C 338.046,234.071 338.046,232.571 334.5,231.5C 334.846,230.304 335.346,230.304 336,231.5C 339.011,230 338.511,229.166 334.5,229C 335.833,228 337.167,227 338.5,226C 337.167,225.667 335.833,225.333 334.5,225C 336.878,224.026 336.544,223.359 333.5,223C 339.016,222.827 344.349,222.327 349.5,221.5C 351.19,221.144 352.19,220.144 352.5,218.5C 352.193,212.907 352.527,207.407 353.5,202C 357.048,200.911 360.715,200.411 364.5,200.5C 367.686,200.502 370.686,200.835 373.5,201.5 Z"/></g>
<g><path style="opacity:0.165" fill="#4d4e4f" d="M 424.5,201.5 C 424.666,207.176 424.499,212.843 424,218.5C 423.617,219.056 423.117,219.389 422.5,219.5C 423.086,213.366 423.752,207.366 424.5,201.5 Z"/></g>
<g><path style="opacity:0.999" fill="#8e9092" d="M 444.5,201.5 C 444.5,209.833 444.5,218.167 444.5,226.5C 441.757,227.388 439.09,228.555 436.5,230C 437.823,230.816 438.489,231.983 438.5,233.5C 436.5,236.167 434.167,238.5 431.5,240.5C 419.495,240.667 407.495,240.5 395.5,240C 397.833,239.667 400.167,239.333 402.5,239C 399.833,238.333 399.833,237.667 402.5,237C 401.167,236.667 399.833,236.333 398.5,236C 399.833,235 401.167,234 402.5,233C 397.373,232.526 397.373,231.526 402.5,230C 401.167,229.667 399.833,229.333 398.5,229C 399.833,228 401.167,227 402.5,226C 397.167,225.333 397.167,224.667 402.5,224C 399.833,223.333 399.833,222.667 402.5,222C 401.167,221.667 399.833,221.333 398.5,221C 399.756,220.583 400.423,219.75 400.5,218.5C 403.953,221.053 407.953,222.053 412.5,221.5C 415.5,221.333 418.5,221.167 421.5,221C 422.056,220.617 422.389,220.117 422.5,219.5C 423.117,219.389 423.617,219.056 424,218.5C 424.499,212.843 424.666,207.176 424.5,201.5C 431.266,200.191 437.932,200.191 444.5,201.5 Z"/></g>
<g><path style="opacity:0.809" fill="#525151" d="M 83.5,184.5 C 85.2936,195.628 85.7936,206.961 85,218.5C 83.3796,220.632 81.5463,220.965 79.5,219.5C 80.8333,219.5 82.1667,219.5 83.5,219.5C 83.5,207.833 83.5,196.167 83.5,184.5 Z"/></g>
<g><path style="opacity:0.399" fill="#474748" d="M 330.5,205.5 C 323.5,205.5 316.5,205.5 309.5,205.5C 315.369,204.795 321.369,204.129 327.5,203.5C 328.739,203.942 329.739,204.609 330.5,205.5 Z"/></g>
<g><path style="opacity:0.997" fill="#585757" d="M 139.5,241.5 C 139.5,234.833 139.5,228.167 139.5,221.5C 141.527,221.662 143.527,221.495 145.5,221C 146.756,220.583 147.423,219.75 147.5,218.5C 147.003,213.587 148.003,209.087 150.5,205C 156.5,204.333 162.5,204.333 168.5,205C 169.647,212.42 169.813,219.92 169,227.5C 164.135,232.7 158.968,237.533 153.5,242C 148.648,242.815 143.981,242.648 139.5,241.5 Z"/></g>
<g><path style="opacity:1" fill="#777779" d="M 309.5,205.5 C 316.5,205.5 323.5,205.5 330.5,205.5C 331.216,210.064 331.883,214.731 332.5,219.5C 332.611,220.117 332.944,220.617 333.5,221C 338.823,221.499 344.156,221.666 349.5,221.5C 344.349,222.327 339.016,222.827 333.5,223C 336.544,223.359 336.878,224.026 334.5,225C 335.833,225.333 337.167,225.667 338.5,226C 337.167,227 335.833,228 334.5,229C 338.511,229.166 339.011,230 336,231.5C 335.346,230.304 334.846,230.304 334.5,231.5C 338.046,232.571 338.046,234.071 334.5,236C 335.833,236.333 337.167,236.667 338.5,237C 336.155,238.783 333.488,239.783 330.5,240C 340.494,240.5 350.494,240.666 360.5,240.5C 360.082,241.222 359.416,241.722 358.5,242C 353,242.167 347.5,242.333 342,242.5C 335.729,242.626 329.563,242.126 323.5,241C 318.3,236.135 313.467,230.968 309,225.5C 308.208,218.753 308.374,212.086 309.5,205.5 Z"/></g>
<g><path style="opacity:0.999" fill="#87888b" d="M 400.5,218.5 C 400.423,219.75 399.756,220.583 398.5,221C 399.833,221.333 401.167,221.667 402.5,222C 399.833,222.667 399.833,223.333 402.5,224C 397.167,224.667 397.167,225.333 402.5,226C 401.167,227 399.833,228 398.5,229C 399.833,229.333 401.167,229.667 402.5,230C 397.373,231.526 397.373,232.526 402.5,233C 401.167,234 399.833,235 398.5,236C 399.833,236.333 401.167,236.667 402.5,237C 399.833,237.667 399.833,238.333 402.5,239C 400.167,239.333 397.833,239.667 395.5,240C 407.495,240.5 419.495,240.667 431.5,240.5C 431.082,241.222 430.416,241.722 429.5,242C 418.167,242.667 406.833,242.667 395.5,242C 390.667,237.167 385.833,232.333 381,227.5C 379.883,220.437 379.716,213.437 380.5,206.5C 387.078,205.54 393.745,205.207 400.5,205.5C 400.5,209.833 400.5,214.167 400.5,218.5 Z"/></g>
<g><path style="opacity:0.355" fill="#575758" d="M 422.5,219.5 C 422.389,220.117 422.056,220.617 421.5,221C 418.5,221.167 415.5,221.333 412.5,221.5C 407.953,222.053 403.953,221.053 400.5,218.5C 400.5,214.167 400.5,209.833 400.5,205.5C 393.745,205.207 387.078,205.54 380.5,206.5C 379.262,206.19 379.262,205.69 380.5,205C 387.492,204.5 394.492,204.334 401.5,204.5C 401.334,208.846 401.501,213.179 402,217.5C 402.833,218.333 403.667,219.167 404.5,220C 410.551,220.746 416.551,220.579 422.5,219.5 Z"/></g>
<g><path style="opacity:0.994" fill="#838487" d="M 451.5,205.5 C 458.422,205.188 465.256,205.521 472,206.5C 472.821,218.409 472.654,230.243 471.5,242C 464.586,242.811 457.752,242.645 451,241.5C 450.189,229.424 450.355,217.424 451.5,205.5 Z"/></g>
<g><path style="opacity:0.341" fill="#595a5b" d="M 373.5,201.5 C 374.478,201.811 375.145,202.478 375.5,203.5C 374.863,211.296 374.196,218.963 373.5,226.5C 373.5,218.167 373.5,209.833 373.5,201.5 Z"/></g>
<g><path style="opacity:0.306" fill="#2c2d2d" d="M 74.5,212.5 C 75.5,212.5 76.5,212.5 77.5,212.5C 77.8333,213.167 78.1667,213.833 78.5,214.5C 78.5,215.833 78.5,217.167 78.5,218.5C 78.0238,215.929 76.6905,213.929 74.5,212.5 Z"/></g>
<g><path style="opacity:0.027" fill="#29292a" d="M 264.5,216.5 C 262.285,217.268 259.952,217.935 257.5,218.5C 259.279,216.656 261.612,215.99 264.5,216.5 Z"/></g>
<g><path style="opacity:0.058" fill="#171717" d="M 194.5,220.5 C 190.5,220.5 186.5,220.5 182.5,220.5C 186.473,218.039 190.473,218.039 194.5,220.5 Z"/></g>
<g><path style="opacity:0.397" fill="#494a4a" d="M 352.5,218.5 C 352.19,220.144 351.19,221.144 349.5,221.5C 344.156,221.666 338.823,221.499 333.5,221C 332.944,220.617 332.611,220.117 332.5,219.5C 339.324,221.111 345.991,220.777 352.5,218.5 Z"/></g>
<g><path style="opacity:0.529" fill="#525253" d="M 512.5,214.5 C 513.924,216.515 514.59,218.848 514.5,221.5C 513.076,219.485 512.41,217.152 512.5,214.5 Z"/></g>
<g><path style="opacity:0.245" fill="#4a4b4c" d="M 547.5,219.5 C 549.952,220.065 552.285,220.732 554.5,221.5C 551.612,222.01 549.279,221.344 547.5,219.5 Z"/></g>
<g><path style="opacity:0.122" fill="#2b2b2b" d="M 147.5,218.5 C 147.423,219.75 146.756,220.583 145.5,221C 143.527,221.495 141.527,221.662 139.5,221.5C 139.5,228.167 139.5,234.833 139.5,241.5C 138.509,234.687 138.175,227.687 138.5,220.5C 141.754,220.793 144.754,220.126 147.5,218.5 Z"/></g>
<g><path style="opacity:0.993" fill="#5d5c5c" d="M 175.5,221.5 C 182.167,221.5 188.833,221.5 195.5,221.5C 195.5,228.167 195.5,234.833 195.5,241.5C 189.347,242.653 183.014,242.82 176.5,242C 174.277,235.265 173.944,228.432 175.5,221.5 Z"/></g>
<g><path style="opacity:0.478" fill="#424242" d="M 175.5,221.5 C 177.607,220.532 179.941,220.198 182.5,220.5C 186.5,220.5 190.5,220.5 194.5,220.5C 196.89,220.685 197.89,222.018 197.5,224.5C 196.971,230.331 196.305,235.998 195.5,241.5C 195.5,234.833 195.5,228.167 195.5,221.5C 188.833,221.5 182.167,221.5 175.5,221.5 Z"/></g>
<g><path style="opacity:0.137" fill="#323232" d="M 228.5,221.5 C 220.167,221.5 211.833,221.5 203.5,221.5C 203.5,228.167 203.5,234.833 203.5,241.5C 202.509,234.687 202.175,227.687 202.5,220.5C 211.349,220.174 220.016,220.507 228.5,221.5 Z"/></g>
<g><path style="opacity:0.986" fill="#636364" d="M 228.5,221.5 C 229.812,228.038 229.812,234.705 228.5,241.5C 220.009,242.821 211.676,242.821 203.5,241.5C 203.5,234.833 203.5,228.167 203.5,221.5C 211.833,221.5 220.167,221.5 228.5,221.5 Z"/></g>
<g><path style="opacity:0.543" fill="#4d4e4e" d="M 568.5,220.5 C 566.735,221.461 564.735,221.795 562.5,221.5C 562.5,228.167 562.5,234.833 562.5,241.5C 567.167,241.5 571.833,241.5 576.5,241.5C 571.695,242.487 566.695,242.821 561.5,242.5C 561.005,235.82 560.672,229.153 560.5,222.5C 560.709,221.914 561.043,221.414 561.5,221C 563.81,220.503 566.143,220.337 568.5,220.5 Z"/></g>
<g><path style="opacity:0.998" fill="#6e6f70" d="M 282.5,222.5 C 289.175,222.334 295.842,222.5 302.5,223C 303,223.5 303.5,224 304,224.5C 305.329,230.128 305.995,235.795 306,241.5C 299.582,242.643 293.082,242.81 286.5,242C 283.17,235.849 281.837,229.349 282.5,222.5 Z"/></g>
<g><path style="opacity:0.954" fill="#67686a" d="M 444.5,201.5 C 445.657,209.99 445.824,218.657 445,227.5C 442.963,229.706 440.797,231.706 438.5,233.5C 438.489,231.983 437.823,230.816 436.5,230C 439.09,228.555 441.757,227.388 444.5,226.5C 444.5,218.167 444.5,209.833 444.5,201.5 Z"/></g>
<g><path style="opacity:0.012" fill="#2f2f2f" d="M 660.5,232.5 C 659.581,235.089 657.914,237.089 655.5,238.5C 656.419,235.911 658.086,233.911 660.5,232.5 Z"/></g>
<g><path style="opacity:0.749" fill="#525253" d="M 517.5,233.5 C 519.413,236.04 519.746,238.707 518.5,241.5C 517.908,238.873 517.575,236.206 517.5,233.5 Z"/></g>
<g><path style="opacity:0.327" fill="#414141" d="M 233.5,230.5 C 233.577,234.215 233.244,237.881 232.5,241.5C 239.167,241.5 245.833,241.5 252.5,241.5C 245.687,242.491 238.687,242.825 231.5,242.5C 231.344,238.236 232.011,234.236 233.5,230.5 Z"/></g>
</svg>
