<?xml version="1.0" encoding="UTF-8"?>
<!DOCTYPE svg PUBLIC "-//W3C//DTD SVG 1.1//EN" "http://www.w3.org/Graphics/SVG/1.1/DTD/svg11.dtd">
<svg xmlns="http://www.w3.org/2000/svg" version="1.1" width="612px" height="408px" style="shape-rendering:geometricPrecision; text-rendering:geometricPrecision; image-rendering:optimizeQuality; fill-rule:evenodd; clip-rule:evenodd" xmlns:xlink="http://www.w3.org/1999/xlink">
<g><path style="opacity:1" fill="#f938a1" d="M 233.5,45.5 C 232.272,47.0098 232.272,48.5098 233.5,50C 232.335,51.0836 231.002,51.9169 229.5,52.5C 228.591,50.6253 227.257,49.292 225.5,48.5C 225.076,45.646 224.076,42.9793 222.5,40.5C 223.436,39.0256 224.77,38.0256 226.5,37.5C 228.485,39.4566 229.985,41.7899 231,44.5C 231.671,45.2524 232.504,45.5858 233.5,45.5 Z"/></g>
<g><path style="opacity:1" fill="#e0f1fe" d="M 414.5,126.5 C 401.365,128.16 388.031,129.16 374.5,129.5C 369.703,129.121 365.036,129.621 360.5,131C 360,131.5 359.5,132 359,132.5C 358.502,135.482 358.335,138.482 358.5,141.5C 358.526,162.679 359.193,183.679 360.5,204.5C 360.5,208.167 360.5,211.833 360.5,215.5C 357.556,213.284 355.889,210.284 355.5,206.5C 354.529,200.3 353.196,194.3 351.5,188.5C 351.322,185.784 350.822,183.117 350,180.5C 344.543,175.862 338.71,171.862 332.5,168.5C 331.391,168.443 330.391,168.11 329.5,167.5C 323.067,163.776 316.734,159.776 310.5,155.5C 310.863,153.089 309.863,151.589 307.5,151C 310.695,150.819 313.695,150.319 316.5,149.5C 318.371,149.141 319.871,148.141 321,146.5C 323.072,143.029 324.572,139.362 325.5,135.5C 327.23,131.816 328.23,127.816 328.5,123.5C 330.4,117.569 329.4,112.236 325.5,107.5C 325.366,105.708 325.699,104.042 326.5,102.5C 326.342,99.0977 326.676,95.7644 327.5,92.5C 329.3,87.3761 331.3,82.2094 333.5,77C 332.543,74.2505 331.21,71.7505 329.5,69.5C 328.79,67.2537 328.29,64.9204 328,62.5C 327.623,61.0577 326.79,60.0577 325.5,59.5C 322.103,58.5062 318.77,58.8396 315.5,60.5C 313.565,61.1495 311.565,61.4828 309.5,61.5C 309.519,59.9397 309.852,58.4397 310.5,57C 309.368,55.2087 308.368,55.3754 307.5,57.5C 299.26,58.9505 292.593,62.9505 287.5,69.5C 284.754,71.4731 281.754,72.9731 278.5,74C 277.29,75.0391 276.29,76.2058 275.5,77.5C 276.716,84.4767 277.716,91.4767 278.5,98.5C 275.665,94.2995 272.165,93.6329 268,96.5C 267.624,101.582 268.124,106.582 269.5,111.5C 270.002,115.59 272.335,117.59 276.5,117.5C 276.5,120.167 276.5,122.833 276.5,125.5C 275.596,126.209 275.263,127.209 275.5,128.5C 274.033,132.901 272.366,137.234 270.5,141.5C 267.593,142.734 265.259,144.734 263.5,147.5C 254.637,151.895 245.637,155.895 236.5,159.5C 229.63,161.557 223.297,164.557 217.5,168.5C 216.239,172.453 215.072,176.453 214,180.5C 212.738,182.303 211.071,183.636 209,184.5C 208.517,185.448 208.351,186.448 208.5,187.5C 207.101,188.89 205.434,189.89 203.5,190.5C 203.167,190.5 202.833,190.5 202.5,190.5C 202.5,186.5 202.5,182.5 202.5,178.5C 201.766,177.292 201.433,175.959 201.5,174.5C 201.5,174.167 201.5,173.833 201.5,173.5C 205.176,168.16 208.843,162.827 212.5,157.5C 209.785,152.07 207.118,146.736 204.5,141.5C 204.5,133.5 204.5,125.5 204.5,117.5C 208.5,117.5 212.5,117.5 216.5,117.5C 216.5,115.5 216.5,113.5 216.5,111.5C 217.272,107.548 217.605,103.548 217.5,99.5C 217.682,97.4086 217.348,95.4086 216.5,93.5C 206.511,92.5515 196.511,92.5515 186.5,93.5C 186.5,95.8333 186.5,98.1667 186.5,100.5C 186.5,104.833 186.5,109.167 186.5,113.5C 186.5,114.833 186.5,116.167 186.5,117.5C 190.5,117.5 194.5,117.5 198.5,117.5C 198.586,125.442 198.252,133.442 197.5,141.5C 198.01,144.388 197.344,146.721 195.5,148.5C 194.378,145.562 192.378,143.562 189.5,142.5C 187.409,142.318 185.409,142.652 183.5,143.5C 179.584,147.494 176.084,151.827 173,156.5C 173.375,159.73 174.875,162.397 177.5,164.5C 177.5,165.5 177.5,166.5 177.5,167.5C 177.335,170.518 177.502,173.518 178,176.5C 180.352,178.03 182.519,179.697 184.5,181.5C 184.5,182.5 184.5,183.5 184.5,184.5C 182.227,184.957 180.894,186.29 180.5,188.5C 181.455,190.746 182.122,193.079 182.5,195.5C 179.431,196.804 178.431,198.804 179.5,201.5C 180.167,202.833 180.833,204.167 181.5,205.5C 181.182,210.032 181.515,214.366 182.5,218.5C 182.129,225.829 183.129,232.829 185.5,239.5C 187.096,246.022 189.763,252.022 193.5,257.5C 189.187,261.862 184.52,266.029 179.5,270C 177.559,271.903 175.226,272.736 172.5,272.5C 171.517,268.702 171.183,264.702 171.5,260.5C 171.5,257.167 171.5,253.833 171.5,250.5C 176.187,248.797 178.02,245.463 177,240.5C 175.936,236.018 173.27,233.018 169,231.5C 166.138,225.248 163.472,218.915 161,212.5C 160.292,211.619 159.458,210.953 158.5,210.5C 157.645,209.469 156.978,208.303 156.5,207C 157.649,205.27 157.649,203.604 156.5,202C 160.119,197.257 160.286,192.424 157,187.5C 154.59,184.719 151.757,182.385 148.5,180.5C 147.447,181.438 146.78,182.605 146.5,184C 147.377,186.253 148.377,188.419 149.5,190.5C 148.624,196.049 145.624,197.715 140.5,195.5C 139.702,193.114 138.702,190.78 137.5,188.5C 136.726,187.289 135.893,187.289 135,188.5C 131.047,199.166 134.547,205.832 145.5,208.5C 147.09,212.742 149.09,216.742 151.5,220.5C 154.18,225.86 156.847,231.193 159.5,236.5C 159.586,237.496 159.252,238.329 158.5,239C 152.333,239.167 146.167,239.333 140,239.5C 133.261,239.46 126.761,238.793 120.5,237.5C 106.86,173.253 124.527,119.42 173.5,76C 188.967,63.4319 206.3,54.2652 225.5,48.5C 227.257,49.292 228.591,50.6253 229.5,52.5C 231.002,51.9169 232.335,51.0836 233.5,50C 232.272,48.5098 232.272,47.0098 233.5,45.5C 299.869,31.5668 355.036,50.2335 399,101.5C 404.814,109.471 409.981,117.804 414.5,126.5 Z"/></g>
<g><path style="opacity:0.043" fill="#2f62a6" d="M 436.5,53.5 C 439.976,52.3567 443.642,52.1901 447.5,53C 443.771,54.0784 440.104,54.245 436.5,53.5 Z"/></g>
<g><path style="opacity:0.989" fill="#2599c9" d="M 403.5,52.5 C 405.473,51.8373 407.639,51.5039 410,51.5C 418.161,52.0923 426.327,52.5923 434.5,53C 427.769,52.892 421.103,53.892 414.5,56C 411.669,58.0007 409.003,60.1673 406.5,62.5C 404.881,59.4521 403.881,56.1188 403.5,52.5 Z"/></g>
<g><path style="opacity:0.137" fill="#8f8bb2" d="M 466.5,59.5 C 467.833,60.1667 467.833,60.1667 466.5,59.5 Z"/></g>
<g><path style="opacity:1" fill="#1765aa" d="M 325.5,59.5 C 326.41,65.6646 326.744,71.6646 326.5,77.5C 326.167,78.1667 325.833,78.8333 325.5,79.5C 324.209,79.7373 323.209,79.404 322.5,78.5C 323.739,72.435 322.739,66.6016 319.5,61C 318.207,60.51 316.873,60.3433 315.5,60.5C 318.77,58.8396 322.103,58.5062 325.5,59.5 Z"/></g>
<g><path style="opacity:1" fill="#1671bc" d="M 307.5,57.5 C 304.898,59.8096 301.898,61.6429 298.5,63C 302.47,62.6743 306.47,62.6743 310.5,63C 313.317,65.7658 315.151,68.9325 316,72.5C 312.794,70.3064 309.294,69.4731 305.5,70C 308.726,70.8855 311.726,72.2188 314.5,74C 306.242,72.9562 297.908,72.6228 289.5,73C 285.264,75.9573 280.597,77.4573 275.5,77.5C 276.29,76.2058 277.29,75.0391 278.5,74C 281.754,72.9731 284.754,71.4731 287.5,69.5C 292.593,62.9505 299.26,58.9505 307.5,57.5 Z"/></g>
<g><path style="opacity:0.094" fill="#1c6cb3" d="M 403.5,52.5 C 403.881,56.1188 404.881,59.4521 406.5,62.5C 406.108,64.1789 405.608,65.8455 405,67.5C 403.802,63.4333 402.969,59.2667 402.5,55C 402.528,53.9302 402.861,53.0968 403.5,52.5 Z"/></g>
<g><path style="opacity:1" fill="#d2dcf2" d="M 346.5,68.5 C 352.795,69.9902 359.128,71.3235 365.5,72.5C 365.649,73.552 365.483,74.552 365,75.5C 361.489,79.8727 357.989,84.206 354.5,88.5C 351.285,82.0675 348.618,75.4009 346.5,68.5 Z"/></g>
<g><path style="opacity:0.227" fill="#9e93bf" d="M 466.5,60.5 C 463.571,64.6061 460.404,68.6061 457,72.5C 458.783,67.5342 461.95,63.5342 466.5,60.5 Z"/></g>
<g><path style="opacity:1" fill="#32a9e5" d="M 325.5,59.5 C 326.79,60.0577 327.623,61.0577 328,62.5C 328.29,64.9204 328.79,67.2537 329.5,69.5C 328.129,71.936 327.129,74.6027 326.5,77.5C 326.744,71.6646 326.41,65.6646 325.5,59.5 Z"/></g>
<g><path style="opacity:1" fill="#dc6f7f" d="M 322.5,78.5 C 323.209,79.404 324.209,79.7373 325.5,79.5C 326.11,80.391 326.443,81.391 326.5,82.5C 317.584,76.8592 308.918,77.1925 300.5,83.5C 296.5,83.5 292.5,83.5 288.5,83.5C 287.371,81.3718 287.204,79.0385 288,76.5C 288.5,75.3333 289.333,74.5 290.5,74C 300.183,74.084 309.849,74.7506 319.5,76C 320.942,76.3768 321.942,77.2101 322.5,78.5 Z"/></g>
<g><path style="opacity:1" fill="#2d4c97" d="M 329.5,69.5 C 331.21,71.7505 332.543,74.2505 333.5,77C 331.3,82.2094 329.3,87.3761 327.5,92.5C 325.61,92.2965 324.11,92.9632 323,94.5C 322.601,94.2716 322.435,93.9382 322.5,93.5C 323.48,90.8839 324.98,88.5506 327,86.5C 327.579,85.0715 327.412,83.7382 326.5,82.5C 326.443,81.391 326.11,80.391 325.5,79.5C 325.833,78.8333 326.167,78.1667 326.5,77.5C 327.129,74.6027 328.129,71.936 329.5,69.5 Z"/></g>
<g><path style="opacity:1" fill="#1d3f91" d="M 315.5,60.5 C 316.873,60.3433 318.207,60.51 319.5,61C 322.739,66.6016 323.739,72.435 322.5,78.5C 321.942,77.2101 320.942,76.3768 319.5,76C 309.849,74.7506 300.183,74.084 290.5,74C 289.333,74.5 288.5,75.3333 288,76.5C 287.204,79.0385 287.371,81.3718 288.5,83.5C 287.599,87.316 286.099,90.9827 284,94.5C 283.503,97.146 283.336,99.8127 283.5,102.5C 283.448,104.903 283.781,107.236 284.5,109.5C 283.167,108.167 281.833,108.167 280.5,109.5C 280.5,107.5 280.5,105.5 280.5,103.5C 280.107,101.716 279.441,100.05 278.5,98.5C 277.716,91.4767 276.716,84.4767 275.5,77.5C 280.597,77.4573 285.264,75.9573 289.5,73C 297.908,72.6228 306.242,72.9562 314.5,74C 311.726,72.2188 308.726,70.8855 305.5,70C 309.294,69.4731 312.794,70.3064 316,72.5C 315.151,68.9325 313.317,65.7658 310.5,63C 306.47,62.6743 302.47,62.6743 298.5,63C 301.898,61.6429 304.898,59.8096 307.5,57.5C 308.368,55.3754 309.368,55.2087 310.5,57C 309.852,58.4397 309.519,59.9397 309.5,61.5C 311.565,61.4828 313.565,61.1495 315.5,60.5 Z"/></g>
<g><path style="opacity:1" fill="#54408e" d="M 314.5,84.5 C 313.636,85.6883 312.636,86.8549 311.5,88C 305.653,88.2139 299.986,88.8805 294.5,90C 296.389,88.2359 298.389,86.7359 300.5,85.5C 304.71,84.7393 308.877,83.7393 313,82.5C 314.03,82.8361 314.53,83.5028 314.5,84.5 Z"/></g>
<g><path style="opacity:1" fill="#fc9d98" d="M 326.5,82.5 C 327.412,83.7382 327.579,85.0715 327,86.5C 324.98,88.5506 323.48,90.8839 322.5,93.5C 321.918,96.3129 320.918,98.9796 319.5,101.5C 317.282,99.1559 314.615,98.8226 311.5,100.5C 312.93,95.2571 313.93,89.9238 314.5,84.5C 314.53,83.5028 314.03,82.8361 313,82.5C 308.877,83.7393 304.71,84.7393 300.5,85.5C 299.494,85.0623 299.494,84.3957 300.5,83.5C 308.918,77.1925 317.584,76.8592 326.5,82.5 Z"/></g>
<g><path style="opacity:0.051" fill="#175ba0" d="M 404.5,81.5 C 407.774,82.3785 408.107,83.7119 405.5,85.5C 404.571,84.3112 404.238,82.9778 404.5,81.5 Z"/></g>
<g><path style="opacity:1" fill="#e77f84" d="M 288.5,83.5 C 292.5,83.5 296.5,83.5 300.5,83.5C 299.494,84.3957 299.494,85.0623 300.5,85.5C 298.389,86.7359 296.389,88.2359 294.5,90C 299.986,88.8805 305.653,88.2139 311.5,88C 312.636,86.8549 313.636,85.6883 314.5,84.5C 313.93,89.9238 312.93,95.2571 311.5,100.5C 310.85,102.435 310.517,104.435 310.5,106.5C 304.689,107.226 299.355,106.059 294.5,103C 290.848,102.501 287.182,102.335 283.5,102.5C 283.336,99.8127 283.503,97.146 284,94.5C 286.099,90.9827 287.599,87.316 288.5,83.5 Z"/></g>
<g><path style="opacity:1" fill="#f79a9a" d="M 278.5,98.5 C 279.441,100.05 280.107,101.716 280.5,103.5C 278.54,106.099 276.54,108.766 274.5,111.5C 273.702,111.043 273.369,110.376 273.5,109.5C 272.849,108.909 272.182,108.243 271.5,107.5C 270.828,108.949 270.161,110.282 269.5,111.5C 268.124,106.582 267.624,101.582 268,96.5C 272.165,93.6329 275.665,94.2995 278.5,98.5 Z"/></g>
<g><path style="opacity:1" fill="#f86bc3" d="M 217.5,99.5 C 214.232,99.9069 211.232,100.907 208.5,102.5C 208.372,100.91 207.705,99.5769 206.5,98.5C 204.228,99.4411 202.228,100.774 200.5,102.5C 198.5,101.167 196.5,99.8333 194.5,98.5C 192.889,99.3202 192.222,100.654 192.5,102.5C 190.886,100.925 188.886,100.259 186.5,100.5C 186.5,98.1667 186.5,95.8333 186.5,93.5C 196.511,92.5515 206.511,92.5515 216.5,93.5C 217.348,95.4086 217.682,97.4086 217.5,99.5 Z"/></g>
<g><path style="opacity:1" fill="#fef6fc" d="M 208.5,102.5 C 203.402,104.605 203.402,107.105 208.5,110C 207.953,110.925 207.287,111.758 206.5,112.5C 204.5,111.167 202.5,109.833 200.5,108.5C 198.298,110.268 195.965,111.435 193.5,112C 193.043,111.586 192.709,111.086 192.5,110.5C 193.833,108.833 195.167,107.167 196.5,105.5C 195.148,104.476 193.815,103.476 192.5,102.5C 192.222,100.654 192.889,99.3202 194.5,98.5C 196.5,99.8333 198.5,101.167 200.5,102.5C 202.228,100.774 204.228,99.4411 206.5,98.5C 207.705,99.5769 208.372,100.91 208.5,102.5 Z"/></g>
<g><path style="opacity:1" fill="#e8d6e1" d="M 299.5,100.5 C 303.491,99.872 304.824,101.205 303.5,104.5C 301.071,104.415 299.071,103.415 297.5,101.5C 297.957,100.702 298.624,100.369 299.5,100.5 Z"/></g>
<g><path style="opacity:1" fill="#55408a" d="M 303.5,104.5 C 304.824,101.205 303.491,99.872 299.5,100.5C 302.639,98.1826 305.972,98.016 309.5,100C 308.87,101.892 307.87,103.559 306.5,105C 305.251,105.74 304.251,105.573 303.5,104.5 Z"/></g>
<g><path style="opacity:1" fill="#d96874" d="M 327.5,92.5 C 326.676,95.7644 326.342,99.0977 326.5,102.5C 324.901,102.232 323.568,102.566 322.5,103.5C 321.504,103.414 320.671,103.748 320,104.5C 319.517,103.552 319.351,102.552 319.5,101.5C 320.918,98.9796 321.918,96.3129 322.5,93.5C 322.435,93.9382 322.601,94.2716 323,94.5C 324.11,92.9632 325.61,92.2965 327.5,92.5 Z"/></g>
<g><path style="opacity:1" fill="#c85d8d" d="M 273.5,109.5 C 273.292,107.08 273.626,104.747 274.5,102.5C 272.764,99.8953 270.931,99.8953 269,102.5C 268.51,101.207 268.343,99.8734 268.5,98.5C 273.096,98.0943 276.096,100.094 277.5,104.5C 276.492,106.499 275.159,108.166 273.5,109.5 Z"/></g>
<g><path style="opacity:1" fill="#faa89d" d="M 319.5,101.5 C 319.351,102.552 319.517,103.552 320,104.5C 320.671,103.748 321.504,103.414 322.5,103.5C 323.705,104.672 323.705,106.005 322.5,107.5C 323.425,108.562 324.425,108.562 325.5,107.5C 329.4,112.236 330.4,117.569 328.5,123.5C 325.621,121.562 322.621,119.895 319.5,118.5C 320.808,117.768 322.142,116.934 323.5,116C 319.805,115.682 316.138,115.182 312.5,114.5C 311.833,114.833 311.167,115.167 310.5,115.5C 312.36,116.325 314.026,117.325 315.5,118.5C 312.517,118.102 309.517,117.768 306.5,117.5C 302.003,117.89 297.67,118.89 293.5,120.5C 289.337,117.872 286.337,114.205 284.5,109.5C 283.781,107.236 283.448,104.903 283.5,102.5C 287.182,102.335 290.848,102.501 294.5,103C 299.355,106.059 304.689,107.226 310.5,106.5C 310.517,104.435 310.85,102.435 311.5,100.5C 314.615,98.8226 317.282,99.1559 319.5,101.5 Z"/></g>
<g><path style="opacity:1" fill="#3c3079" d="M 322.5,103.5 C 323.568,102.566 324.901,102.232 326.5,102.5C 325.699,104.042 325.366,105.708 325.5,107.5C 324.425,108.562 323.425,108.562 322.5,107.5C 323.705,106.005 323.705,104.672 322.5,103.5 Z"/></g>
<g><path style="opacity:1" fill="#8b7cfd" d="M 518.5,109.5 C 515.609,110.403 512.609,110.736 509.5,110.5C 510.311,105.451 512.978,104.285 517.5,107C 518.252,107.671 518.586,108.504 518.5,109.5 Z"/></g>
<g><path style="opacity:1" fill="#e61584" d="M 531.5,109.5 C 530.378,110.156 529.045,110.489 527.5,110.5C 525.667,110.415 524.334,109.748 523.5,108.5C 524.625,105.872 526.625,105.039 529.5,106C 530.823,106.816 531.489,107.983 531.5,109.5 Z"/></g>
<g><path style="opacity:1" fill="#fdb5a4" d="M 280.5,103.5 C 280.5,105.5 280.5,107.5 280.5,109.5C 280.104,112.721 278.771,115.388 276.5,117.5C 272.335,117.59 270.002,115.59 269.5,111.5C 270.161,110.282 270.828,108.949 271.5,107.5C 272.182,108.243 272.849,108.909 273.5,109.5C 273.369,110.376 273.702,111.043 274.5,111.5C 276.54,108.766 278.54,106.099 280.5,103.5 Z"/></g>
<g><path style="opacity:1" fill="#253393" d="M 284.5,109.5 C 286.337,114.205 289.337,117.872 293.5,120.5C 293.167,127.013 294,133.346 296,139.5C 304.932,138.172 313.765,138.172 322.5,139.5C 321.517,143.469 319.517,146.802 316.5,149.5C 313.167,149.5 309.833,149.5 306.5,149.5C 291.518,147.862 281.518,139.862 276.5,125.5C 276.5,122.833 276.5,120.167 276.5,117.5C 278.771,115.388 280.104,112.721 280.5,109.5C 281.833,108.167 283.167,108.167 284.5,109.5 Z"/></g>
<g><path style="opacity:1" fill="#e651d4" d="M 217.5,99.5 C 217.605,103.548 217.272,107.548 216.5,111.5C 206.76,113.436 196.76,114.102 186.5,113.5C 186.5,109.167 186.5,104.833 186.5,100.5C 188.886,100.259 190.886,100.925 192.5,102.5C 193.815,103.476 195.148,104.476 196.5,105.5C 195.167,107.167 193.833,108.833 192.5,110.5C 192.709,111.086 193.043,111.586 193.5,112C 195.965,111.435 198.298,110.268 200.5,108.5C 202.5,109.833 204.5,111.167 206.5,112.5C 207.287,111.758 207.953,110.925 208.5,110C 203.402,107.105 203.402,104.605 208.5,102.5C 211.232,100.907 214.232,99.9069 217.5,99.5 Z"/></g>
<g><path style="opacity:1" fill="#5f8dfc" d="M 518.5,109.5 C 519.041,113.295 517.375,115.295 513.5,115.5C 510.686,115.019 509.352,113.352 509.5,110.5C 512.609,110.736 515.609,110.403 518.5,109.5 Z"/></g>
<g><path style="opacity:1" fill="#c31d8c" d="M 523.5,108.5 C 524.334,109.748 525.667,110.415 527.5,110.5C 529.045,110.489 530.378,110.156 531.5,109.5C 531.493,115.582 528.659,116.915 523,113.5C 522.22,111.613 522.387,109.946 523.5,108.5 Z"/></g>
<g><path style="opacity:1" fill="#db41de" d="M 216.5,111.5 C 216.5,113.5 216.5,115.5 216.5,117.5C 212.5,117.5 208.5,117.5 204.5,117.5C 202.5,117.5 200.5,117.5 198.5,117.5C 194.5,117.5 190.5,117.5 186.5,117.5C 186.5,116.167 186.5,114.833 186.5,113.5C 196.76,114.102 206.76,113.436 216.5,111.5 Z"/></g>
<g><path style="opacity:1" fill="#593de2" d="M 383.5,112.5 C 384.496,112.414 385.329,112.748 386,113.5C 386.309,114.766 386.809,115.933 387.5,117C 385.63,118.366 383.63,119.533 381.5,120.5C 380.447,119.562 379.78,118.395 379.5,117C 380.604,115.285 381.938,113.785 383.5,112.5 Z"/></g>
<g><path style="opacity:1" fill="#d26b83" d="M 319.5,118.5 C 318.167,118.5 316.833,118.5 315.5,118.5C 314.026,117.325 312.36,116.325 310.5,115.5C 311.167,115.167 311.833,114.833 312.5,114.5C 316.138,115.182 319.805,115.682 323.5,116C 322.142,116.934 320.808,117.768 319.5,118.5 Z"/></g>
<g><path style="opacity:1" fill="#3d7cc5" d="M 315.5,118.5 C 316.833,118.5 318.167,118.5 319.5,118.5C 322.621,119.895 325.621,121.562 328.5,123.5C 328.23,127.816 327.23,131.816 325.5,135.5C 326.291,133.309 326.291,131.309 325.5,129.5C 325.739,127.533 325.406,125.699 324.5,124C 321.854,123.503 319.187,123.336 316.5,123.5C 316.371,121.784 316.038,120.117 315.5,118.5 Z"/></g>
<g><path style="opacity:1" fill="#e97c7e" d="M 304.5,121.5 C 304.735,120.903 305.235,120.57 306,120.5C 308.253,121.377 310.419,122.377 312.5,123.5C 315.305,124.319 318.305,124.819 321.5,125C 319.045,126.54 316.379,126.874 313.5,126C 310.589,124.239 307.589,122.739 304.5,121.5 Z"/></g>
<g><path style="opacity:1" fill="#f9b2a3" d="M 304.5,121.5 C 307.589,122.739 310.589,124.239 313.5,126C 316.379,126.874 319.045,126.54 321.5,125C 318.305,124.819 315.305,124.319 312.5,123.5C 313.833,123.5 315.167,123.5 316.5,123.5C 319.187,123.336 321.854,123.503 324.5,124C 325.406,125.699 325.739,127.533 325.5,129.5C 323.141,139.864 320.475,140.031 317.5,130C 313.52,128.952 310.52,130.285 308.5,134C 301.797,134.297 298.963,131.13 300,124.5C 301.129,122.859 302.629,121.859 304.5,121.5 Z"/></g>
<g><path style="opacity:1" fill="#95326b" d="M 276.5,125.5 C 281.518,139.862 291.518,147.862 306.5,149.5C 306.702,151.95 306.369,154.283 305.5,156.5C 301.806,160.56 297.473,161.394 292.5,159C 284.478,150.145 278.811,139.978 275.5,128.5C 275.263,127.209 275.596,126.209 276.5,125.5 Z"/></g>
<g><path style="opacity:1" fill="#3242a2" d="M 315.5,118.5 C 316.038,120.117 316.371,121.784 316.5,123.5C 315.167,123.5 313.833,123.5 312.5,123.5C 310.419,122.377 308.253,121.377 306,120.5C 305.235,120.57 304.735,120.903 304.5,121.5C 302.629,121.859 301.129,122.859 300,124.5C 298.963,131.13 301.797,134.297 308.5,134C 310.52,130.285 313.52,128.952 317.5,130C 320.475,140.031 323.141,139.864 325.5,129.5C 326.291,131.309 326.291,133.309 325.5,135.5C 324.5,136.833 323.5,138.167 322.5,139.5C 313.765,138.172 304.932,138.172 296,139.5C 294,133.346 293.167,127.013 293.5,120.5C 297.67,118.89 302.003,117.89 306.5,117.5C 309.517,117.768 312.517,118.102 315.5,118.5 Z"/></g>
<g><path style="opacity:1" fill="#c4c8e7" d="M 414.5,126.5 C 415.167,127.167 415.833,127.833 416.5,128.5C 402.677,129.496 388.677,129.829 374.5,129.5C 388.031,129.16 401.365,128.16 414.5,126.5 Z"/></g>
<g><path style="opacity:1" fill="#6aa9e7" d="M 467.5,129.5 C 467.5,133.5 467.5,137.5 467.5,141.5C 453.833,141.5 440.167,141.5 426.5,141.5C 423.871,140.286 421.204,140.286 418.5,141.5C 415.167,141.5 411.833,141.5 408.5,141.5C 410.324,138.154 410.99,134.487 410.5,130.5C 429.487,129.66 448.487,129.326 467.5,129.5 Z"/></g>
<g><path style="opacity:1" fill="#6bb7f1" d="M 467.5,129.5 C 490.167,129.5 512.833,129.5 535.5,129.5C 537.262,130.262 538.262,131.596 538.5,133.5C 538.5,136.167 538.5,138.833 538.5,141.5C 514.833,141.5 491.167,141.5 467.5,141.5C 467.5,137.5 467.5,133.5 467.5,129.5 Z"/></g>
<g><path style="opacity:1" fill="#6595d9" d="M 416.5,128.5 C 456.337,128.168 496.004,128.501 535.5,129.5C 512.833,129.5 490.167,129.5 467.5,129.5C 448.487,129.326 429.487,129.66 410.5,130.5C 410.99,134.487 410.324,138.154 408.5,141.5C 391.833,141.5 375.167,141.5 358.5,141.5C 358.335,138.482 358.502,135.482 359,132.5C 359.5,132 360,131.5 360.5,131C 365.036,129.621 369.703,129.121 374.5,129.5C 388.677,129.829 402.677,129.496 416.5,128.5 Z"/></g>
<g><path style="opacity:1" fill="#bb5e75" d="M 275.5,128.5 C 278.811,139.978 284.478,150.145 292.5,159C 297.473,161.394 301.806,160.56 305.5,156.5C 305.5,157.167 305.5,157.833 305.5,158.5C 300.099,167.069 293.099,168.569 284.5,163C 279.503,158.851 275.503,154.017 272.5,148.5C 271.067,146.442 270.4,144.108 270.5,141.5C 272.366,137.234 274.033,132.901 275.5,128.5 Z"/></g>
<g><path style="opacity:1" fill="#f28b8e" d="M 198.5,117.5 C 200.5,117.5 202.5,117.5 204.5,117.5C 204.5,125.5 204.5,133.5 204.5,141.5C 202.167,141.5 199.833,141.5 197.5,141.5C 198.252,133.442 198.586,125.442 198.5,117.5 Z"/></g>
<g><path style="opacity:1" fill="#92bae8" d="M 365.5,132.5 C 367.357,135.018 369.19,135.018 371,132.5C 370.333,134.833 370.333,137.167 371,139.5C 369.333,136.833 367.667,136.833 366,139.5C 366.698,137.236 366.198,135.403 364.5,134C 365.056,133.617 365.389,133.117 365.5,132.5 Z"/></g>
<g><path style="opacity:1" fill="#f0f8fe" d="M 478.5,133.5 C 497.167,133.5 515.833,133.5 534.5,133.5C 534.5,134.5 534.5,135.5 534.5,136.5C 515.833,136.5 497.167,136.5 478.5,136.5C 478.5,135.5 478.5,134.5 478.5,133.5 Z"/></g>
<g><path style="opacity:1" fill="#17b0db" d="M 96.5,137.5 C 96.5,140.167 96.5,142.833 96.5,145.5C 94.8525,147.121 92.8525,148.287 90.5,149C 89.8095,150.067 89.3095,151.234 89,152.5C 88.5357,151.906 88.369,151.239 88.5,150.5C 88.5,150.167 88.5,149.833 88.5,149.5C 88.5,149.167 88.5,148.833 88.5,148.5C 88.5393,146.776 88.206,146.443 87.5,147.5C 83.8872,148.486 80.2205,149.319 76.5,150C 75.9732,152.475 75.9732,154.809 76.5,157C 74.0227,157.368 73.3561,156.535 74.5,154.5C 74.6633,152.143 74.4966,149.81 74,147.5C 73.5045,149.473 73.3379,151.473 73.5,153.5C 71.5,153.833 69.5,154.167 67.5,154.5C 67.7678,156.099 67.4345,157.432 66.5,158.5C 66.1297,151.241 66.1297,144.075 66.5,137C 76.6753,136.175 86.6753,136.342 96.5,137.5 Z M 73.5,142.5 C 75.6456,142.696 75.8122,143.696 74,145.5C 73.5172,144.552 73.3505,143.552 73.5,142.5 Z M 86.5,143.5 C 87.0768,142.227 87.7435,142.227 88.5,143.5C 88.0302,144.463 87.3635,144.463 86.5,143.5 Z"/></g>
<g><path style="opacity:1" fill="#db3892" d="M 231.5,138.5 C 236.747,138.64 237.747,140.806 234.5,145C 229.382,144.824 228.382,142.658 231.5,138.5 Z"/></g>
<g><path style="opacity:1" fill="#fafdfe" d="M 426.5,141.5 C 431.419,145.722 431.752,150.388 427.5,155.5C 425.253,156.374 422.92,156.708 420.5,156.5C 416.635,155.294 414.635,152.627 414.5,148.5C 415.063,145.705 416.396,143.372 418.5,141.5C 421.204,140.286 423.871,140.286 426.5,141.5 Z"/></g>
<g><path style="opacity:1" fill="#7bdbf8" d="M 358.5,141.5 C 375.167,141.5 391.833,141.5 408.5,141.5C 411.833,141.5 415.167,141.5 418.5,141.5C 416.396,143.372 415.063,145.705 414.5,148.5C 398.833,148.5 383.167,148.5 367.5,148.5C 367.5,156.167 367.5,163.833 367.5,171.5C 367.5,182.167 367.5,192.833 367.5,203.5C 377.167,203.5 386.833,203.5 396.5,203.5C 396.443,204.609 396.11,205.609 395.5,206.5C 392.962,207.043 390.628,208.043 388.5,209.5C 386.054,207.767 383.387,206.933 380.5,207C 377.934,210.658 375.268,214.158 372.5,217.5C 369.294,214.45 365.627,213.783 361.5,215.5C 361.815,211.629 361.482,207.962 360.5,204.5C 359.193,183.679 358.526,162.679 358.5,141.5 Z"/></g>
<g><path style="opacity:1" fill="#84e0f9" d="M 426.5,141.5 C 440.167,141.5 453.833,141.5 467.5,141.5C 491.167,141.5 514.833,141.5 538.5,141.5C 537.318,172.152 536.318,202.818 535.5,233.5C 535.5,235.5 534.5,236.5 532.5,236.5C 487.5,236.5 442.5,236.5 397.5,236.5C 397.5,235.833 397.5,235.167 397.5,234.5C 397.369,233.761 397.536,233.094 398,232.5C 400.628,230.874 402.961,228.874 405,226.5C 405.497,223.854 405.664,221.187 405.5,218.5C 406.869,213.294 410.202,210.461 415.5,210C 425.786,203.073 432.953,193.906 437,182.5C 436.612,181.572 435.945,180.905 435,180.5C 432.846,181.32 431.346,182.82 430.5,185C 429.833,185.667 429.167,185.667 428.5,185C 432.718,181.201 432.384,178.035 427.5,175.5C 427.223,172.317 425.556,170.317 422.5,169.5C 423.001,164.847 422.334,160.514 420.5,156.5C 422.92,156.708 425.253,156.374 427.5,155.5C 431.752,150.388 431.419,145.722 426.5,141.5 Z"/></g>
<g><path style="opacity:1" fill="#8e6cce" d="M 270.5,141.5 C 270.4,144.108 271.067,146.442 272.5,148.5C 273.438,154.542 276.105,159.709 280.5,164C 283.887,167.053 287.553,169.72 291.5,172C 294.221,172.602 296.887,172.435 299.5,171.5C 298.71,172.794 297.71,173.961 296.5,175C 299.146,175.497 301.813,175.664 304.5,175.5C 304.5,176.167 304.167,176.5 303.5,176.5C 296.833,176.5 290.167,176.5 283.5,176.5C 276.178,174.171 268.845,171.837 261.5,169.5C 259.786,168.262 257.786,167.595 255.5,167.5C 249.167,164.833 242.833,162.167 236.5,159.5C 245.637,155.895 254.637,151.895 263.5,147.5C 265.259,144.734 267.593,142.734 270.5,141.5 Z"/></g>
<g><path style="opacity:1" fill="#67c3f5" d="M 325.5,135.5 C 324.572,139.362 323.072,143.029 321,146.5C 319.871,148.141 318.371,149.141 316.5,149.5C 319.517,146.802 321.517,143.469 322.5,139.5C 323.5,138.167 324.5,136.833 325.5,135.5 Z"/></g>
<g><path style="opacity:1" fill="#159ccc" d="M 96.5,145.5 C 95.746,150.463 95.4126,155.463 95.5,160.5C 86.1607,160.666 76.8274,160.5 67.5,160C 66.944,159.617 66.6107,159.117 66.5,158.5C 67.4345,157.432 67.7678,156.099 67.5,154.5C 69.5,154.167 71.5,153.833 73.5,153.5C 73.5,154.167 73.8333,154.5 74.5,154.5C 73.3561,156.535 74.0227,157.368 76.5,157C 75.9732,154.809 75.9732,152.475 76.5,150C 80.2205,149.319 83.8872,148.486 87.5,147.5C 87.5,148.167 87.8333,148.5 88.5,148.5C 88.5,148.833 88.5,149.167 88.5,149.5C 87.1667,149.833 87.1667,150.167 88.5,150.5C 88.369,151.239 88.5357,151.906 89,152.5C 89.3095,151.234 89.8095,150.067 90.5,149C 92.8525,148.287 94.8525,147.121 96.5,145.5 Z"/></g>
<g><path style="opacity:1" fill="#71bfeb" d="M 414.5,148.5 C 414.635,152.627 416.635,155.294 420.5,156.5C 422.334,160.514 423.001,164.847 422.5,169.5C 419.891,170.443 417.891,172.11 416.5,174.5C 415.185,175.476 413.852,176.476 412.5,177.5C 412.167,177.167 411.833,176.833 411.5,176.5C 413.5,172.5 415.5,168.5 417.5,164.5C 415.5,163.167 413.5,161.833 411.5,160.5C 408.437,166.697 405.77,173.03 403.5,179.5C 401.857,181.973 399.69,183.973 397,185.5C 394.96,183.63 393.127,181.63 391.5,179.5C 391.787,171.139 387.787,167.639 379.5,169C 377.313,170.025 375.646,171.525 374.5,173.5C 372.833,173.5 371.167,173.5 369.5,173.5C 370.473,168.353 373.473,164.853 378.5,163C 382.548,162.566 386.548,162.566 390.5,163C 380.39,159.05 372.723,161.883 367.5,171.5C 367.5,163.833 367.5,156.167 367.5,148.5C 383.167,148.5 398.833,148.5 414.5,148.5 Z"/></g>
<g><path style="opacity:1" fill="#6f50b8" d="M 306.5,149.5 C 309.833,149.5 313.167,149.5 316.5,149.5C 313.695,150.319 310.695,150.819 307.5,151C 309.863,151.589 310.863,153.089 310.5,155.5C 310.294,162.237 308.627,168.571 305.5,174.5C 305.5,175.167 305.167,175.5 304.5,175.5C 301.813,175.664 299.146,175.497 296.5,175C 297.71,173.961 298.71,172.794 299.5,171.5C 302.838,167.821 304.838,163.488 305.5,158.5C 305.5,157.833 305.5,157.167 305.5,156.5C 306.369,154.283 306.702,151.95 306.5,149.5 Z"/></g>
<g><path style="opacity:0.357" fill="#1874ba" d="M 96.5,137.5 C 97.6946,137.866 98.3613,138.699 98.5,140C 98.2244,147.21 97.2244,154.043 95.5,160.5C 95.4126,155.463 95.746,150.463 96.5,145.5C 96.5,142.833 96.5,140.167 96.5,137.5 Z"/></g>
<g><path style="opacity:1" fill="#fdafa1" d="M 189.5,142.5 C 189.948,147.884 190.448,153.217 191,158.5C 186.705,161.628 182.205,163.628 177.5,164.5C 174.875,162.397 173.375,159.73 173,156.5C 176.084,151.827 179.584,147.494 183.5,143.5C 185.409,142.652 187.409,142.318 189.5,142.5 Z"/></g>
<g><path style="opacity:1" fill="#926fd0" d="M 310.5,155.5 C 316.734,159.776 323.067,163.776 329.5,167.5C 321.303,169.215 313.303,171.549 305.5,174.5C 308.627,168.571 310.294,162.237 310.5,155.5 Z"/></g>
<g><path style="opacity:1" fill="#eb7f81" d="M 189.5,142.5 C 192.378,143.562 194.378,145.562 195.5,148.5C 196.209,149.404 197.209,149.737 198.5,149.5C 198.343,148.127 198.51,146.793 199,145.5C 200.064,147.269 201.231,148.936 202.5,150.5C 202.392,151.442 202.059,152.275 201.5,153C 196.546,156.285 191.88,159.952 187.5,164C 184.244,165.474 180.911,166.64 177.5,167.5C 177.5,166.5 177.5,165.5 177.5,164.5C 182.205,163.628 186.705,161.628 191,158.5C 190.448,153.217 189.948,147.884 189.5,142.5 Z"/></g>
<g><path style="opacity:1" fill="#7ac7ee" d="M 447.5,152.5 C 455.5,152.5 463.5,152.5 471.5,152.5C 471.647,157.214 471.314,161.881 470.5,166.5C 462.833,166.5 455.167,166.5 447.5,166.5C 447.5,161.833 447.5,157.167 447.5,152.5 Z"/></g>
<g><path style="opacity:1" fill="#79c7ee" d="M 476.5,152.5 C 484.167,152.5 491.833,152.5 499.5,152.5C 499.5,157.167 499.5,161.833 499.5,166.5C 491.833,166.5 484.167,166.5 476.5,166.5C 476.5,161.833 476.5,157.167 476.5,152.5 Z"/></g>
<g><path style="opacity:1" fill="#79c7ee" d="M 504.5,152.5 C 512.5,152.5 520.5,152.5 528.5,152.5C 528.331,157.181 527.998,161.848 527.5,166.5C 519.833,166.5 512.167,166.5 504.5,166.5C 504.5,161.833 504.5,157.167 504.5,152.5 Z"/></g>
<g><path style="opacity:1" fill="#feb1a3" d="M 197.5,141.5 C 199.833,141.5 202.167,141.5 204.5,141.5C 207.118,146.736 209.785,152.07 212.5,157.5C 208.843,162.827 205.176,168.16 201.5,173.5C 197.33,176.144 192.997,178.644 188.5,181C 187.207,181.49 185.873,181.657 184.5,181.5C 182.519,179.697 180.352,178.03 178,176.5C 177.502,173.518 177.335,170.518 177.5,167.5C 180.911,166.64 184.244,165.474 187.5,164C 191.88,159.952 196.546,156.285 201.5,153C 202.059,152.275 202.392,151.442 202.5,150.5C 201.231,148.936 200.064,147.269 199,145.5C 198.51,146.793 198.343,148.127 198.5,149.5C 197.209,149.737 196.209,149.404 195.5,148.5C 197.344,146.721 198.01,144.388 197.5,141.5 Z"/></g>
<g><path style="opacity:1" fill="#a286d5" d="M 272.5,148.5 C 275.503,154.017 279.503,158.851 284.5,163C 293.099,168.569 300.099,167.069 305.5,158.5C 304.838,163.488 302.838,167.821 299.5,171.5C 296.887,172.435 294.221,172.602 291.5,172C 287.553,169.72 283.887,167.053 280.5,164C 276.105,159.709 273.438,154.542 272.5,148.5 Z"/></g>
<g><path style="opacity:1" fill="#fbfdfe" d="M 391.5,179.5 C 390.197,181.142 388.864,182.809 387.5,184.5C 378.668,186.343 374.334,182.676 374.5,173.5C 375.646,171.525 377.313,170.025 379.5,169C 387.787,167.639 391.787,171.139 391.5,179.5 Z"/></g>
<g><path style="opacity:0.245" fill="#7aa7d2" d="M 538.5,133.5 C 539.164,136.146 539.498,138.979 539.5,142C 538.428,171.825 537.594,201.659 537,231.5C 536.722,232.416 536.222,233.082 535.5,233.5C 536.318,202.818 537.318,172.152 538.5,141.5C 538.5,138.833 538.5,136.167 538.5,133.5 Z"/></g>
<g><path style="opacity:1" fill="#cf7b8e" d="M 201.5,173.5 C 201.5,173.833 201.5,174.167 201.5,174.5C 199.464,182.866 194.13,187.866 185.5,189.5C 184.548,187.955 184.215,186.288 184.5,184.5C 184.5,183.5 184.5,182.5 184.5,181.5C 185.873,181.657 187.207,181.49 188.5,181C 192.997,178.644 197.33,176.144 201.5,173.5 Z"/></g>
<g><path style="opacity:1" fill="#56c8fd" d="M 332.5,168.5 C 338.71,171.862 344.543,175.862 350,180.5C 350.822,183.117 351.322,185.784 351.5,188.5C 350.655,187.329 349.989,185.995 349.5,184.5C 348.5,182.833 347.167,181.5 345.5,180.5C 341.167,176.5 336.833,172.5 332.5,168.5 Z"/></g>
<g><path style="opacity:1" fill="#72a1c4" d="M 416.5,174.5 C 416.938,174.435 417.272,174.601 417.5,175C 415.524,177.147 414.191,179.647 413.5,182.5C 410.639,180.02 407.306,179.02 403.5,179.5C 405.77,173.03 408.437,166.697 411.5,160.5C 413.5,161.833 415.5,163.167 417.5,164.5C 415.5,168.5 413.5,172.5 411.5,176.5C 411.833,176.833 412.167,177.167 412.5,177.5C 413.852,176.476 415.185,175.476 416.5,174.5 Z"/></g>
<g><path style="opacity:1" fill="#bfa6ed" d="M 236.5,159.5 C 242.833,162.167 249.167,164.833 255.5,167.5C 255.912,173.825 258.579,178.991 263.5,183C 269.677,187.592 276.344,191.425 283.5,194.5C 284.696,194.154 284.696,193.654 283.5,193C 274.699,187.529 267.199,180.696 261,172.5C 260.26,171.251 260.427,170.251 261.5,169.5C 268.845,171.837 276.178,174.171 283.5,176.5C 287.243,180.763 291.91,182.93 297.5,183C 299.706,180.963 301.706,178.797 303.5,176.5C 304.167,176.5 304.5,176.167 304.5,175.5C 305.167,175.5 305.5,175.167 305.5,174.5C 313.303,171.549 321.303,169.215 329.5,167.5C 330.391,168.11 331.391,168.443 332.5,168.5C 336.833,172.5 341.167,176.5 345.5,180.5C 338.5,180.5 331.5,180.5 324.5,180.5C 324.664,177.813 324.497,175.146 324,172.5C 322.443,178.951 319.776,184.951 316,190.5C 313.219,193.462 310.052,195.796 306.5,197.5C 299.82,197.388 293.153,197.054 286.5,196.5C 276.833,196.5 267.167,196.5 257.5,196.5C 256.549,197.919 256.216,199.585 256.5,201.5C 247.833,201.5 239.167,201.5 230.5,201.5C 229.833,201.5 229.5,201.167 229.5,200.5C 227.14,198.287 225.306,195.621 224,192.5C 221.179,184.541 219.013,176.541 217.5,168.5C 223.297,164.557 229.63,161.557 236.5,159.5 Z"/></g>
<g><path style="opacity:1" fill="#a288de" d="M 283.5,176.5 C 290.167,176.5 296.833,176.5 303.5,176.5C 301.706,178.797 299.706,180.963 297.5,183C 291.91,182.93 287.243,180.763 283.5,176.5 Z"/></g>
<g><path style="opacity:1" fill="#72c3f6" d="M 480.5,179.5 C 485.544,179.173 490.544,179.506 495.5,180.5C 493,180.833 490.5,181.167 488,181.5C 485.071,181.475 482.571,180.809 480.5,179.5 Z"/></g>
<g><path style="opacity:1" fill="#a392e3" d="M 255.5,167.5 C 257.786,167.595 259.786,168.262 261.5,169.5C 260.427,170.251 260.26,171.251 261,172.5C 267.199,180.696 274.699,187.529 283.5,193C 284.696,193.654 284.696,194.154 283.5,194.5C 276.344,191.425 269.677,187.592 263.5,183C 258.579,178.991 255.912,173.825 255.5,167.5 Z"/></g>
<g><path style="opacity:1" fill="#cebaed" d="M 201.5,174.5 C 201.433,175.959 201.766,177.292 202.5,178.5C 199.555,183.855 195.555,188.355 190.5,192C 186.469,192.818 183.136,191.651 180.5,188.5C 180.894,186.29 182.227,184.957 184.5,184.5C 184.215,186.288 184.548,187.955 185.5,189.5C 194.13,187.866 199.464,182.866 201.5,174.5 Z"/></g>
<g><path style="opacity:1" fill="#77d4f6" d="M 374.5,173.5 C 374.334,182.676 378.668,186.343 387.5,184.5C 390.72,187.37 392.387,191.036 392.5,195.5C 392.343,196.873 392.51,198.207 393,199.5C 394.376,200.705 395.542,202.038 396.5,203.5C 386.833,203.5 377.167,203.5 367.5,203.5C 367.5,192.833 367.5,182.167 367.5,171.5C 372.723,161.883 380.39,159.05 390.5,163C 386.548,162.566 382.548,162.566 378.5,163C 373.473,164.853 370.473,168.353 369.5,173.5C 371.167,173.5 372.833,173.5 374.5,173.5 Z"/></g>
<g><path style="opacity:1" fill="#7cb7d1" d="M 422.5,169.5 C 425.556,170.317 427.223,172.317 427.5,175.5C 426.207,177.296 424.707,178.963 423,180.5C 422.501,185.489 422.334,190.489 422.5,195.5C 417.025,194.919 411.858,195.586 407,197.5C 402.482,195.593 397.648,194.926 392.5,195.5C 392.387,191.036 390.72,187.37 387.5,184.5C 388.864,182.809 390.197,181.142 391.5,179.5C 393.127,181.63 394.96,183.63 397,185.5C 399.69,183.973 401.857,181.973 403.5,179.5C 407.306,179.02 410.639,180.02 413.5,182.5C 414.191,179.647 415.524,177.147 417.5,175C 417.272,174.601 416.938,174.435 416.5,174.5C 417.891,172.11 419.891,170.443 422.5,169.5 Z"/></g>
<g><path style="opacity:1" fill="#998de3" d="M 202.5,178.5 C 202.5,182.5 202.5,186.5 202.5,190.5C 199.901,195.521 196.901,200.354 193.5,205C 189.411,207.557 185.411,207.723 181.5,205.5C 180.833,204.167 180.167,202.833 179.5,201.5C 179.435,201.062 179.601,200.728 180,200.5C 181.947,204.557 185.114,206.057 189.5,205C 188.069,204.535 186.903,203.701 186,202.5C 184.787,200.075 183.621,197.741 182.5,195.5C 182.122,193.079 181.455,190.746 180.5,188.5C 183.136,191.651 186.469,192.818 190.5,192C 195.555,188.355 199.555,183.855 202.5,178.5 Z"/></g>
<g><path style="opacity:1" fill="#70c7f8" d="M 351.5,188.5 C 353.196,194.3 354.529,200.3 355.5,206.5C 353.04,200.882 351.707,194.882 351.5,188.5 Z"/></g>
<g><path style="opacity:1" fill="#6fbef6" d="M 466.5,190.5 C 487.167,190.5 507.833,190.5 528.5,190.5C 528.5,192.5 528.5,194.5 528.5,196.5C 507.833,196.5 487.167,196.5 466.5,196.5C 466.5,194.5 466.5,192.5 466.5,190.5 Z"/></g>
<g><path style="opacity:0.741" fill="#ada0c6" d="M 95.5,191.5 C 96.2506,190.427 97.2506,190.26 98.5,191C 100.67,192.586 103.004,193.92 105.5,195C 104.167,195.667 102.833,195.667 101.5,195C 99.6125,193.606 97.6125,192.44 95.5,191.5 Z"/></g>
<g><path style="opacity:1" fill="#8974ca" d="M 158.5,210.5 C 159.167,213.167 159.833,215.833 160.5,218.5C 158.645,219.69 156.812,221.023 155,222.5C 154.184,221.177 153.017,220.511 151.5,220.5C 149.09,216.742 147.09,212.742 145.5,208.5C 134.547,205.832 131.047,199.166 135,188.5C 135.893,187.289 136.726,187.289 137.5,188.5C 138.702,190.78 139.702,193.114 140.5,195.5C 142.407,198.332 145.073,199.166 148.5,198C 150.498,195.561 150.831,193.061 149.5,190.5C 148.377,188.419 147.377,186.253 146.5,184C 146.78,182.605 147.447,181.438 148.5,180.5C 151.757,182.385 154.59,184.719 157,187.5C 160.286,192.424 160.119,197.257 156.5,202C 157.649,203.604 157.649,205.27 156.5,207C 156.978,208.303 157.645,209.469 158.5,210.5 Z"/></g>
<g><path style="opacity:1" fill="#cfbcfc" d="M 149.5,190.5 C 150.831,193.061 150.498,195.561 148.5,198C 145.073,199.166 142.407,198.332 140.5,195.5C 145.624,197.715 148.624,196.049 149.5,190.5 Z"/></g>
<g><path style="opacity:1" fill="#7fc0d4" d="M 427.5,175.5 C 432.384,178.035 432.718,181.201 428.5,185C 429.167,185.667 429.833,185.667 430.5,185C 431.346,182.82 432.846,181.32 435,180.5C 435.945,180.905 436.612,181.572 437,182.5C 432.953,193.906 425.786,203.073 415.5,210C 410.202,210.461 406.869,213.294 405.5,218.5C 403.777,220.253 402.277,222.253 401,224.5C 395.83,219.457 393.997,213.457 395.5,206.5C 396.11,205.609 396.443,204.609 396.5,203.5C 395.542,202.038 394.376,200.705 393,199.5C 392.51,198.207 392.343,196.873 392.5,195.5C 397.648,194.926 402.482,195.593 407,197.5C 411.858,195.586 417.025,194.919 422.5,195.5C 422.334,190.489 422.501,185.489 423,180.5C 424.707,178.963 426.207,177.296 427.5,175.5 Z"/></g>
<g><path style="opacity:1" fill="#c7b5f1" d="M 182.5,195.5 C 183.621,197.741 184.787,200.075 186,202.5C 186.903,203.701 188.069,204.535 189.5,205C 185.114,206.057 181.947,204.557 180,200.5C 179.601,200.728 179.435,201.062 179.5,201.5C 178.431,198.804 179.431,196.804 182.5,195.5 Z"/></g>
<g><path style="opacity:1" fill="#6fbef6" d="M 451.5,199.5 C 477.175,199.167 502.842,199.5 528.5,200.5C 515.667,200.833 502.833,201.167 490,201.5C 476.815,201.499 463.982,200.833 451.5,199.5 Z"/></g>
<g><path style="opacity:1" fill="#71c1f6" d="M 447.5,202.5 C 455.528,202.169 463.528,202.502 471.5,203.5C 467.5,203.833 463.5,204.167 459.5,204.5C 455.107,204.491 451.107,203.824 447.5,202.5 Z"/></g>
<g><path style="opacity:1" fill="#ad9dee" d="M 202.5,190.5 C 202.833,190.5 203.167,190.5 203.5,190.5C 202.367,198.967 200.701,207.3 198.5,215.5C 196.389,215.612 194.222,215.612 192,215.5C 189.044,217.061 185.877,218.061 182.5,218.5C 181.515,214.366 181.182,210.032 181.5,205.5C 185.411,207.723 189.411,207.557 193.5,205C 196.901,200.354 199.901,195.521 202.5,190.5 Z"/></g>
<g><path style="opacity:1" fill="#614fbd" d="M 229.5,200.5 C 229.5,201.167 229.833,201.5 230.5,201.5C 235.902,205.394 240.902,209.894 245.5,215C 249.133,217.65 253.133,219.483 257.5,220.5C 260.203,221.963 263.203,222.796 266.5,223C 267.056,223.383 267.389,223.883 267.5,224.5C 263.838,224.723 260.505,225.723 257.5,227.5C 255.716,227.893 254.05,228.559 252.5,229.5C 247.017,227.356 242.35,224.023 238.5,219.5C 237.992,217.767 237.159,217.434 236,218.5C 232.667,225.167 229.333,231.833 226,238.5C 224.669,240.996 222.836,242.996 220.5,244.5C 222.383,233.452 221.383,222.786 217.5,212.5C 217.5,211.167 217.5,209.833 217.5,208.5C 217.187,205.753 217.52,203.086 218.5,200.5C 222.417,202.708 226.25,205.041 230,207.5C 230.048,205.456 229.548,203.456 228.5,201.5C 228.624,200.893 228.957,200.56 229.5,200.5 Z"/></g>
<g><path style="opacity:1" fill="#70c5f3" d="M 395.5,206.5 C 393.997,213.457 395.83,219.457 401,224.5C 402.277,222.253 403.777,220.253 405.5,218.5C 405.664,221.187 405.497,223.854 405,226.5C 402.961,228.874 400.628,230.874 398,232.5C 397.536,233.094 397.369,233.761 397.5,234.5C 394.628,231.791 392.461,228.458 391,224.5C 390.128,219.459 389.294,214.459 388.5,209.5C 390.628,208.043 392.962,207.043 395.5,206.5 Z"/></g>
<g><path style="opacity:1" fill="#78ccf7" d="M 528.5,208.5 C 501.5,208.5 474.5,208.5 447.5,208.5C 448.718,207.839 450.051,207.172 451.5,206.5C 477.158,205.5 502.825,205.167 528.5,205.5C 528.5,206.5 528.5,207.5 528.5,208.5 Z"/></g>
<g><path style="opacity:1" fill="#75c8f7" d="M 447.5,208.5 C 474.5,208.5 501.5,208.5 528.5,208.5C 528.5,209.833 528.5,211.167 528.5,212.5C 501.167,212.5 473.833,212.5 446.5,212.5C 446.232,210.901 446.566,209.568 447.5,208.5 Z"/></g>
<g><path style="opacity:1" fill="#b7a0ed" d="M 345.5,180.5 C 347.167,181.5 348.5,182.833 349.5,184.5C 346.185,190.447 342.352,196.113 338,201.5C 336.956,200.377 336.29,199.044 336,197.5C 335.506,199.134 335.34,200.801 335.5,202.5C 334.552,209.758 333.885,217.092 333.5,224.5C 325.644,222.246 317.644,221.413 309.5,222C 312.703,224.029 316.037,225.863 319.5,227.5C 298.833,228.833 278.167,228.833 257.5,227.5C 260.505,225.723 263.838,224.723 267.5,224.5C 276.501,223.444 285.501,222.277 294.5,221C 282.171,220.5 269.838,220.333 257.5,220.5C 253.133,219.483 249.133,217.65 245.5,215C 240.902,209.894 235.902,205.394 230.5,201.5C 239.167,201.5 247.833,201.5 256.5,201.5C 256.216,199.585 256.549,197.919 257.5,196.5C 257.5,201.5 257.5,206.5 257.5,211.5C 274.5,211.5 291.5,211.5 308.5,211.5C 315.309,212.652 322.309,213.319 329.5,213.5C 329.5,208.833 329.5,204.167 329.5,199.5C 321.661,199.118 313.995,198.451 306.5,197.5C 310.052,195.796 313.219,193.462 316,190.5C 319.776,184.951 322.443,178.951 324,172.5C 324.497,175.146 324.664,177.813 324.5,180.5C 331.5,180.5 338.5,180.5 345.5,180.5 Z"/></g>
<g><path style="opacity:1" fill="#824fae" d="M 257.5,196.5 C 267.167,196.5 276.833,196.5 286.5,196.5C 288.219,197.022 289.552,198.022 290.5,199.5C 288.876,199.36 287.71,200.027 287,201.5C 283.506,199.623 279.673,198.956 275.5,199.5C 275.5,202.5 275.5,205.5 275.5,208.5C 278.898,208.82 282.232,208.487 285.5,207.5C 283.234,206.686 280.9,206.186 278.5,206C 283.833,205 283.833,204 278.5,203C 279.333,202.833 280.167,202.667 281,202.5C 282.79,203.285 284.457,203.285 286,202.5C 288.228,204.968 291.062,206.135 294.5,206C 292.19,206.497 289.857,206.663 287.5,206.5C 287.5,207.5 287.5,208.5 287.5,209.5C 290.518,209.665 293.518,209.498 296.5,209C 297.056,208.617 297.389,208.117 297.5,207.5C 298.167,208.167 298.833,208.833 299.5,209.5C 301.369,207.365 302.036,204.698 301.5,201.5C 301.833,201.5 302.167,201.5 302.5,201.5C 302.337,203.857 302.503,206.19 303,208.5C 304.011,209.337 305.178,209.67 306.5,209.5C 308.631,210.314 310.964,210.814 313.5,211C 311.866,211.494 310.199,211.66 308.5,211.5C 291.5,211.5 274.5,211.5 257.5,211.5C 257.5,206.5 257.5,201.5 257.5,196.5 Z"/></g>
<g><path style="opacity:1" fill="#bda4d7" d="M 266.5,201.5 C 266.5,202.833 266.5,204.167 266.5,205.5C 268.167,205.5 269.833,205.5 271.5,205.5C 270.048,206.302 268.382,206.802 266.5,207C 267.056,207.383 267.389,207.883 267.5,208.5C 265.901,208.768 264.568,208.434 263.5,207.5C 265.06,205.844 266.06,203.844 266.5,201.5 Z"/></g>
<g><path style="opacity:1" fill="#dcd8f4" d="M 290.5,199.5 C 292.833,199.5 295.167,199.5 297.5,199.5C 297.688,201.103 297.188,202.437 296,203.5C 294.274,202.424 292.441,202.257 290.5,203C 292.74,203.977 295.073,204.477 297.5,204.5C 297.5,205.5 297.5,206.5 297.5,207.5C 297.389,208.117 297.056,208.617 296.5,209C 293.518,209.498 290.518,209.665 287.5,209.5C 287.5,208.5 287.5,207.5 287.5,206.5C 289.857,206.663 292.19,206.497 294.5,206C 291.062,206.135 288.228,204.968 286,202.5C 284.457,203.285 282.79,203.285 281,202.5C 280.167,202.667 279.333,202.833 278.5,203C 283.833,204 283.833,205 278.5,206C 280.9,206.186 283.234,206.686 285.5,207.5C 282.232,208.487 278.898,208.82 275.5,208.5C 275.5,205.5 275.5,202.5 275.5,199.5C 279.673,198.956 283.506,199.623 287,201.5C 287.71,200.027 288.876,199.36 290.5,199.5 Z"/></g>
<g><path style="opacity:1" fill="#775fc0" d="M 286.5,196.5 C 293.153,197.054 299.82,197.388 306.5,197.5C 313.995,198.451 321.661,199.118 329.5,199.5C 329.5,204.167 329.5,208.833 329.5,213.5C 322.309,213.319 315.309,212.652 308.5,211.5C 310.199,211.66 311.866,211.494 313.5,211C 310.964,210.814 308.631,210.314 306.5,209.5C 308.833,209.5 311.167,209.5 313.5,209.5C 313.5,208.167 313.5,206.833 313.5,205.5C 310.975,206.64 308.308,207.307 305.5,207.5C 305.5,205.833 305.5,204.167 305.5,202.5C 308.206,202.575 310.873,202.908 313.5,203.5C 313.5,202.5 313.5,201.5 313.5,200.5C 309.731,200.244 306.064,200.577 302.5,201.5C 302.167,201.5 301.833,201.5 301.5,201.5C 301.44,200.957 301.107,200.624 300.5,200.5C 299.516,203.428 299.183,206.428 299.5,209.5C 298.833,208.833 298.167,208.167 297.5,207.5C 297.5,206.5 297.5,205.5 297.5,204.5C 295.073,204.477 292.74,203.977 290.5,203C 292.441,202.257 294.274,202.424 296,203.5C 297.188,202.437 297.688,201.103 297.5,199.5C 295.167,199.5 292.833,199.5 290.5,199.5C 289.552,198.022 288.219,197.022 286.5,196.5 Z"/></g>
<g><path style="opacity:1" fill="#e2e3f9" d="M 314.5,200.5 C 316.199,200.34 317.866,200.506 319.5,201C 320.67,203.185 321.836,205.351 323,207.5C 323.192,205.423 323.692,203.423 324.5,201.5C 325.484,204.428 325.817,207.428 325.5,210.5C 324.127,210.657 322.793,210.49 321.5,210C 320.292,207.75 318.959,205.583 317.5,203.5C 316.833,205.5 316.167,207.5 315.5,209.5C 314.516,206.572 314.183,203.572 314.5,200.5 Z"/></g>
<g><path style="opacity:1" fill="#e1e0f8" d="M 306.5,209.5 C 305.178,209.67 304.011,209.337 303,208.5C 302.503,206.19 302.337,203.857 302.5,201.5C 306.064,200.577 309.731,200.244 313.5,200.5C 313.5,201.5 313.5,202.5 313.5,203.5C 310.873,202.908 308.206,202.575 305.5,202.5C 305.5,204.167 305.5,205.833 305.5,207.5C 308.308,207.307 310.975,206.64 313.5,205.5C 313.5,206.833 313.5,208.167 313.5,209.5C 311.167,209.5 308.833,209.5 306.5,209.5 Z"/></g>
<g><path style="opacity:1" fill="#e6e8fb" d="M 301.5,201.5 C 302.036,204.698 301.369,207.365 299.5,209.5C 299.183,206.428 299.516,203.428 300.5,200.5C 301.107,200.624 301.44,200.957 301.5,201.5 Z"/></g>
<g><path style="opacity:1" fill="#e3e1f7" d="M 267.5,208.5 C 267.389,207.883 267.056,207.383 266.5,207C 268.382,206.802 270.048,206.302 271.5,205.5C 271.5,204.167 271.5,202.833 271.5,201.5C 269.833,201.5 268.167,201.5 266.5,201.5C 266.06,203.844 265.06,205.844 263.5,207.5C 263.5,204.833 263.5,202.167 263.5,199.5C 267.106,199.211 270.606,199.544 274,200.5C 276.232,206.911 274.065,209.578 267.5,208.5 Z"/></g>
<g><path style="opacity:1" fill="#834aa7" d="M 266.5,201.5 C 268.167,201.5 269.833,201.5 271.5,201.5C 271.5,202.833 271.5,204.167 271.5,205.5C 269.833,205.5 268.167,205.5 266.5,205.5C 266.5,204.167 266.5,202.833 266.5,201.5 Z"/></g>
<g><path style="opacity:1" fill="#897ffe" d="M 91.5,217.5 C 87.6286,217.185 83.9619,217.518 80.5,218.5C 78.6935,213.931 80.3602,211.264 85.5,210.5C 89.5777,210.962 91.5777,213.295 91.5,217.5 Z"/></g>
<g><path style="opacity:1" fill="#71c1f6" d="M 447.5,213.5 C 473.175,213.167 498.842,213.5 524.5,214.5C 511.667,214.833 498.833,215.167 486,215.5C 472.815,215.499 459.982,214.833 447.5,213.5 Z"/></g>
<g><path style="opacity:1" fill="#5e4abd" d="M 335.5,202.5 C 336.931,202.881 337.764,203.881 338,205.5C 338.289,217.344 338.789,229.178 339.5,241C 339.494,243.033 339.161,244.866 338.5,246.5C 336.102,240.973 334.102,235.307 332.5,229.5C 332.366,227.708 332.699,226.042 333.5,224.5C 333.885,217.092 334.552,209.758 335.5,202.5 Z"/></g>
<g><path style="opacity:1" fill="#71c2f6" d="M 451.5,216.5 C 477.175,216.167 502.842,216.5 528.5,217.5C 515.667,217.833 502.833,218.167 490,218.5C 476.815,218.499 463.982,217.833 451.5,216.5 Z"/></g>
<g><path style="opacity:1" fill="#7862ce" d="M 349.5,184.5 C 349.989,185.995 350.655,187.329 351.5,188.5C 351.707,194.882 353.04,200.882 355.5,206.5C 355.889,210.284 357.556,213.284 360.5,215.5C 360.5,215.833 360.5,216.167 360.5,216.5C 349.772,230.415 346.106,246.082 349.5,263.5C 344.686,258.664 341.019,252.998 338.5,246.5C 339.161,244.866 339.494,243.033 339.5,241C 338.789,229.178 338.289,217.344 338,205.5C 337.764,203.881 336.931,202.881 335.5,202.5C 335.34,200.801 335.506,199.134 336,197.5C 336.29,199.044 336.956,200.377 338,201.5C 342.352,196.113 346.185,190.447 349.5,184.5 Z"/></g>
<g><path style="opacity:1" fill="#65baf0" d="M 388.5,209.5 C 389.294,214.459 390.128,219.459 391,224.5C 392.461,228.458 394.628,231.791 397.5,234.5C 397.5,235.167 397.5,235.833 397.5,236.5C 387.5,236.5 377.5,236.5 367.5,236.5C 367.767,229.765 369.433,223.431 372.5,217.5C 375.268,214.158 377.934,210.658 380.5,207C 383.387,206.933 386.054,207.767 388.5,209.5 Z"/></g>
<g><path style="opacity:0.976" fill="#5b93fd" d="M 91.5,217.5 C 89.2124,221.816 85.879,222.982 81.5,221C 80.7476,220.329 80.4142,219.496 80.5,218.5C 83.9619,217.518 87.6286,217.185 91.5,217.5 Z"/></g>
<g><path style="opacity:1" fill="#bdaaf1" d="M 208.5,187.5 C 211.199,200.729 209.365,213.396 203,225.5C 201,228.833 198.333,231.5 195,233.5C 196.037,227.532 197.204,221.532 198.5,215.5C 200.701,207.3 202.367,198.967 203.5,190.5C 205.434,189.89 207.101,188.89 208.5,187.5 Z"/></g>
<g><path style="opacity:1" fill="#9b88e6" d="M 217.5,168.5 C 219.013,176.541 221.179,184.541 224,192.5C 225.306,195.621 227.14,198.287 229.5,200.5C 228.957,200.56 228.624,200.893 228.5,201.5C 229.548,203.456 230.048,205.456 230,207.5C 226.25,205.041 222.417,202.708 218.5,200.5C 217.52,203.086 217.187,205.753 217.5,208.5C 216.679,205.359 216.179,202.025 216,198.5C 215.311,197.643 214.478,196.977 213.5,196.5C 212.86,208.351 211.86,220.017 210.5,231.5C 210.44,230.957 210.107,230.624 209.5,230.5C 207.54,231.723 205.707,233.056 204,234.5C 203.612,233.572 202.945,232.905 202,232.5C 200.349,233.742 198.515,234.576 196.5,235C 197.34,236.666 196.84,236.833 195,235.5C 192.98,239.764 189.813,241.098 185.5,239.5C 183.129,232.829 182.129,225.829 182.5,218.5C 185.877,218.061 189.044,217.061 192,215.5C 194.222,215.612 196.389,215.612 198.5,215.5C 197.204,221.532 196.037,227.532 195,233.5C 198.333,231.5 201,228.833 203,225.5C 209.365,213.396 211.199,200.729 208.5,187.5C 208.351,186.448 208.517,185.448 209,184.5C 211.071,183.636 212.738,182.303 214,180.5C 215.072,176.453 216.239,172.453 217.5,168.5 Z"/></g>
<g><path style="opacity:1" fill="#dff0fe" d="M 238.5,219.5 C 238.437,224.203 238.771,228.87 239.5,233.5C 240.051,236.807 240.384,240.14 240.5,243.5C 239.588,245.177 238.921,247.011 238.5,249C 240.058,256.082 240.724,263.249 240.5,270.5C 240.737,271.791 240.404,272.791 239.5,273.5C 238.229,275.109 237.229,276.942 236.5,279C 228.173,279.5 219.84,279.666 211.5,279.5C 211.847,274.004 212.347,268.337 213,262.5C 215.532,257.436 218.032,252.436 220.5,247.5C 220.5,246.5 220.5,245.5 220.5,244.5C 222.836,242.996 224.669,240.996 226,238.5C 229.333,231.833 232.667,225.167 236,218.5C 237.159,217.434 237.992,217.767 238.5,219.5 Z"/></g>
<g><path style="opacity:1" fill="#71c2f6" d="M 447.5,219.5 C 469.177,219.167 490.844,219.5 512.5,220.5C 501.667,220.833 490.833,221.167 480,221.5C 468.812,221.499 457.979,220.832 447.5,219.5 Z"/></g>
<g><path style="opacity:1" fill="#9880dd" d="M 257.5,220.5 C 269.838,220.333 282.171,220.5 294.5,221C 285.501,222.277 276.501,223.444 267.5,224.5C 267.389,223.883 267.056,223.383 266.5,223C 263.203,222.796 260.203,221.963 257.5,220.5 Z"/></g>
<g><path style="opacity:1" fill="#6fbef6" d="M 451.5,222.5 C 477.175,222.167 502.842,222.5 528.5,223.5C 515.667,223.833 502.833,224.167 490,224.5C 476.815,224.499 463.982,223.833 451.5,222.5 Z"/></g>
<g><path style="opacity:1" fill="#917eda" d="M 333.5,224.5 C 332.699,226.042 332.366,227.708 332.5,229.5C 331.883,229.389 331.383,229.056 331,228.5C 330.051,230.093 328.885,231.426 327.5,232.5C 324.833,230.833 322.167,229.167 319.5,227.5C 316.037,225.863 312.703,224.029 309.5,222C 317.644,221.413 325.644,222.246 333.5,224.5 Z"/></g>
<g><path style="opacity:1" fill="#5dafec" d="M 360.5,204.5 C 361.482,207.962 361.815,211.629 361.5,215.5C 365.627,213.783 369.294,214.45 372.5,217.5C 369.433,223.431 367.767,229.765 367.5,236.5C 364.852,236.262 363.018,234.928 362,232.5C 361.827,226.984 361.327,221.651 360.5,216.5C 360.5,216.167 360.5,215.833 360.5,215.5C 360.5,211.833 360.5,208.167 360.5,204.5 Z"/></g>
<g><path style="opacity:1" fill="#b7a4f0" d="M 217.5,208.5 C 217.5,209.833 217.5,211.167 217.5,212.5C 217.556,222.396 215.389,231.729 211,240.5C 210.502,237.518 210.335,234.518 210.5,231.5C 211.86,220.017 212.86,208.351 213.5,196.5C 214.478,196.977 215.311,197.643 216,198.5C 216.179,202.025 216.679,205.359 217.5,208.5 Z"/></g>
<g><path style="opacity:1" fill="#71c2f6" d="M 447.5,225.5 C 474.508,225.167 501.508,225.5 528.5,226.5C 515,226.833 501.5,227.167 488,227.5C 474.15,227.499 460.65,226.833 447.5,225.5 Z"/></g>
<g><path style="opacity:1" fill="#9888e8" d="M 360.5,216.5 C 361.327,221.651 361.827,226.984 362,232.5C 363.018,234.928 364.852,236.262 367.5,236.5C 367.5,236.833 367.5,237.167 367.5,237.5C 367.336,240.187 367.503,242.854 368,245.5C 368.377,246.942 369.21,247.942 370.5,248.5C 370.611,249.117 370.944,249.617 371.5,250C 370.274,252.527 368.608,254.694 366.5,256.5C 365.828,259.344 364.828,262.01 363.5,264.5C 358.54,269.864 353.874,269.531 349.5,263.5C 346.106,246.082 349.772,230.415 360.5,216.5 Z"/></g>
<g><path style="opacity:1" fill="#b4a6e4" d="M 158.5,210.5 C 159.458,210.953 160.292,211.619 161,212.5C 163.472,218.915 166.138,225.248 169,231.5C 173.27,233.018 175.936,236.018 177,240.5C 178.02,245.463 176.187,248.797 171.5,250.5C 171.702,248.05 171.369,245.717 170.5,243.5C 171.666,239.215 169.999,237.882 165.5,239.5C 164.448,239.649 163.448,239.483 162.5,239C 164.664,238.086 166.664,236.919 168.5,235.5C 168.192,234.692 167.692,234.025 167,233.5C 165.401,235.036 163.567,235.536 161.5,235C 163.002,234.417 164.335,233.584 165.5,232.5C 164.999,227.323 163.332,222.657 160.5,218.5C 159.833,215.833 159.167,213.167 158.5,210.5 Z"/></g>
<g><path style="opacity:1" fill="#dff2fe" d="M 332.5,229.5 C 334.102,235.307 336.102,240.973 338.5,246.5C 341.019,252.998 344.686,258.664 349.5,263.5C 353.874,269.531 358.54,269.864 363.5,264.5C 376.566,257.777 387.899,248.777 397.5,237.5C 407.348,237.173 417.014,237.506 426.5,238.5C 423.435,253.963 417.601,268.297 409,281.5C 407.482,282.163 406.315,283.163 405.5,284.5C 403.821,284.715 402.821,284.048 402.5,282.5C 400.954,280.069 398.621,278.736 395.5,278.5C 394.228,277.566 392.728,276.899 391,276.5C 387.953,278.008 384.786,278.841 381.5,279C 378.632,280.935 377.799,283.435 379,286.5C 378.221,287.728 377.221,288.728 376,289.5C 374.85,288.576 373.85,288.576 373,289.5C 372.392,291.154 371.892,292.821 371.5,294.5C 370.086,296.598 370.752,297.598 373.5,297.5C 373.369,301.377 372.369,304.877 370.5,308C 370.227,312.176 372.227,314.176 376.5,314C 375.62,315.356 375.286,316.856 375.5,318.5C 373.737,322.099 371.07,324.932 367.5,327C 358.138,333.347 348.471,339.181 338.5,344.5C 336.5,340.833 334.5,337.167 332.5,333.5C 330.93,330.686 329.597,327.686 328.5,324.5C 328.785,322.712 328.452,321.045 327.5,319.5C 326.099,318.479 324.765,317.479 323.5,316.5C 323.338,314.473 323.505,312.473 324,310.5C 325.84,308.319 327.007,305.819 327.5,303C 327.472,301.93 327.139,301.097 326.5,300.5C 324.334,297.162 323.001,293.495 322.5,289.5C 322.5,289.167 322.5,288.833 322.5,288.5C 323.167,287.833 323.833,287.167 324.5,286.5C 325.043,286.44 325.376,286.107 325.5,285.5C 322.842,282.026 321.176,278.192 320.5,274C 322.239,264.881 323.572,255.715 324.5,246.5C 325.185,241.761 326.185,237.095 327.5,232.5C 328.885,231.426 330.051,230.093 331,228.5C 331.383,229.056 331.883,229.389 332.5,229.5 Z"/></g>
<g><path style="opacity:1" fill="#75c8f7" d="M 447.5,228.5 C 474.508,228.167 501.508,228.5 528.5,229.5C 515,229.833 501.5,230.167 488,230.5C 474.15,230.499 460.65,229.833 447.5,228.5 Z"/></g>
<g><path style="opacity:1" fill="#7e6cd4" d="M 238.5,219.5 C 242.35,224.023 247.017,227.356 252.5,229.5C 254.12,242.411 260.12,252.744 270.5,260.5C 276.261,265.893 282.927,270.059 290.5,273C 272.289,269.308 258.289,259.474 248.5,243.5C 244.788,240.789 241.788,237.456 239.5,233.5C 238.771,228.87 238.437,224.203 238.5,219.5 Z"/></g>
<g><path style="opacity:1" fill="#a492db" d="M 160.5,218.5 C 163.332,222.657 164.999,227.323 165.5,232.5C 164.335,233.584 163.002,234.417 161.5,235C 163.567,235.536 165.401,235.036 167,233.5C 167.692,234.025 168.192,234.692 168.5,235.5C 166.664,236.919 164.664,238.086 162.5,239C 163.448,239.483 164.448,239.649 165.5,239.5C 165.5,239.833 165.5,240.167 165.5,240.5C 163.833,240.5 162.167,240.5 160.5,240.5C 160.768,238.901 160.434,237.568 159.5,236.5C 156.847,231.193 154.18,225.86 151.5,220.5C 153.017,220.511 154.184,221.177 155,222.5C 156.812,221.023 158.645,219.69 160.5,218.5 Z"/></g>
<g><path style="opacity:0.797" fill="#6f94c9" d="M 367.5,237.5 C 367.5,237.167 367.5,236.833 367.5,236.5C 377.5,236.5 387.5,236.5 397.5,236.5C 442.5,236.5 487.5,236.5 532.5,236.5C 497.264,237.173 461.931,237.84 426.5,238.5C 417.014,237.506 407.348,237.173 397.5,237.5C 392.167,237.5 386.833,237.5 381.5,237.5C 376.833,237.5 372.167,237.5 367.5,237.5 Z"/></g>
<g><path style="opacity:1" fill="#bdacf1" d="M 367.5,237.5 C 372.167,237.5 376.833,237.5 381.5,237.5C 379.443,242.89 375.776,246.557 370.5,248.5C 369.21,247.942 368.377,246.942 368,245.5C 367.503,242.854 367.336,240.187 367.5,237.5 Z"/></g>
<g><path style="opacity:1" fill="#b19bee" d="M 257.5,227.5 C 278.167,228.833 298.833,228.833 319.5,227.5C 322.167,229.167 324.833,230.833 327.5,232.5C 326.185,237.095 325.185,241.761 324.5,246.5C 323.167,251.5 321.833,256.5 320.5,261.5C 304.008,260.503 287.342,260.17 270.5,260.5C 260.12,252.744 254.12,242.411 252.5,229.5C 254.05,228.559 255.716,227.893 257.5,227.5 Z"/></g>
<g><path style="opacity:1" fill="#cfc5ea" d="M 159.5,236.5 C 160.434,237.568 160.768,238.901 160.5,240.5C 146.99,240.829 133.656,240.496 120.5,239.5C 120.5,238.833 120.5,238.167 120.5,237.5C 126.761,238.793 133.261,239.46 140,239.5C 146.167,239.333 152.333,239.167 158.5,239C 159.252,238.329 159.586,237.496 159.5,236.5 Z"/></g>
<g><path style="opacity:1" fill="#dbe8fb" d="M 170.5,243.5 C 170.027,242.094 169.027,241.427 167.5,241.5C 167.158,240.662 166.492,240.328 165.5,240.5C 165.5,240.167 165.5,239.833 165.5,239.5C 169.999,237.882 171.666,239.215 170.5,243.5 Z"/></g>
<g><path style="opacity:1" fill="#9482e9" d="M 217.5,212.5 C 221.383,222.786 222.383,233.452 220.5,244.5C 220.5,245.5 220.5,246.5 220.5,247.5C 214.713,252.565 208.713,257.398 202.5,262C 198.45,262.642 195.45,261.142 193.5,257.5C 189.763,252.022 187.096,246.022 185.5,239.5C 189.813,241.098 192.98,239.764 195,235.5C 196.84,236.833 197.34,236.666 196.5,235C 198.515,234.576 200.349,233.742 202,232.5C 202.945,232.905 203.612,233.572 204,234.5C 205.707,233.056 207.54,231.723 209.5,230.5C 210.107,230.624 210.44,230.957 210.5,231.5C 210.335,234.518 210.502,237.518 211,240.5C 215.389,231.729 217.556,222.396 217.5,212.5 Z"/></g>
<g><path style="opacity:1" fill="#a897ea" d="M 381.5,237.5 C 386.833,237.5 392.167,237.5 397.5,237.5C 387.899,248.777 376.566,257.777 363.5,264.5C 364.828,262.01 365.828,259.344 366.5,256.5C 368.608,254.694 370.274,252.527 371.5,250C 370.944,249.617 370.611,249.117 370.5,248.5C 375.776,246.557 379.443,242.89 381.5,237.5 Z"/></g>
<g><path style="opacity:1" fill="#f289f5" d="M 120.5,239.5 C 133.656,240.496 146.99,240.829 160.5,240.5C 162.167,240.5 163.833,240.5 165.5,240.5C 166.492,240.328 167.158,240.662 167.5,241.5C 164.833,241.5 162.167,241.5 159.5,241.5C 159.5,243.167 159.5,244.833 159.5,246.5C 141.492,246.5 123.492,246.834 105.5,247.5C 105.5,251.833 105.5,256.167 105.5,260.5C 105.167,260.5 104.833,260.5 104.5,260.5C 104.09,254.379 104.59,248.379 106,242.5C 110.472,239.944 115.305,238.944 120.5,239.5 Z"/></g>
<g><path style="opacity:1" fill="#f07cf5" d="M 167.5,241.5 C 169.027,241.427 170.027,242.094 170.5,243.5C 171.369,245.717 171.702,248.05 171.5,250.5C 171.5,253.833 171.5,257.167 171.5,260.5C 170.549,261.919 170.216,263.585 170.5,265.5C 166.958,265.187 163.625,265.521 160.5,266.5C 156.522,262.187 152.522,257.854 148.5,253.5C 147.571,254.689 147.238,256.022 147.5,257.5C 146.778,256.449 145.778,255.782 144.5,255.5C 144.209,254.351 143.376,253.684 142,253.5C 141.167,253.833 140.333,254.167 139.5,254.5C 135.928,261.638 132.928,268.971 130.5,276.5C 131.5,276.5 132.5,276.5 133.5,276.5C 131.149,276.816 128.815,276.816 126.5,276.5C 126.662,274.473 126.495,272.473 126,270.5C 123.842,269.174 122.008,267.507 120.5,265.5C 121.761,262.736 123.595,260.403 126,258.5C 126.798,256.741 126.631,255.074 125.5,253.5C 122.116,257.213 118.783,260.879 115.5,264.5C 112.642,263.834 109.642,263.167 106.5,262.5C 106.137,261.817 105.804,261.15 105.5,260.5C 105.5,256.167 105.5,251.833 105.5,247.5C 123.492,246.834 141.492,246.5 159.5,246.5C 159.5,244.833 159.5,243.167 159.5,241.5C 162.167,241.5 164.833,241.5 167.5,241.5 Z"/></g>
<g><path style="opacity:1" fill="#fef6fe" d="M 126.5,276.5 C 122.344,273.243 118.344,269.743 114.5,266C 115.056,265.617 115.389,265.117 115.5,264.5C 118.783,260.879 122.116,257.213 125.5,253.5C 126.631,255.074 126.798,256.741 126,258.5C 123.595,260.403 121.761,262.736 120.5,265.5C 122.008,267.507 123.842,269.174 126,270.5C 126.495,272.473 126.662,274.473 126.5,276.5 Z"/></g>
<g><path style="opacity:1" fill="#fef7fe" d="M 144.5,255.5 C 140.971,261.224 137.971,267.224 135.5,273.5C 134.599,274.29 133.932,275.29 133.5,276.5C 132.5,276.5 131.5,276.5 130.5,276.5C 132.928,268.971 135.928,261.638 139.5,254.5C 140.333,254.167 141.167,253.833 142,253.5C 143.376,253.684 144.209,254.351 144.5,255.5 Z"/></g>
<g><path style="opacity:0.122" fill="#c5caf4" d="M 240.5,243.5 C 241.461,245.265 241.795,247.265 241.5,249.5C 240.761,249.369 240.094,249.536 239.5,250C 240.557,254.447 241.557,258.947 242.5,263.5C 242.071,266.029 241.404,268.362 240.5,270.5C 240.724,263.249 240.058,256.082 238.5,249C 238.921,247.011 239.588,245.177 240.5,243.5 Z"/></g>
<g><path style="opacity:1" fill="#fdf5fe" d="M 160.5,266.5 C 156.879,269.783 153.213,273.116 149.5,276.5C 148.369,274.926 148.202,273.259 149,271.5C 151.018,269.65 152.851,267.65 154.5,265.5C 152.144,262.814 149.811,260.147 147.5,257.5C 147.238,256.022 147.571,254.689 148.5,253.5C 152.522,257.854 156.522,262.187 160.5,266.5 Z"/></g>
<g><path style="opacity:0.999" fill="#927de1" d="M 239.5,233.5 C 241.788,237.456 244.788,240.789 248.5,243.5C 247.289,249.705 247.456,256.038 249,262.5C 251.955,267.287 255.455,271.62 259.5,275.5C 257.856,275.714 256.356,275.38 255,274.5C 255.019,276.107 255.185,277.774 255.5,279.5C 250.167,279.5 244.833,279.5 239.5,279.5C 239.5,279.167 239.5,278.833 239.5,278.5C 239.5,278.167 239.5,277.833 239.5,277.5C 239.5,277.167 239.5,276.833 239.5,276.5C 239.5,276.167 239.5,275.833 239.5,275.5C 242.228,273.773 244.228,271.44 245.5,268.5C 243.688,262.254 242.355,255.921 241.5,249.5C 241.795,247.265 241.461,245.265 240.5,243.5C 240.384,240.14 240.051,236.807 239.5,233.5 Z"/></g>
<g><path style="opacity:1" fill="#aa96ee" d="M 248.5,243.5 C 258.289,259.474 272.289,269.308 290.5,273C 282.927,270.059 276.261,265.893 270.5,260.5C 287.342,260.17 304.008,260.503 320.5,261.5C 320.326,263.861 319.993,266.194 319.5,268.5C 310.968,275.264 301.301,279.597 290.5,281.5C 284.167,281.5 277.833,281.5 271.5,281.5C 267.255,279.904 263.255,277.904 259.5,275.5C 255.455,271.62 251.955,267.287 249,262.5C 247.456,256.038 247.289,249.705 248.5,243.5 Z"/></g>
<g><path style="opacity:1" fill="#66c7fc" d="M 324.5,246.5 C 323.572,255.715 322.239,264.881 320.5,274C 321.176,278.192 322.842,282.026 325.5,285.5C 325.376,286.107 325.043,286.44 324.5,286.5C 323.602,284.095 322.102,282.095 320,280.5C 318.991,278.975 318.491,277.308 318.5,275.5C 318.448,273.097 318.781,270.764 319.5,268.5C 319.993,266.194 320.326,263.861 320.5,261.5C 321.833,256.5 323.167,251.5 324.5,246.5 Z"/></g>
<g><path style="opacity:1" fill="#e563f0" d="M 144.5,255.5 C 145.778,255.782 146.778,256.449 147.5,257.5C 149.811,260.147 152.144,262.814 154.5,265.5C 152.851,267.65 151.018,269.65 149,271.5C 148.202,273.259 148.369,274.926 149.5,276.5C 153.213,273.116 156.879,269.783 160.5,266.5C 163.625,265.521 166.958,265.187 170.5,265.5C 170.5,270.167 170.5,274.833 170.5,279.5C 170.167,279.5 169.833,279.5 169.5,279.5C 162.576,277.537 155.243,276.87 147.5,277.5C 147.5,276.167 147.5,274.833 147.5,273.5C 143.5,273.5 139.5,273.5 135.5,273.5C 137.971,267.224 140.971,261.224 144.5,255.5 Z"/></g>
<g><path style="opacity:1" fill="#8877dc" d="M 319.5,268.5 C 318.781,270.764 318.448,273.097 318.5,275.5C 309.175,281.994 298.842,284.494 287.5,283C 288.737,282.768 289.737,282.268 290.5,281.5C 301.301,279.597 310.968,275.264 319.5,268.5 Z"/></g>
<g><path style="opacity:1" fill="#e354ea" d="M 104.5,260.5 C 104.833,260.5 105.167,260.5 105.5,260.5C 105.804,261.15 106.137,261.817 106.5,262.5C 109.642,263.167 112.642,263.834 115.5,264.5C 115.389,265.117 115.056,265.617 114.5,266C 118.344,269.743 122.344,273.243 126.5,276.5C 128.815,276.816 131.149,276.816 133.5,276.5C 133.932,275.29 134.599,274.29 135.5,273.5C 139.5,273.5 143.5,273.5 147.5,273.5C 147.5,274.833 147.5,276.167 147.5,277.5C 155.243,276.87 162.576,277.537 169.5,279.5C 163.158,279.334 156.825,279.5 150.5,280C 147.211,281.41 145.544,283.91 145.5,287.5C 151.833,287.5 158.167,287.5 164.5,287.5C 158.021,288.491 151.354,288.824 144.5,288.5C 132.399,288.959 120.399,288.459 108.5,287C 107.107,285.829 106.273,284.329 106,282.5C 105.583,275.154 105.083,267.821 104.5,260.5 Z"/></g>
<g><path style="opacity:1" fill="#8781c8" d="M 171.5,260.5 C 171.183,264.702 171.517,268.702 172.5,272.5C 171.377,274.518 171.377,276.518 172.5,278.5C 185.522,279.033 198.522,279.367 211.5,279.5C 219.84,279.666 228.173,279.5 236.5,279C 237.229,276.942 238.229,275.109 239.5,273.5C 239.5,274.167 239.5,274.833 239.5,275.5C 239.5,275.833 239.5,276.167 239.5,276.5C 238.167,276.833 238.167,277.167 239.5,277.5C 239.5,277.833 239.5,278.167 239.5,278.5C 216.655,280.827 193.655,281.16 170.5,279.5C 170.5,274.833 170.5,270.167 170.5,265.5C 170.216,263.585 170.549,261.919 171.5,260.5 Z"/></g>
<g><path style="opacity:1" fill="#084f8a" d="M 395.5,278.5 C 398.621,278.736 400.954,280.069 402.5,282.5C 401.609,283.11 400.609,283.443 399.5,283.5C 397.956,283.703 396.622,284.37 395.5,285.5C 392.876,283.087 392.876,280.753 395.5,278.5 Z"/></g>
<g><path style="opacity:1" fill="#a28fee" d="M 318.5,275.5 C 318.491,277.308 318.991,278.975 320,280.5C 322.102,282.095 323.602,284.095 324.5,286.5C 323.833,287.167 323.167,287.833 322.5,288.5C 317.169,290.107 311.502,291.94 305.5,294C 300.972,294.472 296.639,295.472 292.5,297C 295.833,297.333 299.167,297.667 302.5,298C 303.376,299.585 304.709,300.585 306.5,301C 312.754,301.892 318.754,301.392 324.5,299.5C 325.167,299.833 325.833,300.167 326.5,300.5C 327.139,301.097 327.472,301.93 327.5,303C 327.007,305.819 325.84,308.319 324,310.5C 323.505,312.473 323.338,314.473 323.5,316.5C 323.167,316.5 322.833,316.5 322.5,316.5C 322.631,315.761 322.464,315.094 322,314.5C 319.228,316.761 316.062,318.261 312.5,319C 296.187,322.138 279.854,322.305 263.5,319.5C 263.5,318.5 263.5,317.5 263.5,316.5C 281.964,318.404 300.297,317.571 318.5,314C 301.182,314.507 283.849,314.507 266.5,314C 264.679,311.544 264.012,308.711 264.5,305.5C 268.555,305.824 272.555,305.491 276.5,304.5C 272.836,301.665 268.836,299.332 264.5,297.5C 264.5,293.833 264.5,290.167 264.5,286.5C 277.008,289.925 289.675,290.425 302.5,288C 307.518,286.773 312.185,284.773 316.5,282C 317.696,281.346 317.696,280.846 316.5,280.5C 304.049,286.551 291.049,288.051 277.5,285C 275.273,284.059 273.273,282.892 271.5,281.5C 277.833,281.5 284.167,281.5 290.5,281.5C 289.737,282.268 288.737,282.768 287.5,283C 298.842,284.494 309.175,281.994 318.5,275.5 Z"/></g>
<g><path style="opacity:1" fill="#b827d9" d="M 169.5,279.5 C 169.833,279.5 170.167,279.5 170.5,279.5C 170.88,284.11 168.88,286.776 164.5,287.5C 158.167,287.5 151.833,287.5 145.5,287.5C 145.544,283.91 147.211,281.41 150.5,280C 156.825,279.5 163.158,279.334 169.5,279.5 Z"/></g>
<g><path style="opacity:1" fill="#17adda" d="M 395.5,278.5 C 392.876,280.753 392.876,283.087 395.5,285.5C 396.622,284.37 397.956,283.703 399.5,283.5C 399.318,285.591 399.652,287.591 400.5,289.5C 399.653,290.845 398.487,291.845 397,292.5C 396.506,294.134 396.34,295.801 396.5,297.5C 397.5,297.5 398.5,297.5 399.5,297.5C 398.969,300.237 398.136,302.904 397,305.5C 396.259,306.641 395.425,306.641 394.5,305.5C 393.478,305.855 392.811,306.522 392.5,307.5C 390.833,307.5 389.167,307.5 387.5,307.5C 387.5,306.5 387.5,305.5 387.5,304.5C 390.406,301.15 391.406,297.483 390.5,293.5C 390.845,290.512 389.512,289.179 386.5,289.5C 383.3,289.698 381.3,291.365 380.5,294.5C 377.354,294.118 374.354,294.118 371.5,294.5C 371.892,292.821 372.392,291.154 373,289.5C 373.85,288.576 374.85,288.576 376,289.5C 377.221,288.728 378.221,287.728 379,286.5C 377.799,283.435 378.632,280.935 381.5,279C 384.786,278.841 387.953,278.008 391,276.5C 392.728,276.899 394.228,277.566 395.5,278.5 Z"/></g>
<g><path style="opacity:1" fill="#8470da" d="M 259.5,275.5 C 263.255,277.904 267.255,279.904 271.5,281.5C 273.273,282.892 275.273,284.059 277.5,285C 291.049,288.051 304.049,286.551 316.5,280.5C 317.696,280.846 317.696,281.346 316.5,282C 312.185,284.773 307.518,286.773 302.5,288C 289.675,290.425 277.008,289.925 264.5,286.5C 264.5,290.167 264.5,293.833 264.5,297.5C 263.674,293.018 263.174,288.351 263,283.5C 261.117,280.976 258.617,279.642 255.5,279.5C 255.185,277.774 255.019,276.107 255,274.5C 256.356,275.38 257.856,275.714 259.5,275.5 Z"/></g>
<g><path style="opacity:1" fill="#7345ac" d="M 447.5,280.5 C 451.935,280.752 453.268,282.919 451.5,287C 445.738,287.418 444.404,285.251 447.5,280.5 Z"/></g>
<g><path style="opacity:1" fill="#5564bf" d="M 239.5,278.5 C 239.5,278.833 239.5,279.167 239.5,279.5C 241.015,284.035 242.682,288.535 244.5,293C 243.223,297.048 241.557,300.882 239.5,304.5C 238.957,304.56 238.624,304.893 238.5,305.5C 239.193,306.518 239.859,307.518 240.5,308.5C 234.196,307.587 227.863,306.92 221.5,306.5C 220.5,306.5 219.5,306.5 218.5,306.5C 211.395,305.238 204.395,303.571 197.5,301.5C 191.5,301.5 185.5,301.5 179.5,301.5C 176.833,300.833 174.167,300.167 171.5,299.5C 164.457,299.078 157.457,298.245 150.5,297C 149.333,295.833 148.167,294.667 147,293.5C 146.828,299.681 146.328,305.681 145.5,311.5C 145.111,303.836 144.778,296.17 144.5,288.5C 151.354,288.824 158.021,288.491 164.5,287.5C 168.88,286.776 170.88,284.11 170.5,279.5C 193.655,281.16 216.655,280.827 239.5,278.5 Z"/></g>
<g><path style="opacity:1" fill="#7c6bd7" d="M 322.5,288.5 C 322.5,288.833 322.5,289.167 322.5,289.5C 321.305,289.866 320.639,290.699 320.5,292C 321.644,294.633 322.977,297.133 324.5,299.5C 318.754,301.392 312.754,301.892 306.5,301C 304.709,300.585 303.376,299.585 302.5,298C 299.167,297.667 295.833,297.333 292.5,297C 296.639,295.472 300.972,294.472 305.5,294C 311.502,291.94 317.169,290.107 322.5,288.5 Z"/></g>
<g><path style="opacity:1" fill="#484bb7" d="M 239.5,279.5 C 244.833,279.5 250.167,279.5 255.5,279.5C 258.617,279.642 261.117,280.976 263,283.5C 263.174,288.351 263.674,293.018 264.5,297.5C 264.802,300.059 264.468,302.393 263.5,304.5C 256.561,303.091 249.561,302.591 242.5,303C 243.559,307.051 242.559,307.551 239.5,304.5C 241.557,300.882 243.223,297.048 244.5,293C 242.682,288.535 241.015,284.035 239.5,279.5 Z"/></g>
<g><path style="opacity:1" fill="#54c2fa" d="M 322.5,289.5 C 323.001,293.495 324.334,297.162 326.5,300.5C 325.833,300.167 325.167,299.833 324.5,299.5C 322.977,297.133 321.644,294.633 320.5,292C 320.639,290.699 321.305,289.866 322.5,289.5 Z"/></g>
<g><path style="opacity:1" fill="#1265b2" d="M 390.5,293.5 C 387.79,296.6 386.457,300.267 386.5,304.5C 385.068,306.647 383.235,306.98 381,305.5C 379.253,301.875 379.086,298.208 380.5,294.5C 381.3,291.365 383.3,289.698 386.5,289.5C 389.512,289.179 390.845,290.512 390.5,293.5 Z"/></g>
<g><path style="opacity:1" fill="#cee8f8" d="M 390.5,293.5 C 391.406,297.483 390.406,301.15 387.5,304.5C 387.167,304.5 386.833,304.5 386.5,304.5C 386.457,300.267 387.79,296.6 390.5,293.5 Z"/></g>
<g><path style="opacity:1" fill="#f48af2" d="M 504.5,297.5 C 504.804,298.15 505.137,298.817 505.5,299.5C 479.506,300.667 453.506,300.833 427.5,300C 428.71,298.961 429.71,297.794 430.5,296.5C 454.33,295.337 478.33,295.17 502.5,296C 503.416,296.278 504.082,296.778 504.5,297.5 Z"/></g>
<g><path style="opacity:1" fill="#e3e6f5" d="M 171.5,299.5 C 171.5,298.5 171.5,297.5 171.5,296.5C 188.833,296.5 206.167,296.5 223.5,296.5C 223.5,297.5 223.5,298.5 223.5,299.5C 206.167,299.5 188.833,299.5 171.5,299.5 Z"/></g>
<g><path style="opacity:1" fill="#f682f5" d="M 430.5,296.5 C 429.71,297.794 428.71,298.961 427.5,300C 453.506,300.833 479.506,300.667 505.5,299.5C 505.137,298.817 504.804,298.15 504.5,297.5C 505.833,297.5 506.5,298.167 506.5,299.5C 507.44,307.779 507.773,316.112 507.5,324.5C 502.847,325.001 498.514,324.334 494.5,322.5C 494.5,319.167 494.5,315.833 494.5,312.5C 494.5,309.167 494.5,305.833 494.5,302.5C 475.5,302.5 456.5,302.5 437.5,302.5C 437.5,307.167 437.5,311.833 437.5,316.5C 437.5,319.167 437.5,321.833 437.5,324.5C 433.833,324.5 430.167,324.5 426.5,324.5C 426.768,322.901 426.434,321.568 425.5,320.5C 424.668,314.516 424.501,308.516 425,302.5C 425.715,299.359 427.548,297.359 430.5,296.5 Z"/></g>
<g><path style="opacity:1" fill="#1c98ca" d="M 380.5,294.5 C 379.086,298.208 379.253,301.875 381,305.5C 383.235,306.98 385.068,306.647 386.5,304.5C 386.833,304.5 387.167,304.5 387.5,304.5C 387.5,305.5 387.5,306.5 387.5,307.5C 389.167,307.5 390.833,307.5 392.5,307.5C 391.185,309.135 391.185,310.801 392.5,312.5C 390.909,314.633 388.909,316.299 386.5,317.5C 385.571,316.311 385.238,314.978 385.5,313.5C 382.113,313.862 380.447,315.862 380.5,319.5C 378.883,318.962 377.216,318.629 375.5,318.5C 375.286,316.856 375.62,315.356 376.5,314C 372.227,314.176 370.227,312.176 370.5,308C 372.369,304.877 373.369,301.377 373.5,297.5C 370.752,297.598 370.086,296.598 371.5,294.5C 374.354,294.118 377.354,294.118 380.5,294.5 Z"/></g>
<g><path style="opacity:1" fill="#1666b5" d="M 402.5,282.5 C 402.821,284.048 403.821,284.715 405.5,284.5C 406.93,286.744 407.93,289.244 408.5,292C 403.717,294.81 403.384,297.976 407.5,301.5C 406.568,303.795 405.735,306.129 405,308.5C 403.333,309.167 401.667,309.833 400,310.5C 400.07,317.271 396.904,320.271 390.5,319.5C 387.247,321.87 383.914,321.87 380.5,319.5C 380.447,315.862 382.113,313.862 385.5,313.5C 385.238,314.978 385.571,316.311 386.5,317.5C 388.909,316.299 390.909,314.633 392.5,312.5C 391.185,310.801 391.185,309.135 392.5,307.5C 392.811,306.522 393.478,305.855 394.5,305.5C 395.425,306.641 396.259,306.641 397,305.5C 398.136,302.904 398.969,300.237 399.5,297.5C 398.5,297.5 397.5,297.5 396.5,297.5C 396.34,295.801 396.506,294.134 397,292.5C 398.487,291.845 399.653,290.845 400.5,289.5C 399.652,287.591 399.318,285.591 399.5,283.5C 400.609,283.443 401.609,283.11 402.5,282.5 Z"/></g>
<g><path style="opacity:1" fill="#cc6ef3" d="M 494.5,312.5 C 484.5,312.5 474.5,312.5 464.5,312.5C 463.348,311.375 462.348,311.375 461.5,312.5C 453.833,312.5 446.167,312.5 438.5,312.5C 438.768,314.099 438.434,315.432 437.5,316.5C 437.5,311.833 437.5,307.167 437.5,302.5C 456.5,302.5 475.5,302.5 494.5,302.5C 494.5,305.833 494.5,309.167 494.5,312.5 Z"/></g>
<g><path style="opacity:1" fill="#5475d0" d="M 171.5,299.5 C 174.167,300.167 176.833,300.833 179.5,301.5C 176.833,301.5 174.167,301.5 171.5,301.5C 171.5,302.5 171.5,303.5 171.5,304.5C 180.167,304.5 188.833,304.5 197.5,304.5C 197.5,303.5 197.5,302.5 197.5,301.5C 204.395,303.571 211.395,305.238 218.5,306.5C 212.463,306.171 206.463,306.504 200.5,307.5C 204,307.833 207.5,308.167 211,308.5C 214.902,308.488 218.402,307.821 221.5,306.5C 227.863,306.92 234.196,307.587 240.5,308.5C 242.131,313.308 240.964,317.308 237,320.5C 237.066,324.414 235.9,328.08 233.5,331.5C 232.666,330.252 231.333,329.585 229.5,329.5C 222.833,328.667 216.167,327.833 209.5,327C 208.934,326.005 208.267,325.172 207.5,324.5C 200.5,324.5 193.5,324.5 186.5,324.5C 182.833,323.833 179.167,323.167 175.5,322.5C 189.849,322.833 204.182,322.499 218.5,321.5C 202.848,320.501 187.181,320.167 171.5,320.5C 184.994,319.669 198.661,319.169 212.5,319C 203.82,317.832 195.153,316.665 186.5,315.5C 181.5,315.5 176.5,315.5 171.5,315.5C 170.127,315.343 168.793,315.51 167.5,316C 169.901,316.805 169.734,317.638 167,318.5C 160.412,317.17 153.578,315.837 146.5,314.5C 146.5,323.833 146.5,333.167 146.5,342.5C 145.506,332.347 145.172,322.014 145.5,311.5C 146.328,305.681 146.828,299.681 147,293.5C 148.167,294.667 149.333,295.833 150.5,297C 157.457,298.245 164.457,299.078 171.5,299.5 Z"/></g>
<g><path style="opacity:1" fill="#e0e6f6" d="M 171.5,311.5 C 185.516,311.167 199.516,311.501 213.5,312.5C 206.5,312.833 199.5,313.167 192.5,313.5C 185.133,313.497 178.133,312.83 171.5,311.5 Z"/></g>
<g><path style="opacity:1" fill="#fcfcfe" d="M 218.5,306.5 C 219.5,306.5 220.5,306.5 221.5,306.5C 218.402,307.821 214.902,308.488 211,308.5C 207.5,308.167 204,307.833 200.5,307.5C 206.463,306.504 212.463,306.171 218.5,306.5 Z"/></g>
<g><path style="opacity:1" fill="#fdfdfe" d="M 171.5,306.5 C 180.192,306.169 188.859,306.502 197.5,307.5C 193.167,307.833 188.833,308.167 184.5,308.5C 179.778,308.492 175.445,307.825 171.5,306.5 Z"/></g>
<g><path style="opacity:1" fill="#d5dbf2" d="M 179.5,301.5 C 185.5,301.5 191.5,301.5 197.5,301.5C 197.5,302.5 197.5,303.5 197.5,304.5C 188.833,304.5 180.167,304.5 171.5,304.5C 171.5,303.5 171.5,302.5 171.5,301.5C 174.167,301.5 176.833,301.5 179.5,301.5 Z"/></g>
<g><path style="opacity:1" fill="#7f6cd9" d="M 264.5,297.5 C 268.836,299.332 272.836,301.665 276.5,304.5C 272.555,305.491 268.555,305.824 264.5,305.5C 264.012,308.711 264.679,311.544 266.5,314C 283.849,314.507 301.182,314.507 318.5,314C 300.297,317.571 281.964,318.404 263.5,316.5C 263.5,312.5 263.5,308.5 263.5,304.5C 264.468,302.393 264.802,300.059 264.5,297.5 Z"/></g>
<g><path style="opacity:1" fill="#774cb0" d="M 111.5,313.5 C 113.288,313.215 114.955,313.548 116.5,314.5C 117.553,317.953 116.219,319.453 112.5,319C 110.17,317.512 109.836,315.679 111.5,313.5 Z"/></g>
<g><path style="opacity:0.892" fill="#ca5bd1" d="M 506.5,299.5 C 507.79,300.058 508.623,301.058 509,302.5C 508.896,316.823 508.563,331.156 508,345.5C 507.963,347.974 507.13,349.974 505.5,351.5C 506.15,349.565 506.483,347.565 506.5,345.5C 507.386,338.543 507.72,331.543 507.5,324.5C 507.773,316.112 507.44,307.779 506.5,299.5 Z"/></g>
<g><path style="opacity:1" fill="#f6f8fd" d="M 171.5,320.5 C 187.181,320.167 202.848,320.501 218.5,321.5C 204.182,322.499 189.849,322.833 175.5,322.5C 173.517,322.843 172.183,322.176 171.5,320.5 Z"/></g>
<g><path style="opacity:1" fill="#7966d5" d="M 322.5,316.5 C 321.025,318.41 319.025,319.576 316.5,320C 299.036,324.439 281.369,325.606 263.5,323.5C 263.5,322.167 263.5,320.833 263.5,319.5C 279.854,322.305 296.187,322.138 312.5,319C 316.062,318.261 319.228,316.761 322,314.5C 322.464,315.094 322.631,315.761 322.5,316.5 Z"/></g>
<g><path style="opacity:0.999" fill="#c55cee" d="M 461.5,312.5 C 461.173,317.214 461.507,321.88 462.5,326.5C 466.881,324.316 470.881,321.65 474.5,318.5C 471.103,316.474 467.77,314.474 464.5,312.5C 474.5,312.5 484.5,312.5 494.5,312.5C 494.5,315.833 494.5,319.167 494.5,322.5C 494.5,327.167 494.5,331.833 494.5,336.5C 475.5,336.5 456.5,336.5 437.5,336.5C 437.5,332.5 437.5,328.5 437.5,324.5C 437.5,321.833 437.5,319.167 437.5,316.5C 438.434,315.432 438.768,314.099 438.5,312.5C 446.167,312.5 453.833,312.5 461.5,312.5 Z"/></g>
<g><path style="opacity:1" fill="#3351c2" d="M 263.5,304.5 C 263.5,308.5 263.5,312.5 263.5,316.5C 263.5,317.5 263.5,318.5 263.5,319.5C 263.5,320.833 263.5,322.167 263.5,323.5C 262.509,330.313 262.175,337.313 262.5,344.5C 262.822,350.358 262.489,356.025 261.5,361.5C 261.5,361.167 261.5,360.833 261.5,360.5C 261.5,355.5 261.5,350.5 261.5,345.5C 257.951,345.561 254.618,344.727 251.5,343C 247.577,342.207 243.744,342.374 240,343.5C 238.215,342.76 236.382,342.093 234.5,341.5C 233.808,342.025 233.308,342.692 233,343.5C 232.292,342.619 231.458,341.953 230.5,341.5C 231.492,338.177 232.492,334.844 233.5,331.5C 235.9,328.08 237.066,324.414 237,320.5C 240.964,317.308 242.131,313.308 240.5,308.5C 239.859,307.518 239.193,306.518 238.5,305.5C 238.624,304.893 238.957,304.56 239.5,304.5C 242.559,307.551 243.559,307.051 242.5,303C 249.561,302.591 256.561,303.091 263.5,304.5 Z"/></g>
<g><path style="opacity:1" fill="#6138a0" d="M 328.5,324.5 C 329.597,327.686 330.93,330.686 332.5,333.5C 333.167,336.167 333.833,338.833 334.5,341.5C 334.631,342.376 334.298,343.043 333.5,343.5C 331.821,342.218 329.987,341.218 328,340.5C 325.904,341.715 326.071,342.549 328.5,343C 328,343.167 327.5,343.333 327,343.5C 318.502,338.278 311.835,339.945 307,348.5C 305.092,351.206 304.259,354.206 304.5,357.5C 301.803,353.117 299.97,348.45 299,343.5C 306.848,333.998 316.682,327.665 328.5,324.5 Z"/></g>
<g><path style="opacity:1" fill="#4b7ddd" d="M 171.5,315.5 C 173.571,316.809 176.071,317.475 179,317.5C 181.929,317.475 184.429,316.809 186.5,315.5C 195.153,316.665 203.82,317.832 212.5,319C 198.661,319.169 184.994,319.669 171.5,320.5C 172.183,322.176 173.517,322.843 175.5,322.5C 179.167,323.167 182.833,323.833 186.5,324.5C 181.456,324.173 176.456,324.506 171.5,325.5C 177.5,325.833 183.5,326.167 189.5,326.5C 195.872,326.496 201.872,325.829 207.5,324.5C 208.267,325.172 208.934,326.005 209.5,327C 216.167,327.833 222.833,328.667 229.5,329.5C 231.333,329.585 232.666,330.252 233.5,331.5C 232.492,334.844 231.492,338.177 230.5,341.5C 229.833,342.5 229.167,343.5 228.5,344.5C 224.409,343.105 220.076,342.438 215.5,342.5C 206.833,342.5 198.167,342.5 189.5,342.5C 189.167,342.5 188.833,342.5 188.5,342.5C 182.402,341.883 176.735,342.55 171.5,344.5C 171.5,344.833 171.5,345.167 171.5,345.5C 164.677,344.126 157.844,342.793 151,341.5C 150.311,342.357 149.478,343.023 148.5,343.5C 147.505,349.128 147.171,354.794 147.5,360.5C 147.5,364.167 147.5,367.833 147.5,371.5C 146.506,362.014 146.173,352.348 146.5,342.5C 146.5,333.167 146.5,323.833 146.5,314.5C 153.578,315.837 160.412,317.17 167,318.5C 169.734,317.638 169.901,316.805 167.5,316C 168.793,315.51 170.127,315.343 171.5,315.5 Z"/></g>
<g><path style="opacity:1" fill="#edf2fb" d="M 189.5,329.5 C 198.192,329.169 206.859,329.502 215.5,330.5C 211.167,330.833 206.833,331.167 202.5,331.5C 197.778,331.492 193.445,330.825 189.5,329.5 Z"/></g>
<g><path style="opacity:1" fill="#edf2fb" d="M 171.5,329.5 C 177.206,329.171 182.872,329.505 188.5,330.5C 185.667,330.833 182.833,331.167 180,331.5C 176.748,331.481 173.915,330.814 171.5,329.5 Z"/></g>
<g><path style="opacity:1" fill="#f5f7fc" d="M 186.5,324.5 C 193.5,324.5 200.5,324.5 207.5,324.5C 201.872,325.829 195.872,326.496 189.5,326.5C 183.5,326.167 177.5,325.833 171.5,325.5C 176.456,324.506 181.456,324.173 186.5,324.5 Z"/></g>
<g><path style="opacity:1" fill="#fcfdfe" d="M 171.5,315.5 C 176.5,315.5 181.5,315.5 186.5,315.5C 184.429,316.809 181.929,317.475 179,317.5C 176.071,317.475 173.571,316.809 171.5,315.5 Z"/></g>
<g><path style="opacity:1" fill="#dfe8f9" d="M 171.5,333.5 C 180.167,333.5 188.833,333.5 197.5,333.5C 197.5,334.5 197.5,335.5 197.5,336.5C 188.833,336.5 180.167,336.5 171.5,336.5C 171.5,335.5 171.5,334.5 171.5,333.5 Z"/></g>
<g><path style="opacity:1" fill="#40238b" d="M 322.5,316.5 C 322.833,316.5 323.167,316.5 323.5,316.5C 324.765,317.479 326.099,318.479 327.5,319.5C 328.452,321.045 328.785,322.712 328.5,324.5C 316.682,327.665 306.848,333.998 299,343.5C 299.97,348.45 301.803,353.117 304.5,357.5C 306.112,361.058 307.445,364.725 308.5,368.5C 308.512,372.446 306.512,374.113 302.5,373.5C 302.509,371.692 302.009,370.025 301,368.5C 300.82,370.488 300.986,372.488 301.5,374.5C 300.167,374.5 298.833,374.5 297.5,374.5C 294.272,364.644 291.105,354.644 288,344.5C 287,343.833 286,343.167 285,342.5C 283.301,343.406 281.467,343.739 279.5,343.5C 277.039,354.217 274.372,364.884 271.5,375.5C 269.845,374.07 267.845,373.236 265.5,373C 267.484,368.562 268.984,364.062 270,359.5C 267.959,360.423 265.792,360.756 263.5,360.5C 263.576,356.436 264.576,352.603 266.5,349C 265.685,347.02 264.352,345.52 262.5,344.5C 262.175,337.313 262.509,330.313 263.5,323.5C 281.369,325.606 299.036,324.439 316.5,320C 319.025,319.576 321.025,318.41 322.5,316.5 Z"/></g>
<g><path style="opacity:1" fill="#ea60ee" d="M 425.5,320.5 C 426.434,321.568 426.768,322.901 426.5,324.5C 430.167,324.5 433.833,324.5 437.5,324.5C 437.5,328.5 437.5,332.5 437.5,336.5C 456.5,336.5 475.5,336.5 494.5,336.5C 494.5,331.833 494.5,327.167 494.5,322.5C 498.514,324.334 502.847,325.001 507.5,324.5C 507.72,331.543 507.386,338.543 506.5,345.5C 502.833,345.5 499.167,345.5 495.5,345.5C 495.737,344.209 495.404,343.209 494.5,342.5C 480.5,342.5 466.5,342.5 452.5,342.5C 447.833,342.5 443.167,342.5 438.5,342.5C 438.5,343.5 438.5,344.5 438.5,345.5C 443.167,345.5 447.833,345.5 452.5,345.5C 444.001,346.367 435.334,346.367 426.5,345.5C 425.56,337.221 425.227,328.888 425.5,320.5 Z M 452.5,342.5 C 452.5,343.5 452.5,344.5 452.5,345.5C 447.833,345.5 443.167,345.5 438.5,345.5C 438.5,344.5 438.5,343.5 438.5,342.5C 443.167,342.5 447.833,342.5 452.5,342.5 Z"/></g>
<g><path style="opacity:0.547" fill="#b6a4cc" d="M 124.5,333.5 C 125.376,333.369 126.043,333.702 126.5,334.5C 124.774,336.228 123.441,338.228 122.5,340.5C 124.624,342.121 126.624,343.954 128.5,346C 125.38,346.359 122.88,345.192 121,342.5C 119.122,344.043 117.622,345.876 116.5,348C 115.833,348.667 115.167,348.667 114.5,348C 115.848,345.99 117.182,343.99 118.5,342C 116.898,340.178 115.231,338.345 113.5,336.5C 116.124,335.884 118.291,336.884 120,339.5C 121.752,337.649 123.252,335.649 124.5,333.5 Z"/></g>
<g><path style="opacity:1" fill="#d1dff8" d="M 171.5,337.5 C 174.167,337.5 176.833,337.5 179.5,337.5C 179.5,338.5 179.5,339.5 179.5,340.5C 176.833,340.5 174.167,340.5 171.5,340.5C 171.5,339.5 171.5,338.5 171.5,337.5 Z"/></g>
<g><path style="opacity:1" fill="#d6e2f8" d="M 182.5,337.5 C 191.5,337.5 200.5,337.5 209.5,337.5C 209.5,338.5 209.5,339.5 209.5,340.5C 200.5,340.5 191.5,340.5 182.5,340.5C 182.5,339.5 182.5,338.5 182.5,337.5 Z"/></g>
<g><path style="opacity:0.997" fill="#6873fb" d="M 80.5,340.5 C 86.0788,341.524 87.9121,344.524 86,349.5C 81.6142,347.696 79.7809,344.696 80.5,340.5 Z"/></g>
<g><path style="opacity:1" fill="#be49e9" d="M 452.5,342.5 C 466.5,342.5 480.5,342.5 494.5,342.5C 494.5,343.5 494.5,344.5 494.5,345.5C 480.5,345.5 466.5,345.5 452.5,345.5C 452.5,344.5 452.5,343.5 452.5,342.5 Z"/></g>
<g><path style="opacity:1" fill="#6745aa" d="M 334.5,341.5 C 337.402,348.205 339.735,355.205 341.5,362.5C 340.395,364.153 340.229,365.82 341,367.5C 339.692,365.359 338.192,363.359 336.5,361.5C 331.553,358.091 326.387,354.758 321,351.5C 319.601,352.227 318.101,352.727 316.5,353C 317.167,353.333 317.833,353.667 318.5,354C 317.167,354.333 315.833,354.667 314.5,355C 314.833,355.333 315.167,355.667 315.5,356C 312.626,360.213 310.626,364.713 309.5,369.5C 309.5,368.833 309.167,368.5 308.5,368.5C 307.445,364.725 306.112,361.058 304.5,357.5C 304.259,354.206 305.092,351.206 307,348.5C 311.835,339.945 318.502,338.278 327,343.5C 327.5,343.333 328,343.167 328.5,343C 326.071,342.549 325.904,341.715 328,340.5C 329.987,341.218 331.821,342.218 333.5,343.5C 334.298,343.043 334.631,342.376 334.5,341.5 Z"/></g>
<g><path style="opacity:1" fill="#e14de8" d="M 494.5,342.5 C 495.404,343.209 495.737,344.209 495.5,345.5C 499.167,345.5 502.833,345.5 506.5,345.5C 506.483,347.565 506.15,349.565 505.5,351.5C 505.063,353.074 504.063,354.241 502.5,355C 478.833,355.667 455.167,355.667 431.5,355C 427.848,352.855 426.182,349.689 426.5,345.5C 435.334,346.367 444.001,346.367 452.5,345.5C 466.5,345.5 480.5,345.5 494.5,345.5C 494.5,344.5 494.5,343.5 494.5,342.5 Z"/></g>
<g><path style="opacity:1" fill="#285fd4" d="M 230.5,341.5 C 231.458,341.953 232.292,342.619 233,343.5C 233.308,342.692 233.808,342.025 234.5,341.5C 236.382,342.093 238.215,342.76 240,343.5C 243.744,342.374 247.577,342.207 251.5,343C 254.618,344.727 257.951,345.561 261.5,345.5C 261.5,350.5 261.5,355.5 261.5,360.5C 259.797,361.66 259.131,360.993 259.5,358.5C 254.015,356.792 248.349,355.458 242.5,354.5C 239.352,354.785 236.352,355.285 233.5,356C 234.711,356.893 234.711,357.726 233.5,358.5C 230.916,357.607 228.249,357.274 225.5,357.5C 226.293,353.12 227.293,348.786 228.5,344.5C 229.167,343.5 229.833,342.5 230.5,341.5 Z"/></g>
<g><path style="opacity:1" fill="#3fb7f7" d="M 332.5,333.5 C 334.5,337.167 336.5,340.833 338.5,344.5C 345.342,361.871 349.676,379.871 351.5,398.5C 350.04,393.866 348.707,389.199 347.5,384.5C 346.483,376.798 344.483,369.465 341.5,362.5C 339.735,355.205 337.402,348.205 334.5,341.5C 333.833,338.833 333.167,336.167 332.5,333.5 Z"/></g>
<g><path style="opacity:1" fill="#4d2edd" d="M 412.5,348.5 C 414.912,348.244 416.579,349.244 417.5,351.5C 414.737,353.629 411.904,355.629 409,357.5C 406.955,356.362 406.288,354.695 407,352.5C 409.015,351.303 410.849,349.97 412.5,348.5 Z"/></g>
<g><path style="opacity:1" fill="#3f8aee" d="M 171.5,345.5 C 174.187,345.336 176.854,345.503 179.5,346C 176.635,346.183 173.969,346.683 171.5,347.5C 175.445,348.825 179.778,349.492 184.5,349.5C 189.222,349.492 193.555,348.825 197.5,347.5C 197.082,346.778 196.416,346.278 195.5,346C 202.346,345.828 209.013,345.328 215.5,344.5C 215.5,343.833 215.5,343.167 215.5,342.5C 220.076,342.438 224.409,343.105 228.5,344.5C 227.293,348.786 226.293,353.12 225.5,357.5C 224.036,361.534 222.702,365.534 221.5,369.5C 203.104,366.555 185.271,364.221 168,362.5C 165.667,361.833 163.333,361.167 161,360.5C 156.816,360.55 152.316,360.55 147.5,360.5C 147.171,354.794 147.505,349.128 148.5,343.5C 149.478,343.023 150.311,342.357 151,341.5C 157.844,342.793 164.677,344.126 171.5,345.5 Z"/></g>
<g><path style="opacity:1" fill="#fdfefe" d="M 182.5,351.5 C 191.525,351.168 200.525,351.502 209.5,352.5C 205,352.833 200.5,353.167 196,353.5C 191.114,353.493 186.614,352.826 182.5,351.5 Z"/></g>
<g><path style="opacity:1" fill="#f7fafe" d="M 171.5,351.5 C 174.247,351.187 176.914,351.52 179.5,352.5C 178.167,352.833 176.833,353.167 175.5,353.5C 173.667,353.415 172.334,352.748 171.5,351.5 Z"/></g>
<g><path style="opacity:1" fill="#d7e4fa" d="M 171.5,347.5 C 180.167,347.5 188.833,347.5 197.5,347.5C 193.555,348.825 189.222,349.492 184.5,349.5C 179.778,349.492 175.445,348.825 171.5,347.5 Z"/></g>
<g><path style="opacity:1" fill="#73a0ec" d="M 188.5,342.5 C 188.833,342.5 189.167,342.5 189.5,342.5C 197.769,344.47 206.435,345.136 215.5,344.5C 209.013,345.328 202.346,345.828 195.5,346C 196.416,346.278 197.082,346.778 197.5,347.5C 188.833,347.5 180.167,347.5 171.5,347.5C 173.969,346.683 176.635,346.183 179.5,346C 176.854,345.503 174.187,345.336 171.5,345.5C 171.5,345.167 171.5,344.833 171.5,344.5C 177.598,345.117 183.265,344.45 188.5,342.5 Z"/></g>
<g><path style="opacity:1" fill="#fdfdfe" d="M 189.5,342.5 C 198.167,342.5 206.833,342.5 215.5,342.5C 215.5,343.167 215.5,343.833 215.5,344.5C 206.435,345.136 197.769,344.47 189.5,342.5 Z"/></g>
<g><path style="opacity:1" fill="#fdfdfe" d="M 188.5,342.5 C 183.265,344.45 177.598,345.117 171.5,344.5C 176.735,342.55 182.402,341.883 188.5,342.5 Z"/></g>
<g><path style="opacity:1" fill="#6c4fb3" d="M 341.5,362.5 C 344.483,369.465 346.483,376.798 347.5,384.5C 347.892,387.722 347.392,390.722 346,393.5C 343.911,393.402 341.745,392.736 339.5,391.5C 337.817,385.619 335.817,379.786 333.5,374C 330.964,369.963 327.63,366.796 323.5,364.5C 322.5,365 321.5,365.5 320.5,366C 320.833,366.333 321.167,366.667 321.5,367C 320.079,369.861 319.079,372.861 318.5,376C 318.776,380.529 318.776,385.029 318.5,389.5C 317.511,387.414 316.178,385.747 314.5,384.5C 312.679,379.548 311.012,374.548 309.5,369.5C 310.626,364.713 312.626,360.213 315.5,356C 315.167,355.667 314.833,355.333 314.5,355C 315.833,354.667 317.167,354.333 318.5,354C 317.833,353.667 317.167,353.333 316.5,353C 318.101,352.727 319.601,352.227 321,351.5C 326.387,354.758 331.553,358.091 336.5,361.5C 338.192,363.359 339.692,365.359 341,367.5C 340.229,365.82 340.395,364.153 341.5,362.5 Z"/></g>
<g><path style="opacity:0.141" fill="#6c44be" d="M 413.5,358.5 C 414.833,359.167 414.833,359.167 413.5,358.5 Z"/></g>
<g><path style="opacity:1" fill="#3990f7" d="M 221.5,369.5 C 221.007,371.806 220.674,374.139 220.5,376.5C 197.833,376.5 175.167,376.5 152.5,376.5C 149.5,376.167 147.833,374.5 147.5,371.5C 147.5,367.833 147.5,364.167 147.5,360.5C 152.316,360.55 156.816,360.55 161,360.5C 163.333,361.167 165.667,361.833 168,362.5C 185.271,364.221 203.104,366.555 221.5,369.5 Z"/></g>
<g><path style="opacity:1" fill="#266ae0" d="M 261.5,360.5 C 261.5,360.833 261.5,361.167 261.5,361.5C 262.544,367.315 261.211,372.315 257.5,376.5C 244.883,377.462 232.216,377.795 219.5,377.5C 196.994,377.831 174.66,377.497 152.5,376.5C 175.167,376.5 197.833,376.5 220.5,376.5C 220.674,374.139 221.007,371.806 221.5,369.5C 222.702,365.534 224.036,361.534 225.5,357.5C 228.249,357.274 230.916,357.607 233.5,358.5C 234.711,357.726 234.711,356.893 233.5,356C 236.352,355.285 239.352,354.785 242.5,354.5C 248.349,355.458 254.015,356.792 259.5,358.5C 259.131,360.993 259.797,361.66 261.5,360.5 Z"/></g>
<g><path style="opacity:0.439" fill="#a587ca" d="M 413.5,359.5 C 412.428,362.63 410.594,365.296 408,367.5C 407.333,366.833 407.333,366.167 408,365.5C 409.617,363.237 411.45,361.237 413.5,359.5 Z"/></g>
<g><path style="opacity:1" fill="#6d5abe" d="M 347.5,384.5 C 348.707,389.199 350.04,393.866 351.5,398.5C 352.477,401.287 352.81,404.287 352.5,407.5C 342.5,407.5 332.5,407.5 322.5,407.5C 320.625,399.54 317.958,391.873 314.5,384.5C 316.178,385.747 317.511,387.414 318.5,389.5C 318.776,385.029 318.776,380.529 318.5,376C 319.079,372.861 320.079,369.861 321.5,367C 321.167,366.667 320.833,366.333 320.5,366C 321.5,365.5 322.5,365 323.5,364.5C 327.63,366.796 330.964,369.963 333.5,374C 335.817,379.786 337.817,385.619 339.5,391.5C 341.745,392.736 343.911,393.402 346,393.5C 347.392,390.722 347.892,387.722 347.5,384.5 Z"/></g>
<g><path style="opacity:0.997" fill="#513eb1" d="M 262.5,344.5 C 264.352,345.52 265.685,347.02 266.5,349C 264.576,352.603 263.576,356.436 263.5,360.5C 265.792,360.756 267.959,360.423 270,359.5C 268.984,364.062 267.484,368.562 265.5,373C 267.845,373.236 269.845,374.07 271.5,375.5C 268.192,386.061 265.192,396.728 262.5,407.5C 258.5,407.5 254.5,407.5 250.5,407.5C 251.806,396.92 254.139,386.586 257.5,376.5C 261.211,372.315 262.544,367.315 261.5,361.5C 262.489,356.025 262.822,350.358 262.5,344.5 Z"/></g>
<g><path style="opacity:0.999" fill="#513fb3" d="M 308.5,368.5 C 309.167,368.5 309.5,368.833 309.5,369.5C 311.012,374.548 312.679,379.548 314.5,384.5C 317.958,391.873 320.625,399.54 322.5,407.5C 316.5,407.5 310.5,407.5 304.5,407.5C 302.039,396.531 299.706,385.531 297.5,374.5C 298.833,374.5 300.167,374.5 301.5,374.5C 300.986,372.488 300.82,370.488 301,368.5C 302.009,370.025 302.509,371.692 302.5,373.5C 306.512,374.113 308.512,372.446 308.5,368.5 Z"/></g>
<g><path style="opacity:1" fill="#6a58be" d="M 257.5,376.5 C 254.139,386.586 251.806,396.92 250.5,407.5C 239.5,407.5 228.5,407.5 217.5,407.5C 217.946,397.484 218.612,387.484 219.5,377.5C 232.216,377.795 244.883,377.462 257.5,376.5 Z"/></g>
</svg>
