<?xml version="1.0" encoding="UTF-8"?>
<!DOCTYPE svg PUBLIC "-//W3C//DTD SVG 1.1//EN" "http://www.w3.org/Graphics/SVG/1.1/DTD/svg11.dtd">
<svg xmlns="http://www.w3.org/2000/svg" version="1.1" width="884px" height="282px" style="shape-rendering:geometricPrecision; text-rendering:geometricPrecision; image-rendering:optimizeQuality; fill-rule:evenodd; clip-rule:evenodd" xmlns:xlink="http://www.w3.org/1999/xlink">
<g><path style="opacity:0.749" fill="#f3ebca" d="M 145.5,55.5 C 143.883,56.038 142.216,56.3713 140.5,56.5C 137.311,56.8583 134.311,57.525 131.5,58.5C 128.518,58.9629 125.518,59.2962 122.5,59.5C 129.034,57.1513 135.868,55.4846 143,54.5C 144.07,54.528 144.903,54.8614 145.5,55.5 Z"/></g>
<g><path style="opacity:1" fill="#e3d286" d="M 140.5,56.5 C 140.333,69.5043 140.5,82.5043 141,95.5C 141.352,97.2475 141.852,98.9142 142.5,100.5C 141.508,100.672 140.842,100.338 140.5,99.5C 140.027,98.0937 139.027,97.427 137.5,97.5C 135.836,94.1337 135.003,90.467 135,86.5C 134.667,89.1667 134.333,91.8333 134,94.5C 133.5,94 133,93.5 132.5,93C 133.653,81.9098 133.82,70.7431 133,59.5C 132.617,58.944 132.117,58.6107 131.5,58.5C 134.311,57.525 137.311,56.8583 140.5,56.5 Z"/></g>
<g><path style="opacity:0.043" fill="#faf8e9" d="M 122.5,59.5 C 122.5,59.8333 122.5,60.1667 122.5,60.5C 120.139,60.6741 117.806,61.0074 115.5,61.5C 114.5,61.5 113.5,61.5 112.5,61.5C 115.589,60.2154 118.922,59.5488 122.5,59.5 Z"/></g>
<g><path style="opacity:1" fill="#eadc8e" d="M 122.5,60.5 C 123.494,69.9856 123.827,79.6522 123.5,89.5C 121.167,89.5 118.833,89.5 116.5,89.5C 116.5,88.8333 116.167,88.5 115.5,88.5C 114.184,79.4913 114.184,70.4913 115.5,61.5C 117.806,61.0074 120.139,60.6741 122.5,60.5 Z"/></g>
<g><path style="opacity:0.357" fill="#f0e8d5" d="M 108.5,62.5 C 108.5,62.8333 108.5,63.1667 108.5,63.5C 105.518,63.9629 102.518,64.2962 99.5,64.5C 102.219,63.087 105.219,62.4203 108.5,62.5 Z"/></g>
<g><path style="opacity:1" fill="#dbc880" d="M 112.5,61.5 C 113.5,61.5 114.5,61.5 115.5,61.5C 114.184,70.4913 114.184,79.4913 115.5,88.5C 111.167,88.5 106.833,88.5 102.5,88.5C 102.5,87.8333 102.833,87.5 103.5,87.5C 106.187,87.6641 108.854,87.4974 111.5,87C 111.177,78.8464 110.177,71.013 108.5,63.5C 108.5,63.1667 108.5,62.8333 108.5,62.5C 109.568,61.5655 110.901,61.2322 112.5,61.5 Z"/></g>
<g><path style="opacity:1" fill="#bfa15e" d="M 95.5,65.5 C 98.1667,65.5 100.833,65.5 103.5,65.5C 103.5,72.8333 103.5,80.1667 103.5,87.5C 102.833,87.5 102.5,87.8333 102.5,88.5C 100.5,88.5 98.5,88.5 96.5,88.5C 96.8306,81.1365 96.4973,73.8032 95.5,66.5C 92.5788,67.4066 89.5788,67.7399 86.5,67.5C 89.2727,66.3428 92.2727,65.6761 95.5,65.5 Z"/></g>
<g><path style="opacity:1" fill="#c7ac67" d="M 151.5,65.5 C 152.89,66.8993 153.89,68.5659 154.5,70.5C 152.811,82.8674 151.811,95.5341 151.5,108.5C 151.167,108.5 150.833,108.5 150.5,108.5C 149.925,106.589 148.925,104.922 147.5,103.5C 147.333,89.496 147.5,75.496 148,61.5C 148.5,62 149,62.5 149.5,63C 148.39,65.7372 148.223,68.5706 149,71.5C 149.333,69.1667 149.667,66.8333 150,64.5C 150.383,65.056 150.883,65.3893 151.5,65.5 Z"/></g>
<g><path style="opacity:1" fill="#ae894a" d="M 96.5,88.5 C 95.1667,89.1667 93.8333,89.8333 92.5,90.5C 90.5786,91.3627 88.5786,92.0293 86.5,92.5C 87.828,90.0105 88.828,87.3438 89.5,84.5C 89.2135,79.3594 89.2135,74.0261 89.5,68.5C 86.5176,68.9629 83.5176,69.2962 80.5,69.5C 80.5,69.1667 80.5,68.8333 80.5,68.5C 82.4352,67.8505 84.4352,67.5172 86.5,67.5C 89.5788,67.7399 92.5788,67.4066 95.5,66.5C 96.4973,73.8032 96.8306,81.1365 96.5,88.5 Z"/></g>
<g><path style="opacity:1" fill="#f5ec9d" d="M 131.5,58.5 C 132.117,58.6107 132.617,58.944 133,59.5C 133.82,70.7431 133.653,81.9098 132.5,93C 133,93.5 133.5,94 134,94.5C 134.333,91.8333 134.667,89.1667 135,86.5C 135.003,90.467 135.836,94.1337 137.5,97.5C 130.725,94.0228 123.725,91.3561 116.5,89.5C 118.833,89.5 121.167,89.5 123.5,89.5C 123.827,79.6522 123.494,69.9856 122.5,60.5C 122.5,60.1667 122.5,59.8333 122.5,59.5C 125.518,59.2962 128.518,58.9629 131.5,58.5 Z"/></g>
<g><path style="opacity:0.135" fill="#efe7e0" d="M 71.5,70.5 C 73.2646,69.5386 75.2646,69.2053 77.5,69.5C 77.6665,78.8393 77.4998,88.1726 77,97.5C 75.6703,98.5822 74.1703,99.2488 72.5,99.5C 73.3149,98.1634 74.4815,97.1634 76,96.5C 76.4998,87.8397 76.6664,79.1731 76.5,70.5C 74.8333,70.5 73.1667,70.5 71.5,70.5 Z"/></g>
<g><path style="opacity:0.226" fill="#e7dcd0" d="M 80.5,68.5 C 80.5,68.8333 80.5,69.1667 80.5,69.5C 79.8343,73.4861 79.501,77.6528 79.5,82C 79.5085,86.5572 80.1752,90.7238 81.5,94.5C 80.791,95.404 79.791,95.7373 78.5,95.5C 77.8623,86.1045 78.5289,77.1045 80.5,68.5 Z"/></g>
<g><path style="opacity:1" fill="#a2783e" d="M 71.5,70.5 C 73.1667,70.5 74.8333,70.5 76.5,70.5C 76.6664,79.1731 76.4998,87.8397 76,96.5C 74.4815,97.1634 73.3149,98.1634 72.5,99.5C 71.1734,95.2175 70.5067,90.5508 70.5,85.5C 70.5248,80.4208 70.8582,75.4208 71.5,70.5 Z"/></g>
<g><path style="opacity:0.275" fill="#f4eede" d="M 67.5,71.5 C 67.5,72.1667 67.1667,72.5 66.5,72.5C 64.5,72.8333 62.5,73.1667 60.5,73.5C 59.8333,73.5 59.1667,73.5 58.5,73.5C 61.2186,72.087 64.2186,71.4203 67.5,71.5 Z"/></g>
<g><path style="opacity:0.999" fill="#b79556" d="M 71.5,70.5 C 70.8582,75.4208 70.5248,80.4208 70.5,85.5C 70.5067,90.5508 71.1734,95.2175 72.5,99.5C 72.5,100.167 72.1667,100.5 71.5,100.5C 70.5,100.5 69.5,100.5 68.5,100.5C 68.6495,99.448 68.4828,98.448 68,97.5C 67.6667,99.1667 67.3333,100.833 67,102.5C 66.5002,92.5056 66.3335,82.5056 66.5,72.5C 67.1667,72.5 67.5,72.1667 67.5,71.5C 68.5676,70.5655 69.901,70.2322 71.5,70.5 Z"/></g>
<g><path style="opacity:0.271" fill="#ebe2d0" d="M 154.5,70.5 C 155.906,70.9731 156.573,71.9731 156.5,73.5C 155.094,73.0269 154.427,72.0269 154.5,70.5 Z"/></g>
<g><path style="opacity:1" fill="#b99857" d="M 154.5,70.5 C 154.427,72.0269 155.094,73.0269 156.5,73.5C 157.338,73.8417 157.672,74.5084 157.5,75.5C 157.427,77.0269 158.094,78.0269 159.5,78.5C 160.338,78.8417 160.672,79.5084 160.5,80.5C 160.427,82.0269 161.094,83.0269 162.5,83.5C 163.674,84.5137 164.34,85.847 164.5,87.5C 163.883,87.3893 163.383,87.056 163,86.5C 162.5,92.8246 162.334,99.1579 162.5,105.5C 161.209,105.263 160.209,105.596 159.5,106.5C 158.5,107.167 157.5,107.833 156.5,108.5C 154.833,108.5 153.167,108.5 151.5,108.5C 151.811,95.5341 152.811,82.8674 154.5,70.5 Z"/></g>
<g><path style="opacity:1" fill="#ccb26d" d="M 66.5,72.5 C 66.3335,82.5056 66.5002,92.5056 67,102.5C 67.3333,100.833 67.6667,99.1667 68,97.5C 68.4828,98.448 68.6495,99.448 68.5,100.5C 69.5,100.5 70.5,100.5 71.5,100.5C 68.1924,103.471 64.859,106.471 61.5,109.5C 60.5214,97.5803 60.1881,85.5803 60.5,73.5C 62.5,73.1667 64.5,72.8333 66.5,72.5 Z"/></g>
<g><path style="opacity:1" fill="#9b6e34" d="M 86.5,92.5 C 84.9505,93.4408 83.2838,94.1075 81.5,94.5C 80.1752,90.7238 79.5085,86.5572 79.5,82C 79.501,77.6528 79.8343,73.4861 80.5,69.5C 83.5176,69.2962 86.5176,68.9629 89.5,68.5C 89.2135,74.0261 89.2135,79.3594 89.5,84.5C 88.828,87.3438 87.828,90.0105 86.5,92.5 Z"/></g>
<g><path style="opacity:1" fill="#cfb76f" d="M 108.5,63.5 C 110.177,71.013 111.177,78.8464 111.5,87C 108.854,87.4974 106.187,87.6641 103.5,87.5C 103.5,80.1667 103.5,72.8333 103.5,65.5C 100.833,65.5 98.1667,65.5 95.5,65.5C 96.5676,64.5655 97.901,64.2322 99.5,64.5C 102.518,64.2962 105.518,63.9629 108.5,63.5 Z"/></g>
<g><path style="opacity:1" fill="#f5ed9e" d="M 58.5,73.5 C 56.1724,84.9625 55.839,96.6292 57.5,108.5C 56.5,108.167 55.8333,107.5 55.5,106.5C 54.5849,104.246 53.2516,102.246 51.5,100.5C 51.5,92.5 51.5,84.5 51.5,76.5C 49.5,76.5 47.5,76.5 45.5,76.5C 49.6151,75.0566 53.9484,74.0566 58.5,73.5 Z"/></g>
<g><path style="opacity:0.224" fill="#ece3d3" d="M 157.5,75.5 C 158.906,75.9731 159.573,76.9731 159.5,78.5C 158.094,78.0269 157.427,77.0269 157.5,75.5 Z"/></g>
<g><path style="opacity:1" fill="#b08c4c" d="M 31.5,79.5 C 31.8333,79.5 32.1667,79.5 32.5,79.5C 35.1667,79.5 37.8333,79.5 40.5,79.5C 40.6646,82.5184 40.498,85.5184 40,88.5C 39.3292,87.7476 38.4959,87.4142 37.5,87.5C 35.9092,84.5691 33.9092,81.9024 31.5,79.5 Z"/></g>
<g><path style="opacity:0.008" fill="#ebe1d4" d="M 31.5,79.5 C 33.9092,81.9024 35.9092,84.5691 37.5,87.5C 35.2034,85.7059 33.0367,83.7059 31,81.5C 30.3083,80.5632 30.475,79.8966 31.5,79.5 Z"/></g>
<g><path style="opacity:0.196" fill="#ece4d6" d="M 160.5,80.5 C 161.906,80.9731 162.573,81.9731 162.5,83.5C 161.094,83.0269 160.427,82.0269 160.5,80.5 Z"/></g>
<g><path style="opacity:1" fill="#cdb473" d="M 41.5,77.5 C 42.8333,77.5 44.1667,77.5 45.5,77.5C 45.5,83.5 45.5,89.5 45.5,95.5C 42.5,93.1667 39.8333,90.5 37.5,87.5C 38.4959,87.4142 39.3292,87.7476 40,88.5C 40.498,85.5184 40.6646,82.5184 40.5,79.5C 37.8333,79.5 35.1667,79.5 32.5,79.5C 35.2727,78.3428 38.2727,77.6761 41.5,77.5 Z"/></g>
<g><path style="opacity:1" fill="#d4be76" d="M 145.5,55.5 C 148,58.4937 150,61.827 151.5,65.5C 150.883,65.3893 150.383,65.056 150,64.5C 149.667,66.8333 149.333,69.1667 149,71.5C 148.223,68.5706 148.39,65.7372 149.5,63C 149,62.5 148.5,62 148,61.5C 147.5,75.496 147.333,89.496 147.5,103.5C 146.078,102.075 144.411,101.075 142.5,100.5C 141.852,98.9142 141.352,97.2475 141,95.5C 140.5,82.5043 140.333,69.5043 140.5,56.5C 142.216,56.3713 143.883,56.038 145.5,55.5 Z"/></g>
<g><path style="opacity:0.047" fill="#f8f4ec" d="M 96.5,88.5 C 98.5,88.5 100.5,88.5 102.5,88.5C 106.833,88.5 111.167,88.5 115.5,88.5C 116.167,88.5 116.5,88.8333 116.5,89.5C 108.471,89.3437 100.471,89.677 92.5,90.5C 93.8333,89.8333 95.1667,89.1667 96.5,88.5 Z"/></g>
<g><path style="opacity:0.443" fill="#dac8af" d="M 164.5,87.5 C 165.906,87.9731 166.573,88.9731 166.5,90.5C 165.094,90.0269 164.427,89.0269 164.5,87.5 Z"/></g>
<g><path style="opacity:1" fill="#e5d589" d="M 41.5,77.5 C 42.5676,76.5655 43.901,76.2322 45.5,76.5C 47.5,76.5 49.5,76.5 51.5,76.5C 51.5,84.5 51.5,92.5 51.5,100.5C 49.8333,99.1667 48.1667,97.8333 46.5,96.5C 45.8333,96.5 45.5,96.1667 45.5,95.5C 45.5,89.5 45.5,83.5 45.5,77.5C 44.1667,77.5 42.8333,77.5 41.5,77.5 Z"/></g>
<g><path style="opacity:1" fill="#e5d58a" d="M 58.5,73.5 C 59.1667,73.5 59.8333,73.5 60.5,73.5C 60.1881,85.5803 60.5214,97.5803 61.5,109.5C 60.0013,111.802 58.668,111.469 57.5,108.5C 55.839,96.6292 56.1724,84.9625 58.5,73.5 Z"/></g>
<g><path style="opacity:0.435" fill="#f8f3dd" d="M 121.5,94.5 C 118.794,94.4249 116.127,94.0916 113.5,93.5C 110.833,93.5 108.167,93.5 105.5,93.5C 102.833,93.5 100.167,93.5 97.5,93.5C 101.339,92.707 105.339,92.0403 109.5,91.5C 113.732,92.0841 117.732,93.0841 121.5,94.5 Z"/></g>
<g><path style="opacity:0.275" fill="#e5d9c8" d="M 166.5,90.5 C 167.906,90.9731 168.573,91.9731 168.5,93.5C 167.094,93.0269 166.427,92.0269 166.5,90.5 Z"/></g>
<g><path style="opacity:1" fill="#a2783c" d="M 164.5,87.5 C 164.427,89.0269 165.094,90.0269 166.5,90.5C 166.427,92.0269 167.094,93.0269 168.5,93.5C 168.75,95.674 169.75,97.3406 171.5,98.5C 171.833,98.5 172.167,98.5 172.5,98.5C 172.5,99.1667 172.5,99.8333 172.5,100.5C 172.539,101.583 172.873,102.583 173.5,103.5C 168.893,104.819 164.227,105.819 159.5,106.5C 160.209,105.596 161.209,105.263 162.5,105.5C 162.334,99.1579 162.5,92.8246 163,86.5C 163.383,87.056 163.883,87.3893 164.5,87.5 Z"/></g>
<g><path style="opacity:0.998" fill="#e9db8c" d="M 105.5,93.5 C 108.167,93.5 110.833,93.5 113.5,93.5C 113.5,102.167 113.5,110.833 113.5,119.5C 110.311,119.142 107.311,118.475 104.5,117.5C 105.492,109.684 105.826,101.684 105.5,93.5 Z"/></g>
<g><path style="opacity:0.129" fill="#ebe1d6" d="M 168.5,93.5 C 170.25,94.6594 171.25,96.326 171.5,98.5C 169.75,97.3406 168.75,95.674 168.5,93.5 Z"/></g>
<g><path style="opacity:1" fill="#bb9b59" d="M 97.5,93.5 C 98.4672,101.414 98.8005,109.414 98.5,117.5C 95.8333,117.5 93.1667,117.5 90.5,117.5C 90.1878,110.578 90.5212,103.744 91.5,97C 87.8947,97.7838 84.228,98.6171 80.5,99.5C 85.6668,96.3317 91.3335,94.3317 97.5,93.5 Z"/></g>
<g><path style="opacity:0.204" fill="#f7f2dc" d="M 121.5,95.5 C 121.5,95.1667 121.5,94.8333 121.5,94.5C 124.542,94.7329 127.208,95.7329 129.5,97.5C 126.733,97.1417 124.067,96.475 121.5,95.5 Z"/></g>
<g><path style="opacity:0.004" fill="#fbf8e7" d="M 46.5,96.5 C 48.1667,97.8333 49.8333,99.1667 51.5,100.5C 53.2516,102.246 54.5849,104.246 55.5,106.5C 51.7657,103.769 48.7657,100.436 46.5,96.5 Z"/></g>
<g><path style="opacity:0.004" fill="#fdfefd" d="M 172.5,97.5 C 173.833,98.1667 173.833,98.1667 172.5,97.5 Z"/></g>
<g><path style="opacity:0.176" fill="#f8f4e4" d="M 137.5,97.5 C 139.027,97.427 140.027,98.0937 140.5,99.5C 138.973,99.573 137.973,98.9063 137.5,97.5 Z"/></g>
<g><path style="opacity:0.067" fill="#f6f2e7" d="M 133.5,99.5 C 135.027,99.427 136.027,100.094 136.5,101.5C 134.973,101.573 133.973,100.906 133.5,99.5 Z"/></g>
<g><path style="opacity:0.792" fill="#ece1c4" d="M 142.5,100.5 C 144.411,101.075 146.078,102.075 147.5,103.5C 148.925,104.922 149.925,106.589 150.5,108.5C 147.5,106.167 144.833,103.5 142.5,100.5 Z"/></g>
<g><path style="opacity:1" fill="#a1773a" d="M 90.5,117.5 C 87.569,118.007 84.9023,119.007 82.5,120.5C 82.1667,120.5 81.8333,120.5 81.5,120.5C 81.3187,116.365 81.152,112.032 81,107.5C 80.6174,106.944 80.1174,106.611 79.5,106.5C 79.298,104.05 79.6314,101.717 80.5,99.5C 84.228,98.6171 87.8947,97.7838 91.5,97C 90.5212,103.744 90.1878,110.578 90.5,117.5 Z"/></g>
<g><path style="opacity:0.027" fill="#f3ede0" d="M 136.5,101.5 C 138.027,101.427 139.027,102.094 139.5,103.5C 137.973,103.573 136.973,102.906 136.5,101.5 Z"/></g>
<g><path style="opacity:0.231" fill="#e6dcd0" d="M 80.5,99.5 C 79.6314,101.717 79.298,104.05 79.5,106.5C 79.1667,106.5 78.8333,106.5 78.5,106.5C 77.9898,103.612 78.6565,101.279 80.5,99.5 Z"/></g>
<g><path style="opacity:1" fill="#d2bb72" d="M 97.5,93.5 C 100.167,93.5 102.833,93.5 105.5,93.5C 105.826,101.684 105.492,109.684 104.5,117.5C 102.5,117.5 100.5,117.5 98.5,117.5C 98.8005,109.414 98.4672,101.414 97.5,93.5 Z"/></g>
<g><path style="opacity:1" fill="#f6ee9c" d="M 113.5,93.5 C 116.127,94.0916 118.794,94.4249 121.5,94.5C 121.5,94.8333 121.5,95.1667 121.5,95.5C 119.532,103.433 118.865,111.766 119.5,120.5C 118.167,120.5 116.833,120.5 115.5,120.5C 115.167,120.5 114.833,120.5 114.5,120.5C 114.5,119.833 114.167,119.5 113.5,119.5C 113.5,110.833 113.5,102.167 113.5,93.5 Z"/></g>
<g><path style="opacity:1" fill="#c4a865" d="M 132.5,99.5 C 132.833,99.5 133.167,99.5 133.5,99.5C 133.973,100.906 134.973,101.573 136.5,101.5C 136.973,102.906 137.973,103.573 139.5,103.5C 140.833,104.5 142.167,105.5 143.5,106.5C 143.5,106.833 143.5,107.167 143.5,107.5C 142.191,109.571 141.525,112.071 141.5,115C 141.667,117.5 141.833,120 142,122.5C 142.333,122.167 142.667,121.833 143,121.5C 143.366,123.452 144.199,125.118 145.5,126.5C 141.877,125.344 138.211,124.344 134.5,123.5C 133.081,122.549 131.415,122.216 129.5,122.5C 129.5,114.833 129.5,107.167 129.5,99.5C 130.5,99.5 131.5,99.5 132.5,99.5 Z"/></g>
<g><path style="opacity:0.306" fill="#e3d6c3" d="M 172.5,100.5 C 173.947,101.622 174.947,103.122 175.5,105C 169.182,106.33 162.849,107.497 156.5,108.5C 157.5,107.833 158.5,107.167 159.5,106.5C 164.227,105.819 168.893,104.819 173.5,103.5C 172.873,102.583 172.539,101.583 172.5,100.5 Z"/></g>
<g><path style="opacity:0.004" fill="#fdfefd" d="M 170.5,106.5 C 171.833,107.167 171.833,107.167 170.5,106.5 Z"/></g>
<g><path style="opacity:0.004" fill="#fdfefd" d="M 172.5,106.5 C 173.833,107.167 173.833,107.167 172.5,106.5 Z"/></g>
<g><path style="opacity:0.592" fill="#e8ddcc" d="M 143.5,106.5 C 146.243,108.239 148.243,110.573 149.5,113.5C 147.167,111.833 145.167,109.833 143.5,107.5C 143.5,107.167 143.5,106.833 143.5,106.5 Z"/></g>
<g><path style="opacity:0.412" fill="#f1ebdc" d="M 150.5,108.5 C 150.833,108.5 151.167,108.5 151.5,108.5C 153.167,108.5 154.833,108.5 156.5,108.5C 155.122,109.234 153.622,109.901 152,110.5C 151.283,109.956 150.783,109.289 150.5,108.5 Z"/></g>
<g><path style="opacity:0.529" fill="#f5f0d7" d="M 71.5,105.5 C 71.1667,106.167 70.8333,106.833 70.5,107.5C 69.1667,108.167 68.1667,109.167 67.5,110.5C 66.5,111.167 65.5,111.833 64.5,112.5C 65.8333,109.167 68.1667,106.833 71.5,105.5 Z"/></g>
<g><path style="opacity:0.971" fill="#b59355" d="M 74.5,102.5 C 75.5862,102.62 76.2528,103.287 76.5,104.5C 75.0764,106.745 74.4098,109.245 74.5,112C 74.9987,115.49 75.332,118.99 75.5,122.5C 74.5,122.5 73.5,122.5 72.5,122.5C 72.8222,116.642 72.4889,110.975 71.5,105.5C 72.1667,104.167 73.1667,103.167 74.5,102.5 Z"/></g>
<g><path style="opacity:1" fill="#f2e89a" d="M 70.5,107.5 C 70.5,113.5 70.5,119.5 70.5,125.5C 70.5,126.167 70.1667,126.5 69.5,126.5C 68.8333,126.5 68.1667,126.5 67.5,126.5C 67.5,121.167 67.5,115.833 67.5,110.5C 68.1667,109.167 69.1667,108.167 70.5,107.5 Z"/></g>
<g><path style="opacity:1" fill="#d0b971" d="M 67.5,110.5 C 67.5,115.833 67.5,121.167 67.5,126.5C 65.8445,130.223 64.5112,130.223 63.5,126.5C 64.4834,122.702 64.8168,118.702 64.5,114.5C 64.5,113.833 64.5,113.167 64.5,112.5C 65.5,111.833 66.5,111.167 67.5,110.5 Z"/></g>
<g><path style="opacity:1" fill="#e6d789" d="M 121.5,95.5 C 124.067,96.475 126.733,97.1417 129.5,97.5C 131.027,97.427 132.027,98.0937 132.5,99.5C 131.5,99.5 130.5,99.5 129.5,99.5C 129.5,107.167 129.5,114.833 129.5,122.5C 125.963,122.689 122.63,122.023 119.5,120.5C 118.865,111.766 119.532,103.433 121.5,95.5 Z"/></g>
<g><path style="opacity:1" fill="#d8c485" d="M 71.5,105.5 C 72.4889,110.975 72.8222,116.642 72.5,122.5C 73.5,122.5 74.5,122.5 75.5,122.5C 74.1007,123.89 72.4341,124.89 70.5,125.5C 70.5,119.5 70.5,113.5 70.5,107.5C 70.8333,106.833 71.1667,106.167 71.5,105.5 Z"/></g>
<g><path style="opacity:0.898" fill="#d3bda2" d="M 149.5,113.5 C 151.68,116.381 152.68,119.714 152.5,123.5C 150.723,120.495 149.723,117.162 149.5,113.5 Z"/></g>
<g><path style="opacity:1" fill="#a98243" d="M 64.5,114.5 C 64.8168,118.702 64.4834,122.702 63.5,126.5C 63.1489,123.762 62.4822,121.096 61.5,118.5C 62.0351,116.739 63.0351,115.406 64.5,114.5 Z"/></g>
<g><path style="opacity:0.016" fill="#ede4d6" d="M 74.5,102.5 C 75.209,101.596 76.209,101.263 77.5,101.5C 77.2155,103.415 77.5489,105.081 78.5,106.5C 78.5,106.833 78.5,107.167 78.5,107.5C 76.6122,109.988 75.9455,112.988 76.5,116.5C 77.5,116.5 78.5,116.5 79.5,116.5C 79.5,113.5 79.5,110.5 79.5,107.5C 79.5,107.167 79.5,106.833 79.5,106.5C 80.1174,106.611 80.6174,106.944 81,107.5C 81.152,112.032 81.3187,116.365 81.5,120.5C 80.612,123.054 80.2786,125.721 80.5,128.5C 79.8333,125.167 79.1667,121.833 78.5,118.5C 78.1667,118.5 77.8333,118.5 77.5,118.5C 77.7947,120.735 77.4614,122.735 76.5,124.5C 76.6716,123.508 76.3382,122.842 75.5,122.5C 75.332,118.99 74.9987,115.49 74.5,112C 74.4098,109.245 75.0764,106.745 76.5,104.5C 76.2528,103.287 75.5862,102.62 74.5,102.5 Z"/></g>
<g><path style="opacity:0.785" fill="#d5bf79" d="M 78.5,107.5 C 78.8333,107.5 79.1667,107.5 79.5,107.5C 79.5,110.5 79.5,113.5 79.5,116.5C 78.5,116.5 77.5,116.5 76.5,116.5C 75.9455,112.988 76.6122,109.988 78.5,107.5 Z"/></g>
<g><path style="opacity:0.017" fill="#f6f1e6" d="M 90.5,117.5 C 93.1667,117.5 95.8333,117.5 98.5,117.5C 100.5,117.5 102.5,117.5 104.5,117.5C 107.311,118.475 110.311,119.142 113.5,119.5C 114.167,119.5 114.5,119.833 114.5,120.5C 103.826,119.227 93.1592,119.227 82.5,120.5C 84.9023,119.007 87.569,118.007 90.5,117.5 Z"/></g>
<g><path style="opacity:0.004" fill="#fdfefd" d="M 83.5,121.5 C 84.8333,122.167 84.8333,122.167 83.5,121.5 Z"/></g>
<g><path style="opacity:0.114" fill="#ede5d7" d="M 64.5,112.5 C 64.5,113.167 64.5,113.833 64.5,114.5C 63.0351,115.406 62.0351,116.739 61.5,118.5C 62.4822,121.096 63.1489,123.762 63.5,126.5C 64.5112,130.223 65.8445,130.223 67.5,126.5C 68.1667,126.5 68.8333,126.5 69.5,126.5C 68.2073,128.296 66.7073,129.963 65,131.5C 62.4427,127.572 60.9427,123.239 60.5,118.5C 60.8519,115.783 62.1853,113.783 64.5,112.5 Z"/></g>
<g><path style="opacity:0.514" fill="#ece2b9" d="M 115.5,120.5 C 116.833,120.5 118.167,120.5 119.5,120.5C 122.63,122.023 125.963,122.689 129.5,122.5C 131.415,122.216 133.081,122.549 134.5,123.5C 127.778,124.089 121.444,123.089 115.5,120.5 Z"/></g>
<g><path style="opacity:1" fill="#a67e43" d="M 143.5,107.5 C 145.167,109.833 147.167,111.833 149.5,113.5C 149.723,117.162 150.723,120.495 152.5,123.5C 153.451,124.919 153.784,126.585 153.5,128.5C 153.631,129.239 153.464,129.906 153,130.5C 152.184,129.177 151.017,128.511 149.5,128.5C 147.847,128.34 146.514,127.674 145.5,126.5C 144.199,125.118 143.366,123.452 143,121.5C 142.667,121.833 142.333,122.167 142,122.5C 141.833,120 141.667,117.5 141.5,115C 141.525,112.071 142.191,109.571 143.5,107.5 Z"/></g>
<g><path style="opacity:0.243" fill="#e6dbce" d="M 149.5,128.5 C 151.017,128.511 152.184,129.177 153,130.5C 153.464,129.906 153.631,129.239 153.5,128.5C 154.404,129.209 154.737,130.209 154.5,131.5C 152.067,131.727 150.401,130.727 149.5,128.5 Z"/></g>
<g><path style="opacity:0.357" fill="#e6dbc8" d="M 124.5,133.5 C 130.653,132.347 136.986,132.18 143.5,133C 146.865,133.505 149.865,134.672 152.5,136.5C 147.894,135.245 143.228,134.245 138.5,133.5C 133.833,133.5 129.167,133.5 124.5,133.5 Z"/></g>
<g><path style="opacity:0.004" fill="#fdfefd" d="M 152.5,132.5 C 153.833,133.167 153.833,133.167 152.5,132.5 Z"/></g>
<g><path style="opacity:0.004" fill="#fdfefd" d="M 401.5,132.5 C 402.833,133.167 402.833,133.167 401.5,132.5 Z"/></g>
<g><path style="opacity:0.424" fill="#cacac9" d="M 521.5,133.5 C 514.879,132.94 508.545,133.607 502.5,135.5C 502.33,134.178 502.663,133.011 503.5,132C 509.104,131.771 514.604,131.604 520,131.5C 520.717,132.044 521.217,132.711 521.5,133.5 Z"/></g>
<g><path style="opacity:0.429" fill="#d4d4d4" d="M 560.5,133.5 C 556.731,133.244 553.064,133.577 549.5,134.5C 549.577,133.25 550.244,132.417 551.5,132C 553,131.833 554.5,131.667 556,131.5C 557.986,131.569 559.486,132.235 560.5,133.5 Z"/></g>
<g><path style="opacity:0.415" fill="#d1d1d1" d="M 758.5,140.5 C 756.552,138.68 755.552,136.346 755.5,133.5C 750.637,133.181 745.97,133.514 741.5,134.5C 740.957,134.44 740.624,134.107 740.5,133.5C 745.053,131.847 749.72,131.347 754.5,132C 756.686,134.372 758.019,137.206 758.5,140.5 Z"/></g>
<g><path style="opacity:1" fill="#d6c07e" d="M 77.5,118.5 C 77.8333,118.5 78.1667,118.5 78.5,118.5C 78.5,145.167 78.5,171.833 78.5,198.5C 78.1667,198.5 77.8333,198.5 77.5,198.5C 77.6666,176.497 77.5,154.497 77,132.5C 76.8171,135.365 76.3171,138.031 75.5,140.5C 75.1786,134.974 75.5119,129.64 76.5,124.5C 77.4614,122.735 77.7947,120.735 77.5,118.5 Z"/></g>
<g><path style="opacity:0.253" fill="#f7f3e0" d="M 327.5,134.5 C 323.167,134.5 318.833,134.5 314.5,134.5C 310.731,134.244 307.064,134.577 303.5,135.5C 307.107,134.176 311.107,133.509 315.5,133.5C 319.681,133.501 323.681,133.834 327.5,134.5 Z"/></g>
<g><path style="opacity:0.508" fill="#e9ddc5" d="M 398.5,138.5 C 398.5,137.167 398.5,135.833 398.5,134.5C 391.167,134.5 383.833,134.5 376.5,134.5C 370.833,134.5 365.167,134.5 359.5,134.5C 356.5,134.5 353.5,134.5 350.5,134.5C 346.833,134.5 343.167,134.5 339.5,134.5C 339.405,136.786 338.738,138.786 337.5,140.5C 337.22,137.728 337.887,135.228 339.5,133C 359.497,132.5 379.497,132.333 399.5,132.5C 399.795,134.735 399.461,136.735 398.5,138.5 Z"/></g>
<g><path style="opacity:0.33" fill="#dbcbb7" d="M 403.5,134.5 C 419.992,133.503 436.658,133.17 453.5,133.5C 453.102,138.412 452.102,143.079 450.5,147.5C 450.33,143.356 450.997,139.356 452.5,135.5C 441.52,134.501 430.52,134.168 419.5,134.5C 414.5,134.5 409.5,134.5 404.5,134.5C 404.167,134.5 403.833,134.5 403.5,134.5 Z"/></g>
<g><path style="opacity:0.122" fill="#dfdfdf" d="M 574.5,133.5 C 571.167,133.5 567.833,133.5 564.5,133.5C 564.5,137.5 564.5,141.5 564.5,145.5C 566.099,145.232 567.432,145.566 568.5,146.5C 566.833,146.5 565.167,146.5 563.5,146.5C 563.334,141.821 563.501,137.155 564,132.5C 567.073,131.383 570.24,131.216 573.5,132C 574.056,132.383 574.389,132.883 574.5,133.5 Z"/></g>
<g><path style="opacity:0.205" fill="#e0e0e1" d="M 677.5,136.5 C 673.726,133.738 669.393,132.738 664.5,133.5C 664.5,137.5 664.5,141.5 664.5,145.5C 666.099,145.232 667.432,145.566 668.5,146.5C 666.833,146.5 665.167,146.5 663.5,146.5C 663.173,141.786 663.507,137.12 664.5,132.5C 668.207,131.194 671.874,131.36 675.5,133C 676.823,133.816 677.489,134.983 677.5,136.5 Z"/></g>
<g><path style="opacity:0.064" fill="#f0f0f1" d="M 705.5,190.5 C 704.503,171.674 704.17,152.674 704.5,133.5C 700.167,133.5 695.833,133.5 691.5,133.5C 691.5,154.167 691.5,174.833 691.5,195.5C 690.833,185.172 690.5,174.672 690.5,164C 690.512,153.107 691.179,142.44 692.5,132C 696.558,131.233 700.558,131.4 704.5,132.5C 705.5,151.822 705.833,171.155 705.5,190.5 Z"/></g>
<g><path style="opacity:0.749" fill="#d2bc9e" d="M 124.5,133.5 C 124.5,133.833 124.5,134.167 124.5,134.5C 121.598,135.578 118.598,136.244 115.5,136.5C 118.145,134.69 121.145,133.69 124.5,133.5 Z"/></g>
<g><path style="opacity:0.004" fill="#fdfefd" d="M 154.5,136.5 C 154.369,135.761 154.536,135.094 155,134.5C 155.692,135.437 155.525,136.103 154.5,136.5 Z"/></g>
<g><path style="opacity:1" fill="#be9f5c" d="M 168.5,134.5 C 171.167,134.5 173.833,134.5 176.5,134.5C 175.174,155.264 175.174,175.931 176.5,196.5C 176.5,197.833 176.5,199.167 176.5,200.5C 169.108,202.414 161.441,203.081 153.5,202.5C 153.5,201.167 153.5,199.833 153.5,198.5C 154.913,195.781 155.58,192.781 155.5,189.5C 156.367,183.701 157.7,178.034 159.5,172.5C 158.791,171.596 157.791,171.263 156.5,171.5C 156.5,170.167 156.5,168.833 156.5,167.5C 157.719,159.685 159.386,152.352 161.5,145.5C 162.945,142.063 163.945,138.397 164.5,134.5C 165.833,134.5 167.167,134.5 168.5,134.5 Z"/></g>
<g><path style="opacity:0.188" fill="#f1ead8" d="M 203.5,135.5 C 202.5,135.5 201.5,135.5 200.5,135.5C 189.728,133.614 179.061,133.281 168.5,134.5C 167.167,134.5 165.833,134.5 164.5,134.5C 163.945,138.397 162.945,142.063 161.5,145.5C 161.639,141.111 162.639,136.944 164.5,133C 173.5,132.333 182.5,132.333 191.5,133C 195.767,133.189 199.767,134.023 203.5,135.5 Z"/></g>
<g><path style="opacity:0.004" fill="#fdfefd" d="M 400.5,134.5 C 401.833,135.167 401.833,135.167 400.5,134.5 Z"/></g>
<g><path style="opacity:1" fill="#5e5e5d" d="M 521.5,133.5 C 521.336,136.187 521.503,138.854 522,141.5C 522.383,142.056 522.883,142.389 523.5,142.5C 523.616,145.86 523.949,149.193 524.5,152.5C 523.602,153.158 522.602,153.824 521.5,154.5C 522.347,156.061 522.014,157.561 520.5,159C 521.167,159.333 521.833,159.667 522.5,160C 521.167,161.333 521.167,162.667 522.5,164C 520.109,165.309 520.109,166.309 522.5,167C 521.998,172.749 521.998,178.416 522.5,184C 521.833,184.667 521.167,185.333 520.5,186C 524.241,187.014 527.907,187.847 531.5,188.5C 522.5,188.5 513.5,188.5 504.5,188.5C 503.444,193.781 502.777,199.114 502.5,204.5C 498.167,204.5 493.833,204.5 489.5,204.5C 489.5,202.833 489.5,201.167 489.5,199.5C 490.207,192.679 491.54,186.013 493.5,179.5C 494.404,178.791 494.737,177.791 494.5,176.5C 501.833,176.5 509.167,176.5 516.5,176.5C 516.768,174.901 516.434,173.568 515.5,172.5C 514.325,168.958 513.659,165.291 513.5,161.5C 513.769,159.571 513.269,157.905 512,156.5C 511.536,157.094 511.369,157.761 511.5,158.5C 511.341,162.291 510.675,165.958 509.5,169.5C 505.146,171.348 500.48,172.015 495.5,171.5C 495.799,167.072 496.465,162.739 497.5,158.5C 499.118,155.829 499.785,152.829 499.5,149.5C 499.754,144.556 500.754,139.889 502.5,135.5C 508.545,133.607 514.879,132.94 521.5,133.5 Z"/></g>
<g><path style="opacity:1" fill="#69696a" d="M 560.5,133.5 C 560.5,137.833 560.5,142.167 560.5,146.5C 558.708,146.366 557.042,146.699 555.5,147.5C 554.339,161.661 554.173,175.994 555,190.5C 555.383,191.056 555.883,191.389 556.5,191.5C 557.209,192.404 558.209,192.737 559.5,192.5C 559.5,196.167 559.5,199.833 559.5,203.5C 556.482,203.665 553.482,203.498 550.5,203C 548,200.5 545.5,198 543,195.5C 542.5,177.836 542.333,160.17 542.5,142.5C 542.833,141.833 543.167,141.167 543.5,140.5C 545.167,138.167 547.167,136.167 549.5,134.5C 553.064,133.577 556.731,133.244 560.5,133.5 Z"/></g>
<g><path style="opacity:1" fill="#747475" d="M 574.5,133.5 C 577.167,135.5 579.5,137.833 581.5,140.5C 582.445,145.405 582.779,150.405 582.5,155.5C 578.5,155.5 574.5,155.5 570.5,155.5C 570.806,152.615 570.473,149.948 569.5,147.5C 568.833,147.5 568.5,147.167 568.5,146.5C 567.432,145.566 566.099,145.232 564.5,145.5C 564.5,141.5 564.5,137.5 564.5,133.5C 567.833,133.5 571.167,133.5 574.5,133.5 Z"/></g>
<g><path style="opacity:1" fill="#7e7f80" d="M 605.5,190.5 C 606.568,191.434 607.901,191.768 609.5,191.5C 609.5,195.833 609.5,200.167 609.5,204.5C 606.5,204.5 603.5,204.5 600.5,204.5C 599.167,203.833 598.167,202.833 597.5,201.5C 595.873,199.37 594.04,197.37 592,195.5C 591.333,177.833 591.333,160.167 592,142.5C 594.833,139.667 597.667,136.833 600.5,134C 603.482,133.502 606.482,133.335 609.5,133.5C 609.5,137.5 609.5,141.5 609.5,145.5C 607.856,145.286 606.356,145.62 605,146.5C 604.172,161.339 604.339,176.006 605.5,190.5 Z"/></g>
<g><path style="opacity:0.004" fill="#fdfefd" d="M 611.5,134.5 C 612.525,134.897 612.692,135.563 612,136.5C 611.536,135.906 611.369,135.239 611.5,134.5 Z"/></g>
<g><path style="opacity:0.3" fill="#d6d6d7" d="M 625.5,134.5 C 621.901,133.656 618.234,133.323 614.5,133.5C 614.5,137.5 614.5,141.5 614.5,145.5C 616.099,145.232 617.432,145.566 618.5,146.5C 616.833,146.5 615.167,146.5 613.5,146.5C 613.334,141.821 613.501,137.155 614,132.5C 616.737,131.39 619.571,131.223 622.5,132C 623.942,132.377 624.942,133.21 625.5,134.5 Z"/></g>
<g><path style="opacity:0.999" fill="#86888a" d="M 625.5,134.5 C 627.833,136.167 629.833,138.167 631.5,140.5C 632.392,145.438 632.726,150.438 632.5,155.5C 628.5,155.5 624.5,155.5 620.5,155.5C 620.664,152.813 620.497,150.146 620,147.5C 619.617,146.944 619.117,146.611 618.5,146.5C 617.432,145.566 616.099,145.232 614.5,145.5C 614.5,141.5 614.5,137.5 614.5,133.5C 618.234,133.323 621.901,133.656 625.5,134.5 Z"/></g>
<g><path style="opacity:1" fill="#868789" d="M 705.5,190.5 C 706.568,191.434 707.901,191.768 709.5,191.5C 709.5,195.833 709.5,200.167 709.5,204.5C 706.5,204.5 703.5,204.5 700.5,204.5C 697.167,201.833 694.167,198.833 691.5,195.5C 691.5,174.833 691.5,154.167 691.5,133.5C 695.833,133.5 700.167,133.5 704.5,133.5C 704.17,152.674 704.503,171.674 705.5,190.5 Z"/></g>
<g><path style="opacity:0.997" fill="#797a7c" d="M 732.5,196.5 C 729.167,197.833 726.833,200.167 725.5,203.5C 725.5,204.167 725.167,204.5 724.5,204.5C 721.167,204.5 717.833,204.5 714.5,204.5C 714.5,200.167 714.5,195.833 714.5,191.5C 716.781,191.923 718.448,191.256 719.5,189.5C 720.497,171.007 720.83,152.341 720.5,133.5C 724.5,133.5 728.5,133.5 732.5,133.5C 732.5,154.5 732.5,175.5 732.5,196.5 Z"/></g>
<g><path style="opacity:0.999" fill="#727273" d="M 758.5,140.5 C 758.402,142.553 759.069,144.22 760.5,145.5C 760.402,147.553 761.069,149.22 762.5,150.5C 763.892,153.007 764.892,155.673 765.5,158.5C 764.503,158.47 763.836,158.97 763.5,160C 764.068,161.872 764.735,163.705 765.5,165.5C 764.098,166.842 764.431,167.676 766.5,168C 763.833,168.667 763.833,169.333 766.5,170C 765.833,170.333 765.167,170.667 764.5,171C 767.058,172.38 767.058,173.88 764.5,175.5C 767.827,177.747 767.827,179.247 764.5,180C 767.167,180.667 767.167,181.333 764.5,182C 768.5,182.667 768.5,183.333 764.5,184C 765.672,184.419 766.672,185.085 767.5,186C 765.68,186.2 764.347,187.034 763.5,188.5C 763.167,188.5 762.833,188.5 762.5,188.5C 760.591,184.334 758.925,180.001 757.5,175.5C 756.296,170.105 754.296,165.105 751.5,160.5C 750.129,158.064 749.129,155.397 748.5,152.5C 747.296,147.105 745.296,142.105 742.5,137.5C 741.596,136.791 741.263,135.791 741.5,134.5C 745.97,133.514 750.637,133.181 755.5,133.5C 755.552,136.346 756.552,138.68 758.5,140.5 Z"/></g>
<g><path style="opacity:0.998" fill="#676767" d="M 768.5,204.5 C 768.5,204.167 768.5,203.833 768.5,203.5C 767.12,198.406 765.453,193.406 763.5,188.5C 764.347,187.034 765.68,186.2 767.5,186C 766.672,185.085 765.672,184.419 764.5,184C 768.5,183.333 768.5,182.667 764.5,182C 767.167,181.333 767.167,180.667 764.5,180C 767.827,179.247 767.827,177.747 764.5,175.5C 767.058,173.88 767.058,172.38 764.5,171C 765.167,170.667 765.833,170.333 766.5,170C 763.833,169.333 763.833,168.667 766.5,168C 764.431,167.676 764.098,166.842 765.5,165.5C 764.735,163.705 764.068,161.872 763.5,160C 763.836,158.97 764.503,158.47 765.5,158.5C 765.415,161.649 766.415,164.316 768.5,166.5C 768.312,168.103 768.812,169.437 770,170.5C 770.5,158.171 770.667,145.838 770.5,133.5C 774.5,133.5 778.5,133.5 782.5,133.5C 782.5,157.167 782.5,180.833 782.5,204.5C 777.833,204.5 773.167,204.5 768.5,204.5 Z"/></g>
<g><path style="opacity:1" fill="#c4a863" d="M 176.5,134.5 C 179.978,134.184 183.312,134.684 186.5,136C 183.833,136.667 183.833,137.333 186.5,138C 185.167,138.667 185.167,139.333 186.5,140C 183.833,140.667 183.833,141.333 186.5,142C 185.167,142.667 185.167,143.333 186.5,144C 184.109,144.691 184.109,145.691 186.5,147C 183.833,147.667 183.833,148.333 186.5,149C 184.561,149.908 183.561,151.408 183.5,153.5C 183.768,155.099 183.434,156.432 182.5,157.5C 181.549,158.919 181.216,160.585 181.5,162.5C 183.95,162.702 186.283,162.369 188.5,161.5C 187.587,170.413 187.587,179.246 188.5,188C 187.552,188.483 186.552,188.649 185.5,188.5C 184.737,186.632 183.737,184.965 182.5,183.5C 182.154,181.295 181.487,181.128 180.5,183C 179.375,187.686 178.042,192.186 176.5,196.5C 175.174,175.931 175.174,155.264 176.5,134.5 Z"/></g>
<g><path style="opacity:0.999" fill="#cdb46f" d="M 168.5,134.5 C 179.061,133.281 189.728,133.614 200.5,135.5C 199.391,136.29 198.058,136.79 196.5,137C 197.231,157.133 197.564,177.466 197.5,198C 196.733,199.47 196.067,200.97 195.5,202.5C 194.5,202.5 193.5,202.5 192.5,202.5C 189.742,199.322 187.742,195.655 186.5,191.5C 186.443,190.391 186.11,189.391 185.5,188.5C 186.552,188.649 187.552,188.483 188.5,188C 187.587,179.246 187.587,170.413 188.5,161.5C 188.5,161.167 188.5,160.833 188.5,160.5C 193.11,155.936 192.276,152.936 186,151.5C 184.989,152.056 184.156,152.722 183.5,153.5C 183.561,151.408 184.561,149.908 186.5,149C 183.833,148.333 183.833,147.667 186.5,147C 184.109,145.691 184.109,144.691 186.5,144C 185.167,143.333 185.167,142.667 186.5,142C 183.833,141.333 183.833,140.667 186.5,140C 185.167,139.333 185.167,138.667 186.5,138C 183.833,137.333 183.833,136.667 186.5,136C 183.312,134.684 179.978,134.184 176.5,134.5C 173.833,134.5 171.167,134.5 168.5,134.5 Z"/></g>
<g><path style="opacity:1" fill="#e6d78a" d="M 232.5,134.5 C 237.833,134.5 243.167,134.5 248.5,134.5C 248.5,134.833 248.5,135.167 248.5,135.5C 246.82,157.55 245.82,179.883 245.5,202.5C 237.833,202.5 230.167,202.5 222.5,202.5C 223.051,199.193 223.384,195.86 223.5,192.5C 223.232,190.901 223.566,189.568 224.5,188.5C 226.04,186.162 226.706,183.495 226.5,180.5C 228.04,178.162 228.706,175.495 228.5,172.5C 227.167,172.5 225.833,172.5 224.5,172.5C 225.425,168.21 226.091,163.876 226.5,159.5C 228.056,150.946 230.056,142.613 232.5,134.5 Z"/></g>
<g><path style="opacity:1" fill="#f1e796" d="M 248.5,135.5 C 250.857,135.337 253.19,135.503 255.5,136C 254.79,140.977 254.79,146.144 255.5,151.5C 254.167,151.5 252.833,151.5 251.5,151.5C 251.167,153.5 250.833,155.5 250.5,157.5C 258.5,157.5 266.5,157.5 274.5,157.5C 274.5,158.5 274.5,159.5 274.5,160.5C 274.5,160.833 274.5,161.167 274.5,161.5C 272.584,165.163 271.584,169.163 271.5,173.5C 267.552,174.448 260.885,174.948 251.5,175C 250.133,177.301 249.466,179.801 249.5,182.5C 248.566,183.568 248.232,184.901 248.5,186.5C 257.349,186.174 266.016,186.507 274.5,187.5C 273.016,192.091 272.183,196.758 272,201.5C 272.847,199.807 273.68,198.14 274.5,196.5C 275.833,194.5 277.167,192.5 278.5,190.5C 279.414,194.383 279.747,198.383 279.5,202.5C 268.167,202.5 256.833,202.5 245.5,202.5C 245.82,179.883 246.82,157.55 248.5,135.5 Z"/></g>
<g><path style="opacity:0.995" fill="#f7ee9c" d="M 248.5,135.5 C 248.5,135.167 248.5,134.833 248.5,134.5C 259.5,134.5 270.5,134.5 281.5,134.5C 280.608,140.188 279.608,145.854 278.5,151.5C 270.833,151.5 263.167,151.5 255.5,151.5C 254.79,146.144 254.79,140.977 255.5,136C 253.19,135.503 250.857,135.337 248.5,135.5 Z"/></g>
<g><path style="opacity:0.999" fill="#e3d386" d="M 314.5,134.5 C 315.429,135.315 316.429,136.148 317.5,137C 317.403,157.618 317.403,178.618 317.5,200C 317.164,201.03 316.497,201.53 315.5,201.5C 315.495,197.466 315.162,193.466 314.5,189.5C 310.167,189.5 305.833,189.5 301.5,189.5C 302.598,188.603 302.598,187.77 301.5,187C 303.891,186.309 303.891,185.309 301.5,184C 303.513,183.125 303.513,181.791 301.5,180C 302.167,179.667 302.833,179.333 303.5,179C 303.056,177.467 302.723,175.967 302.5,174.5C 304.045,173.548 305.712,173.215 307.5,173.5C 309.364,174.793 311.364,174.793 313.5,173.5C 312.311,172.571 310.978,172.238 309.5,172.5C 309.827,167.786 309.493,163.12 308.5,158.5C 307.702,158.957 307.369,159.624 307.5,160.5C 307.167,161.833 306.833,163.167 306.5,164.5C 304.078,163.915 302.411,162.415 301.5,160C 302.167,159.667 302.833,159.333 303.5,159C 304.108,156.816 303.441,154.816 301.5,153C 303.513,152.125 303.513,150.791 301.5,149C 302.167,148.667 302.833,148.333 303.5,148C 302.643,147.311 301.977,146.478 301.5,145.5C 301.439,142.191 302.106,138.858 303.5,135.5C 307.064,134.577 310.731,134.244 314.5,134.5 Z"/></g>
<g><path style="opacity:1" fill="#c6ab64" d="M 350.5,134.5 C 353.5,134.5 356.5,134.5 359.5,134.5C 360.808,135.232 362.142,136.066 363.5,137C 362.832,158.666 362.832,180.499 363.5,202.5C 361.167,202.5 358.833,202.5 356.5,202.5C 355.835,187.166 355.835,171.999 356.5,157C 354.006,154.577 354.006,152.244 356.5,150C 356.112,145.527 356.112,141.193 356.5,137C 354.498,135.981 352.498,135.148 350.5,134.5 Z"/></g>
<g><path style="opacity:0.998" fill="#b59352" d="M 376.5,134.5 C 383.833,134.5 391.167,134.5 398.5,134.5C 398.5,135.833 398.5,137.167 398.5,138.5C 398.634,140.292 398.301,141.958 397.5,143.5C 396.883,143.611 396.383,143.944 396,144.5C 395.505,146.473 395.338,148.473 395.5,150.5C 389.463,150.829 383.463,150.496 377.5,149.5C 377.195,145.814 377.529,141.98 378.5,138C 378.022,136.697 377.355,135.531 376.5,134.5 Z"/></g>
<g><path style="opacity:1" fill="#b08b4d" d="M 403.5,134.5 C 403.833,134.5 404.167,134.5 404.5,134.5C 405.209,135.404 406.209,135.737 407.5,135.5C 406.519,156.676 406.519,178.01 407.5,199.5C 406.975,200.192 406.308,200.692 405.5,201C 406.737,201.232 407.737,201.732 408.5,202.5C 403.5,202.5 398.5,202.5 393.5,202.5C 393.5,201.167 393.5,199.833 393.5,198.5C 394.058,193.291 395.058,188.291 396.5,183.5C 398.318,180.156 399.318,176.489 399.5,172.5C 398.167,172.5 396.833,172.5 395.5,172.5C 395.5,171.167 395.5,169.833 395.5,168.5C 397.452,162.751 398.786,156.751 399.5,150.5C 400.167,146.5 400.833,142.5 401.5,138.5C 402.167,137.167 402.833,135.833 403.5,134.5 Z"/></g>
<g><path style="opacity:1" fill="#a77f40" d="M 407.5,135.5 C 410.5,135.5 413.5,135.5 416.5,135.5C 416.5,157.833 416.5,180.167 416.5,202.5C 413.833,202.5 411.167,202.5 408.5,202.5C 407.737,201.732 406.737,201.232 405.5,201C 406.308,200.692 406.975,200.192 407.5,199.5C 406.519,178.01 406.519,156.676 407.5,135.5 Z"/></g>
<g><path style="opacity:1" fill="#a1783b" d="M 404.5,134.5 C 409.5,134.5 414.5,134.5 419.5,134.5C 421.389,135.322 423.389,136.155 425.5,137C 424.833,137.333 424.167,137.667 423.5,138C 424.833,138.667 424.833,139.333 423.5,140C 426.167,140.667 426.167,141.333 423.5,142C 424.833,142.667 424.833,143.333 423.5,144C 425.891,144.691 425.891,145.691 423.5,147C 425.991,147.626 425.991,148.459 423.5,149.5C 431.833,150.833 440.167,150.833 448.5,149.5C 448.855,148.478 449.522,147.811 450.5,147.5C 450.567,148.959 450.234,150.292 449.5,151.5C 440.475,151.168 431.475,151.502 422.5,152.5C 421.691,154.071 421.357,155.738 421.5,157.5C 429.5,157.5 437.5,157.5 445.5,157.5C 445.672,158.492 445.338,159.158 444.5,159.5C 439.015,158.348 433.349,158.182 427.5,159C 429.286,159.196 430.619,160.029 431.5,161.5C 430.575,165.531 430.241,169.364 430.5,173C 434.817,173.981 438.817,173.481 442.5,171.5C 443.448,172.978 444.781,173.978 446.5,174.5C 438.167,174.5 429.833,174.5 421.5,174.5C 420.841,177.455 420.508,180.455 420.5,183.5C 419.596,184.209 419.263,185.209 419.5,186.5C 423.167,186.5 426.833,186.5 430.5,186.5C 430.308,192 430.642,197.334 431.5,202.5C 426.5,202.5 421.5,202.5 416.5,202.5C 416.5,180.167 416.5,157.833 416.5,135.5C 413.5,135.5 410.5,135.5 407.5,135.5C 406.209,135.737 405.209,135.404 404.5,134.5 Z"/></g>
<g><path style="opacity:1" fill="#96682d" d="M 419.5,134.5 C 430.52,134.168 441.52,134.501 452.5,135.5C 450.997,139.356 450.33,143.356 450.5,147.5C 449.522,147.811 448.855,148.478 448.5,149.5C 440.167,150.833 431.833,150.833 423.5,149.5C 425.991,148.459 425.991,147.626 423.5,147C 425.891,145.691 425.891,144.691 423.5,144C 424.833,143.333 424.833,142.667 423.5,142C 426.167,141.333 426.167,140.667 423.5,140C 424.833,139.333 424.833,138.667 423.5,138C 424.167,137.667 424.833,137.333 425.5,137C 423.389,136.155 421.389,135.322 419.5,134.5 Z"/></g>
<g><path style="opacity:1" fill="#a67e41" d="M 124.5,134.5 C 124.5,134.167 124.5,133.833 124.5,133.5C 129.167,133.5 133.833,133.5 138.5,133.5C 137.081,134.451 135.415,134.784 133.5,134.5C 133.5,139.833 133.5,145.167 133.5,150.5C 130.612,149.99 128.279,150.656 126.5,152.5C 123.991,153.921 121.657,155.588 119.5,157.5C 120.234,150.799 120.234,144.466 119.5,138.5C 121.416,136.683 123.749,135.516 126.5,135C 125.906,134.536 125.239,134.369 124.5,134.5 Z"/></g>
<g><path style="opacity:1" fill="#d3bc74" d="M 200.5,135.5 C 201.5,135.5 202.5,135.5 203.5,135.5C 204.791,135.263 205.791,135.596 206.5,136.5C 207.728,145.342 207.728,154.175 206.5,163C 207.305,164.113 207.972,165.279 208.5,166.5C 207.19,168.148 205.857,169.814 204.5,171.5C 205.833,172.5 205.833,173.5 204.5,174.5C 204.855,175.522 205.522,176.189 206.5,176.5C 211.005,183.505 215.005,190.839 218.5,198.5C 218.5,199.833 218.5,201.167 218.5,202.5C 210.833,202.5 203.167,202.5 195.5,202.5C 196.067,200.97 196.733,199.47 197.5,198C 197.564,177.466 197.231,157.133 196.5,137C 198.058,136.79 199.391,136.29 200.5,135.5 Z"/></g>
<g><path style="opacity:0.004" fill="#fdfefd" d="M 401.5,138.5 C 400.833,137.167 400.833,137.167 401.5,138.5 Z"/></g>
<g><path style="opacity:0.004" fill="#fdfefd" d="M 611.5,137.5 C 612.833,138.167 612.833,138.167 611.5,137.5 Z"/></g>
<g><path style="opacity:1" fill="#929496" d="M 677.5,136.5 C 679.167,137.5 680.5,138.833 681.5,140.5C 682.486,159.09 682.82,177.757 682.5,196.5C 680.167,199.5 677.5,202.167 674.5,204.5C 671.167,204.5 667.833,204.5 664.5,204.5C 664.5,200.5 664.5,196.5 664.5,192.5C 666.698,192.88 668.365,192.213 669.5,190.5C 669.816,175.755 669.483,161.088 668.5,146.5C 667.432,145.566 666.099,145.232 664.5,145.5C 664.5,141.5 664.5,137.5 664.5,133.5C 669.393,132.738 673.726,133.738 677.5,136.5 Z"/></g>
<g><path style="opacity:1" fill="#9e7338" d="M 124.5,134.5 C 125.239,134.369 125.906,134.536 126.5,135C 123.749,135.516 121.416,136.683 119.5,138.5C 120.234,144.466 120.234,150.799 119.5,157.5C 117.738,158.262 116.738,159.596 116.5,161.5C 116.672,162.492 116.338,163.158 115.5,163.5C 113.926,165.102 113.259,167.102 113.5,169.5C 112.566,170.568 112.232,171.901 112.5,173.5C 114.167,173.5 115.833,173.5 117.5,173.5C 117.308,179.132 119.641,183.132 124.5,185.5C 126.631,186.314 128.964,186.814 131.5,187C 129.833,187.333 128.167,187.667 126.5,188C 126.888,192.193 126.888,196.527 126.5,201C 127.167,201.667 127.833,202.333 128.5,203C 123.511,203.499 118.511,203.666 113.5,203.5C 110.458,203.267 107.792,202.267 105.5,200.5C 107.359,200.539 108.692,199.706 109.5,198C 107.109,197.309 107.109,196.309 109.5,195C 107.487,194.125 107.487,192.791 109.5,191C 107.487,190.125 107.487,188.791 109.5,187C 107.109,186.309 107.109,185.309 109.5,184C 107.487,183.125 107.487,181.791 109.5,180C 107.487,179.125 107.487,177.791 109.5,176C 108.167,174.333 108.167,172.667 109.5,171C 107.487,170.125 107.487,168.791 109.5,167C 107.109,166.309 107.109,165.309 109.5,164C 107.487,163.125 107.487,161.791 109.5,160C 107.487,159.125 107.487,157.791 109.5,156C 108.167,155 108.167,154 109.5,153C 107.487,152.125 107.487,150.791 109.5,149C 108.833,148.667 108.167,148.333 107.5,148C 108.357,147.311 109.023,146.478 109.5,145.5C 109.154,144.304 108.654,144.304 108,145.5C 108.109,144.231 107.942,143.231 107.5,142.5C 107.833,141.833 108.167,141.167 108.5,140.5C 110.663,138.917 112.996,137.584 115.5,136.5C 118.598,136.244 121.598,135.578 124.5,134.5 Z"/></g>
<g><path style="opacity:0.999" fill="#dcc987" d="M 206.5,136.5 C 215.051,138.918 218.551,144.585 217,153.5C 216.613,156.599 215.446,159.266 213.5,161.5C 212.094,161.973 211.427,162.973 211.5,164.5C 211.167,165.5 210.5,166.167 209.5,166.5C 209.167,166.5 208.833,166.5 208.5,166.5C 207.972,165.279 207.305,164.113 206.5,163C 207.728,154.175 207.728,145.342 206.5,136.5 Z"/></g>
<g><path style="opacity:0.004" fill="#fdfefd" d="M 611.5,139.5 C 612.833,140.167 612.833,140.167 611.5,139.5 Z"/></g>
<g><path style="opacity:0.004" fill="#fdfefd" d="M 734.5,139.5 C 735.833,140.167 735.833,140.167 734.5,139.5 Z"/></g>
<g><path style="opacity:0.729" fill="#dbc9a7" d="M 154.5,137.5 C 156.132,137.825 157.132,138.825 157.5,140.5C 157.122,142.717 156.455,144.717 155.5,146.5C 155.632,143.43 155.299,140.43 154.5,137.5 Z"/></g>
<g><path style="opacity:0.929" fill="#a0a0a0" d="M 521.5,133.5 C 522.657,136.273 523.324,139.273 523.5,142.5C 522.883,142.389 522.383,142.056 522,141.5C 521.503,138.854 521.336,136.187 521.5,133.5 Z"/></g>
<g><path style="opacity:0.208" fill="#d5d6d6" d="M 742.5,137.5 C 745.296,142.105 747.296,147.105 748.5,152.5C 747.833,151.833 747.167,151.167 746.5,150.5C 746.598,148.447 745.931,146.78 744.5,145.5C 743.833,142.833 743.167,140.167 742.5,137.5 Z"/></g>
<g><path style="opacity:0.004" fill="#fdfefd" d="M 611.5,141.5 C 612.833,142.167 612.833,142.167 611.5,141.5 Z"/></g>
<g><path style="opacity:0.999" fill="#8e8f92" d="M 655.5,146.5 C 654.883,146.611 654.383,146.944 654,147.5C 653.333,161.833 653.333,176.167 654,190.5C 655.699,191.406 657.533,191.739 659.5,191.5C 659.5,195.833 659.5,200.167 659.5,204.5C 656.5,204.5 653.5,204.5 650.5,204.5C 648.856,204.19 647.856,203.19 647.5,201.5C 645.873,199.37 644.04,197.37 642,195.5C 641.333,177.833 641.333,160.167 642,142.5C 644.833,139.667 647.667,136.833 650.5,134C 653.482,133.502 656.482,133.335 659.5,133.5C 659.5,137.5 659.5,141.5 659.5,145.5C 657.901,145.232 656.568,145.566 655.5,146.5 Z"/></g>
<g><path style="opacity:0.004" fill="#fdfefd" d="M 734.5,141.5 C 735.833,142.167 735.833,142.167 734.5,141.5 Z"/></g>
<g><path style="opacity:0.1" fill="#ededed" d="M 543.5,140.5 C 543.167,141.167 542.833,141.833 542.5,142.5C 541.503,159.992 541.17,177.659 541.5,195.5C 540.338,177.671 540.171,159.671 541,141.5C 541.671,140.748 542.504,140.414 543.5,140.5 Z"/></g>
<g><path style="opacity:0.682" fill="#9c9c9d" d="M 542.5,142.5 C 542.333,160.17 542.5,177.836 543,195.5C 545.5,198 548,200.5 550.5,203C 553.482,203.498 556.482,203.665 559.5,203.5C 559.5,199.833 559.5,196.167 559.5,192.5C 558.209,192.737 557.209,192.404 556.5,191.5C 557.833,191.5 559.167,191.5 560.5,191.5C 560.5,196.167 560.5,200.833 560.5,205.5C 557.15,205.665 553.817,205.498 550.5,205C 547.296,201.964 544.296,198.797 541.5,195.5C 541.17,177.659 541.503,159.992 542.5,142.5 Z"/></g>
<g><path style="opacity:0.359" fill="#d5d5d6" d="M 655.5,146.5 C 656.568,145.566 657.901,145.232 659.5,145.5C 659.5,141.5 659.5,137.5 659.5,133.5C 656.482,133.335 653.482,133.502 650.5,134C 647.667,136.833 644.833,139.667 642,142.5C 641.333,160.167 641.333,177.833 642,195.5C 644.04,197.37 645.873,199.37 647.5,201.5C 641.327,198.798 638.66,193.964 639.5,187C 639.865,172.184 640.365,157.018 641,141.5C 644.167,138.333 647.333,135.167 650.5,132C 653.5,131.333 656.5,131.333 659.5,132C 660.469,136.737 660.803,141.57 660.5,146.5C 658.833,146.5 657.167,146.5 655.5,146.5 Z"/></g>
<g><path style="opacity:0.522" fill="#dccdb8" d="M 108.5,140.5 C 108.167,141.167 107.833,141.833 107.5,142.5C 105.833,143.833 104.167,145.167 102.5,146.5C 103.5,143.5 105.5,141.5 108.5,140.5 Z"/></g>
<g><path style="opacity:0.704" fill="#b2b2b5" d="M 681.5,140.5 C 683.178,146.668 684.178,153.168 684.5,160C 683.694,170.434 683.694,182.101 684.5,195C 683.956,195.717 683.289,196.217 682.5,196.5C 682.82,177.757 682.486,159.09 681.5,140.5 Z"/></g>
<g><path style="opacity:0.071" fill="#eaeaea" d="M 758.5,140.5 C 759.931,141.78 760.598,143.447 760.5,145.5C 759.069,144.22 758.402,142.553 758.5,140.5 Z"/></g>
<g><path style="opacity:1" fill="#b39052" d="M 138.5,133.5 C 143.228,134.245 147.894,135.245 152.5,136.5C 153.167,136.5 153.833,136.5 154.5,136.5C 154.5,136.833 154.5,137.167 154.5,137.5C 155.299,140.43 155.632,143.43 155.5,146.5C 155.046,150.815 154.046,154.981 152.5,159C 149.833,159.667 147.167,159.667 144.5,159C 143.944,158.617 143.611,158.117 143.5,157.5C 142.415,155.413 140.749,154.08 138.5,153.5C 134.612,151.524 130.612,151.191 126.5,152.5C 128.279,150.656 130.612,149.99 133.5,150.5C 133.5,145.167 133.5,139.833 133.5,134.5C 135.415,134.784 137.081,134.451 138.5,133.5 Z"/></g>
<g><path style="opacity:0.345" fill="#fdfbea" d="M 274.5,160.5 C 274.5,159.5 274.5,158.5 274.5,157.5C 266.5,157.5 258.5,157.5 250.5,157.5C 250.833,155.5 251.167,153.5 251.5,151.5C 252.833,151.5 254.167,151.5 255.5,151.5C 263.167,151.5 270.833,151.5 278.5,151.5C 279.608,145.854 280.608,140.188 281.5,134.5C 270.5,134.5 259.5,134.5 248.5,134.5C 243.167,134.5 237.833,134.5 232.5,134.5C 248.703,133.384 264.87,132.717 281,132.5C 281.833,133.333 282.667,134.167 283.5,135C 281.778,140.723 280.445,146.556 279.5,152.5C 270.667,152.631 261.667,152.631 252.5,152.5C 252.351,153.552 252.517,154.552 253,155.5C 253.333,155.167 253.667,154.833 254,154.5C 255.8,156.831 257.8,156.831 260,154.5C 264.8,155.519 269.634,155.685 274.5,155C 275.807,156.943 275.807,158.777 274.5,160.5 Z"/></g>
<g><path style="opacity:0.004" fill="#fdfefd" d="M 452.5,144.5 C 453.833,145.167 453.833,145.167 452.5,144.5 Z"/></g>
<g><path style="opacity:0.427" fill="#bcbcbc" d="M 768.5,204.5 C 773.167,204.5 777.833,204.5 782.5,204.5C 782.5,180.833 782.5,157.167 782.5,133.5C 778.5,133.5 774.5,133.5 770.5,133.5C 770.667,145.838 770.5,158.171 770,170.5C 768.812,169.437 768.312,168.103 768.5,166.5C 769.331,155.341 769.831,144.007 770,132.5C 774.622,132.251 778.955,132.251 783,132.5C 783.5,156.831 783.667,181.164 783.5,205.5C 778.305,205.821 773.305,205.487 768.5,204.5 Z"/></g>
<g><path style="opacity:0.004" fill="#fdfefd" d="M 744.5,145.5 C 743.833,146.167 743.833,146.167 744.5,145.5 Z"/></g>
<g><path style="opacity:0.439" fill="#bebebe" d="M 791.5,131.5 C 804.243,132.315 816.909,132.315 829.5,131.5C 830.086,131.709 830.586,132.043 831,132.5C 831.499,137.155 831.666,141.821 831.5,146.5C 817.833,146.5 804.167,146.5 790.5,146.5C 790.221,141.405 790.555,136.405 791.5,131.5 Z"/></g>
<g><path style="opacity:1" fill="#555554" d="M 791.5,133.5 C 804.5,133.5 817.5,133.5 830.5,133.5C 830.5,137.5 830.5,141.5 830.5,145.5C 817.5,145.5 804.5,145.5 791.5,145.5C 791.5,141.5 791.5,137.5 791.5,133.5 Z"/></g>
<g><path style="opacity:0.004" fill="#fdfefd" d="M 157.5,146.5 C 158.833,147.167 158.833,147.167 157.5,146.5 Z"/></g>
<g><path style="opacity:0.121" fill="#eaeaea" d="M 742.5,146.5 C 741.503,165.659 741.17,184.993 741.5,204.5C 745.833,204.5 750.167,204.5 754.5,204.5C 750.03,205.486 745.363,205.819 740.5,205.5C 740.167,185.489 740.5,165.489 741.5,145.5C 742.107,145.624 742.44,145.957 742.5,146.5 Z"/></g>
<g><path style="opacity:1" fill="#f1e69b" d="M 78.5,118.5 C 79.1667,121.833 79.8333,125.167 80.5,128.5C 81.3647,136.147 82.0313,143.814 82.5,151.5C 81.5033,168.659 81.17,185.992 81.5,203.5C 80.9348,201.58 79.9348,199.913 78.5,198.5C 78.5,171.833 78.5,145.167 78.5,118.5 Z"/></g>
<g><path style="opacity:0.008" fill="#f0f0f0" d="M 760.5,145.5 C 761.931,146.78 762.598,148.447 762.5,150.5C 761.069,149.22 760.402,147.553 760.5,145.5 Z"/></g>
<g><path style="opacity:0.004" fill="#fdfefd" d="M 156.5,148.5 C 157.833,149.167 157.833,149.167 156.5,148.5 Z"/></g>
<g><path style="opacity:0.004" fill="#fdfefd" d="M 556.5,148.5 C 557.833,149.167 557.833,149.167 556.5,148.5 Z"/></g>
<g><path style="opacity:0.456" fill="#cdcecf" d="M 655.5,146.5 C 654.367,160.789 654.201,175.122 655,189.5C 656.699,190.406 658.533,190.739 660.5,190.5C 660.5,195.5 660.5,200.5 660.5,205.5C 656.958,205.813 653.625,205.479 650.5,204.5C 653.5,204.5 656.5,204.5 659.5,204.5C 659.5,200.167 659.5,195.833 659.5,191.5C 657.533,191.739 655.699,191.406 654,190.5C 653.333,176.167 653.333,161.833 654,147.5C 654.383,146.944 654.883,146.611 655.5,146.5 Z"/></g>
<g><path style="opacity:0.004" fill="#fdfefd" d="M 744.5,148.5 C 745.833,149.167 745.833,149.167 744.5,148.5 Z"/></g>
<g><path style="opacity:0.78" fill="#d2bba1" d="M 100.5,148.5 C 100.262,150.404 99.2624,151.738 97.5,152.5C 97.7376,150.596 98.7376,149.262 100.5,148.5 Z"/></g>
<g><path style="opacity:0.957" fill="#ebdfb6" d="M 327.5,134.5 C 329.414,146.629 330.747,158.962 331.5,171.5C 333.415,171.216 335.081,171.549 336.5,172.5C 334.5,172.5 332.5,172.5 330.5,172.5C 328.62,159.912 327.62,147.246 327.5,134.5 Z"/></g>
<g><path style="opacity:0.686" fill="#f2e9d2" d="M 336.5,144.5 C 336.702,146.95 336.369,149.283 335.5,151.5C 334.903,151.265 334.57,150.765 334.5,150C 334.954,147.97 335.62,146.137 336.5,144.5 Z"/></g>
<g><path style="opacity:0.987" fill="#757676" d="M 742.5,146.5 C 743.363,148.421 744.029,150.421 744.5,152.5C 744.166,155.491 745.166,157.824 747.5,159.5C 747.402,161.553 748.069,163.22 749.5,164.5C 749.402,166.553 750.069,168.22 751.5,169.5C 752.6,171.277 753.434,173.277 754,175.5C 754.5,185.161 754.666,194.828 754.5,204.5C 750.167,204.5 745.833,204.5 741.5,204.5C 741.17,184.993 741.503,165.659 742.5,146.5 Z"/></g>
<g><path style="opacity:0.247" fill="#d8d8d8" d="M 523.5,142.5 C 524.785,145.589 525.451,148.922 525.5,152.5C 525.167,152.5 524.833,152.5 524.5,152.5C 523.949,149.193 523.616,145.86 523.5,142.5 Z"/></g>
<g><path style="opacity:0.416" fill="#c4c4c5" d="M 732.5,196.5 C 732.5,175.5 732.5,154.5 732.5,133.5C 728.5,133.5 724.5,133.5 720.5,133.5C 720.83,152.341 720.497,171.007 719.5,189.5C 719.333,170.497 719.5,151.497 720,132.5C 724.079,131.371 728.245,131.204 732.5,132C 733.831,153.598 733.831,175.098 732.5,196.5 Z"/></g>
<g><path style="opacity:0.004" fill="#fdfefd" d="M 746.5,150.5 C 745.833,151.167 745.833,151.167 746.5,150.5 Z"/></g>
<g><path style="opacity:0.232" fill="#dfdfdf" d="M 803.5,149.5 C 808.5,149.5 813.5,149.5 818.5,149.5C 818.5,168.167 818.5,186.833 818.5,205.5C 813.5,205.5 808.5,205.5 803.5,205.5C 803.5,186.833 803.5,168.167 803.5,149.5 Z"/></g>
<g><path style="opacity:0.004" fill="#fefefe" d="M 335.5,151.5 C 341.537,151.171 347.537,151.504 353.5,152.5C 353.376,153.107 353.043,153.44 352.5,153.5C 347.104,152.926 341.437,152.259 335.5,151.5 Z"/></g>
<g><path style="opacity:0.195" fill="#ece3d8" d="M 449.5,151.5 C 441.016,152.493 432.349,152.826 423.5,152.5C 423.67,153.822 423.337,154.989 422.5,156C 430.344,156.171 438.011,156.671 445.5,157.5C 437.5,157.5 429.5,157.5 421.5,157.5C 421.357,155.738 421.691,154.071 422.5,152.5C 431.475,151.502 440.475,151.168 449.5,151.5 Z"/></g>
<g><path style="opacity:0.004" fill="#fdfefd" d="M 378.5,152.5 C 379.833,153.167 379.833,153.167 378.5,152.5 Z"/></g>
<g><path style="opacity:1" fill="#c9ae74" d="M 77.5,198.5 C 77.1667,198.5 76.8333,198.5 76.5,198.5C 75.5655,197.432 75.2322,196.099 75.5,194.5C 75.5,193.833 75.5,193.167 75.5,192.5C 76.6609,178.006 76.8276,163.339 76,148.5C 75.8195,151.695 75.3195,154.695 74.5,157.5C 74.1778,151.642 74.5111,145.975 75.5,140.5C 76.3171,138.031 76.8171,135.365 77,132.5C 77.5,154.497 77.6666,176.497 77.5,198.5 Z"/></g>
<g><path style="opacity:1" fill="#96672d" d="M 107.5,142.5 C 107.942,143.231 108.109,144.231 108,145.5C 108.654,144.304 109.154,144.304 109.5,145.5C 109.023,146.478 108.357,147.311 107.5,148C 108.167,148.333 108.833,148.667 109.5,149C 107.487,150.791 107.487,152.125 109.5,153C 108.167,154 108.167,155 109.5,156C 107.487,157.791 107.487,159.125 109.5,160C 107.487,161.791 107.487,163.125 109.5,164C 107.109,165.309 107.109,166.309 109.5,167C 107.487,168.791 107.487,170.125 109.5,171C 108.167,172.667 108.167,174.333 109.5,176C 107.487,177.791 107.487,179.125 109.5,180C 107.487,181.791 107.487,183.125 109.5,184C 107.109,185.309 107.109,186.309 109.5,187C 107.487,188.791 107.487,190.125 109.5,191C 107.487,192.791 107.487,194.125 109.5,195C 107.109,196.309 107.109,197.309 109.5,198C 108.692,199.706 107.359,200.539 105.5,200.5C 104.738,198.738 103.404,197.738 101.5,197.5C 101.446,195.368 100.446,194.035 98.5,193.5C 97.6618,193.158 97.3284,192.492 97.5,191.5C 95.8982,185.283 95.2315,178.949 95.5,172.5C 93.5853,172.784 91.9187,172.451 90.5,171.5C 90.5,170.833 90.5,170.167 90.5,169.5C 92.1628,167.562 92.8294,165.228 92.5,162.5C 94.6744,159.485 96.3411,156.151 97.5,152.5C 99.2624,151.738 100.262,150.404 100.5,148.5C 100.833,147.5 101.5,146.833 102.5,146.5C 104.167,145.167 105.833,143.833 107.5,142.5 Z"/></g>
<g><path style="opacity:0.999" fill="#efe397" d="M 303.5,135.5 C 302.106,138.858 301.439,142.191 301.5,145.5C 301.977,146.478 302.643,147.311 303.5,148C 302.833,148.333 302.167,148.667 301.5,149C 303.513,150.791 303.513,152.125 301.5,153C 303.441,154.816 304.108,156.816 303.5,159C 302.833,159.333 302.167,159.667 301.5,160C 302.411,162.415 304.078,163.915 306.5,164.5C 306.5,165.5 306.5,166.5 306.5,167.5C 305.662,167.842 305.328,168.508 305.5,169.5C 305.167,169.5 304.833,169.5 304.5,169.5C 303.596,170.209 303.263,171.209 303.5,172.5C 305.099,172.232 306.432,172.566 307.5,173.5C 305.712,173.215 304.045,173.548 302.5,174.5C 302.723,175.967 303.056,177.467 303.5,179C 302.833,179.333 302.167,179.667 301.5,180C 303.513,181.791 303.513,183.125 301.5,184C 303.891,185.309 303.891,186.309 301.5,187C 302.598,187.77 302.598,188.603 301.5,189.5C 301.5,189.833 301.5,190.167 301.5,190.5C 299.127,192.579 297.794,195.246 297.5,198.5C 297.068,199.71 296.401,200.71 295.5,201.5C 290.26,202.449 284.927,202.782 279.5,202.5C 279.747,198.383 279.414,194.383 278.5,190.5C 279.227,188.046 280.227,185.713 281.5,183.5C 282.774,180.24 284.44,177.24 286.5,174.5C 287.043,174.44 287.376,174.107 287.5,173.5C 285.668,172.943 284.335,171.943 283.5,170.5C 283.328,169.508 283.662,168.842 284.5,168.5C 286.588,166.664 287.921,164.331 288.5,161.5C 292.709,152.312 297.709,143.645 303.5,135.5 Z"/></g>
<g><path style="opacity:0.999" fill="#6d6d6d" d="M 524.5,152.5 C 524.833,152.5 525.167,152.5 525.5,152.5C 527.956,164.016 530.29,175.683 532.5,187.5C 532.5,188.167 532.167,188.5 531.5,188.5C 527.907,187.847 524.241,187.014 520.5,186C 521.167,185.333 521.833,184.667 522.5,184C 521.998,178.416 521.998,172.749 522.5,167C 520.109,166.309 520.109,165.309 522.5,164C 521.167,162.667 521.167,161.333 522.5,160C 521.833,159.667 521.167,159.333 520.5,159C 522.014,157.561 522.347,156.061 521.5,154.5C 522.602,153.824 523.602,153.158 524.5,152.5 Z"/></g>
<g><path style="opacity:0.584" fill="#e1d2b9" d="M 138.5,153.5 C 140.749,154.08 142.415,155.413 143.5,157.5C 141.251,156.92 139.585,155.587 138.5,153.5 Z"/></g>
<g><path style="opacity:1" fill="#ceb672" d="M 350.5,134.5 C 352.498,135.148 354.498,135.981 356.5,137C 356.112,141.193 356.112,145.527 356.5,150C 354.006,152.244 354.006,154.577 356.5,157C 355.835,171.999 355.835,187.166 356.5,202.5C 353.167,202.5 349.833,202.5 346.5,202.5C 347.486,198.557 348.152,194.557 348.5,190.5C 349.367,184.701 350.7,179.034 352.5,173.5C 353.043,173.44 353.376,173.107 353.5,172.5C 352.311,171.571 350.978,171.238 349.5,171.5C 349.5,170.5 349.5,169.5 349.5,168.5C 350.341,163.468 351.341,158.468 352.5,153.5C 353.043,153.44 353.376,153.107 353.5,152.5C 347.537,151.504 341.537,151.171 335.5,151.5C 336.369,149.283 336.702,146.95 336.5,144.5C 336.232,142.901 336.566,141.568 337.5,140.5C 338.738,138.786 339.405,136.786 339.5,134.5C 343.167,134.5 346.833,134.5 350.5,134.5 Z"/></g>
<g><path style="opacity:0.004" fill="#fdfefd" d="M 444.5,154.5 C 445.833,155.167 445.833,155.167 444.5,154.5 Z"/></g>
<g><path style="opacity:0.051" fill="#ebebeb" d="M 499.5,149.5 C 499.785,152.829 499.118,155.829 497.5,158.5C 497.42,155.219 498.087,152.219 499.5,149.5 Z"/></g>
<g><path style="opacity:0.431" fill="#cbcbcb" d="M 581.5,140.5 C 583.026,141.105 584.026,142.271 584.5,144C 583.869,147.719 583.703,151.553 584,155.5C 579.263,156.469 574.43,156.803 569.5,156.5C 569.5,153.5 569.5,150.5 569.5,147.5C 570.473,149.948 570.806,152.615 570.5,155.5C 574.5,155.5 578.5,155.5 582.5,155.5C 582.779,150.405 582.445,145.405 581.5,140.5 Z"/></g>
<g><path style="opacity:0.422" fill="#c9cacb" d="M 631.5,140.5 C 632.117,140.611 632.617,140.944 633,141.5C 633.499,146.489 633.666,151.489 633.5,156.5C 628.833,156.5 624.167,156.5 619.5,156.5C 619.658,153.098 619.324,149.764 618.5,146.5C 619.117,146.611 619.617,146.944 620,147.5C 620.497,150.146 620.664,152.813 620.5,155.5C 624.5,155.5 628.5,155.5 632.5,155.5C 632.726,150.438 632.392,145.438 631.5,140.5 Z"/></g>
<g><path style="opacity:0.863" fill="#b7b7b8" d="M 744.5,152.5 C 746.065,154.509 747.065,156.843 747.5,159.5C 745.166,157.824 744.166,155.491 744.5,152.5 Z"/></g>
<g><path style="opacity:0.263" fill="#e3d5c6" d="M 97.5,152.5 C 96.3411,156.151 94.6744,159.485 92.5,162.5C 93.1266,158.58 94.7933,155.247 97.5,152.5 Z"/></g>
<g><path style="opacity:1" fill="#dac67d" d="M 314.5,134.5 C 318.833,134.5 323.167,134.5 327.5,134.5C 327.62,147.246 328.62,159.912 330.5,172.5C 332.5,172.5 334.5,172.5 336.5,172.5C 337.643,179.407 338.31,186.407 338.5,193.5C 338.5,196.5 338.5,199.5 338.5,202.5C 330.648,202.825 322.982,202.492 315.5,201.5C 316.497,201.53 317.164,201.03 317.5,200C 317.403,178.618 317.403,157.618 317.5,137C 316.429,136.148 315.429,135.315 314.5,134.5 Z"/></g>
<g><path style="opacity:0.004" fill="#fdfefd" d="M 766.5,157.5 C 767.833,158.167 767.833,158.167 766.5,157.5 Z"/></g>
<g><path style="opacity:0.004" fill="#ece4d8" d="M 119.5,157.5 C 119.262,159.404 118.262,160.738 116.5,161.5C 116.738,159.596 117.738,158.262 119.5,157.5 Z"/></g>
<g><path style="opacity:0.38" fill="#cecece" d="M 513.5,161.5 C 512.833,160.5 512.167,159.5 511.5,158.5C 511.369,157.761 511.536,157.094 512,156.5C 513.269,157.905 513.769,159.571 513.5,161.5 Z"/></g>
<g><path style="opacity:0.039" fill="#eee6d8" d="M 399.5,150.5 C 398.786,156.751 397.452,162.751 395.5,168.5C 395.959,162.191 397.293,156.191 399.5,150.5 Z"/></g>
<g><path style="opacity:1" fill="#976a2f" d="M 444.5,159.5 C 444.5,161.167 444.5,162.833 444.5,164.5C 443.076,166.515 442.41,168.848 442.5,171.5C 438.817,173.481 434.817,173.981 430.5,173C 430.241,169.364 430.575,165.531 431.5,161.5C 430.619,160.029 429.286,159.196 427.5,159C 433.349,158.182 439.015,158.348 444.5,159.5 Z"/></g>
<g><path style="opacity:0.004" fill="#fdfefd" d="M 767.5,159.5 C 768.833,160.167 768.833,160.167 767.5,159.5 Z"/></g>
<g><path style="opacity:0.055" fill="#eee5cf" d="M 182.5,157.5 C 182.5,158.833 182.5,160.167 182.5,161.5C 184.5,161.167 186.5,160.833 188.5,160.5C 188.5,160.833 188.5,161.167 188.5,161.5C 186.283,162.369 183.95,162.702 181.5,162.5C 181.216,160.585 181.549,158.919 182.5,157.5 Z"/></g>
<g><path style="opacity:0.298" fill="#e8ded1" d="M 445.5,157.5 C 446.097,157.735 446.43,158.235 446.5,159C 446.046,161.03 445.38,162.863 444.5,164.5C 444.5,162.833 444.5,161.167 444.5,159.5C 445.338,159.158 445.672,158.492 445.5,157.5 Z"/></g>
<g><path style="opacity:0.161" fill="#e3e3e4" d="M 605.5,190.5 C 604.339,176.006 604.172,161.339 605,146.5C 606.356,145.62 607.856,145.286 609.5,145.5C 609.5,141.5 609.5,137.5 609.5,133.5C 606.482,133.335 603.482,133.502 600.5,134C 597.667,136.833 594.833,139.667 592,142.5C 591.333,160.167 591.333,177.833 592,195.5C 594.04,197.37 595.873,199.37 597.5,201.5C 594.944,200.457 592.777,198.79 591,196.5C 590.333,178.167 590.333,159.833 591,141.5C 593.833,138.667 596.667,135.833 599.5,133C 603.026,131.663 606.692,131.163 610.5,131.5C 610.5,136.5 610.5,141.5 610.5,146.5C 608.856,146.286 607.356,146.62 606,147.5C 605.5,161.829 605.333,176.163 605.5,190.5 Z"/></g>
<g><path style="opacity:0.022" fill="#fbf8ee" d="M 307.5,160.5 C 308.167,164.5 308.833,168.5 309.5,172.5C 310.978,172.238 312.311,172.571 313.5,173.5C 311.364,174.793 309.364,174.793 307.5,173.5C 306.432,172.566 305.099,172.232 303.5,172.5C 303.263,171.209 303.596,170.209 304.5,169.5C 304.833,172.167 305.167,172.167 305.5,169.5C 306.338,169.158 306.672,168.492 306.5,167.5C 307.833,166.5 307.833,165.5 306.5,164.5C 306.833,163.167 307.167,161.833 307.5,160.5 Z"/></g>
<g><path style="opacity:0.607" fill="#efe6b9" d="M 309.5,172.5 C 308.833,168.5 308.167,164.5 307.5,160.5C 307.369,159.624 307.702,158.957 308.5,158.5C 309.493,163.12 309.827,167.786 309.5,172.5 Z"/></g>
<g><path style="opacity:0.004" fill="#faf7ed" d="M 213.5,161.5 C 213.573,163.027 212.906,164.027 211.5,164.5C 211.427,162.973 212.094,161.973 213.5,161.5 Z"/></g>
<g><path style="opacity:0.195" fill="#e2e2e2" d="M 555.5,147.5 C 555.333,161.504 555.5,175.504 556,189.5C 557.622,190.099 559.122,190.766 560.5,191.5C 559.167,191.5 557.833,191.5 556.5,191.5C 555.883,191.389 555.383,191.056 555,190.5C 554.173,175.994 554.339,161.661 555.5,147.5 Z"/></g>
<g><path style="opacity:0.09" fill="#e9e9ea" d="M 747.5,159.5 C 748.931,160.78 749.598,162.447 749.5,164.5C 748.069,163.22 747.402,161.553 747.5,159.5 Z"/></g>
<g><path style="opacity:0.596" fill="#c5c5c5" d="M 765.5,158.5 C 765.833,158.5 766.167,158.5 766.5,158.5C 766.328,159.492 766.662,160.158 767.5,160.5C 767.833,162.5 768.167,164.5 768.5,166.5C 766.415,164.316 765.415,161.649 765.5,158.5 Z"/></g>
<g><path style="opacity:0.051" fill="#f6f1dc" d="M 226.5,159.5 C 226.091,163.876 225.425,168.21 224.5,172.5C 225.833,172.5 227.167,172.5 228.5,172.5C 228.706,175.495 228.04,178.162 226.5,180.5C 226.674,178.139 227.007,175.806 227.5,173.5C 226.167,173.5 224.833,173.5 223.5,173.5C 223.581,168.523 224.581,163.857 226.5,159.5 Z"/></g>
<g><path style="opacity:0.122" fill="#fcfaeb" d="M 288.5,161.5 C 287.921,164.331 286.588,166.664 284.5,168.5C 285.079,165.669 286.412,163.336 288.5,161.5 Z"/></g>
<g><path style="opacity:0.741" fill="#d9c7b3" d="M 92.5,162.5 C 92.8294,165.228 92.1628,167.562 90.5,169.5C 90.4095,166.848 91.0762,164.515 92.5,162.5 Z"/></g>
<g><path style="opacity:0.451" fill="#dfd0bc" d="M 115.5,163.5 C 114.862,165.46 114.862,167.293 115.5,169C 114.906,169.464 114.239,169.631 113.5,169.5C 113.259,167.102 113.926,165.102 115.5,163.5 Z"/></g>
<g><path style="opacity:0.022" fill="#f0f0f0" d="M 749.5,164.5 C 750.931,165.78 751.598,167.447 751.5,169.5C 750.069,168.22 749.402,166.553 749.5,164.5 Z"/></g>
<g><path style="opacity:0.145" fill="#dadadb" d="M 751.5,160.5 C 754.296,165.105 756.296,170.105 757.5,175.5C 757.167,175.5 756.833,175.5 756.5,175.5C 754.547,170.594 752.88,165.594 751.5,160.5 Z"/></g>
<g><path style="opacity:0.145" fill="#f4eede" d="M 349.5,168.5 C 349.5,169.5 349.5,170.5 349.5,171.5C 350.978,171.238 352.311,171.571 353.5,172.5C 353.376,173.107 353.043,173.44 352.5,173.5C 351.432,172.566 350.099,172.232 348.5,172.5C 348.232,170.901 348.566,169.568 349.5,168.5 Z"/></g>
<g><path style="opacity:0.995" fill="#c0a35f" d="M 359.5,134.5 C 365.167,134.5 370.833,134.5 376.5,134.5C 377.355,135.531 378.022,136.697 378.5,138C 377.529,141.98 377.195,145.814 377.5,149.5C 383.463,150.496 389.463,150.829 395.5,150.5C 395.338,148.473 395.505,146.473 396,144.5C 396.383,143.944 396.883,143.611 397.5,143.5C 396.908,146.127 396.575,148.794 396.5,151.5C 390.31,151.177 384.31,151.51 378.5,152.5C 377.5,152.833 376.833,153.5 376.5,154.5C 374.676,159.936 373.342,165.603 372.5,171.5C 373.5,171.5 374.5,171.5 375.5,171.5C 375.5,173.167 375.5,174.833 375.5,176.5C 375.5,176.833 375.5,177.167 375.5,177.5C 372.757,184.818 371.091,192.485 370.5,200.5C 368.544,202.148 366.211,202.815 363.5,202.5C 362.832,180.499 362.832,158.666 363.5,137C 362.142,136.066 360.808,135.232 359.5,134.5 Z"/></g>
<g><path style="opacity:0.192" fill="#efe6d4" d="M 376.5,154.5 C 376.196,159.829 375.196,164.996 373.5,170C 377.827,170.905 378.494,173.072 375.5,176.5C 375.5,174.833 375.5,173.167 375.5,171.5C 374.5,171.5 373.5,171.5 372.5,171.5C 373.342,165.603 374.676,159.936 376.5,154.5 Z"/></g>
<g><path style="opacity:0.004" fill="#fdfefd" d="M 493.5,170.5 C 494.833,171.167 494.833,171.167 493.5,170.5 Z"/></g>
<g><path style="opacity:1" fill="#d7c284" d="M 82.5,151.5 C 83.2869,159.822 83.9535,168.156 84.5,176.5C 83.7784,176.082 83.2784,175.416 83,174.5C 82.5002,184.161 82.3335,193.828 82.5,203.5C 82.1667,203.5 81.8333,203.5 81.5,203.5C 81.17,185.992 81.5033,168.659 82.5,151.5 Z"/></g>
<g><path style="opacity:0.198" fill="#efe8d9" d="M 156.5,167.5 C 156.5,168.833 156.5,170.167 156.5,171.5C 157.791,171.263 158.791,171.596 159.5,172.5C 158.167,172.5 156.833,172.5 155.5,172.5C 155.216,170.585 155.549,168.919 156.5,167.5 Z"/></g>
<g><path style="opacity:0.808" fill="#efe6ca" d="M 208.5,166.5 C 208.833,166.5 209.167,166.5 209.5,166.5C 208.974,169.76 207.974,173.094 206.5,176.5C 205.522,176.189 204.855,175.522 204.5,174.5C 205.833,173.5 205.833,172.5 204.5,171.5C 205.857,169.814 207.19,168.148 208.5,166.5 Z"/></g>
<g><path style="opacity:0.207" fill="#d8d8d8" d="M 509.5,169.5 C 509.5,170.5 509.5,171.5 509.5,172.5C 504.637,172.819 499.97,172.486 495.5,171.5C 500.48,172.015 505.146,171.348 509.5,169.5 Z"/></g>
<g><path style="opacity:0.388" fill="#ddcebc" d="M 90.5,171.5 C 91.9187,172.451 93.5853,172.784 95.5,172.5C 95.2315,178.949 95.8982,185.283 97.5,191.5C 96.207,190.158 95.3736,188.491 95,186.5C 94.501,182.179 94.3343,177.846 94.5,173.5C 92.712,173.785 91.0453,173.452 89.5,172.5C 89.6236,171.893 89.9569,171.56 90.5,171.5 Z"/></g>
<g><path style="opacity:0.367" fill="#fbf8e0" d="M 283.5,170.5 C 284.335,171.943 285.668,172.943 287.5,173.5C 287.376,174.107 287.043,174.44 286.5,174.5C 285.375,173.986 284.209,173.653 283,173.5C 282.26,172.251 282.427,171.251 283.5,170.5 Z"/></g>
<g><path style="opacity:0.453" fill="#e2d5c5" d="M 444.5,164.5 C 444.25,167.214 444.083,169.881 444,172.5C 445,171.167 446,171.167 447,172.5C 447.692,173.437 447.525,174.103 446.5,174.5C 444.781,173.978 443.448,172.978 442.5,171.5C 442.41,168.848 443.076,166.515 444.5,164.5 Z"/></g>
<g><path style="opacity:0.004" fill="#fdfefd" d="M 493.5,172.5 C 494.833,173.167 494.833,173.167 493.5,172.5 Z"/></g>
<g><path style="opacity:0.427" fill="#d7c5ac" d="M 446.5,174.5 C 438.684,175.492 430.684,175.826 422.5,175.5C 422.435,178.428 421.768,181.095 420.5,183.5C 420.508,180.455 420.841,177.455 421.5,174.5C 429.833,174.5 438.167,174.5 446.5,174.5 Z"/></g>
<g><path style="opacity:0.004" fill="#fdfefd" d="M 150.5,175.5 C 151.833,176.167 151.833,176.167 150.5,175.5 Z"/></g>
<g><path style="opacity:0.008" fill="#fdfefd" d="M 338.5,175.5 C 339.833,176.167 339.833,176.167 338.5,175.5 Z"/></g>
<g><path style="opacity:0.521" fill="#adacac" d="M 515.5,172.5 C 516.434,173.568 516.768,174.901 516.5,176.5C 509.167,176.5 501.833,176.5 494.5,176.5C 494.737,177.791 494.404,178.791 493.5,179.5C 493.5,178.167 493.5,176.833 493.5,175.5C 500.833,175.5 508.167,175.5 515.5,175.5C 515.5,174.5 515.5,173.5 515.5,172.5 Z"/></g>
<g><path style="opacity:0.004" fill="#fdfefd" d="M 756.5,175.5 C 755.833,176.167 755.833,176.167 756.5,175.5 Z"/></g>
<g><path style="opacity:0.004" fill="#fdfefd" d="M 154.5,179.5 C 155.833,180.167 155.833,180.167 154.5,179.5 Z"/></g>
<g><path style="opacity:0.039" fill="#eae0ce" d="M 395.5,168.5 C 395.5,169.833 395.5,171.167 395.5,172.5C 396.833,172.5 398.167,172.5 399.5,172.5C 399.318,176.489 398.318,180.156 396.5,183.5C 396.467,180.164 397.134,176.997 398.5,174C 397.207,173.51 395.873,173.343 394.5,173.5C 394.216,171.585 394.549,169.919 395.5,168.5 Z"/></g>
<g><path style="opacity:0.075" fill="#e8ddce" d="M 113.5,169.5 C 114.552,171.256 116.219,171.923 118.5,171.5C 117.954,180.955 122.288,185.288 131.5,184.5C 129.393,185.468 127.059,185.802 124.5,185.5C 119.641,183.132 117.308,179.132 117.5,173.5C 115.833,173.5 114.167,173.5 112.5,173.5C 112.232,171.901 112.566,170.568 113.5,169.5 Z"/></g>
<g><path style="opacity:0.039" fill="#efe7d7" d="M 375.5,177.5 C 374.594,185.442 372.928,193.109 370.5,200.5C 371.091,192.485 372.757,184.818 375.5,177.5 Z"/></g>
<g><path style="opacity:0.999" fill="#b28e52" d="M 152.5,181.5 C 150.854,186.726 149.187,192.06 147.5,197.5C 144.941,198.608 142.608,199.941 140.5,201.5C 131.678,205.383 122.678,206.05 113.5,203.5C 118.511,203.666 123.511,203.499 128.5,203C 127.833,202.333 127.167,201.667 126.5,201C 126.888,196.527 126.888,192.193 126.5,188C 128.167,187.667 129.833,187.333 131.5,187C 128.964,186.814 126.631,186.314 124.5,185.5C 127.059,185.802 129.393,185.468 131.5,184.5C 136.043,183.231 140.376,181.397 144.5,179C 147.554,178.179 150.554,178.345 153.5,179.5C 153.137,180.183 152.804,180.85 152.5,181.5 Z"/></g>
<g><path style="opacity:1" fill="#aa8447" d="M 75.5,192.5 C 74.5658,181.205 74.2325,169.871 74.5,158.5C 74.5,158.167 74.5,157.833 74.5,157.5C 75.3195,154.695 75.8195,151.695 76,148.5C 76.8276,163.339 76.6609,178.006 75.5,192.5 Z"/></g>
<g><path style="opacity:0.999" fill="#787879" d="M 570.5,181.5 C 574.5,181.5 578.5,181.5 582.5,181.5C 582.5,186.5 582.5,191.5 582.5,196.5C 580.167,199.5 577.5,202.167 574.5,204.5C 571.167,204.5 567.833,204.5 564.5,204.5C 564.5,200.167 564.5,195.833 564.5,191.5C 566.467,191.739 568.301,191.406 570,190.5C 570.498,187.518 570.665,184.518 570.5,181.5 Z"/></g>
<g><path style="opacity:0.609" fill="#d3d4d4" d="M 582.5,196.5 C 582.5,191.5 582.5,186.5 582.5,181.5C 578.5,181.5 574.5,181.5 570.5,181.5C 575.053,180.563 579.719,180.063 584.5,180C 584.202,182.929 584.202,185.929 584.5,189C 584.133,191.708 583.466,194.208 582.5,196.5 Z"/></g>
<g><path style="opacity:0.452" fill="#e0e1e1" d="M 624.5,204.5 C 626.388,201.101 628.888,198.101 632,195.5C 632.499,190.845 632.666,186.179 632.5,181.5C 628.5,181.5 624.5,181.5 620.5,181.5C 620.664,184.187 620.497,186.854 620,189.5C 619.617,190.056 619.117,190.389 618.5,190.5C 618.488,187.412 618.821,184.245 619.5,181C 624.155,180.501 628.821,180.334 633.5,180.5C 636.078,190.854 633.078,198.854 624.5,204.5 Z"/></g>
<g><path style="opacity:1" fill="#888a8c" d="M 624.5,204.5 C 621.167,204.5 617.833,204.5 614.5,204.5C 614.5,200.167 614.5,195.833 614.5,191.5C 615.568,190.566 616.901,190.232 618.5,190.5C 619.117,190.389 619.617,190.056 620,189.5C 620.497,186.854 620.664,184.187 620.5,181.5C 624.5,181.5 628.5,181.5 632.5,181.5C 632.666,186.179 632.499,190.845 632,195.5C 628.888,198.101 626.388,201.101 624.5,204.5 Z"/></g>
<g><path style="opacity:0.008" fill="#fdfefd" d="M 154.5,183.5 C 155.833,184.167 155.833,184.167 154.5,183.5 Z"/></g>
<g><path style="opacity:0.335" fill="#e4d8ca" d="M 74.5,158.5 C 74.2325,169.871 74.5658,181.205 75.5,192.5C 75.5,193.167 75.5,193.833 75.5,194.5C 74.71,193.391 74.21,192.058 74,190.5C 73.1745,179.659 73.3412,168.992 74.5,158.5 Z"/></g>
<g><path style="opacity:0.062" fill="#fdfbee" d="M 274.5,161.5 C 274.232,164.74 273.566,167.906 272.5,171C 274.129,170.872 275.462,171.872 276.5,174C 275.991,175.169 275.158,176.002 274,176.5C 266.516,176.294 259.016,176.294 251.5,176.5C 250.992,179.176 250.825,181.843 251,184.5C 251.333,184.167 251.667,183.833 252,183.5C 259.932,184.152 267.765,184.819 275.5,185.5C 266.833,185.5 258.167,185.5 249.5,185.5C 249.5,184.5 249.5,183.5 249.5,182.5C 249.466,179.801 250.133,177.301 251.5,175C 260.885,174.948 267.552,174.448 271.5,173.5C 271.584,169.163 272.584,165.163 274.5,161.5 Z"/></g>
<g><path style="opacity:0.046" fill="#f3ede6" d="M 420.5,184.5 C 429.167,184.5 437.833,184.5 446.5,184.5C 446.041,190.809 444.707,196.809 442.5,202.5C 442.5,201.833 442.5,201.167 442.5,200.5C 443.185,195.761 444.185,191.095 445.5,186.5C 437.167,185.833 428.833,185.167 420.5,184.5 Z"/></g>
<g><path style="opacity:0.086" fill="#f8f4e4" d="M 226.5,180.5 C 226.706,183.495 226.04,186.162 224.5,188.5C 224.565,185.572 225.232,182.905 226.5,180.5 Z"/></g>
<g><path style="opacity:0.674" fill="#f7f0bc" d="M 249.5,182.5 C 249.5,183.5 249.5,184.5 249.5,185.5C 258.167,185.5 266.833,185.5 275.5,185.5C 275.5,185.833 275.5,186.167 275.5,186.5C 275.5,186.833 275.5,187.167 275.5,187.5C 275.167,187.5 274.833,187.5 274.5,187.5C 266.016,186.507 257.349,186.174 248.5,186.5C 248.232,184.901 248.566,183.568 249.5,182.5 Z"/></g>
<g><path style="opacity:0.646" fill="#bda079" d="M 420.5,183.5 C 420.5,183.833 420.5,184.167 420.5,184.5C 428.833,185.167 437.167,185.833 445.5,186.5C 440.5,186.5 435.5,186.5 430.5,186.5C 426.833,186.5 423.167,186.5 419.5,186.5C 419.263,185.209 419.596,184.209 420.5,183.5 Z"/></g>
<g><path style="opacity:0.004" fill="#fdfefd" d="M 755.5,186.5 C 756.833,187.167 756.833,187.167 755.5,186.5 Z"/></g>
<g><path style="opacity:0.004" fill="#fdfefd" d="M 759.5,186.5 C 760.833,187.167 760.833,187.167 759.5,186.5 Z"/></g>
<g><path style="opacity:1" fill="#96682d" d="M 430.5,186.5 C 435.5,186.5 440.5,186.5 445.5,186.5C 444.185,191.095 443.185,195.761 442.5,200.5C 439.169,202.298 435.502,202.964 431.5,202.5C 430.642,197.334 430.308,192 430.5,186.5 Z"/></g>
<g><path style="opacity:0.878" fill="#777776" d="M 805.5,150.5 C 805.5,168.167 805.5,185.833 805.5,203.5C 809.167,203.5 812.833,203.5 816.5,203.5C 816.5,185.833 816.5,168.167 816.5,150.5C 817.497,168.326 817.83,186.326 817.5,204.5C 813.167,204.5 808.833,204.5 804.5,204.5C 804.17,186.326 804.503,168.326 805.5,150.5 Z"/></g>
<g><path style="opacity:1" fill="#575756" d="M 805.5,150.5 C 809.167,150.5 812.833,150.5 816.5,150.5C 816.5,168.167 816.5,185.833 816.5,203.5C 812.833,203.5 809.167,203.5 805.5,203.5C 805.5,185.833 805.5,168.167 805.5,150.5 Z"/></g>
<g><path style="opacity:0.004" fill="#fdfefd" d="M 152.5,188.5 C 153.833,189.167 153.833,189.167 152.5,188.5 Z"/></g>
<g><path style="opacity:0.118" fill="#f5f0e3" d="M 182.5,183.5 C 183.737,184.965 184.737,186.632 185.5,188.5C 186.11,189.391 186.443,190.391 186.5,191.5C 184.127,189.421 182.794,186.754 182.5,183.5 Z"/></g>
<g><path style="opacity:0.169" fill="#d9d9d9" d="M 532.5,187.5 C 533.043,187.56 533.376,187.893 533.5,188.5C 524.19,189.498 514.857,189.832 505.5,189.5C 505.261,194.769 504.261,199.769 502.5,204.5C 502.777,199.114 503.444,193.781 504.5,188.5C 513.5,188.5 522.5,188.5 531.5,188.5C 532.167,188.5 532.5,188.167 532.5,187.5 Z"/></g>
<g><path style="opacity:0.004" fill="#fdfefd" d="M 755.5,188.5 C 756.833,189.167 756.833,189.167 755.5,188.5 Z"/></g>
<g><path style="opacity:0.004" fill="#fdfefd" d="M 508.5,191.5 C 509.946,190.387 511.613,190.22 513.5,191C 511.866,191.494 510.199,191.66 508.5,191.5 Z"/></g>
<g><path style="opacity:0.004" fill="#fdfefd" d="M 514.5,191.5 C 515.251,190.427 516.251,190.26 517.5,191C 516.552,191.483 515.552,191.649 514.5,191.5 Z"/></g>
<g><path style="opacity:0.004" fill="#fdfefd" d="M 518.5,190.5 C 519.833,191.167 519.833,191.167 518.5,190.5 Z"/></g>
<g><path style="opacity:1" fill="#bb9b59" d="M 84.5,176.5 C 84.5,177.833 84.5,179.167 84.5,180.5C 85.1318,188.573 84.4651,196.24 82.5,203.5C 82.3335,193.828 82.5002,184.161 83,174.5C 83.2784,175.416 83.7784,176.082 84.5,176.5 Z"/></g>
<g><path style="opacity:0.235" fill="#d3d3d3" d="M 762.5,188.5 C 762.833,188.5 763.167,188.5 763.5,188.5C 765.453,193.406 767.12,198.406 768.5,203.5C 765.704,198.895 763.704,193.895 762.5,188.5 Z"/></g>
<g><path style="opacity:0.018" fill="#fefcef" d="M 281.5,183.5 C 280.227,185.713 279.227,188.046 278.5,190.5C 277.167,192.5 275.833,194.5 274.5,196.5C 273.68,198.14 272.847,199.807 272,201.5C 272.183,196.758 273.016,192.091 274.5,187.5C 274.833,187.5 275.167,187.5 275.5,187.5C 275.5,187.167 275.5,186.833 275.5,186.5C 277.745,185.904 279.745,184.904 281.5,183.5 Z"/></g>
<g><path style="opacity:0.122" fill="#e8e8e8" d="M 570.5,181.5 C 570.665,184.518 570.498,187.518 570,190.5C 568.301,191.406 566.467,191.739 564.5,191.5C 564.5,195.833 564.5,200.167 564.5,204.5C 567.833,204.5 571.167,204.5 574.5,204.5C 571.038,205.482 567.371,205.815 563.5,205.5C 563.5,200.5 563.5,195.5 563.5,190.5C 565.467,190.739 567.301,190.406 569,189.5C 569.183,186.635 569.683,183.969 570.5,181.5 Z"/></g>
<g><path style="opacity:0.475" fill="#d0d1d1" d="M 605.5,190.5 C 607.167,190.5 608.833,190.5 610.5,190.5C 610.5,195.5 610.5,200.5 610.5,205.5C 606.958,205.813 603.625,205.479 600.5,204.5C 603.5,204.5 606.5,204.5 609.5,204.5C 609.5,200.167 609.5,195.833 609.5,191.5C 607.901,191.768 606.568,191.434 605.5,190.5 Z"/></g>
<g><path style="opacity:0.207" fill="#dcddde" d="M 669.5,190.5 C 668.365,192.213 666.698,192.88 664.5,192.5C 664.5,196.5 664.5,200.5 664.5,204.5C 667.833,204.5 671.167,204.5 674.5,204.5C 671.038,205.482 667.371,205.815 663.5,205.5C 663.334,200.821 663.501,196.155 664,191.5C 665.699,190.594 667.533,190.261 669.5,190.5 Z"/></g>
<g><path style="opacity:0.197" fill="#e4e5e5" d="M 719.5,189.5 C 718.448,191.256 716.781,191.923 714.5,191.5C 714.5,195.833 714.5,200.167 714.5,204.5C 717.833,204.5 721.167,204.5 724.5,204.5C 721.038,205.482 717.371,205.815 713.5,205.5C 713.5,200.5 713.5,195.5 713.5,190.5C 715.621,190.675 717.621,190.341 719.5,189.5 Z"/></g>
<g><path style="opacity:0.2" fill="#faf7e6" d="M 301.5,190.5 C 300.674,193.485 299.341,196.151 297.5,198.5C 297.794,195.246 299.127,192.579 301.5,190.5 Z"/></g>
<g><path style="opacity:1" fill="#666666" d="M 534.5,196.5 C 535.451,197.919 535.784,199.585 535.5,201.5C 535.5,202.5 535.5,203.5 535.5,204.5C 531.167,204.5 526.833,204.5 522.5,204.5C 522.048,201.124 521.382,197.791 520.5,194.5C 524.783,193.508 529.116,193.174 533.5,193.5C 533.263,194.791 533.596,195.791 534.5,196.5 Z"/></g>
<g><path style="opacity:0.004" fill="#fdfefd" d="M 784.5,194.5 C 785.833,195.167 785.833,195.167 784.5,194.5 Z"/></g>
<g><path style="opacity:0.004" fill="#fdfefd" d="M 819.5,194.5 C 820.525,194.897 820.692,195.563 820,196.5C 819.536,195.906 819.369,195.239 819.5,194.5 Z"/></g>
<g><path style="opacity:0.753" fill="#d5c1a5" d="M 84.5,180.5 C 85.6313,188.314 86.298,196.314 86.5,204.5C 84.8333,204.5 83.1667,204.5 81.5,204.5C 81.5,204.167 81.5,203.833 81.5,203.5C 81.8333,203.5 82.1667,203.5 82.5,203.5C 84.4651,196.24 85.1318,188.573 84.5,180.5 Z"/></g>
<g><path style="opacity:0.635" fill="#cfb69a" d="M 98.5,193.5 C 100.446,194.035 101.446,195.368 101.5,197.5C 100.026,196.564 99.0256,195.23 98.5,193.5 Z"/></g>
<g><path style="opacity:0.302" fill="#ece2cb" d="M 182.5,183.5 C 180.348,189.77 178.348,196.103 176.5,202.5C 176.5,201.833 176.5,201.167 176.5,200.5C 176.5,199.167 176.5,197.833 176.5,196.5C 178.042,192.186 179.375,187.686 180.5,183C 181.487,181.128 182.154,181.295 182.5,183.5 Z"/></g>
<g><path style="opacity:0.169" fill="#eee6d7" d="M 152.5,181.5 C 152.261,183.467 152.594,185.301 153.5,187C 151.42,189.936 150.087,193.269 149.5,197C 147.053,199.557 144.053,201.057 140.5,201.5C 142.608,199.941 144.941,198.608 147.5,197.5C 149.187,192.06 150.854,186.726 152.5,181.5 Z"/></g>
<g><path style="opacity:0.192" fill="#f0e9dc" d="M 155.5,189.5 C 155.58,192.781 154.913,195.781 153.5,198.5C 153.42,195.219 154.087,192.219 155.5,189.5 Z"/></g>
<g><path style="opacity:0.004" fill="#fdfefd" d="M 784.5,197.5 C 785.833,198.167 785.833,198.167 784.5,197.5 Z"/></g>
<g><path style="opacity:0.443" fill="#decfbc" d="M 101.5,197.5 C 103.404,197.738 104.738,198.738 105.5,200.5C 103.596,200.262 102.262,199.262 101.5,197.5 Z"/></g>
<g><path style="opacity:0.039" fill="#e0e0e0" d="M 732.5,196.5 C 730.5,199.167 728.167,201.5 725.5,203.5C 726.833,200.167 729.167,197.833 732.5,196.5 Z"/></g>
<g><path style="opacity:0.004" fill="#fdfefd" d="M 784.5,199.5 C 785.833,200.167 785.833,200.167 784.5,199.5 Z"/></g>
<g><path style="opacity:0.004" fill="#fdfefd" d="M 561.5,201.5 C 562.833,202.167 562.833,202.167 561.5,201.5 Z"/></g>
<g><path style="opacity:0.004" fill="#fdfefd" d="M 611.5,201.5 C 612.833,202.167 612.833,202.167 611.5,201.5 Z"/></g>
<g><path style="opacity:0.004" fill="#fdfefd" d="M 784.5,201.5 C 785.833,202.167 785.833,202.167 784.5,201.5 Z"/></g>
<g><path style="opacity:0.192" fill="#faf7dd" d="M 76.5,198.5 C 76.8333,198.5 77.1667,198.5 77.5,198.5C 77.8333,198.5 78.1667,198.5 78.5,198.5C 79.9348,199.913 80.9348,201.58 81.5,203.5C 81.5,203.833 81.5,204.167 81.5,204.5C 80.1048,202.332 78.4381,200.332 76.5,198.5 Z"/></g>
<g><path style="opacity:0.597" fill="#d9c7a0" d="M 153.5,198.5 C 153.5,199.833 153.5,201.167 153.5,202.5C 161.441,203.081 169.108,202.414 176.5,200.5C 176.5,201.167 176.5,201.833 176.5,202.5C 168.684,203.492 160.684,203.826 152.5,203.5C 152.216,201.585 152.549,199.919 153.5,198.5 Z"/></g>
<g><path style="opacity:0.598" fill="#e5d8ab" d="M 218.5,198.5 C 219.338,198.842 219.672,199.508 219.5,200.5C 219.5,201.5 219.5,202.5 219.5,203.5C 213.167,203.5 206.833,203.5 200.5,203.5C 197.615,203.806 194.948,203.473 192.5,202.5C 193.5,202.5 194.5,202.5 195.5,202.5C 203.167,202.5 210.833,202.5 218.5,202.5C 218.5,201.167 218.5,199.833 218.5,198.5 Z"/></g>
<g><path style="opacity:0.412" fill="#fbf7df" d="M 295.5,201.5 C 295.03,202.693 294.03,203.36 292.5,203.5C 289.85,203.965 287.184,204.298 284.5,204.5C 263.828,204.67 243.161,204.337 222.5,203.5C 222.5,203.167 222.5,202.833 222.5,202.5C 230.167,202.5 237.833,202.5 245.5,202.5C 256.833,202.5 268.167,202.5 279.5,202.5C 284.927,202.782 290.26,202.449 295.5,201.5 Z"/></g>
<g><path style="opacity:0.388" fill="#f4eed6" d="M 301.5,190.5 C 301.5,190.167 301.5,189.833 301.5,189.5C 305.833,189.5 310.167,189.5 314.5,189.5C 315.162,193.466 315.495,197.466 315.5,201.5C 322.982,202.492 330.648,202.825 338.5,202.5C 338.5,199.5 338.5,196.5 338.5,193.5C 339.479,196.625 339.813,199.958 339.5,203.5C 331.327,203.683 322.994,203.683 314.5,203.5C 314.142,199.491 313.642,195.491 313,191.5C 309.603,191.65 305.77,191.317 301.5,190.5 Z"/></g>
<g><path style="opacity:0.597" fill="#e5d8b7" d="M 348.5,190.5 C 348.152,194.557 347.486,198.557 346.5,202.5C 349.833,202.5 353.167,202.5 356.5,202.5C 358.833,202.5 361.167,202.5 363.5,202.5C 366.211,202.815 368.544,202.148 370.5,200.5C 370.5,201.5 370.5,202.5 370.5,203.5C 362.167,203.5 353.833,203.5 345.5,203.5C 345.74,198.88 346.74,194.547 348.5,190.5 Z"/></g>
<g><path style="opacity:0.592" fill="#c9b08c" d="M 393.5,198.5 C 393.5,199.833 393.5,201.167 393.5,202.5C 398.5,202.5 403.5,202.5 408.5,202.5C 411.167,202.5 413.833,202.5 416.5,202.5C 421.5,202.5 426.5,202.5 431.5,202.5C 435.502,202.964 439.169,202.298 442.5,200.5C 442.5,201.167 442.5,201.833 442.5,202.5C 425.662,203.827 408.662,203.827 391.5,202.5C 391.994,200.974 392.661,199.641 393.5,198.5 Z"/></g>
<g><path style="opacity:0.004" fill="#fcfaf3" d="M 223.5,192.5 C 223.384,195.86 223.051,199.193 222.5,202.5C 222.5,202.833 222.5,203.167 222.5,203.5C 215.038,204.78 207.704,204.78 200.5,203.5C 206.833,203.5 213.167,203.5 219.5,203.5C 219.5,202.5 219.5,201.5 219.5,200.5C 220.222,200.918 220.722,201.584 221,202.5C 221.535,198.962 222.368,195.628 223.5,192.5 Z"/></g>
<g><path style="opacity:0.269" fill="#d5d4d4" d="M 489.5,199.5 C 489.5,201.167 489.5,202.833 489.5,204.5C 493.833,204.5 498.167,204.5 502.5,204.5C 498.019,205.648 493.352,205.815 488.5,205C 488.167,204.667 487.833,204.333 487.5,204C 488.099,202.378 488.766,200.878 489.5,199.5 Z"/></g>
<g><path style="opacity:0.267" fill="#d1d1d1" d="M 534.5,196.5 C 533.596,195.791 533.263,194.791 533.5,193.5C 529.116,193.174 524.783,193.508 520.5,194.5C 521.382,197.791 522.048,201.124 522.5,204.5C 526.833,204.5 531.167,204.5 535.5,204.5C 535.5,203.5 535.5,202.5 535.5,201.5C 536.434,202.568 536.768,203.901 536.5,205.5C 531.5,205.5 526.5,205.5 521.5,205.5C 520.575,201.21 519.909,196.876 519.5,192.5C 524.5,192.5 529.5,192.5 534.5,192.5C 534.5,193.833 534.5,195.167 534.5,196.5 Z"/></g>
<g><path style="opacity:0.246" fill="#dededf" d="M 614.5,191.5 C 614.5,195.833 614.5,200.167 614.5,204.5C 617.833,204.5 621.167,204.5 624.5,204.5C 621.038,205.482 617.371,205.815 613.5,205.5C 613.181,200.637 613.514,195.97 614.5,191.5 Z"/></g>
<g><path style="opacity:0.254" fill="#dfdfe0" d="M 705.5,190.5 C 708.346,190.03 710.679,190.863 712.5,193C 711.536,197.066 711.203,201.233 711.5,205.5C 707.629,205.815 703.962,205.482 700.5,204.5C 703.5,204.5 706.5,204.5 709.5,204.5C 709.5,200.167 709.5,195.833 709.5,191.5C 707.901,191.768 706.568,191.434 705.5,190.5 Z"/></g>
</svg>
